<svg width="1440" height="1024" viewBox="0 0 1440 1024" fill="none" xmlns="http://www.w3.org/2000/svg">
<g clip-path="url(#clip0_380_31392)">
<rect width="1440" height="1024" fill="#F4F4FB"/>
<g filter="url(#filter0_d_380_31392)">
<path d="M23.3437 217.819C34.7139 192.281 40.399 179.512 51.0679 171.484C55.7757 167.942 61.0696 165.127 66.6389 163.205C79.2602 158.849 93.0252 161.277 120.555 166.131C148.085 170.985 161.85 173.412 169.038 181.261C172.21 184.724 174.409 188.86 175.506 193.426C177.994 203.774 172.309 216.543 160.939 242.081C149.568 267.619 143.883 280.388 133.214 288.416C128.507 291.958 123.213 294.773 117.643 296.695C105.022 301.051 91.2571 298.624 63.727 293.769C36.1969 288.915 22.4319 286.488 15.2444 278.639C12.0728 275.176 9.87366 271.04 8.77596 266.474C6.28831 256.126 11.9734 243.357 23.3437 217.819Z" fill="white" shape-rendering="crispEdges"/>
<g clip-path="url(#clip1_380_31392)">
<path d="M102.637 253.865L104.661 249.319C105.734 246.907 105.731 244.413 104.652 242.383C103.573 240.354 101.507 238.957 98.9072 238.498L79.3037 235.042C76.7041 234.583 73.7845 235.102 71.1871 236.483C68.5897 237.864 66.5274 239.994 65.4537 242.406L63.4296 246.952" stroke="#671786" stroke-width="4.97647" stroke-linecap="round" stroke-linejoin="round"/>
<path d="M93.1525 227.677C98.5659 228.632 104.767 225.335 107.003 220.313C109.238 215.291 106.662 210.447 101.249 209.492C95.8357 208.538 89.6348 211.835 87.399 216.856C85.1633 221.878 87.7392 226.723 93.1525 227.677Z" stroke="#671786" stroke-width="4.97647" stroke-linecap="round" stroke-linejoin="round"/>
</g>
</g>
<g filter="url(#filter1_d_380_31392)">
<path d="M220.027 252.5C231.398 226.962 237.083 214.193 247.752 206.165C252.459 202.623 257.753 199.808 263.322 197.886C275.944 193.53 289.709 195.957 317.239 200.812C344.769 205.666 358.534 208.093 365.722 215.942C368.893 219.405 371.092 223.541 372.19 228.107C374.678 238.455 368.993 251.224 357.622 276.762C346.252 302.3 340.567 315.069 329.898 323.096C325.19 326.639 319.896 329.453 314.327 331.376C301.706 335.731 287.941 333.304 260.411 328.45C232.881 323.596 219.115 321.168 211.928 313.32C208.756 309.857 206.557 305.72 205.46 301.154C202.972 290.807 208.657 278.038 220.027 252.5Z" fill="white" shape-rendering="crispEdges"/>
<g clip-path="url(#clip2_380_31392)">
<path d="M307.575 258.131C309.185 254.514 309.181 250.772 307.562 247.728C305.944 244.684 302.844 242.587 298.945 241.9C295.045 241.212 290.666 241.99 286.77 244.061C282.874 246.133 279.78 249.329 278.17 252.946C271.085 268.858 261.71 272.108 261.71 272.108L305.818 279.885C305.818 279.885 300.49 274.043 307.575 258.131Z" stroke="#671786" stroke-width="4.97647" stroke-linecap="round" stroke-linejoin="round"/>
<path d="M283.955 285.836C283.218 286.449 282.345 286.912 281.424 287.178C280.503 287.445 279.566 287.505 278.707 287.354C277.849 287.202 277.098 286.845 276.531 286.316C275.964 285.787 275.601 285.106 275.477 284.341" stroke="#671786" stroke-width="4.97647" stroke-linecap="round" stroke-linejoin="round"/>
</g>
</g>
<g filter="url(#filter2_d_380_31392)">
<path d="M416.711 287.181C428.081 261.643 433.766 248.874 444.435 240.846C449.143 237.303 454.437 234.489 460.006 232.567C472.627 228.211 486.392 230.638 513.923 235.492C541.453 240.346 555.218 242.774 562.405 250.622C565.577 254.086 567.776 258.222 568.874 262.788C571.361 273.135 565.676 285.904 554.306 311.442C542.936 336.98 537.251 349.749 526.582 357.777C521.874 361.319 516.58 364.134 511.011 366.056C498.389 370.412 484.624 367.985 457.094 363.131C429.564 358.276 415.799 355.849 408.612 348C405.44 344.537 403.241 340.401 402.143 335.835C399.655 325.487 405.341 312.719 416.711 287.181Z" fill="white" shape-rendering="crispEdges"/>
<g clip-path="url(#clip3_380_31392)">
<path d="M506.952 298.635C500.512 313.1 475.388 322.042 475.388 322.042C475.388 322.042 461.305 306.187 467.745 291.721C469.941 286.789 474.113 282.422 479.342 279.583C484.571 276.743 490.43 275.663 495.629 276.58C500.828 277.496 504.942 280.335 507.065 284.471C509.189 288.607 509.148 293.702 506.952 298.635Z" stroke="#671786" stroke-width="4.97647" stroke-linecap="round" stroke-linejoin="round"/>
<path d="M484.496 301.584C488.556 302.3 493.206 299.827 494.883 296.061C496.56 292.295 494.628 288.662 490.568 287.946C486.508 287.23 481.857 289.703 480.181 293.469C478.504 297.235 480.436 300.868 484.496 301.584Z" stroke="#671786" stroke-width="4.97647" stroke-linecap="round" stroke-linejoin="round"/>
</g>
</g>
<g filter="url(#filter3_d_380_31392)">
<path d="M613.394 321.861C624.765 296.323 630.45 283.554 641.119 275.526C645.826 271.984 651.12 269.169 656.69 267.247C669.311 262.891 683.076 265.318 710.606 270.173C738.136 275.027 751.901 277.454 759.089 285.303C762.26 288.766 764.459 292.902 765.557 297.468C768.045 307.816 762.36 320.585 750.989 346.123C739.619 371.661 733.934 384.43 723.265 392.457C718.557 396 713.264 398.815 707.694 400.737C695.073 405.092 681.308 402.665 653.778 397.811C626.248 392.957 612.483 390.53 605.295 382.681C602.124 379.218 599.924 375.082 598.827 370.516C596.339 360.168 602.024 347.399 613.394 321.861Z" fill="white" shape-rendering="crispEdges"/>
<g clip-path="url(#clip4_380_31392)">
<path d="M702.968 322.945L661.418 345.038" stroke="#671786" stroke-width="4.97647" stroke-linecap="round" stroke-linejoin="round"/>
<path d="M673.562 317.76L690.823 350.223" stroke="#671786" stroke-width="4.97647" stroke-linecap="round" stroke-linejoin="round"/>
</g>
</g>
<g filter="url(#filter4_d_380_31392)">
<path d="M810.078 356.542C821.448 331.004 827.133 318.235 837.802 310.207C842.51 306.665 847.804 303.85 853.373 301.928C865.995 297.572 879.76 299.999 907.29 304.853C934.82 309.708 948.585 312.135 955.772 319.983C958.944 323.447 961.143 327.583 962.241 332.149C964.728 342.496 959.043 355.265 947.673 380.803C936.303 406.341 930.618 419.11 919.949 427.138C915.241 430.68 909.947 433.495 904.378 435.417C891.757 439.773 877.992 437.346 850.461 432.492C822.931 427.637 809.166 425.21 801.979 417.362C798.807 413.898 796.608 409.762 795.51 405.196C793.023 394.849 798.708 382.08 810.078 356.542Z" fill="white" shape-rendering="crispEdges"/>
<g clip-path="url(#clip5_380_31392)">
<path d="M862.893 351.146L867.793 352.01L907 358.923" stroke="#671786" stroke-width="4.97647" stroke-linecap="round" stroke-linejoin="round"/>
<path d="M902.1 358.058L887.931 389.882C887.394 391.088 886.363 392.153 885.064 392.843C883.765 393.534 882.306 393.793 881.006 393.564L856.502 389.243C855.202 389.014 854.168 388.315 853.629 387.301C853.089 386.286 853.088 385.039 853.625 383.833L867.794 352.009M875.145 353.305L877.169 348.759C877.706 347.553 878.737 346.488 880.036 345.798C881.334 345.107 882.794 344.848 884.094 345.077L893.896 346.805C895.195 347.035 896.229 347.733 896.768 348.748C897.308 349.763 897.309 351.01 896.772 352.216L894.748 356.762" stroke="#671786" stroke-width="4.97647" stroke-linecap="round" stroke-linejoin="round"/>
</g>
</g>
<g filter="url(#filter5_d_380_31392)">
<path d="M1006.76 391.222C1018.13 365.684 1023.82 352.915 1034.49 344.888C1039.19 341.345 1044.49 338.53 1050.06 336.608C1062.68 332.252 1076.44 334.68 1103.97 339.534C1131.5 344.388 1145.27 346.815 1152.46 354.664C1155.63 358.127 1157.83 362.263 1158.92 366.829C1161.41 377.177 1155.73 389.946 1144.36 415.484C1132.99 441.022 1127.3 453.791 1116.63 461.819C1111.92 465.361 1106.63 468.176 1101.06 470.098C1088.44 474.454 1074.68 472.027 1047.15 467.172C1019.61 462.318 1005.85 459.891 998.662 452.042C995.491 448.579 993.292 444.443 992.194 439.877C989.706 429.529 995.391 416.76 1006.76 391.222Z" fill="white" shape-rendering="crispEdges"/>
<path d="M1101.24 393.171L1063.15 413.422L1055.96 399.896" stroke="#671786" stroke-width="4.97647" stroke-linecap="round" stroke-linejoin="round"/>
</g>
<g filter="url(#filter6_d_380_31392)">
<path d="M1203.45 425.903C1214.82 400.365 1220.5 387.596 1231.17 379.568C1235.88 376.026 1241.17 373.211 1246.74 371.289C1259.36 366.933 1273.13 369.36 1300.66 374.215C1328.19 379.069 1341.95 381.496 1349.14 389.345C1352.31 392.808 1354.51 396.944 1355.61 401.51C1358.1 411.858 1352.41 424.627 1341.04 450.165C1329.67 475.703 1323.98 488.472 1313.32 496.499C1308.61 500.042 1303.31 502.857 1297.75 504.779C1285.12 509.134 1271.36 506.707 1243.83 501.853C1216.3 496.999 1202.53 494.572 1195.35 486.723C1192.17 483.26 1189.98 479.124 1188.88 474.558C1186.39 464.21 1192.07 451.441 1203.45 425.903Z" fill="white" shape-rendering="crispEdges"/>
<g clip-path="url(#clip6_380_31392)">
<path d="M1305.85 421.896L1256.85 413.255L1266.88 438.215L1260.26 453.081L1268.03 459.356L1276.68 439.943L1305.85 421.896Z" stroke="#671786" stroke-width="4.97647" stroke-linecap="round" stroke-linejoin="round"/>
</g>
</g>
<g filter="url(#filter7_d_380_31392)">
<path d="M1400.13 460.583C1411.5 435.045 1417.18 422.276 1427.85 414.249C1432.56 410.706 1437.85 407.891 1443.42 405.969C1456.05 401.614 1469.81 404.041 1497.34 408.895C1524.87 413.749 1538.64 416.176 1545.82 424.025C1548.99 427.488 1551.19 431.624 1552.29 436.19C1554.78 446.538 1549.09 459.307 1537.72 484.845C1526.35 510.383 1520.67 523.152 1510 531.18C1505.29 534.722 1500 537.537 1494.43 539.459C1481.81 543.815 1468.04 541.388 1440.51 536.533C1412.98 531.679 1399.22 529.252 1392.03 521.403C1388.86 517.94 1386.66 513.804 1385.56 509.238C1383.07 498.89 1388.76 486.121 1400.13 460.583Z" fill="white" shape-rendering="crispEdges"/>
<g clip-path="url(#clip7_380_31392)">
<path d="M1478.94 460.654C1478.3 460.999 1477.8 461.526 1477.53 462.121C1477.27 462.716 1477.26 463.332 1477.52 463.836L1479.83 468.164C1480.1 468.662 1480.61 469.004 1481.25 469.117C1481.89 469.23 1482.61 469.105 1483.26 468.769L1496.31 461.829C1496.42 464.572 1495.54 467.452 1493.79 470.085C1492.04 472.718 1489.5 474.979 1486.51 476.567C1483.53 478.155 1480.23 478.994 1477.07 478.972C1473.91 478.951 1471.03 478.07 1468.82 476.446L1444.89 489.168C1443.51 489.9 1441.97 490.175 1440.59 489.932C1439.21 489.689 1438.11 488.948 1437.54 487.872C1436.97 486.796 1436.97 485.473 1437.54 484.194C1438.11 482.915 1439.2 481.785 1440.58 481.052L1464.5 468.331C1464.39 465.588 1465.27 462.708 1467.02 460.075C1468.77 457.442 1471.31 455.181 1474.3 453.593C1477.28 452.005 1480.58 451.166 1483.74 451.187C1486.9 451.209 1489.78 452.09 1491.99 453.713L1478.98 460.635L1478.94 460.654Z" stroke="#671786" stroke-width="4.97647" stroke-linecap="round" stroke-linejoin="round"/>
</g>
</g>
<g filter="url(#filter8_d_380_31392)">
<path d="M-57.8888 400.27C-46.5185 374.732 -40.8334 361.963 -30.1645 353.936C-25.4567 350.393 -20.1628 347.578 -14.5935 345.656C-1.97224 341.301 11.7928 343.728 39.3229 348.582C66.853 353.436 80.618 355.863 87.8055 363.712C90.9771 367.175 93.1763 371.312 94.274 375.878C96.7616 386.225 91.0765 398.994 79.7063 424.532C68.336 450.07 62.6509 462.839 51.982 470.867C47.2742 474.409 41.9803 477.224 36.4111 479.146C23.7898 483.502 10.0247 481.075 -17.5054 476.22C-45.0355 471.366 -58.8005 468.939 -65.988 461.09C-69.1596 457.627 -71.3588 453.491 -72.4565 448.925C-74.9441 438.577 -69.259 425.808 -57.8888 400.27Z" fill="white" shape-rendering="crispEdges"/>
<g clip-path="url(#clip8_380_31392)">
<path d="M12.1765 394.434C14.2104 399.639 13.8985 405.691 11.295 411.538C8.69164 417.385 3.96139 422.658 -2.07323 426.44" stroke="#671786" stroke-width="4.97647" stroke-linecap="round" stroke-linejoin="round"/>
<path d="M24.4997 387.83C27.8544 395.587 27.53 404.752 23.5874 413.607C19.6447 422.463 12.3546 430.4 3.08457 435.93" stroke="#671786" stroke-width="4.97647" stroke-linecap="round" stroke-linejoin="round"/>
<path d="M-0.115345 400.92C0.624594 403.539 0.345007 406.467 -0.915334 409.298C-2.17568 412.129 -4.35431 414.722 -7.14914 416.718" stroke="#671786" stroke-width="4.97647" stroke-linecap="round" stroke-linejoin="round"/>
</g>
</g>
<g filter="url(#filter9_d_380_31392)">
<path d="M138.795 434.951C150.165 409.413 155.85 396.644 166.519 388.616C171.227 385.074 176.521 382.259 182.09 380.337C194.711 375.981 208.476 378.408 236.006 383.263C263.537 388.117 277.302 390.544 284.489 398.393C287.661 401.856 289.86 405.992 290.958 410.558C293.445 420.906 287.76 433.675 276.39 459.213C265.02 484.751 259.335 497.52 248.666 505.547C243.958 509.09 238.664 511.905 233.095 513.827C220.473 518.183 206.708 515.755 179.178 510.901C151.648 506.047 137.883 503.62 130.696 495.771C127.524 492.308 125.325 488.172 124.227 483.606C121.739 473.258 127.425 460.489 138.795 434.951Z" fill="white" shape-rendering="crispEdges"/>
<g clip-path="url(#clip9_380_31392)">
<path d="M220.163 424.783L183.514 447.74L205.567 451.628L195.021 469.381L231.67 446.425L209.616 442.536L220.163 424.783Z" stroke="#671786" stroke-width="4.97647" stroke-linecap="round" stroke-linejoin="round"/>
</g>
</g>
<g filter="url(#filter10_d_380_31392)">
<path d="M335.478 469.631C346.849 444.093 352.534 431.325 363.203 423.297C367.91 419.754 373.204 416.94 378.774 415.018C391.395 410.662 405.16 413.089 432.69 417.943C460.22 422.797 473.985 425.225 481.173 433.073C484.344 436.537 486.543 440.673 487.641 445.239C490.129 455.586 484.444 468.355 473.073 493.893C461.703 519.431 456.018 532.2 445.349 540.228C440.641 543.77 435.348 546.585 429.778 548.507C417.157 552.863 403.392 550.436 375.862 545.582C348.332 540.727 334.567 538.3 327.379 530.451C324.208 526.988 322.008 522.852 320.911 518.286C318.423 507.938 324.108 495.169 335.478 469.631Z" fill="white" shape-rendering="crispEdges"/>
<g clip-path="url(#clip10_380_31392)">
<path d="M421.002 479.808L417.914 479.264C418.464 475.809 417.901 472.485 416.288 469.672C414.675 466.859 412.078 464.668 408.792 463.349C405.505 462.03 401.661 461.635 397.696 462.209C393.732 462.784 389.805 464.305 386.363 466.599C382.92 468.894 380.1 471.869 378.223 475.188C376.346 478.508 375.487 482.037 375.744 485.375C376.001 488.714 377.363 491.728 379.676 494.075C381.989 496.421 385.159 498.007 388.828 498.651L410.881 502.54C414.131 503.112 417.78 502.465 421.027 500.738C424.274 499.012 426.852 496.349 428.194 493.334C429.536 490.32 429.532 487.202 428.183 484.665C426.835 482.128 424.251 480.381 421.002 479.808Z" stroke="#671786" stroke-width="4.97647" stroke-linecap="round" stroke-linejoin="round"/>
</g>
</g>
<g filter="url(#filter11_d_380_31392)">
<path d="M532.162 504.312C543.532 478.774 549.217 466.005 559.886 457.977C564.594 454.435 569.888 451.62 575.457 449.698C588.079 445.342 601.844 447.769 629.374 452.624C656.904 457.478 670.669 459.905 677.856 467.754C681.028 471.217 683.227 475.353 684.325 479.919C686.812 490.267 681.127 503.036 669.757 528.574C658.387 554.112 652.702 566.881 642.033 574.909C637.325 578.451 632.031 581.266 626.462 583.188C613.841 587.544 600.075 585.116 572.545 580.262C545.015 575.408 531.25 572.981 524.063 565.132C520.891 561.669 518.692 557.533 517.594 552.967C515.107 542.619 520.792 529.85 532.162 504.312Z" fill="white" shape-rendering="crispEdges"/>
<g clip-path="url(#clip11_380_31392)">
<path d="M631.108 502.146L587 494.369C584.294 493.892 581.193 495.54 580.075 498.051L567.931 525.329C566.813 527.839 568.101 530.262 570.808 530.739L614.915 538.516C617.622 538.994 620.722 537.345 621.84 534.834L633.985 507.557C635.103 505.046 633.815 502.624 631.108 502.146Z" stroke="#671786" stroke-width="4.97647" stroke-linecap="round" stroke-linejoin="round"/>
<path d="M576.027 507.144L629.937 516.65" stroke="#671786" stroke-width="4.97647" stroke-linecap="round" stroke-linejoin="round"/>
</g>
</g>
<g filter="url(#filter12_d_380_31392)">
<path d="M728.846 538.993C740.216 513.455 745.901 500.686 756.57 492.658C761.278 489.116 766.572 486.301 772.141 484.379C784.762 480.023 798.527 482.45 826.057 487.304C853.587 492.159 867.352 494.586 874.54 502.435C877.711 505.898 879.911 510.034 881.008 514.6C883.496 524.948 877.811 537.717 866.441 563.255C855.07 588.792 849.385 601.561 838.716 609.589C834.009 613.132 828.715 615.946 823.145 617.868C810.524 622.224 796.759 619.797 769.229 614.943C741.699 610.089 727.934 607.661 720.746 599.813C717.575 596.349 715.376 592.213 714.278 587.647C711.79 577.3 717.475 564.531 728.846 538.993Z" fill="#671786" shape-rendering="crispEdges"/>
<g clip-path="url(#clip12_380_31392)">
<path d="M787.523 573.855C801.056 576.241 816.558 567.998 822.148 555.444C827.737 542.89 821.297 530.779 807.764 528.392C794.231 526.006 778.729 534.249 773.139 546.803C767.55 559.357 773.99 571.468 787.523 573.855Z" stroke="white" stroke-width="4.97647" stroke-linecap="round" stroke-linejoin="round"/>
<path d="M803.715 537.485L797.643 551.123L805.42 557.398" stroke="white" stroke-width="4.97647" stroke-linecap="round" stroke-linejoin="round"/>
</g>
</g>
<g filter="url(#filter13_d_380_31392)">
<path d="M925.529 573.673C936.899 548.135 942.585 535.366 953.253 527.339C957.961 523.796 963.255 520.982 968.824 519.06C981.446 514.704 995.211 517.131 1022.74 521.985C1050.27 526.839 1064.04 529.267 1071.22 537.115C1074.4 540.579 1076.59 544.715 1077.69 549.281C1080.18 559.628 1074.49 572.397 1063.12 597.935C1051.75 623.473 1046.07 636.242 1035.4 644.27C1030.69 647.812 1025.4 650.627 1019.83 652.549C1007.21 656.905 993.443 654.478 965.913 649.624C938.382 644.769 924.617 642.342 917.43 634.493C914.258 631.03 912.059 626.894 910.962 622.328C908.474 611.98 914.159 599.211 925.529 573.673Z" fill="white" shape-rendering="crispEdges"/>
<g clip-path="url(#clip13_380_31392)">
<path d="M1019.58 570.644L985.27 564.595C982.563 564.118 979.463 565.767 978.345 568.277L964.176 600.101C963.058 602.612 964.346 605.034 967.053 605.511L1001.36 611.561C1004.07 612.038 1007.17 610.389 1008.28 607.878L1022.45 576.055C1023.57 573.544 1022.28 571.122 1019.58 570.644Z" stroke="#671786" stroke-width="4.97647" stroke-linecap="round" stroke-linejoin="round"/>
<path d="M1014.25 564.802L1010.2 573.894" stroke="#671786" stroke-width="4.97647" stroke-linecap="round" stroke-linejoin="round"/>
<path d="M994.646 561.345L990.598 570.437" stroke="#671786" stroke-width="4.97647" stroke-linecap="round" stroke-linejoin="round"/>
<path d="M974.297 577.369L1018.4 585.147" stroke="#671786" stroke-width="4.97647" stroke-linecap="round" stroke-linejoin="round"/>
</g>
</g>
<g filter="url(#filter14_d_380_31392)">
<path d="M1122.21 608.354C1133.58 582.816 1139.27 570.047 1149.94 562.019C1154.64 558.477 1159.94 555.662 1165.51 553.74C1178.13 549.384 1191.89 551.811 1219.42 556.666C1246.95 561.52 1260.72 563.947 1267.91 571.796C1271.08 575.259 1273.28 579.395 1274.38 583.961C1276.86 594.309 1271.18 607.078 1259.81 632.616C1248.44 658.154 1242.75 670.923 1232.08 678.95C1227.38 682.493 1222.08 685.307 1216.51 687.23C1203.89 691.585 1190.13 689.158 1162.6 684.304C1135.07 679.45 1121.3 677.022 1114.11 669.174C1110.94 665.711 1108.74 661.574 1107.65 657.008C1105.16 646.661 1110.84 633.892 1122.21 608.354Z" fill="white" shape-rendering="crispEdges"/>
<g clip-path="url(#clip14_380_31392)">
<path d="M1210.03 631.193C1209.49 632.399 1208.46 633.464 1207.16 634.155C1205.86 634.845 1204.4 635.104 1203.1 634.875L1173.7 629.69L1159.85 637.055L1176.04 600.685C1176.58 599.479 1177.61 598.414 1178.91 597.723C1180.21 597.033 1181.67 596.773 1182.97 597.003L1217.27 603.052C1218.57 603.281 1219.61 603.98 1220.15 604.994C1220.69 606.009 1220.69 607.256 1220.15 608.462L1210.03 631.193Z" stroke="#671786" stroke-width="4.97647" stroke-linecap="round" stroke-linejoin="round"/>
</g>
</g>
<g filter="url(#filter15_d_380_31392)">
<path d="M1318.9 643.035C1330.27 617.497 1335.95 604.728 1346.62 596.7C1351.33 593.157 1356.62 590.343 1362.19 588.421C1374.81 584.065 1388.58 586.492 1416.11 591.346C1443.64 596.2 1457.4 598.628 1464.59 606.476C1467.76 609.94 1469.96 614.076 1471.06 618.642C1473.55 628.989 1467.86 641.758 1456.49 667.296C1445.12 692.834 1439.44 705.603 1428.77 713.631C1424.06 717.173 1418.77 719.988 1413.2 721.91C1400.57 726.266 1386.81 723.839 1359.28 718.985C1331.75 714.13 1317.98 711.703 1310.8 703.854C1307.63 700.391 1305.43 696.255 1304.33 691.689C1301.84 681.342 1307.53 668.573 1318.9 643.035Z" fill="white" shape-rendering="crispEdges"/>
<g clip-path="url(#clip15_380_31392)">
<path d="M1420.72 646.279L1387.83 663.769L1380.63 650.243L1354.67 664.051" stroke="#671786" stroke-width="4.97647" stroke-linecap="round" stroke-linejoin="round"/>
<path d="M1406.02 643.687L1420.72 646.279L1414.65 659.918" stroke="#671786" stroke-width="4.97647" stroke-linecap="round" stroke-linejoin="round"/>
</g>
</g>
<g filter="url(#filter16_d_380_31392)">
<path d="M-139.121 582.722C-127.751 557.184 -122.066 544.415 -111.397 536.387C-106.689 532.844 -101.395 530.03 -95.826 528.108C-83.2047 523.752 -69.4396 526.179 -41.9095 531.033C-14.3794 535.887 -0.614375 538.315 6.57312 546.163C9.74468 549.627 11.9439 553.763 13.0416 558.329C15.5292 568.676 9.84409 581.445 -1.52615 606.983C-12.8964 632.521 -18.5815 645.29 -29.2504 653.318C-33.9582 656.86 -39.2521 659.675 -44.8214 661.597C-57.4427 665.953 -71.2077 663.526 -98.7378 658.672C-126.268 653.817 -140.033 651.39 -147.22 643.542C-150.392 640.078 -152.591 635.942 -153.689 631.376C-156.177 621.029 -150.491 608.26 -139.121 582.722Z" fill="white" shape-rendering="crispEdges"/>
</g>
<g filter="url(#filter17_d_380_31392)">
<path d="M57.5624 617.402C68.9327 591.864 74.6178 579.095 85.2867 571.067C89.9944 567.525 95.2883 564.71 100.858 562.788C113.479 558.432 127.244 560.86 154.774 565.714C182.304 570.568 196.069 572.995 203.257 580.844C206.428 584.307 208.627 588.443 209.725 593.009C212.213 603.357 206.528 616.126 195.157 641.664C183.787 667.202 178.102 679.971 167.433 687.999C162.725 691.541 157.432 694.356 151.862 696.278C139.241 700.634 125.476 698.207 97.9458 693.352C70.4157 688.498 56.6506 686.071 49.4631 678.222C46.2916 674.759 44.0924 670.623 42.9947 666.057C40.5071 655.709 46.1922 642.94 57.5624 617.402Z" fill="white" shape-rendering="crispEdges"/>
<g clip-path="url(#clip16_380_31392)">
<path d="M138.931 607.233L121.778 604.209C120.478 603.98 119.018 604.239 117.72 604.929C116.421 605.62 115.39 606.685 114.853 607.891L98.6599 644.261C98.1231 645.467 98.1246 646.714 98.6641 647.729C99.2036 648.743 100.237 649.442 101.537 649.671L130.942 654.856C132.242 655.085 133.701 654.826 135 654.136C136.299 653.445 137.33 652.38 137.867 651.174L148.999 626.17L138.931 607.233Z" stroke="#671786" stroke-width="4.97647" stroke-linecap="round" stroke-linejoin="round"/>
<path d="M138.932 607.234L131.847 623.146L149 626.17" stroke="#671786" stroke-width="4.97647" stroke-linecap="round" stroke-linejoin="round"/>
</g>
</g>
<g filter="url(#filter18_d_380_31392)">
<path d="M254.246 652.083C265.616 626.545 271.301 613.776 281.97 605.748C286.678 602.206 291.972 599.391 297.541 597.469C310.163 593.113 323.928 595.54 351.458 600.394C378.988 605.249 392.753 607.676 399.94 615.524C403.112 618.988 405.311 623.124 406.409 627.69C408.896 638.037 403.211 650.806 391.841 676.344C380.471 701.882 374.786 714.651 364.117 722.679C359.409 726.221 354.115 729.036 348.546 730.958C335.925 735.314 322.159 732.887 294.629 728.033C267.099 723.178 253.334 720.751 246.147 712.903C242.975 709.439 240.776 705.303 239.678 700.737C237.191 690.39 242.876 677.621 254.246 652.083Z" fill="white" shape-rendering="crispEdges"/>
<g clip-path="url(#clip17_380_31392)">
<path d="M328.691 645.596L311.538 642.572C310.238 642.343 308.778 642.602 307.479 643.292C306.181 643.983 305.149 645.048 304.613 646.254L290.444 678.078C289.907 679.283 289.908 680.531 290.448 681.545C290.987 682.56 292.021 683.259 293.321 683.488L327.627 689.537C328.926 689.766 330.386 689.507 331.685 688.817C332.984 688.126 334.015 687.061 334.552 685.855L341.636 669.943" stroke="#671786" stroke-width="4.97647" stroke-linecap="round" stroke-linejoin="round"/>
<path d="M348.585 645.427C349.963 644.695 351.511 644.42 352.89 644.663C354.268 644.906 355.364 645.647 355.936 646.724C356.509 647.8 356.51 649.123 355.941 650.402C355.371 651.681 354.278 652.811 352.9 653.543L320.007 671.033L309.193 671.578L315.691 662.917L348.585 645.427Z" stroke="#671786" stroke-width="4.97647" stroke-linecap="round" stroke-linejoin="round"/>
</g>
</g>
<g filter="url(#filter19_d_380_31392)">
<path d="M450.93 686.763C462.3 661.225 467.985 648.456 478.654 640.429C483.362 636.886 488.656 634.071 494.225 632.149C506.846 627.794 520.611 630.221 548.141 635.075C575.671 639.929 589.436 642.356 596.624 650.205C599.795 653.668 601.995 657.804 603.092 662.37C605.58 672.718 599.895 685.487 588.525 711.025C577.154 736.563 571.469 749.332 560.8 757.36C556.093 760.902 550.799 763.717 545.229 765.639C532.608 769.995 518.843 767.568 491.313 762.713C463.783 757.859 450.018 755.432 442.83 747.583C439.659 744.12 437.46 739.984 436.362 735.418C433.874 725.07 439.559 712.301 450.93 686.763Z" fill="white" shape-rendering="crispEdges"/>
<g clip-path="url(#clip18_380_31392)">
<path d="M491.074 703.893C493.231 704.754 494.912 706.213 495.91 708.089C496.907 709.965 497.176 712.174 496.684 714.443M495.173 694.687C499.921 696.078 503.64 698.965 505.718 702.874C507.796 706.782 508.11 711.479 506.608 716.193M499.272 685.481L501.296 680.935C501.833 679.729 502.864 678.664 504.163 677.973C505.462 677.283 506.921 677.023 508.221 677.253L547.428 684.166C548.728 684.395 549.761 685.094 550.301 686.108C550.84 687.123 550.842 688.37 550.305 689.576L538.16 716.854C537.623 718.059 536.592 719.125 535.293 719.815C533.995 720.506 532.535 720.765 531.235 720.536L516.533 717.943" stroke="#671786" stroke-width="4.97647" stroke-linecap="round" stroke-linejoin="round"/>
<path d="M487.127 712.758L487.151 712.763" stroke="#671786" stroke-width="4.97647" stroke-linecap="round" stroke-linejoin="round"/>
</g>
</g>
<g filter="url(#filter20_d_380_31392)">
<path d="M647.613 721.444C658.983 695.906 664.669 683.137 675.337 675.109C680.045 671.567 685.339 668.752 690.908 666.83C703.53 662.474 717.295 664.901 744.825 669.756C772.355 674.61 786.12 677.037 793.307 684.886C796.479 688.349 798.678 692.485 799.776 697.051C802.264 707.399 796.578 720.168 785.208 745.706C773.838 771.244 768.153 784.013 757.484 792.04C752.776 795.583 747.482 798.398 741.913 800.32C729.292 804.675 715.527 802.248 687.997 797.394C660.466 792.54 646.701 790.113 639.514 782.264C636.342 778.801 634.143 774.665 633.045 770.099C630.558 759.751 636.243 746.982 647.613 721.444Z" fill="white" shape-rendering="crispEdges"/>
<g clip-path="url(#clip19_380_31392)">
<path d="M735.044 746.397C731.962 749.542 728.182 752.126 724.034 753.922C719.886 755.718 715.497 756.673 711.249 756.702C707.001 756.731 703.025 755.834 699.668 754.089C696.311 752.344 693.675 749.804 691.991 746.691C690.307 743.579 689.626 739.989 690.007 736.234C690.388 732.48 691.821 728.676 694.179 725.155C696.537 721.634 699.748 718.503 703.533 716.036C707.318 713.569 711.561 711.841 715.891 711.002" stroke="#671786" stroke-width="4.97647" stroke-linecap="round" stroke-linejoin="round"/>
<path d="M740.915 737.895C742.244 734.91 742.926 731.842 742.923 728.867C742.919 725.892 742.23 723.068 740.894 720.556C739.559 718.044 737.603 715.894 735.138 714.227C732.674 712.56 729.749 711.411 726.531 710.843L716.411 733.574L740.915 737.895Z" stroke="#671786" stroke-width="4.97647" stroke-linecap="round" stroke-linejoin="round"/>
</g>
</g>
<g filter="url(#filter21_d_380_31392)">
<path d="M844.297 756.125C855.667 730.587 861.352 717.818 872.021 709.79C876.729 706.248 882.023 703.433 887.592 701.511C900.213 697.155 913.978 699.582 941.508 704.436C969.039 709.291 982.804 711.718 989.991 719.566C993.163 723.03 995.362 727.166 996.46 731.732C998.947 742.079 993.262 754.848 981.892 780.386C970.522 805.924 964.836 818.693 954.168 826.721C949.46 830.263 944.166 833.078 938.597 835C925.975 839.356 912.21 836.929 884.68 832.075C857.15 827.22 843.385 824.793 836.198 816.945C833.026 813.481 830.827 809.345 829.729 804.779C827.241 794.432 832.927 781.663 844.297 756.125Z" fill="white" shape-rendering="crispEdges"/>
<g clip-path="url(#clip20_380_31392)">
<path d="M945.27 749.413L938.345 753.095M938.345 753.095L942.66 761.21L930.542 767.654L926.227 759.538M938.345 753.095L926.227 759.538M911.996 767.105C912.745 768.486 913.137 770.042 913.149 771.684C913.161 773.326 912.792 775.02 912.064 776.67C911.335 778.32 910.262 779.893 908.906 781.297C907.55 782.702 905.938 783.912 904.162 784.856C902.386 785.8 900.481 786.461 898.558 786.8C896.635 787.138 894.731 787.148 892.956 786.829C891.181 786.511 889.57 785.869 888.216 784.941C886.861 784.014 885.79 782.819 885.065 781.425C883.659 778.634 883.707 775.236 885.197 771.964C886.687 768.691 889.501 765.805 893.032 763.928C896.563 762.051 900.528 761.332 904.075 761.926C907.621 762.521 910.464 764.381 911.992 767.107L911.996 767.105ZM911.996 767.105L926.227 759.538" stroke="#671786" stroke-width="4.97647" stroke-linecap="round" stroke-linejoin="round"/>
</g>
</g>
<g filter="url(#filter22_d_380_31392)">
<path d="M1040.98 790.805C1052.35 765.267 1058.04 752.498 1068.7 744.47C1073.41 740.928 1078.71 738.113 1084.28 736.191C1096.9 731.835 1110.66 734.262 1138.19 739.117C1165.72 743.971 1179.49 746.398 1186.67 754.247C1189.85 757.71 1192.05 761.846 1193.14 766.412C1195.63 776.76 1189.95 789.529 1178.58 815.067C1167.21 840.605 1161.52 853.374 1150.85 861.401C1146.14 864.944 1140.85 867.759 1135.28 869.681C1122.66 874.037 1108.89 871.609 1081.36 866.755C1053.83 861.901 1040.07 859.474 1032.88 851.625C1029.71 848.162 1027.51 844.026 1026.41 839.46C1023.93 829.112 1029.61 816.343 1040.98 790.805Z" fill="white" shape-rendering="crispEdges"/>
<g clip-path="url(#clip21_380_31392)">
<path d="M1090.76 792.228L1119.9 780.205L1134.87 800.006L1123.73 825.01C1123.2 826.216 1122.17 827.281 1120.87 827.971C1119.57 828.662 1118.11 828.921 1116.81 828.692L1082.5 822.643C1081.2 822.414 1080.17 821.715 1079.63 820.7C1079.09 819.686 1079.09 818.438 1079.63 817.232L1090.76 792.228Z" stroke="#671786" stroke-width="4.97647" stroke-linecap="round" stroke-linejoin="round"/>
<path d="M1092.31 824.371L1102.43 801.64L1117.13 804.232L1107.01 826.963" stroke="#671786" stroke-width="4.97647" stroke-linecap="round" stroke-linejoin="round"/>
</g>
</g>
<g filter="url(#filter23_d_380_31392)">
<path d="M1237.66 825.486C1249.03 799.948 1254.72 787.179 1265.39 779.151C1270.1 775.609 1275.39 772.794 1280.96 770.872C1293.58 766.516 1307.35 768.943 1334.88 773.797C1362.41 778.652 1376.17 781.079 1383.36 788.927C1386.53 792.391 1388.73 796.527 1389.83 801.093C1392.31 811.44 1386.63 824.209 1375.26 849.747C1363.89 875.285 1358.2 888.054 1347.53 896.082C1342.83 899.625 1337.53 902.439 1331.96 904.361C1319.34 908.717 1305.58 906.29 1278.05 901.436C1250.52 896.581 1236.75 894.154 1229.56 886.306C1226.39 882.842 1224.19 878.706 1223.1 874.14C1220.61 863.793 1226.29 851.024 1237.66 825.486Z" fill="white" shape-rendering="crispEdges"/>
<g clip-path="url(#clip22_380_31392)">
<path d="M1309.61 860.235L1311.63 855.689C1312.7 853.278 1312.7 850.783 1311.62 848.754C1310.54 846.724 1308.48 845.327 1305.88 844.868L1286.27 841.412C1283.67 840.953 1280.75 841.472 1278.16 842.853C1275.56 844.234 1273.5 846.364 1272.42 848.776L1270.4 853.322" stroke="#671786" stroke-width="4.97647" stroke-linecap="round" stroke-linejoin="round"/>
<path d="M1300.12 834.047C1305.54 835.002 1311.74 831.705 1313.97 826.683C1316.21 821.661 1313.63 816.817 1308.22 815.862C1302.81 814.908 1296.61 818.205 1294.37 823.226C1292.13 828.248 1294.71 833.093 1300.12 834.047Z" stroke="#671786" stroke-width="4.97647" stroke-linecap="round" stroke-linejoin="round"/>
<path d="M1324.31 862.828L1326.33 858.281C1327.23 856.267 1327.37 854.182 1326.75 852.355C1326.13 850.528 1324.78 849.063 1322.9 848.188" stroke="#671786" stroke-width="4.97647" stroke-linecap="round" stroke-linejoin="round"/>
<path d="M1325.24 819.182C1327.13 820.055 1328.49 821.522 1329.11 823.352C1329.74 825.182 1329.59 827.271 1328.69 829.29C1327.79 831.309 1326.19 833.143 1324.15 834.502C1322.1 835.862 1319.73 836.67 1317.4 836.799" stroke="#671786" stroke-width="4.97647" stroke-linecap="round" stroke-linejoin="round"/>
</g>
</g>
<g filter="url(#filter24_d_380_31392)">
<path d="M-220.354 765.173C-208.983 739.635 -203.298 726.866 -192.629 718.838C-187.922 715.296 -182.628 712.481 -177.058 710.559C-164.437 706.203 -150.672 708.63 -123.142 713.484C-95.6118 718.339 -81.8468 720.766 -74.6593 728.614C-71.4877 732.078 -69.2886 736.214 -68.1909 740.78C-65.7032 751.127 -71.3883 763.896 -82.7586 789.434C-94.1288 814.972 -99.8139 827.741 -110.483 835.769C-115.191 839.312 -120.484 842.126 -126.054 844.048C-138.675 848.404 -152.44 845.977 -179.97 841.123C-207.5 836.268 -221.265 833.841 -228.453 825.993C-231.624 822.529 -233.824 818.393 -234.921 813.827C-237.409 803.48 -231.724 790.711 -220.354 765.173Z" fill="white" shape-rendering="crispEdges"/>
</g>
<g filter="url(#filter25_d_380_31392)">
<path d="M-23.67 799.853C-12.2998 774.315 -6.61464 761.546 4.05426 753.518C8.76203 749.976 14.0559 747.161 19.6252 745.239C32.2465 740.883 46.0116 743.31 73.5417 748.165C101.072 753.019 114.837 755.446 122.024 763.295C125.196 766.758 127.395 770.894 128.493 775.46C130.98 785.808 125.295 798.577 113.925 824.115C102.555 849.653 96.8697 862.422 86.2008 870.45C81.493 873.992 76.1991 876.807 70.6298 878.729C58.0085 883.085 44.2435 880.658 16.7134 875.803C-10.8167 870.949 -24.5818 868.522 -31.7693 860.673C-34.9408 857.21 -37.14 853.074 -38.2377 848.508C-40.7254 838.16 -35.0402 825.391 -23.67 799.853Z" fill="white" shape-rendering="crispEdges"/>
<g clip-path="url(#clip23_380_31392)">
<path d="M55.248 789.252L51.1998 798.345" stroke="#671786" stroke-width="4.97647" stroke-linecap="round" stroke-linejoin="round"/>
<path d="M39.0547 825.623L35.0065 834.716" stroke="#671786" stroke-width="4.97647" stroke-linecap="round" stroke-linejoin="round"/>
<path d="M34.957 792.858L39.0276 800.514" stroke="#671786" stroke-width="4.97647" stroke-linecap="round" stroke-linejoin="round"/>
<path d="M51.2266 823.455L55.2972 831.11" stroke="#671786" stroke-width="4.97647" stroke-linecap="round" stroke-linejoin="round"/>
<path d="M20.623 807.664L30.4248 809.392" stroke="#671786" stroke-width="4.97647" stroke-linecap="round" stroke-linejoin="round"/>
<path d="M59.8301 814.577L69.6318 816.305" stroke="#671786" stroke-width="4.97647" stroke-linecap="round" stroke-linejoin="round"/>
<path d="M20.6456 825L30.4445 819.79" stroke="#671786" stroke-width="4.97647" stroke-linecap="round" stroke-linejoin="round"/>
<path d="M59.8097 804.178L69.6086 798.968" stroke="#671786" stroke-width="4.97647" stroke-linecap="round" stroke-linejoin="round"/>
</g>
</g>
<g filter="url(#filter26_d_380_31392)">
<path d="M173.014 834.534C184.384 808.996 190.069 796.227 200.738 788.199C205.446 784.657 210.74 781.842 216.309 779.92C228.93 775.564 242.695 777.991 270.225 782.845C297.755 787.7 311.52 790.127 318.708 797.976C321.879 801.439 324.079 805.575 325.176 810.141C327.664 820.489 321.979 833.258 310.609 858.796C299.238 884.334 293.553 897.102 282.884 905.13C278.177 908.673 272.883 911.487 267.313 913.409C254.692 917.765 240.927 915.338 213.397 910.484C185.867 905.63 172.102 903.202 164.914 895.354C161.743 891.89 159.544 887.754 158.446 883.188C155.958 872.841 161.643 860.072 173.014 834.534Z" fill="white" shape-rendering="crispEdges"/>
<g clip-path="url(#clip24_380_31392)">
<path d="M224.34 868.1C225.694 868.339 227.244 867.514 227.803 866.259C228.362 865.003 227.718 863.792 226.364 863.554C225.011 863.315 223.461 864.139 222.902 865.395C222.343 866.65 222.987 867.861 224.34 868.1Z" stroke="#671786" stroke-width="4.97647" stroke-linecap="round" stroke-linejoin="round"/>
<path d="M251.294 872.853C252.647 873.091 254.197 872.267 254.756 871.012C255.315 869.756 254.671 868.545 253.318 868.307C251.964 868.068 250.414 868.892 249.855 870.148C249.296 871.403 249.94 872.614 251.294 872.853Z" stroke="#671786" stroke-width="4.97647" stroke-linecap="round" stroke-linejoin="round"/>
<path d="M225.99 816.908L235.792 818.637L228.808 850.232C228.566 851.318 228.761 852.366 229.359 853.193C229.957 854.02 230.92 854.573 232.079 854.755L255.897 858.955C257.038 859.178 258.318 859.021 259.511 858.51C260.705 857.998 261.738 857.167 262.428 856.16L274.839 837.779L233.182 830.434" stroke="#671786" stroke-width="4.97647" stroke-linecap="round" stroke-linejoin="round"/>
</g>
</g>
<g filter="url(#filter27_d_380_31392)">
<path d="M369.697 869.214C381.067 843.676 386.753 830.908 397.421 822.88C402.129 819.337 407.423 816.523 412.992 814.601C425.614 810.245 439.379 812.672 466.909 817.526C494.439 822.38 508.204 824.808 515.391 832.656C518.563 836.12 520.762 840.256 521.86 844.822C524.348 855.169 518.662 867.938 507.292 893.476C495.922 919.014 490.237 931.783 479.568 939.811C474.86 943.353 469.566 946.168 463.997 948.09C451.376 952.446 437.611 950.019 410.081 945.165C382.55 940.31 368.785 937.883 361.598 930.034C358.426 926.571 356.227 922.435 355.129 917.869C352.642 907.521 358.327 894.752 369.697 869.214Z" fill="white" shape-rendering="crispEdges"/>
<g clip-path="url(#clip25_380_31392)">
<path d="M428.375 904.076C441.908 906.463 457.41 898.22 462.999 885.666C468.589 873.112 462.149 861 448.616 858.614C435.082 856.228 419.58 864.47 413.991 877.024C408.401 889.578 414.841 901.69 428.375 904.076Z" stroke="#671786" stroke-width="4.97647" stroke-linecap="round" stroke-linejoin="round"/>
<path d="M413.99 877.025L462.999 885.667" stroke="#671786" stroke-width="4.97647" stroke-linecap="round" stroke-linejoin="round"/>
<path d="M448.616 858.614C451.974 865.92 451.861 874.612 448.297 883.074C444.355 891.469 437.276 898.933 428.375 904.077C425.017 896.771 425.131 888.079 428.694 879.617C432.636 871.222 439.716 863.758 448.616 858.614Z" stroke="#671786" stroke-width="4.97647" stroke-linecap="round" stroke-linejoin="round"/>
</g>
</g>
<g filter="url(#filter28_d_380_31392)">
<path d="M566.381 903.895C577.751 878.357 583.436 865.588 594.105 857.56C598.813 854.018 604.107 851.203 609.676 849.281C622.297 844.925 636.062 847.352 663.592 852.207C691.123 857.061 704.888 859.488 712.075 867.337C715.247 870.8 717.446 874.936 718.544 879.502C721.031 889.85 715.346 902.619 703.976 928.157C692.606 953.695 686.92 966.464 676.252 974.492C671.544 978.034 666.25 980.849 660.681 982.771C648.059 987.127 634.294 984.7 606.764 979.845C579.234 974.991 565.469 972.564 558.282 964.715C555.11 961.252 552.911 957.116 551.813 952.55C549.325 942.202 555.011 929.433 566.381 903.895Z" fill="white" shape-rendering="crispEdges"/>
<g clip-path="url(#clip26_380_31392)">
<path d="M653.344 916.777L619.038 910.728C616.331 910.251 613.23 911.899 612.113 914.41L605.028 930.322C603.91 932.833 605.198 935.255 607.905 935.732L642.211 941.782C644.918 942.259 648.018 940.61 649.136 938.099L656.22 922.188C657.338 919.677 656.05 917.255 653.344 916.777Z" stroke="#671786" stroke-width="4.97647" stroke-linecap="round" stroke-linejoin="round"/>
<path d="M623.938 911.592L627.987 902.5C629.329 899.485 631.907 896.822 635.153 895.096C638.4 893.369 642.05 892.721 645.299 893.294C648.549 893.867 651.132 895.614 652.481 898.151C653.829 900.688 653.833 903.806 652.491 906.82L648.443 915.913" stroke="#671786" stroke-width="4.97647" stroke-linecap="round" stroke-linejoin="round"/>
</g>
</g>
<g filter="url(#filter29_d_380_31392)">
<path d="M763.064 938.576C774.435 913.038 780.12 900.269 790.789 892.241C795.496 888.698 800.79 885.884 806.36 883.962C818.981 879.606 832.746 882.033 860.276 886.887C887.806 891.742 901.571 894.169 908.759 902.017C911.93 905.481 914.129 909.617 915.227 914.183C917.715 924.53 912.03 937.299 900.659 962.837C889.289 988.375 883.604 1001.14 872.935 1009.17C868.227 1012.71 862.933 1015.53 857.364 1017.45C844.743 1021.81 830.978 1019.38 803.448 1014.53C775.918 1009.67 762.153 1007.24 754.965 999.396C751.794 995.932 749.594 991.796 748.497 987.23C746.009 976.883 751.694 964.114 763.064 938.576Z" fill="white" shape-rendering="crispEdges"/>
<g clip-path="url(#clip27_380_31392)">
<path d="M813.002 927.768L806.93 941.407L821.632 943.999" stroke="#671786" stroke-width="4.97647" stroke-linecap="round" stroke-linejoin="round"/>
<path d="M850.722 973.644L856.794 960.006L842.092 957.413" stroke="#671786" stroke-width="4.97647" stroke-linecap="round" stroke-linejoin="round"/>
<path d="M855.703 947.555C855.91 944.078 855.095 940.793 853.333 938.007C851.57 935.22 848.918 933.022 845.624 931.619C842.33 930.215 838.502 929.652 834.495 929.981C830.489 930.311 826.436 931.522 822.714 933.501L806.932 941.407M856.793 960.006L841.01 967.912C837.289 969.891 833.235 971.102 829.229 971.432C825.223 971.761 821.394 971.198 818.1 969.794C814.806 968.391 812.154 966.193 810.392 963.406C808.63 960.62 807.814 957.335 808.022 953.858" stroke="#671786" stroke-width="4.97647" stroke-linecap="round" stroke-linejoin="round"/>
</g>
</g>
<g filter="url(#filter30_d_380_31392)">
<path d="M959.748 973.256C971.118 947.718 976.803 934.949 987.472 926.921C992.18 923.379 997.474 920.564 1003.04 918.642C1015.66 914.286 1029.43 916.714 1056.96 921.568C1084.49 926.422 1098.25 928.849 1105.44 936.698C1108.61 940.161 1110.81 944.297 1111.91 948.863C1114.4 959.211 1108.71 971.98 1097.34 997.518C1085.97 1023.06 1080.29 1035.82 1069.62 1043.85C1064.91 1047.4 1059.62 1050.21 1054.05 1052.13C1041.43 1056.49 1027.66 1054.06 1000.13 1049.21C972.601 1044.35 958.836 1041.92 951.649 1034.08C948.477 1030.61 946.278 1026.48 945.18 1021.91C942.693 1011.56 948.378 998.794 959.748 973.256Z" fill="white" shape-rendering="crispEdges"/>
<g clip-path="url(#clip28_380_31392)">
<path d="M1047.56 996.095L1043.51 1005.19C1042.98 1006.39 1041.95 1007.46 1040.65 1008.15C1039.35 1008.84 1037.89 1009.1 1036.59 1008.87L1002.28 1002.82C1000.98 1002.59 999.951 1001.89 999.411 1000.88C998.872 999.863 998.87 998.616 999.407 997.41L1003.46 988.318" stroke="#671786" stroke-width="4.97647" stroke-linecap="round" stroke-linejoin="round"/>
<path d="M1018.32 978.681L1025.51 992.207L1042.82 983.001" stroke="#671786" stroke-width="4.97647" stroke-linecap="round" stroke-linejoin="round"/>
<path d="M1025.51 992.206L1037.65 964.929" stroke="#671786" stroke-width="4.97647" stroke-linecap="round" stroke-linejoin="round"/>
</g>
</g>
<g filter="url(#filter31_d_380_31392)">
<path d="M1156.43 1007.94C1167.8 982.399 1173.49 969.63 1184.16 961.602C1188.86 958.06 1194.16 955.245 1199.73 953.323C1212.35 948.967 1226.11 951.394 1253.64 956.249C1281.17 961.103 1294.94 963.53 1302.13 971.379C1305.3 974.842 1307.5 978.978 1308.59 983.544C1311.08 993.892 1305.4 1006.66 1294.03 1032.2C1282.66 1057.74 1276.97 1070.51 1266.3 1078.53C1261.59 1082.08 1256.3 1084.89 1250.73 1086.81C1238.11 1091.17 1224.35 1088.74 1196.81 1083.89C1169.28 1079.03 1155.52 1076.61 1148.33 1068.76C1145.16 1065.29 1142.96 1061.16 1141.86 1056.59C1139.38 1046.24 1145.06 1033.47 1156.43 1007.94Z" fill="white" shape-rendering="crispEdges"/>
<path d="M1233.66 1001.13C1222.39 999.138 1209.46 1006.01 1204.81 1016.47C1200.15 1026.92 1205.52 1037.02 1216.79 1039.01C1228.07 1041 1240.99 1034.12 1245.65 1023.67" stroke="#671786" stroke-width="3.73235" stroke-miterlimit="10" stroke-linecap="round" stroke-linejoin="round"/>
<path d="M1228.12 1018.53L1251.78 1005.95" stroke="#671786" stroke-width="3.73235" stroke-linecap="round" stroke-linejoin="round"/>
<path d="M1250.01 1013.87L1254.08 1004.72L1244.22 1002.99" stroke="#671786" stroke-width="3.73235" stroke-linecap="round" stroke-linejoin="round"/>
</g>
<path d="M902.318 108.64C902.318 100.64 905.172 93.8133 910.878 88.16C916.585 82.5067 923.438 79.68 931.438 79.68C936.612 79.68 941.465 81.0133 945.998 83.68C950.532 86.3467 954.078 89.92 956.638 94.4C956.745 94.5067 957.145 95.2533 957.838 96.64C957.998 96.9067 958.158 97.28 958.318 97.76C958.318 97.8133 958.345 97.8933 958.398 98V98.08H945.038C944.985 98.0267 944.905 97.9467 944.798 97.84C940.958 93.5733 936.452 91.44 931.278 91.44C926.585 91.44 922.532 93.1467 919.118 96.56C915.758 99.9733 914.078 104.053 914.078 108.8C914.078 113.44 915.785 117.493 919.198 120.96C922.612 124.373 926.638 126.08 931.278 126.08C936.185 126.08 940.638 124.027 944.638 119.92C944.745 119.76 944.878 119.6 945.038 119.44H958.398V119.6C958.292 119.867 958.132 120.24 957.918 120.72C955.305 126.053 951.678 130.24 947.038 133.28C942.398 136.32 937.145 137.84 931.278 137.84C923.278 137.84 916.452 134.987 910.798 129.28C905.145 123.52 902.318 116.64 902.318 108.64ZM961.305 95.12H973.065V118.56C973.171 119.2 973.278 119.733 973.385 120.16C973.865 121.867 974.851 123.253 976.345 124.32C977.891 125.387 979.545 125.92 981.305 125.92C983.491 125.92 985.411 125.12 987.065 123.52C988.771 121.92 989.625 120.027 989.625 117.84V95.12H1001.38V118.4C1001.38 120 1001.14 121.573 1000.66 123.12C999.331 127.493 996.905 131.04 993.385 133.76C989.865 136.427 985.838 137.76 981.305 137.76C977.198 137.76 973.385 136.533 969.865 134.08C966.345 131.627 963.891 128.453 962.505 124.56C961.705 122.32 961.305 120.56 961.305 119.28V95.12ZM1004.27 126.48H1009.31C1009.79 126.48 1010.35 126.187 1010.99 125.6C1011.69 124.96 1012.09 124.4 1012.19 123.92L1015.23 107.04C1015.82 103.84 1017.55 101.04 1020.43 98.64C1023.37 96.24 1026.43 95.04 1029.63 95.04H1034.67V106.8H1030.19C1029.55 106.8 1028.83 107.093 1028.03 107.68C1027.29 108.213 1026.86 108.8 1026.75 109.44L1023.71 126.48C1023.34 128.72 1022.25 130.8 1020.43 132.72C1017.29 136.133 1013.9 137.973 1010.27 138.24C1009.63 138.293 1007.63 138.32 1004.27 138.32V126.48ZM1037.55 79.84H1049.31V94.8H1055.07V106.64H1049.31V124.4C1049.31 124.773 1049.5 125.173 1049.87 125.6C1050.25 126.027 1050.62 126.24 1050.99 126.24H1055.79V138H1050.19C1049.45 138 1048.54 137.84 1047.47 137.52C1042.62 136.08 1039.47 132.907 1038.03 128C1037.71 126.88 1037.55 125.867 1037.55 124.96V79.84ZM1058.65 116.56C1058.65 110.693 1060.73 105.68 1064.89 101.52C1069.05 97.36 1074.04 95.28 1079.85 95.28C1085.77 95.28 1090.84 97.36 1095.05 101.52C1099.26 105.68 1101.37 110.72 1101.37 116.64C1101.37 122.453 1099.26 127.467 1095.05 131.68C1090.89 135.893 1085.88 138 1080.01 138C1074.09 138 1069.05 135.92 1064.89 131.76C1060.73 127.547 1058.65 122.48 1058.65 116.56ZM1070.41 116.56C1070.41 119.227 1071.34 121.493 1073.21 123.36C1075.08 125.227 1077.34 126.16 1080.01 126.16C1082.62 126.16 1084.86 125.227 1086.73 123.36C1088.65 121.44 1089.61 119.173 1089.61 116.56C1089.61 113.947 1088.65 111.707 1086.73 109.84C1084.81 107.973 1082.54 107.04 1079.93 107.04C1077.32 107.04 1075.08 107.973 1073.21 109.84C1071.34 111.707 1070.41 113.947 1070.41 116.56ZM1104.27 138V115.2C1104.27 113.28 1104.57 111.413 1105.15 109.6C1106.54 105.333 1108.75 101.92 1111.79 99.36C1115.1 96.5333 1118.89 95.12 1123.15 95.12C1127.74 95.12 1132.06 97.0133 1136.11 100.8C1139.79 97.0133 1144.09 95.12 1148.99 95.12C1153.26 95.12 1157.07 96.5067 1160.43 99.28C1163.79 102.053 1166.03 105.573 1167.15 109.84C1167.69 111.867 1167.95 113.52 1167.95 114.8V138H1156.19V115.44C1156.09 114.587 1156.03 114.107 1156.03 114C1155.66 112.133 1154.89 110.533 1153.71 109.2C1152.38 107.707 1150.83 106.96 1149.07 106.96C1147.31 106.96 1145.77 107.707 1144.43 109.2C1143.31 110.533 1142.57 112.133 1142.19 114C1142.14 114.373 1142.09 114.853 1142.03 115.44V138H1130.19V115.2C1130.09 114.4 1130.03 113.973 1130.03 113.92C1129.66 112.053 1128.89 110.453 1127.71 109.12C1126.38 107.68 1124.83 106.96 1123.07 106.96C1121.05 106.96 1119.34 107.947 1117.95 109.92C1116.67 111.68 1116.03 113.627 1116.03 115.76V138H1104.27ZM1203.11 79.52H1214.79V138H1203.11V79.52ZM1217.63 116.48C1217.63 111.307 1219.31 106.747 1222.67 102.8C1226.03 98.8 1230.24 96.3467 1235.31 95.44C1236.59 95.2267 1237.82 95.12 1238.99 95.12C1242.88 95.1733 1246.51 96.1867 1249.87 98.16C1253.23 100.133 1255.84 102.8 1257.71 106.16C1257.82 106.267 1258.14 106.853 1258.67 107.92C1258.67 107.653 1258.83 108.08 1259.15 109.2C1259.31 109.573 1259.44 110 1259.55 110.48V110.72H1246.75C1244.35 108.213 1241.79 106.96 1239.07 106.96C1236.35 106.96 1234.06 107.893 1232.19 109.76C1230.38 111.627 1229.47 113.893 1229.47 116.56C1229.47 119.173 1230.4 121.413 1232.27 123.28C1234.14 125.147 1236.38 126.08 1238.99 126.08C1241.92 126.08 1244.51 124.827 1246.75 122.32H1259.55V122.56C1259.39 123.04 1259.18 123.68 1258.91 124.48C1258.54 125.547 1257.63 127.12 1256.19 129.2C1255.71 129.893 1254.67 131.04 1253.07 132.64C1253.07 132.64 1252.99 132.72 1252.83 132.88C1252.67 132.987 1252.56 133.067 1252.51 133.12C1248.35 136.267 1243.84 137.84 1238.99 137.84C1233.12 137.84 1228.08 135.76 1223.87 131.6C1219.71 127.44 1217.63 122.4 1217.63 116.48ZM1262.4 116.56C1262.4 110.693 1264.48 105.68 1268.64 101.52C1272.8 97.36 1277.79 95.28 1283.6 95.28C1289.52 95.28 1294.59 97.36 1298.8 101.52C1303.01 105.68 1305.12 110.72 1305.12 116.64C1305.12 122.453 1303.01 127.467 1298.8 131.68C1294.64 135.893 1289.63 138 1283.76 138C1277.84 138 1272.8 135.92 1268.64 131.76C1264.48 127.547 1262.4 122.48 1262.4 116.56ZM1274.16 116.56C1274.16 119.227 1275.09 121.493 1276.96 123.36C1278.83 125.227 1281.09 126.16 1283.76 126.16C1286.37 126.16 1288.61 125.227 1290.48 123.36C1292.4 121.44 1293.36 119.173 1293.36 116.56C1293.36 113.947 1292.4 111.707 1290.48 109.84C1288.56 107.973 1286.29 107.04 1283.68 107.04C1281.07 107.04 1278.83 107.973 1276.96 109.84C1275.09 111.707 1274.16 113.947 1274.16 116.56ZM1328.66 95.2C1332.88 95.2 1336.69 96.3467 1340.1 98.64C1343.57 100.933 1346.13 104 1347.78 107.84C1348.9 110.453 1349.46 112.72 1349.46 114.64V138.08H1337.7V115.28C1337.7 114.747 1337.6 114.267 1337.38 113.84C1336.85 111.867 1335.78 110.24 1334.18 108.96C1332.64 107.68 1330.82 107.04 1328.74 107.04C1326.72 107.04 1324.93 107.653 1323.38 108.88C1321.84 110.107 1320.77 111.707 1320.18 113.68C1320.18 113.68 1320.16 113.787 1320.1 114C1320.05 114.16 1320 114.267 1319.94 114.32C1319.94 114.32 1319.89 114.773 1319.78 115.68V138.08H1308.02V115.04C1308.02 114.453 1308.1 113.68 1308.26 112.72C1309.06 107.76 1311.41 103.6 1315.3 100.24C1319.25 96.88 1323.7 95.2 1328.66 95.2ZM1352.32 126.48H1357.36C1357.84 126.48 1358.4 126.187 1359.04 125.6C1359.73 124.96 1360.13 124.4 1360.24 123.92L1363.28 107.04C1363.87 103.84 1365.6 101.04 1368.48 98.64C1371.41 96.24 1374.48 95.04 1377.68 95.04H1382.72V106.8H1378.24C1377.6 106.8 1376.88 107.093 1376.08 107.68C1375.33 108.213 1374.91 108.8 1374.8 109.44L1371.76 126.48C1371.39 128.72 1370.29 130.8 1368.48 132.72C1365.33 136.133 1361.95 137.973 1358.32 138.24C1357.68 138.293 1355.68 138.32 1352.32 138.32V126.48Z" fill="#671786"/>
<path d="M906.5 168.5L908.256 173.244L913 175L908.256 176.756L906.5 181.5L904.744 176.756L900 175L904.744 173.244L906.5 168.5Z" fill="#671786" fill-opacity="0.8"/>
<path d="M946.206 182V168H947.746V182H946.206ZM950.555 182V171.98H952.035V173.16C952.822 172.24 953.875 171.78 955.195 171.78C955.955 171.78 956.622 171.947 957.195 172.28C957.782 172.6 958.235 173.053 958.555 173.64C958.888 174.213 959.055 174.887 959.055 175.66V182H957.595V175.96C957.595 175.067 957.342 174.367 956.835 173.86C956.342 173.34 955.662 173.08 954.795 173.08C954.195 173.08 953.662 173.213 953.195 173.48C952.728 173.747 952.342 174.127 952.035 174.62V182H950.555ZM965.179 182.2C964.312 182.2 963.645 181.993 963.179 181.58C962.712 181.167 962.479 180.567 962.479 179.78V173.24H960.319V171.98H962.479V169.44L963.939 169.06V171.98H966.959V173.24H963.939V179.4C963.939 179.933 964.059 180.32 964.299 180.56C964.539 180.787 964.932 180.9 965.479 180.9C965.759 180.9 966.005 180.88 966.219 180.84C966.445 180.8 966.685 180.733 966.939 180.64V181.94C966.685 182.033 966.399 182.1 966.079 182.14C965.772 182.18 965.472 182.2 965.179 182.2ZM972.383 182.2C971.623 182.2 970.95 182.04 970.363 181.72C969.777 181.387 969.317 180.933 968.983 180.36C968.663 179.773 968.503 179.093 968.503 178.32V171.98H969.963V178.02C969.963 178.913 970.217 179.62 970.723 180.14C971.23 180.647 971.91 180.9 972.763 180.9C973.363 180.9 973.897 180.767 974.363 180.5C974.843 180.22 975.23 179.833 975.523 179.34V171.98H977.003V182H975.523V180.84C974.737 181.747 973.69 182.2 972.383 182.2ZM979.52 182V171.98H981V182H979.52ZM980.26 170.06C979.993 170.06 979.76 169.96 979.56 169.76C979.36 169.56 979.26 169.327 979.26 169.06C979.26 168.78 979.36 168.547 979.56 168.36C979.76 168.16 979.993 168.06 980.26 168.06C980.54 168.06 980.773 168.16 980.96 168.36C981.16 168.547 981.26 168.78 981.26 169.06C981.26 169.327 981.16 169.56 980.96 169.76C980.773 169.96 980.54 170.06 980.26 170.06ZM987.464 182.2C986.597 182.2 985.93 181.993 985.464 181.58C984.997 181.167 984.764 180.567 984.764 179.78V173.24H982.604V171.98H984.764V169.44L986.224 169.06V171.98H989.244V173.24H986.224V179.4C986.224 179.933 986.344 180.32 986.584 180.56C986.824 180.787 987.217 180.9 987.764 180.9C988.044 180.9 988.29 180.88 988.504 180.84C988.73 180.8 988.97 180.733 989.224 180.64V181.94C988.97 182.033 988.684 182.1 988.364 182.14C988.057 182.18 987.757 182.2 987.464 182.2ZM990.828 182V171.98H992.308V182H990.828ZM991.568 170.06C991.302 170.06 991.068 169.96 990.868 169.76C990.668 169.56 990.568 169.327 990.568 169.06C990.568 168.78 990.668 168.547 990.868 168.36C991.068 168.16 991.302 168.06 991.568 168.06C991.848 168.06 992.082 168.16 992.268 168.36C992.468 168.547 992.568 168.78 992.568 169.06C992.568 169.327 992.468 169.56 992.268 169.76C992.082 169.96 991.848 170.06 991.568 170.06ZM998.012 182L993.672 171.98H995.312L998.732 180.08L1002.15 171.98H1003.73L999.412 182H998.012ZM1009.49 182.18C1008.53 182.18 1007.66 181.953 1006.87 181.5C1006.1 181.033 1005.48 180.407 1005.01 179.62C1004.56 178.833 1004.33 177.953 1004.33 176.98C1004.33 176.02 1004.55 175.153 1004.99 174.38C1005.43 173.593 1006.03 172.973 1006.77 172.52C1007.52 172.053 1008.35 171.82 1009.27 171.82C1010.17 171.82 1010.97 172.053 1011.67 172.52C1012.39 172.973 1012.96 173.593 1013.37 174.38C1013.8 175.153 1014.01 176.02 1014.01 176.98V177.44H1005.79C1005.87 178.093 1006.08 178.68 1006.41 179.2C1006.76 179.72 1007.21 180.133 1007.75 180.44C1008.3 180.733 1008.9 180.88 1009.55 180.88C1010.07 180.88 1010.58 180.8 1011.07 180.64C1011.57 180.48 1011.98 180.253 1012.31 179.96L1013.23 180.94C1012.67 181.353 1012.09 181.667 1011.47 181.88C1010.87 182.08 1010.21 182.18 1009.49 182.18ZM1005.83 176.26H1012.53C1012.45 175.66 1012.25 175.127 1011.93 174.66C1011.63 174.18 1011.24 173.807 1010.77 173.54C1010.31 173.26 1009.79 173.12 1009.23 173.12C1008.66 173.12 1008.13 173.253 1007.65 173.52C1007.17 173.787 1006.77 174.16 1006.45 174.64C1006.13 175.107 1005.93 175.647 1005.83 176.26Z" fill="#671786" fill-opacity="0.8"/>
<path d="M1053.83 168.5L1055.59 173.244L1060.33 175L1055.59 176.756L1053.83 181.5L1052.08 176.756L1047.33 175L1052.08 173.244L1053.83 168.5Z" fill="#671786" fill-opacity="0.8"/>
<path d="M1100.14 182.22C1099.13 182.22 1098.18 182.04 1097.3 181.68C1096.42 181.307 1095.65 180.793 1094.98 180.14C1094.31 179.473 1093.79 178.707 1093.42 177.84C1093.06 176.96 1092.88 176.013 1092.88 175C1092.88 173.987 1093.06 173.047 1093.42 172.18C1093.79 171.3 1094.31 170.533 1094.98 169.88C1095.65 169.213 1096.42 168.7 1097.3 168.34C1098.18 167.967 1099.13 167.78 1100.14 167.78C1100.87 167.78 1101.57 167.873 1102.24 168.06C1102.92 168.233 1103.55 168.493 1104.12 168.84C1104.71 169.173 1105.23 169.587 1105.68 170.08L1104.66 171.16C1104.11 170.533 1103.44 170.053 1102.64 169.72C1101.84 169.373 1101.01 169.2 1100.14 169.2C1099.33 169.2 1098.57 169.347 1097.88 169.64C1097.19 169.933 1096.58 170.347 1096.06 170.88C1095.55 171.4 1095.15 172.013 1094.86 172.72C1094.58 173.413 1094.44 174.173 1094.44 175C1094.44 175.813 1094.58 176.573 1094.86 177.28C1095.15 177.987 1095.56 178.607 1096.08 179.14C1096.6 179.66 1097.21 180.067 1097.9 180.36C1098.61 180.653 1099.37 180.8 1100.18 180.8C1101.05 180.8 1101.87 180.633 1102.66 180.3C1103.45 179.953 1104.11 179.48 1104.64 178.88L1105.64 179.92C1105.17 180.4 1104.65 180.813 1104.06 181.16C1103.49 181.507 1102.87 181.773 1102.2 181.96C1101.53 182.133 1100.85 182.22 1100.14 182.22ZM1112.06 182.2C1111.11 182.2 1110.25 181.973 1109.46 181.52C1108.69 181.053 1108.07 180.427 1107.62 179.64C1107.17 178.853 1106.94 177.973 1106.94 177C1106.94 176.027 1107.17 175.147 1107.62 174.36C1108.07 173.573 1108.69 172.953 1109.46 172.5C1110.25 172.033 1111.11 171.8 1112.06 171.8C1113.02 171.8 1113.89 172.033 1114.66 172.5C1115.43 172.953 1116.05 173.573 1116.5 174.36C1116.95 175.147 1117.18 176.027 1117.18 177C1117.18 177.973 1116.95 178.853 1116.5 179.64C1116.05 180.427 1115.43 181.053 1114.66 181.52C1113.89 181.973 1113.02 182.2 1112.06 182.2ZM1112.06 180.88C1112.74 180.88 1113.35 180.707 1113.9 180.36C1114.46 180.013 1114.9 179.547 1115.22 178.96C1115.55 178.373 1115.72 177.72 1115.72 177C1115.72 176.267 1115.55 175.613 1115.22 175.04C1114.9 174.453 1114.46 173.987 1113.9 173.64C1113.35 173.293 1112.74 173.12 1112.06 173.12C1111.38 173.12 1110.76 173.293 1110.2 173.64C1109.65 173.987 1109.21 174.453 1108.88 175.04C1108.56 175.613 1108.4 176.267 1108.4 177C1108.4 177.72 1108.56 178.373 1108.88 178.96C1109.21 179.547 1109.65 180.013 1110.2 180.36C1110.76 180.707 1111.38 180.88 1112.06 180.88ZM1119.24 182V168L1120.72 167.66V173.16C1121.5 172.24 1122.56 171.78 1123.88 171.78C1124.64 171.78 1125.3 171.947 1125.88 172.28C1126.46 172.6 1126.92 173.053 1127.24 173.64C1127.57 174.213 1127.74 174.887 1127.74 175.66V182H1126.28V175.96C1126.28 175.067 1126.02 174.367 1125.52 173.86C1125.02 173.34 1124.34 173.08 1123.48 173.08C1122.88 173.08 1122.34 173.213 1121.88 173.48C1121.41 173.747 1121.02 174.127 1120.72 174.62V182H1119.24ZM1134.91 182.18C1133.95 182.18 1133.08 181.953 1132.29 181.5C1131.52 181.033 1130.9 180.407 1130.43 179.62C1129.98 178.833 1129.75 177.953 1129.75 176.98C1129.75 176.02 1129.97 175.153 1130.41 174.38C1130.85 173.593 1131.45 172.973 1132.19 172.52C1132.94 172.053 1133.77 171.82 1134.69 171.82C1135.59 171.82 1136.39 172.053 1137.09 172.52C1137.81 172.973 1138.38 173.593 1138.79 174.38C1139.22 175.153 1139.43 176.02 1139.43 176.98V177.44H1131.21C1131.29 178.093 1131.5 178.68 1131.83 179.2C1132.18 179.72 1132.63 180.133 1133.17 180.44C1133.72 180.733 1134.32 180.88 1134.97 180.88C1135.49 180.88 1136 180.8 1136.49 180.64C1136.99 180.48 1137.4 180.253 1137.73 179.96L1138.65 180.94C1138.09 181.353 1137.51 181.667 1136.89 181.88C1136.29 182.08 1135.63 182.18 1134.91 182.18ZM1131.25 176.26H1137.95C1137.87 175.66 1137.67 175.127 1137.35 174.66C1137.05 174.18 1136.66 173.807 1136.19 173.54C1135.73 173.26 1135.21 173.12 1134.65 173.12C1134.08 173.12 1133.55 173.253 1133.07 173.52C1132.59 173.787 1132.19 174.16 1131.87 174.64C1131.55 175.107 1131.35 175.647 1131.25 176.26ZM1144.8 182.2C1143.97 182.2 1143.19 182.067 1142.46 181.8C1141.74 181.52 1141.11 181.133 1140.58 180.64L1141.48 179.68C1141.95 180.107 1142.46 180.44 1143.02 180.68C1143.58 180.907 1144.15 181.02 1144.74 181.02C1145.54 181.02 1146.19 180.853 1146.7 180.52C1147.21 180.187 1147.46 179.753 1147.46 179.22C1147.46 178.78 1147.31 178.44 1147 178.2C1146.71 177.947 1146.24 177.773 1145.6 177.68L1143.86 177.44C1142.86 177.293 1142.11 176.993 1141.62 176.54C1141.14 176.087 1140.9 175.473 1140.9 174.7C1140.9 174.14 1141.06 173.64 1141.38 173.2C1141.7 172.76 1142.14 172.413 1142.7 172.16C1143.27 171.907 1143.93 171.78 1144.66 171.78C1145.39 171.78 1146.08 171.887 1146.72 172.1C1147.36 172.313 1147.99 172.647 1148.6 173.1L1147.82 174.1C1147.26 173.713 1146.71 173.433 1146.18 173.26C1145.66 173.073 1145.13 172.98 1144.58 172.98C1143.89 172.98 1143.33 173.133 1142.9 173.44C1142.47 173.747 1142.26 174.147 1142.26 174.64C1142.26 175.093 1142.41 175.44 1142.7 175.68C1142.99 175.907 1143.47 176.067 1144.12 176.16L1145.86 176.4C1146.86 176.533 1147.61 176.827 1148.1 177.28C1148.61 177.733 1148.86 178.353 1148.86 179.14C1148.86 179.713 1148.68 180.233 1148.32 180.7C1147.96 181.167 1147.47 181.533 1146.86 181.8C1146.26 182.067 1145.57 182.2 1144.8 182.2ZM1150.53 182V171.98H1152.01V182H1150.53ZM1151.27 170.06C1151 170.06 1150.77 169.96 1150.57 169.76C1150.37 169.56 1150.27 169.327 1150.27 169.06C1150.27 168.78 1150.37 168.547 1150.57 168.36C1150.77 168.16 1151 168.06 1151.27 168.06C1151.55 168.06 1151.78 168.16 1151.97 168.36C1152.17 168.547 1152.27 168.78 1152.27 169.06C1152.27 169.327 1152.17 169.56 1151.97 169.76C1151.78 169.96 1151.55 170.06 1151.27 170.06ZM1157.71 182L1153.37 171.98H1155.01L1158.43 180.08L1161.85 171.98H1163.43L1159.11 182H1157.71ZM1169.19 182.18C1168.23 182.18 1167.36 181.953 1166.57 181.5C1165.8 181.033 1165.18 180.407 1164.71 179.62C1164.26 178.833 1164.03 177.953 1164.03 176.98C1164.03 176.02 1164.25 175.153 1164.69 174.38C1165.13 173.593 1165.72 172.973 1166.47 172.52C1167.22 172.053 1168.05 171.82 1168.97 171.82C1169.86 171.82 1170.66 172.053 1171.37 172.52C1172.09 172.973 1172.66 173.593 1173.07 174.38C1173.5 175.153 1173.71 176.02 1173.71 176.98V177.44H1165.49C1165.57 178.093 1165.78 178.68 1166.11 179.2C1166.46 179.72 1166.9 180.133 1167.45 180.44C1168 180.733 1168.6 180.88 1169.25 180.88C1169.77 180.88 1170.28 180.8 1170.77 180.64C1171.26 180.48 1171.68 180.253 1172.01 179.96L1172.93 180.94C1172.37 181.353 1171.78 181.667 1171.17 181.88C1170.57 182.08 1169.91 182.18 1169.19 182.18ZM1165.53 176.26H1172.23C1172.15 175.66 1171.95 175.127 1171.63 174.66C1171.32 174.18 1170.94 173.807 1170.47 173.54C1170 173.26 1169.49 173.12 1168.93 173.12C1168.36 173.12 1167.83 173.253 1167.35 173.52C1166.87 173.787 1166.47 174.16 1166.15 174.64C1165.83 175.107 1165.62 175.647 1165.53 176.26Z" fill="#671786" fill-opacity="0.8"/>
<path d="M1213.17 168.5L1214.92 173.244L1219.67 175L1214.92 176.756L1213.17 181.5L1211.41 176.756L1206.67 175L1211.41 173.244L1213.17 168.5Z" fill="#671786" fill-opacity="0.8"/>
<path d="M1252.87 182V168H1255.03L1259.81 177.94L1264.57 168H1266.73V182H1265.27V169.76L1259.79 181L1254.31 169.78V182H1252.87ZM1269.53 182V171.98H1271.01V182H1269.53ZM1270.27 170.06C1270 170.06 1269.77 169.96 1269.57 169.76C1269.37 169.56 1269.27 169.327 1269.27 169.06C1269.27 168.78 1269.37 168.547 1269.57 168.36C1269.77 168.16 1270 168.06 1270.27 168.06C1270.55 168.06 1270.78 168.16 1270.97 168.36C1271.17 168.547 1271.27 168.78 1271.27 169.06C1271.27 169.327 1271.17 169.56 1270.97 169.76C1270.78 169.96 1270.55 170.06 1270.27 170.06ZM1273.53 182V171.98H1275.01V173.16C1275.8 172.24 1276.85 171.78 1278.17 171.78C1278.93 171.78 1279.6 171.947 1280.17 172.28C1280.76 172.6 1281.21 173.053 1281.53 173.64C1281.86 174.213 1282.03 174.887 1282.03 175.66V182H1280.57V175.96C1280.57 175.067 1280.32 174.367 1279.81 173.86C1279.32 173.34 1278.64 173.08 1277.77 173.08C1277.17 173.08 1276.64 173.213 1276.17 173.48C1275.7 173.747 1275.32 174.127 1275.01 174.62V182H1273.53ZM1284.51 182V171.98H1285.99V182H1284.51ZM1285.25 170.06C1284.98 170.06 1284.75 169.96 1284.55 169.76C1284.35 169.56 1284.25 169.327 1284.25 169.06C1284.25 168.78 1284.35 168.547 1284.55 168.36C1284.75 168.16 1284.98 168.06 1285.25 168.06C1285.53 168.06 1285.76 168.16 1285.95 168.36C1286.15 168.547 1286.25 168.78 1286.25 169.06C1286.25 169.327 1286.15 169.56 1285.95 169.76C1285.76 169.96 1285.53 170.06 1285.25 170.06ZM1288.51 182V171.98H1289.99V173.08C1290.75 172.213 1291.73 171.78 1292.93 171.78C1293.64 171.78 1294.27 171.947 1294.81 172.28C1295.36 172.6 1295.79 173.04 1296.09 173.6C1296.51 172.987 1297 172.533 1297.57 172.24C1298.15 171.933 1298.8 171.78 1299.53 171.78C1300.27 171.78 1300.91 171.947 1301.45 172.28C1302 172.6 1302.43 173.053 1302.73 173.64C1303.05 174.213 1303.21 174.887 1303.21 175.66V182H1301.75V175.96C1301.75 175.067 1301.52 174.367 1301.05 173.86C1300.59 173.34 1299.95 173.08 1299.15 173.08C1298.61 173.08 1298.11 173.22 1297.65 173.5C1297.2 173.767 1296.81 174.173 1296.49 174.72C1296.52 174.867 1296.54 175.02 1296.55 175.18C1296.58 175.327 1296.59 175.487 1296.59 175.66V182H1295.13V175.96C1295.13 175.067 1294.9 174.367 1294.43 173.86C1293.97 173.34 1293.34 173.08 1292.55 173.08C1292.02 173.08 1291.53 173.207 1291.09 173.46C1290.67 173.7 1290.3 174.06 1289.99 174.54V182H1288.51ZM1308.86 182.18C1308.13 182.18 1307.48 182.053 1306.92 181.8C1306.37 181.547 1305.94 181.193 1305.62 180.74C1305.31 180.287 1305.16 179.76 1305.16 179.16C1305.16 178.213 1305.52 177.467 1306.24 176.92C1306.96 176.373 1307.93 176.1 1309.16 176.1C1310.24 176.1 1311.22 176.327 1312.1 176.78V175.46C1312.1 174.66 1311.87 174.06 1311.42 173.66C1310.97 173.247 1310.31 173.04 1309.44 173.04C1308.95 173.04 1308.45 173.113 1307.94 173.26C1307.45 173.393 1306.9 173.613 1306.3 173.92L1305.74 172.78C1306.46 172.433 1307.13 172.18 1307.74 172.02C1308.35 171.86 1308.97 171.78 1309.58 171.78C1310.85 171.78 1311.82 172.08 1312.5 172.68C1313.19 173.28 1313.54 174.14 1313.54 175.26V182H1312.1V181.02C1311.65 181.407 1311.15 181.7 1310.6 181.9C1310.07 182.087 1309.49 182.18 1308.86 182.18ZM1306.58 179.12C1306.58 179.68 1306.81 180.14 1307.28 180.5C1307.76 180.847 1308.37 181.02 1309.12 181.02C1309.72 181.02 1310.27 180.927 1310.76 180.74C1311.25 180.553 1311.7 180.26 1312.1 179.86V177.98C1311.69 177.7 1311.25 177.5 1310.78 177.38C1310.31 177.247 1309.79 177.18 1309.2 177.18C1308.4 177.18 1307.76 177.36 1307.28 177.72C1306.81 178.067 1306.58 178.533 1306.58 179.12ZM1316.01 182V168L1317.49 167.66V182H1316.01ZM1320.02 182V171.98H1321.5V182H1320.02ZM1320.76 170.06C1320.49 170.06 1320.26 169.96 1320.06 169.76C1319.86 169.56 1319.76 169.327 1319.76 169.06C1319.76 168.78 1319.86 168.547 1320.06 168.36C1320.26 168.16 1320.49 168.06 1320.76 168.06C1321.04 168.06 1321.27 168.16 1321.46 168.36C1321.66 168.547 1321.76 168.78 1321.76 169.06C1321.76 169.327 1321.66 169.56 1321.46 169.76C1321.27 169.96 1321.04 170.06 1320.76 170.06ZM1327.22 182.2C1326.39 182.2 1325.61 182.067 1324.88 181.8C1324.16 181.52 1323.53 181.133 1323 180.64L1323.9 179.68C1324.37 180.107 1324.88 180.44 1325.44 180.68C1326 180.907 1326.57 181.02 1327.16 181.02C1327.96 181.02 1328.61 180.853 1329.12 180.52C1329.63 180.187 1329.88 179.753 1329.88 179.22C1329.88 178.78 1329.73 178.44 1329.42 178.2C1329.13 177.947 1328.66 177.773 1328.02 177.68L1326.28 177.44C1325.28 177.293 1324.53 176.993 1324.04 176.54C1323.56 176.087 1323.32 175.473 1323.32 174.7C1323.32 174.14 1323.48 173.64 1323.8 173.2C1324.12 172.76 1324.56 172.413 1325.12 172.16C1325.69 171.907 1326.35 171.78 1327.08 171.78C1327.81 171.78 1328.5 171.887 1329.14 172.1C1329.78 172.313 1330.41 172.647 1331.02 173.1L1330.24 174.1C1329.68 173.713 1329.13 173.433 1328.6 173.26C1328.08 173.073 1327.55 172.98 1327 172.98C1326.31 172.98 1325.75 173.133 1325.32 173.44C1324.89 173.747 1324.68 174.147 1324.68 174.64C1324.68 175.093 1324.83 175.44 1325.12 175.68C1325.41 175.907 1325.89 176.067 1326.54 176.16L1328.28 176.4C1329.28 176.533 1330.03 176.827 1330.52 177.28C1331.03 177.733 1331.28 178.353 1331.28 179.14C1331.28 179.713 1331.1 180.233 1330.74 180.7C1330.38 181.167 1329.89 181.533 1329.28 181.8C1328.68 182.067 1327.99 182.2 1327.22 182.2ZM1336.69 182.2C1335.82 182.2 1335.16 181.993 1334.69 181.58C1334.22 181.167 1333.99 180.567 1333.99 179.78V173.24H1331.83V171.98H1333.99V169.44L1335.45 169.06V171.98H1338.47V173.24H1335.45V179.4C1335.45 179.933 1335.57 180.32 1335.81 180.56C1336.05 180.787 1336.44 180.9 1336.99 180.9C1337.27 180.9 1337.52 180.88 1337.73 180.84C1337.96 180.8 1338.2 180.733 1338.45 180.64V181.94C1338.2 182.033 1337.91 182.1 1337.59 182.14C1337.28 182.18 1336.98 182.2 1336.69 182.2Z" fill="#671786" fill-opacity="0.8"/>
<path d="M1377.5 168.5L1379.26 173.244L1384 175L1379.26 176.756L1377.5 181.5L1375.74 176.756L1371 175L1375.74 173.244L1377.5 168.5Z" fill="#671786" fill-opacity="0.8"/>
<path d="M-1.13332 100.29L92.9367 7.14H-1.13332V-26.67L134.337 -26.44C134.337 -26.2867 134.413 -26.0567 134.567 -25.75V13.58L40.0367 106.96V107.19H134.567V141H-1.13332V100.29ZM242.667 -27.13V6.67999H179.417C177.577 6.67999 176.657 7.52332 176.657 9.21V40.03H242.667V74.07H176.657V104.89C176.657 106.73 177.807 107.65 180.107 107.65H242.667V141.46H178.267C175.813 141.46 172.977 141 169.757 140.08C162.09 137.933 155.65 133.563 150.437 126.97C145.223 120.223 142.617 112.863 142.617 104.89V9.21C142.617 1.69666 144.917 -5.28001 149.517 -11.72C154.27 -18.16 160.173 -22.6067 167.227 -25.06C171.213 -26.44 174.357 -27.13 176.657 -27.13H242.667ZM370.254 31.52C370.254 43.6333 366.804 54.6733 359.904 64.64C353.004 74.4533 343.88 81.5067 332.534 85.8C326.554 88.1 320.804 89.25 315.284 89.25H284.464V140.77H250.654V20.71C250.654 19.33 250.884 17.3367 251.344 14.73C253.03 5.37666 257.017 -2.82667 263.304 -9.88C269.59 -17.0867 277.257 -21.9933 286.304 -24.6C291.824 -26.1333 296.194 -26.9 299.414 -26.9H315.974C320.88 -26.9 326.324 -25.75 332.304 -23.45C343.804 -19.0033 353.004 -11.7967 359.904 -1.83001C366.804 7.98332 370.254 19.1 370.254 31.52ZM307.924 7.14C301.944 7.14 297.727 7.44666 295.274 8.06C290.98 9.28666 287.99 11.8933 286.304 15.88C285.077 18.64 284.464 20.8633 284.464 22.55V54.98H316.434C317.814 54.98 319.884 54.3667 322.644 53.14C331.844 49.1533 336.444 41.7933 336.444 31.06C336.444 24.7733 334.297 19.4067 330.004 14.96C325.71 10.36 320.42 7.75333 314.134 7.14H307.924ZM378.232 -27.13H412.272V91.32C412.425 93.0067 412.655 94.31 412.962 95.23C415.109 102.743 420.629 106.5 429.522 106.5H467.932V140.31H427.222C422.162 140.31 416.719 139.313 410.892 137.32C400.619 133.793 392.492 127.353 386.512 118C380.992 109.26 378.232 99.2933 378.232 88.1V-27.13ZM523.777 85.57C518.104 83.8833 512.66 81.43 507.447 78.21C497.94 72.5367 490.274 64.5633 484.447 54.29C478.774 43.8633 475.937 33.13 475.937 22.09V-27.13H509.977V24.39C510.284 26.5367 510.59 28.3 510.897 29.68C512.43 36.58 516.034 42.4067 521.707 47.16C527.38 51.76 533.744 54.06 540.797 54.06C548.004 54.06 554.367 51.53 559.887 46.47C565.56 41.41 569.164 35.2 570.697 27.84C571.004 26.6133 571.234 24.9267 571.387 22.78V-27.13H605.197V24.39C605.197 28.6833 604.277 34.05 602.437 40.49C599.37 51.2233 593.774 60.5767 585.647 68.55C577.674 76.5233 568.32 82.1967 557.587 85.57V141.46H523.777V85.57Z" fill="#671786" fill-opacity="0.1"/>
</g>
<defs>
<filter id="filter0_d_380_31392" x="-57.0703" y="102" width="314.424" height="271.9" filterUnits="userSpaceOnUse" color-interpolation-filters="sRGB">
<feFlood flood-opacity="0" result="BackgroundImageFix"/>
<feColorMatrix in="SourceAlpha" type="matrix" values="0 0 0 0 0 0 0 0 0 0 0 0 0 0 0 0 0 0 127 0" result="hardAlpha"/>
<feOffset dx="8" dy="8"/>
<feGaussianBlur stdDeviation="30"/>
<feComposite in2="hardAlpha" operator="out"/>
<feColorMatrix type="matrix" values="0 0 0 0 0.322353 0 0 0 0 0.0901961 0 0 0 0 0.52549 0 0 0 0.06 0"/>
<feBlend mode="normal" in2="BackgroundImageFix" result="effect1_dropShadow_380_31392"/>
<feBlend mode="normal" in="SourceGraphic" in2="effect1_dropShadow_380_31392" result="shape"/>
</filter>
<filter id="filter1_d_380_31392" x="139.613" y="136.681" width="314.424" height="271.9" filterUnits="userSpaceOnUse" color-interpolation-filters="sRGB">
<feFlood flood-opacity="0" result="BackgroundImageFix"/>
<feColorMatrix in="SourceAlpha" type="matrix" values="0 0 0 0 0 0 0 0 0 0 0 0 0 0 0 0 0 0 127 0" result="hardAlpha"/>
<feOffset dx="8" dy="8"/>
<feGaussianBlur stdDeviation="30"/>
<feComposite in2="hardAlpha" operator="out"/>
<feColorMatrix type="matrix" values="0 0 0 0 0.322353 0 0 0 0 0.0901961 0 0 0 0 0.52549 0 0 0 0.06 0"/>
<feBlend mode="normal" in2="BackgroundImageFix" result="effect1_dropShadow_380_31392"/>
<feBlend mode="normal" in="SourceGraphic" in2="effect1_dropShadow_380_31392" result="shape"/>
</filter>
<filter id="filter2_d_380_31392" x="336.297" y="171.361" width="314.424" height="271.9" filterUnits="userSpaceOnUse" color-interpolation-filters="sRGB">
<feFlood flood-opacity="0" result="BackgroundImageFix"/>
<feColorMatrix in="SourceAlpha" type="matrix" values="0 0 0 0 0 0 0 0 0 0 0 0 0 0 0 0 0 0 127 0" result="hardAlpha"/>
<feOffset dx="8" dy="8"/>
<feGaussianBlur stdDeviation="30"/>
<feComposite in2="hardAlpha" operator="out"/>
<feColorMatrix type="matrix" values="0 0 0 0 0.322353 0 0 0 0 0.0901961 0 0 0 0 0.52549 0 0 0 0.06 0"/>
<feBlend mode="normal" in2="BackgroundImageFix" result="effect1_dropShadow_380_31392"/>
<feBlend mode="normal" in="SourceGraphic" in2="effect1_dropShadow_380_31392" result="shape"/>
</filter>
<filter id="filter3_d_380_31392" x="532.98" y="206.042" width="314.424" height="271.9" filterUnits="userSpaceOnUse" color-interpolation-filters="sRGB">
<feFlood flood-opacity="0" result="BackgroundImageFix"/>
<feColorMatrix in="SourceAlpha" type="matrix" values="0 0 0 0 0 0 0 0 0 0 0 0 0 0 0 0 0 0 127 0" result="hardAlpha"/>
<feOffset dx="8" dy="8"/>
<feGaussianBlur stdDeviation="30"/>
<feComposite in2="hardAlpha" operator="out"/>
<feColorMatrix type="matrix" values="0 0 0 0 0.322353 0 0 0 0 0.0901961 0 0 0 0 0.52549 0 0 0 0.06 0"/>
<feBlend mode="normal" in2="BackgroundImageFix" result="effect1_dropShadow_380_31392"/>
<feBlend mode="normal" in="SourceGraphic" in2="effect1_dropShadow_380_31392" result="shape"/>
</filter>
<filter id="filter4_d_380_31392" x="729.664" y="240.722" width="314.424" height="271.9" filterUnits="userSpaceOnUse" color-interpolation-filters="sRGB">
<feFlood flood-opacity="0" result="BackgroundImageFix"/>
<feColorMatrix in="SourceAlpha" type="matrix" values="0 0 0 0 0 0 0 0 0 0 0 0 0 0 0 0 0 0 127 0" result="hardAlpha"/>
<feOffset dx="8" dy="8"/>
<feGaussianBlur stdDeviation="30"/>
<feComposite in2="hardAlpha" operator="out"/>
<feColorMatrix type="matrix" values="0 0 0 0 0.322353 0 0 0 0 0.0901961 0 0 0 0 0.52549 0 0 0 0.06 0"/>
<feBlend mode="normal" in2="BackgroundImageFix" result="effect1_dropShadow_380_31392"/>
<feBlend mode="normal" in="SourceGraphic" in2="effect1_dropShadow_380_31392" result="shape"/>
</filter>
<filter id="filter5_d_380_31392" x="926.348" y="275.403" width="314.424" height="271.9" filterUnits="userSpaceOnUse" color-interpolation-filters="sRGB">
<feFlood flood-opacity="0" result="BackgroundImageFix"/>
<feColorMatrix in="SourceAlpha" type="matrix" values="0 0 0 0 0 0 0 0 0 0 0 0 0 0 0 0 0 0 127 0" result="hardAlpha"/>
<feOffset dx="8" dy="8"/>
<feGaussianBlur stdDeviation="30"/>
<feComposite in2="hardAlpha" operator="out"/>
<feColorMatrix type="matrix" values="0 0 0 0 0.322353 0 0 0 0 0.0901961 0 0 0 0 0.52549 0 0 0 0.06 0"/>
<feBlend mode="normal" in2="BackgroundImageFix" result="effect1_dropShadow_380_31392"/>
<feBlend mode="normal" in="SourceGraphic" in2="effect1_dropShadow_380_31392" result="shape"/>
</filter>
<filter id="filter6_d_380_31392" x="1123.03" y="310.084" width="314.424" height="271.9" filterUnits="userSpaceOnUse" color-interpolation-filters="sRGB">
<feFlood flood-opacity="0" result="BackgroundImageFix"/>
<feColorMatrix in="SourceAlpha" type="matrix" values="0 0 0 0 0 0 0 0 0 0 0 0 0 0 0 0 0 0 127 0" result="hardAlpha"/>
<feOffset dx="8" dy="8"/>
<feGaussianBlur stdDeviation="30"/>
<feComposite in2="hardAlpha" operator="out"/>
<feColorMatrix type="matrix" values="0 0 0 0 0.322353 0 0 0 0 0.0901961 0 0 0 0 0.52549 0 0 0 0.06 0"/>
<feBlend mode="normal" in2="BackgroundImageFix" result="effect1_dropShadow_380_31392"/>
<feBlend mode="normal" in="SourceGraphic" in2="effect1_dropShadow_380_31392" result="shape"/>
</filter>
<filter id="filter7_d_380_31392" x="1319.71" y="344.764" width="314.424" height="271.9" filterUnits="userSpaceOnUse" color-interpolation-filters="sRGB">
<feFlood flood-opacity="0" result="BackgroundImageFix"/>
<feColorMatrix in="SourceAlpha" type="matrix" values="0 0 0 0 0 0 0 0 0 0 0 0 0 0 0 0 0 0 127 0" result="hardAlpha"/>
<feOffset dx="8" dy="8"/>
<feGaussianBlur stdDeviation="30"/>
<feComposite in2="hardAlpha" operator="out"/>
<feColorMatrix type="matrix" values="0 0 0 0 0.322353 0 0 0 0 0.0901961 0 0 0 0 0.52549 0 0 0 0.06 0"/>
<feBlend mode="normal" in2="BackgroundImageFix" result="effect1_dropShadow_380_31392"/>
<feBlend mode="normal" in="SourceGraphic" in2="effect1_dropShadow_380_31392" result="shape"/>
</filter>
<filter id="filter8_d_380_31392" x="-138.303" y="284.451" width="314.424" height="271.9" filterUnits="userSpaceOnUse" color-interpolation-filters="sRGB">
<feFlood flood-opacity="0" result="BackgroundImageFix"/>
<feColorMatrix in="SourceAlpha" type="matrix" values="0 0 0 0 0 0 0 0 0 0 0 0 0 0 0 0 0 0 127 0" result="hardAlpha"/>
<feOffset dx="8" dy="8"/>
<feGaussianBlur stdDeviation="30"/>
<feComposite in2="hardAlpha" operator="out"/>
<feColorMatrix type="matrix" values="0 0 0 0 0.322353 0 0 0 0 0.0901961 0 0 0 0 0.52549 0 0 0 0.06 0"/>
<feBlend mode="normal" in2="BackgroundImageFix" result="effect1_dropShadow_380_31392"/>
<feBlend mode="normal" in="SourceGraphic" in2="effect1_dropShadow_380_31392" result="shape"/>
</filter>
<filter id="filter9_d_380_31392" x="58.3809" y="319.132" width="314.424" height="271.9" filterUnits="userSpaceOnUse" color-interpolation-filters="sRGB">
<feFlood flood-opacity="0" result="BackgroundImageFix"/>
<feColorMatrix in="SourceAlpha" type="matrix" values="0 0 0 0 0 0 0 0 0 0 0 0 0 0 0 0 0 0 127 0" result="hardAlpha"/>
<feOffset dx="8" dy="8"/>
<feGaussianBlur stdDeviation="30"/>
<feComposite in2="hardAlpha" operator="out"/>
<feColorMatrix type="matrix" values="0 0 0 0 0.322353 0 0 0 0 0.0901961 0 0 0 0 0.52549 0 0 0 0.06 0"/>
<feBlend mode="normal" in2="BackgroundImageFix" result="effect1_dropShadow_380_31392"/>
<feBlend mode="normal" in="SourceGraphic" in2="effect1_dropShadow_380_31392" result="shape"/>
</filter>
<filter id="filter10_d_380_31392" x="255.064" y="353.812" width="314.424" height="271.9" filterUnits="userSpaceOnUse" color-interpolation-filters="sRGB">
<feFlood flood-opacity="0" result="BackgroundImageFix"/>
<feColorMatrix in="SourceAlpha" type="matrix" values="0 0 0 0 0 0 0 0 0 0 0 0 0 0 0 0 0 0 127 0" result="hardAlpha"/>
<feOffset dx="8" dy="8"/>
<feGaussianBlur stdDeviation="30"/>
<feComposite in2="hardAlpha" operator="out"/>
<feColorMatrix type="matrix" values="0 0 0 0 0.322353 0 0 0 0 0.0901961 0 0 0 0 0.52549 0 0 0 0.06 0"/>
<feBlend mode="normal" in2="BackgroundImageFix" result="effect1_dropShadow_380_31392"/>
<feBlend mode="normal" in="SourceGraphic" in2="effect1_dropShadow_380_31392" result="shape"/>
</filter>
<filter id="filter11_d_380_31392" x="451.748" y="388.493" width="314.424" height="271.9" filterUnits="userSpaceOnUse" color-interpolation-filters="sRGB">
<feFlood flood-opacity="0" result="BackgroundImageFix"/>
<feColorMatrix in="SourceAlpha" type="matrix" values="0 0 0 0 0 0 0 0 0 0 0 0 0 0 0 0 0 0 127 0" result="hardAlpha"/>
<feOffset dx="8" dy="8"/>
<feGaussianBlur stdDeviation="30"/>
<feComposite in2="hardAlpha" operator="out"/>
<feColorMatrix type="matrix" values="0 0 0 0 0.322353 0 0 0 0 0.0901961 0 0 0 0 0.52549 0 0 0 0.06 0"/>
<feBlend mode="normal" in2="BackgroundImageFix" result="effect1_dropShadow_380_31392"/>
<feBlend mode="normal" in="SourceGraphic" in2="effect1_dropShadow_380_31392" result="shape"/>
</filter>
<filter id="filter12_d_380_31392" x="672.432" y="447.174" width="274.424" height="231.9" filterUnits="userSpaceOnUse" color-interpolation-filters="sRGB">
<feFlood flood-opacity="0" result="BackgroundImageFix"/>
<feColorMatrix in="SourceAlpha" type="matrix" values="0 0 0 0 0 0 0 0 0 0 0 0 0 0 0 0 0 0 127 0" result="hardAlpha"/>
<feOffset dx="12" dy="12"/>
<feGaussianBlur stdDeviation="20"/>
<feComposite in2="hardAlpha" operator="out"/>
<feColorMatrix type="matrix" values="0 0 0 0 0.322353 0 0 0 0 0.0901961 0 0 0 0 0.52549 0 0 0 0.4 0"/>
<feBlend mode="normal" in2="BackgroundImageFix" result="effect1_dropShadow_380_31392"/>
<feBlend mode="normal" in="SourceGraphic" in2="effect1_dropShadow_380_31392" result="shape"/>
</filter>
<filter id="filter13_d_380_31392" x="845.115" y="457.854" width="314.424" height="271.9" filterUnits="userSpaceOnUse" color-interpolation-filters="sRGB">
<feFlood flood-opacity="0" result="BackgroundImageFix"/>
<feColorMatrix in="SourceAlpha" type="matrix" values="0 0 0 0 0 0 0 0 0 0 0 0 0 0 0 0 0 0 127 0" result="hardAlpha"/>
<feOffset dx="8" dy="8"/>
<feGaussianBlur stdDeviation="30"/>
<feComposite in2="hardAlpha" operator="out"/>
<feColorMatrix type="matrix" values="0 0 0 0 0.322353 0 0 0 0 0.0901961 0 0 0 0 0.52549 0 0 0 0.06 0"/>
<feBlend mode="normal" in2="BackgroundImageFix" result="effect1_dropShadow_380_31392"/>
<feBlend mode="normal" in="SourceGraphic" in2="effect1_dropShadow_380_31392" result="shape"/>
</filter>
<filter id="filter14_d_380_31392" x="1041.8" y="492.535" width="314.424" height="271.9" filterUnits="userSpaceOnUse" color-interpolation-filters="sRGB">
<feFlood flood-opacity="0" result="BackgroundImageFix"/>
<feColorMatrix in="SourceAlpha" type="matrix" values="0 0 0 0 0 0 0 0 0 0 0 0 0 0 0 0 0 0 127 0" result="hardAlpha"/>
<feOffset dx="8" dy="8"/>
<feGaussianBlur stdDeviation="30"/>
<feComposite in2="hardAlpha" operator="out"/>
<feColorMatrix type="matrix" values="0 0 0 0 0.322353 0 0 0 0 0.0901961 0 0 0 0 0.52549 0 0 0 0.06 0"/>
<feBlend mode="normal" in2="BackgroundImageFix" result="effect1_dropShadow_380_31392"/>
<feBlend mode="normal" in="SourceGraphic" in2="effect1_dropShadow_380_31392" result="shape"/>
</filter>
<filter id="filter15_d_380_31392" x="1238.48" y="527.215" width="314.424" height="271.9" filterUnits="userSpaceOnUse" color-interpolation-filters="sRGB">
<feFlood flood-opacity="0" result="BackgroundImageFix"/>
<feColorMatrix in="SourceAlpha" type="matrix" values="0 0 0 0 0 0 0 0 0 0 0 0 0 0 0 0 0 0 127 0" result="hardAlpha"/>
<feOffset dx="8" dy="8"/>
<feGaussianBlur stdDeviation="30"/>
<feComposite in2="hardAlpha" operator="out"/>
<feColorMatrix type="matrix" values="0 0 0 0 0.322353 0 0 0 0 0.0901961 0 0 0 0 0.52549 0 0 0 0.06 0"/>
<feBlend mode="normal" in2="BackgroundImageFix" result="effect1_dropShadow_380_31392"/>
<feBlend mode="normal" in="SourceGraphic" in2="effect1_dropShadow_380_31392" result="shape"/>
</filter>
<filter id="filter16_d_380_31392" x="-219.535" y="466.902" width="314.424" height="271.9" filterUnits="userSpaceOnUse" color-interpolation-filters="sRGB">
<feFlood flood-opacity="0" result="BackgroundImageFix"/>
<feColorMatrix in="SourceAlpha" type="matrix" values="0 0 0 0 0 0 0 0 0 0 0 0 0 0 0 0 0 0 127 0" result="hardAlpha"/>
<feOffset dx="8" dy="8"/>
<feGaussianBlur stdDeviation="30"/>
<feComposite in2="hardAlpha" operator="out"/>
<feColorMatrix type="matrix" values="0 0 0 0 0.322353 0 0 0 0 0.0901961 0 0 0 0 0.52549 0 0 0 0.06 0"/>
<feBlend mode="normal" in2="BackgroundImageFix" result="effect1_dropShadow_380_31392"/>
<feBlend mode="normal" in="SourceGraphic" in2="effect1_dropShadow_380_31392" result="shape"/>
</filter>
<filter id="filter17_d_380_31392" x="-22.8516" y="501.583" width="314.424" height="271.9" filterUnits="userSpaceOnUse" color-interpolation-filters="sRGB">
<feFlood flood-opacity="0" result="BackgroundImageFix"/>
<feColorMatrix in="SourceAlpha" type="matrix" values="0 0 0 0 0 0 0 0 0 0 0 0 0 0 0 0 0 0 127 0" result="hardAlpha"/>
<feOffset dx="8" dy="8"/>
<feGaussianBlur stdDeviation="30"/>
<feComposite in2="hardAlpha" operator="out"/>
<feColorMatrix type="matrix" values="0 0 0 0 0.322353 0 0 0 0 0.0901961 0 0 0 0 0.52549 0 0 0 0.06 0"/>
<feBlend mode="normal" in2="BackgroundImageFix" result="effect1_dropShadow_380_31392"/>
<feBlend mode="normal" in="SourceGraphic" in2="effect1_dropShadow_380_31392" result="shape"/>
</filter>
<filter id="filter18_d_380_31392" x="173.832" y="536.263" width="314.424" height="271.9" filterUnits="userSpaceOnUse" color-interpolation-filters="sRGB">
<feFlood flood-opacity="0" result="BackgroundImageFix"/>
<feColorMatrix in="SourceAlpha" type="matrix" values="0 0 0 0 0 0 0 0 0 0 0 0 0 0 0 0 0 0 127 0" result="hardAlpha"/>
<feOffset dx="8" dy="8"/>
<feGaussianBlur stdDeviation="30"/>
<feComposite in2="hardAlpha" operator="out"/>
<feColorMatrix type="matrix" values="0 0 0 0 0.322353 0 0 0 0 0.0901961 0 0 0 0 0.52549 0 0 0 0.06 0"/>
<feBlend mode="normal" in2="BackgroundImageFix" result="effect1_dropShadow_380_31392"/>
<feBlend mode="normal" in="SourceGraphic" in2="effect1_dropShadow_380_31392" result="shape"/>
</filter>
<filter id="filter19_d_380_31392" x="370.516" y="570.944" width="314.424" height="271.9" filterUnits="userSpaceOnUse" color-interpolation-filters="sRGB">
<feFlood flood-opacity="0" result="BackgroundImageFix"/>
<feColorMatrix in="SourceAlpha" type="matrix" values="0 0 0 0 0 0 0 0 0 0 0 0 0 0 0 0 0 0 127 0" result="hardAlpha"/>
<feOffset dx="8" dy="8"/>
<feGaussianBlur stdDeviation="30"/>
<feComposite in2="hardAlpha" operator="out"/>
<feColorMatrix type="matrix" values="0 0 0 0 0.322353 0 0 0 0 0.0901961 0 0 0 0 0.52549 0 0 0 0.06 0"/>
<feBlend mode="normal" in2="BackgroundImageFix" result="effect1_dropShadow_380_31392"/>
<feBlend mode="normal" in="SourceGraphic" in2="effect1_dropShadow_380_31392" result="shape"/>
</filter>
<filter id="filter20_d_380_31392" x="567.199" y="605.625" width="314.424" height="271.9" filterUnits="userSpaceOnUse" color-interpolation-filters="sRGB">
<feFlood flood-opacity="0" result="BackgroundImageFix"/>
<feColorMatrix in="SourceAlpha" type="matrix" values="0 0 0 0 0 0 0 0 0 0 0 0 0 0 0 0 0 0 127 0" result="hardAlpha"/>
<feOffset dx="8" dy="8"/>
<feGaussianBlur stdDeviation="30"/>
<feComposite in2="hardAlpha" operator="out"/>
<feColorMatrix type="matrix" values="0 0 0 0 0.322353 0 0 0 0 0.0901961 0 0 0 0 0.52549 0 0 0 0.06 0"/>
<feBlend mode="normal" in2="BackgroundImageFix" result="effect1_dropShadow_380_31392"/>
<feBlend mode="normal" in="SourceGraphic" in2="effect1_dropShadow_380_31392" result="shape"/>
</filter>
<filter id="filter21_d_380_31392" x="763.883" y="640.305" width="314.424" height="271.9" filterUnits="userSpaceOnUse" color-interpolation-filters="sRGB">
<feFlood flood-opacity="0" result="BackgroundImageFix"/>
<feColorMatrix in="SourceAlpha" type="matrix" values="0 0 0 0 0 0 0 0 0 0 0 0 0 0 0 0 0 0 127 0" result="hardAlpha"/>
<feOffset dx="8" dy="8"/>
<feGaussianBlur stdDeviation="30"/>
<feComposite in2="hardAlpha" operator="out"/>
<feColorMatrix type="matrix" values="0 0 0 0 0.322353 0 0 0 0 0.0901961 0 0 0 0 0.52549 0 0 0 0.06 0"/>
<feBlend mode="normal" in2="BackgroundImageFix" result="effect1_dropShadow_380_31392"/>
<feBlend mode="normal" in="SourceGraphic" in2="effect1_dropShadow_380_31392" result="shape"/>
</filter>
<filter id="filter22_d_380_31392" x="960.566" y="674.986" width="314.424" height="271.9" filterUnits="userSpaceOnUse" color-interpolation-filters="sRGB">
<feFlood flood-opacity="0" result="BackgroundImageFix"/>
<feColorMatrix in="SourceAlpha" type="matrix" values="0 0 0 0 0 0 0 0 0 0 0 0 0 0 0 0 0 0 127 0" result="hardAlpha"/>
<feOffset dx="8" dy="8"/>
<feGaussianBlur stdDeviation="30"/>
<feComposite in2="hardAlpha" operator="out"/>
<feColorMatrix type="matrix" values="0 0 0 0 0.322353 0 0 0 0 0.0901961 0 0 0 0 0.52549 0 0 0 0.06 0"/>
<feBlend mode="normal" in2="BackgroundImageFix" result="effect1_dropShadow_380_31392"/>
<feBlend mode="normal" in="SourceGraphic" in2="effect1_dropShadow_380_31392" result="shape"/>
</filter>
<filter id="filter23_d_380_31392" x="1157.25" y="709.667" width="314.424" height="271.9" filterUnits="userSpaceOnUse" color-interpolation-filters="sRGB">
<feFlood flood-opacity="0" result="BackgroundImageFix"/>
<feColorMatrix in="SourceAlpha" type="matrix" values="0 0 0 0 0 0 0 0 0 0 0 0 0 0 0 0 0 0 127 0" result="hardAlpha"/>
<feOffset dx="8" dy="8"/>
<feGaussianBlur stdDeviation="30"/>
<feComposite in2="hardAlpha" operator="out"/>
<feColorMatrix type="matrix" values="0 0 0 0 0.322353 0 0 0 0 0.0901961 0 0 0 0 0.52549 0 0 0 0.06 0"/>
<feBlend mode="normal" in2="BackgroundImageFix" result="effect1_dropShadow_380_31392"/>
<feBlend mode="normal" in="SourceGraphic" in2="effect1_dropShadow_380_31392" result="shape"/>
</filter>
<filter id="filter24_d_380_31392" x="-300.768" y="649.354" width="314.424" height="271.9" filterUnits="userSpaceOnUse" color-interpolation-filters="sRGB">
<feFlood flood-opacity="0" result="BackgroundImageFix"/>
<feColorMatrix in="SourceAlpha" type="matrix" values="0 0 0 0 0 0 0 0 0 0 0 0 0 0 0 0 0 0 127 0" result="hardAlpha"/>
<feOffset dx="8" dy="8"/>
<feGaussianBlur stdDeviation="30"/>
<feComposite in2="hardAlpha" operator="out"/>
<feColorMatrix type="matrix" values="0 0 0 0 0.322353 0 0 0 0 0.0901961 0 0 0 0 0.52549 0 0 0 0.06 0"/>
<feBlend mode="normal" in2="BackgroundImageFix" result="effect1_dropShadow_380_31392"/>
<feBlend mode="normal" in="SourceGraphic" in2="effect1_dropShadow_380_31392" result="shape"/>
</filter>
<filter id="filter25_d_380_31392" x="-104.084" y="684.034" width="314.424" height="271.9" filterUnits="userSpaceOnUse" color-interpolation-filters="sRGB">
<feFlood flood-opacity="0" result="BackgroundImageFix"/>
<feColorMatrix in="SourceAlpha" type="matrix" values="0 0 0 0 0 0 0 0 0 0 0 0 0 0 0 0 0 0 127 0" result="hardAlpha"/>
<feOffset dx="8" dy="8"/>
<feGaussianBlur stdDeviation="30"/>
<feComposite in2="hardAlpha" operator="out"/>
<feColorMatrix type="matrix" values="0 0 0 0 0.322353 0 0 0 0 0.0901961 0 0 0 0 0.52549 0 0 0 0.06 0"/>
<feBlend mode="normal" in2="BackgroundImageFix" result="effect1_dropShadow_380_31392"/>
<feBlend mode="normal" in="SourceGraphic" in2="effect1_dropShadow_380_31392" result="shape"/>
</filter>
<filter id="filter26_d_380_31392" x="92.5996" y="718.715" width="314.424" height="271.9" filterUnits="userSpaceOnUse" color-interpolation-filters="sRGB">
<feFlood flood-opacity="0" result="BackgroundImageFix"/>
<feColorMatrix in="SourceAlpha" type="matrix" values="0 0 0 0 0 0 0 0 0 0 0 0 0 0 0 0 0 0 127 0" result="hardAlpha"/>
<feOffset dx="8" dy="8"/>
<feGaussianBlur stdDeviation="30"/>
<feComposite in2="hardAlpha" operator="out"/>
<feColorMatrix type="matrix" values="0 0 0 0 0.322353 0 0 0 0 0.0901961 0 0 0 0 0.52549 0 0 0 0.06 0"/>
<feBlend mode="normal" in2="BackgroundImageFix" result="effect1_dropShadow_380_31392"/>
<feBlend mode="normal" in="SourceGraphic" in2="effect1_dropShadow_380_31392" result="shape"/>
</filter>
<filter id="filter27_d_380_31392" x="289.283" y="753.395" width="314.424" height="271.9" filterUnits="userSpaceOnUse" color-interpolation-filters="sRGB">
<feFlood flood-opacity="0" result="BackgroundImageFix"/>
<feColorMatrix in="SourceAlpha" type="matrix" values="0 0 0 0 0 0 0 0 0 0 0 0 0 0 0 0 0 0 127 0" result="hardAlpha"/>
<feOffset dx="8" dy="8"/>
<feGaussianBlur stdDeviation="30"/>
<feComposite in2="hardAlpha" operator="out"/>
<feColorMatrix type="matrix" values="0 0 0 0 0.322353 0 0 0 0 0.0901961 0 0 0 0 0.52549 0 0 0 0.06 0"/>
<feBlend mode="normal" in2="BackgroundImageFix" result="effect1_dropShadow_380_31392"/>
<feBlend mode="normal" in="SourceGraphic" in2="effect1_dropShadow_380_31392" result="shape"/>
</filter>
<filter id="filter28_d_380_31392" x="485.967" y="788.076" width="314.424" height="271.9" filterUnits="userSpaceOnUse" color-interpolation-filters="sRGB">
<feFlood flood-opacity="0" result="BackgroundImageFix"/>
<feColorMatrix in="SourceAlpha" type="matrix" values="0 0 0 0 0 0 0 0 0 0 0 0 0 0 0 0 0 0 127 0" result="hardAlpha"/>
<feOffset dx="8" dy="8"/>
<feGaussianBlur stdDeviation="30"/>
<feComposite in2="hardAlpha" operator="out"/>
<feColorMatrix type="matrix" values="0 0 0 0 0.322353 0 0 0 0 0.0901961 0 0 0 0 0.52549 0 0 0 0.06 0"/>
<feBlend mode="normal" in2="BackgroundImageFix" result="effect1_dropShadow_380_31392"/>
<feBlend mode="normal" in="SourceGraphic" in2="effect1_dropShadow_380_31392" result="shape"/>
</filter>
<filter id="filter29_d_380_31392" x="682.65" y="822.756" width="314.424" height="271.9" filterUnits="userSpaceOnUse" color-interpolation-filters="sRGB">
<feFlood flood-opacity="0" result="BackgroundImageFix"/>
<feColorMatrix in="SourceAlpha" type="matrix" values="0 0 0 0 0 0 0 0 0 0 0 0 0 0 0 0 0 0 127 0" result="hardAlpha"/>
<feOffset dx="8" dy="8"/>
<feGaussianBlur stdDeviation="30"/>
<feComposite in2="hardAlpha" operator="out"/>
<feColorMatrix type="matrix" values="0 0 0 0 0.322353 0 0 0 0 0.0901961 0 0 0 0 0.52549 0 0 0 0.06 0"/>
<feBlend mode="normal" in2="BackgroundImageFix" result="effect1_dropShadow_380_31392"/>
<feBlend mode="normal" in="SourceGraphic" in2="effect1_dropShadow_380_31392" result="shape"/>
</filter>
<filter id="filter30_d_380_31392" x="879.334" y="857.437" width="314.424" height="271.9" filterUnits="userSpaceOnUse" color-interpolation-filters="sRGB">
<feFlood flood-opacity="0" result="BackgroundImageFix"/>
<feColorMatrix in="SourceAlpha" type="matrix" values="0 0 0 0 0 0 0 0 0 0 0 0 0 0 0 0 0 0 127 0" result="hardAlpha"/>
<feOffset dx="8" dy="8"/>
<feGaussianBlur stdDeviation="30"/>
<feComposite in2="hardAlpha" operator="out"/>
<feColorMatrix type="matrix" values="0 0 0 0 0.322353 0 0 0 0 0.0901961 0 0 0 0 0.52549 0 0 0 0.06 0"/>
<feBlend mode="normal" in2="BackgroundImageFix" result="effect1_dropShadow_380_31392"/>
<feBlend mode="normal" in="SourceGraphic" in2="effect1_dropShadow_380_31392" result="shape"/>
</filter>
<filter id="filter31_d_380_31392" x="1076.02" y="892.118" width="314.424" height="271.9" filterUnits="userSpaceOnUse" color-interpolation-filters="sRGB">
<feFlood flood-opacity="0" result="BackgroundImageFix"/>
<feColorMatrix in="SourceAlpha" type="matrix" values="0 0 0 0 0 0 0 0 0 0 0 0 0 0 0 0 0 0 127 0" result="hardAlpha"/>
<feOffset dx="8" dy="8"/>
<feGaussianBlur stdDeviation="30"/>
<feComposite in2="hardAlpha" operator="out"/>
<feColorMatrix type="matrix" values="0 0 0 0 0.322353 0 0 0 0 0.0901961 0 0 0 0 0.52549 0 0 0 0.06 0"/>
<feBlend mode="normal" in2="BackgroundImageFix" result="effect1_dropShadow_380_31392"/>
<feBlend mode="normal" in="SourceGraphic" in2="effect1_dropShadow_380_31392" result="shape"/>
</filter>
<clipPath id="clip0_380_31392">
<rect width="1440" height="1024" fill="white"/>
</clipPath>
<clipPath id="clip1_380_31392">
<rect width="59.7176" height="59.7176" fill="white" transform="matrix(0.984808 0.173648 -0.406737 0.913545 74.8809 197.488)"/>
</clipPath>
<clipPath id="clip2_380_31392">
<rect width="59.7176" height="59.7176" fill="white" transform="matrix(0.984808 0.173648 -0.406737 0.913545 271.564 232.168)"/>
</clipPath>
<clipPath id="clip3_380_31392">
<rect width="59.7176" height="59.7176" fill="white" transform="matrix(0.984808 0.173648 -0.406737 0.913545 468.248 266.849)"/>
</clipPath>
<clipPath id="clip4_380_31392">
<rect width="59.7176" height="59.7176" fill="white" transform="matrix(0.984808 0.173648 -0.406737 0.913545 664.932 301.53)"/>
</clipPath>
<clipPath id="clip5_380_31392">
<rect width="59.7176" height="59.7176" fill="white" transform="matrix(0.984808 0.173648 -0.406737 0.913545 861.615 336.21)"/>
</clipPath>
<clipPath id="clip6_380_31392">
<rect width="59.7176" height="59.7176" fill="white" transform="matrix(0.984808 0.173648 -0.406737 0.913545 1254.98 405.572)"/>
</clipPath>
<clipPath id="clip7_380_31392">
<rect width="59.7176" height="59.7176" fill="white" transform="matrix(0.984808 0.173648 -0.406737 0.913545 1451.67 440.252)"/>
</clipPath>
<clipPath id="clip8_380_31392">
<rect width="59.7176" height="59.7176" fill="white" transform="matrix(0.984808 0.173648 -0.406737 0.913545 -6.35156 379.939)"/>
</clipPath>
<clipPath id="clip9_380_31392">
<rect width="59.7176" height="59.7176" fill="white" transform="matrix(0.984808 0.173648 -0.406737 0.913545 190.332 414.62)"/>
</clipPath>
<clipPath id="clip10_380_31392">
<rect width="59.7176" height="59.7176" fill="white" transform="matrix(0.984808 0.173648 -0.406737 0.913545 387.016 449.3)"/>
</clipPath>
<clipPath id="clip11_380_31392">
<rect width="59.7176" height="59.7176" fill="white" transform="matrix(0.984808 0.173648 -0.406737 0.913545 583.699 483.981)"/>
</clipPath>
<clipPath id="clip12_380_31392">
<rect width="59.7176" height="59.7176" fill="white" transform="matrix(0.984808 0.173648 -0.406737 0.913545 780.383 518.661)"/>
</clipPath>
<clipPath id="clip13_380_31392">
<rect width="59.7176" height="59.7176" fill="white" transform="matrix(0.984808 0.173648 -0.406737 0.913545 977.066 553.342)"/>
</clipPath>
<clipPath id="clip14_380_31392">
<rect width="59.7176" height="59.7176" fill="white" transform="matrix(0.984808 0.173648 -0.406737 0.913545 1173.75 588.022)"/>
</clipPath>
<clipPath id="clip15_380_31392">
<rect width="59.7176" height="59.7176" fill="white" transform="matrix(0.984808 0.173648 -0.406737 0.913545 1370.43 622.703)"/>
</clipPath>
<clipPath id="clip16_380_31392">
<rect width="59.7176" height="59.7176" fill="white" transform="matrix(0.984808 0.173648 -0.406737 0.913545 109.1 597.071)"/>
</clipPath>
<clipPath id="clip17_380_31392">
<rect width="59.7176" height="59.7176" fill="white" transform="matrix(0.984808 0.173648 -0.406737 0.913545 305.783 631.751)"/>
</clipPath>
<clipPath id="clip18_380_31392">
<rect width="59.7176" height="59.7176" fill="white" transform="matrix(0.984808 0.173648 -0.406737 0.913545 502.467 666.432)"/>
</clipPath>
<clipPath id="clip19_380_31392">
<rect width="59.7176" height="59.7176" fill="white" transform="matrix(0.984808 0.173648 -0.406737 0.913545 699.15 701.113)"/>
</clipPath>
<clipPath id="clip20_380_31392">
<rect width="59.7176" height="59.7176" fill="white" transform="matrix(0.984808 0.173648 -0.406737 0.913545 895.834 735.793)"/>
</clipPath>
<clipPath id="clip21_380_31392">
<rect width="59.7176" height="59.7176" fill="white" transform="matrix(0.984808 0.173648 -0.406737 0.913545 1092.52 770.474)"/>
</clipPath>
<clipPath id="clip22_380_31392">
<rect width="59.7176" height="59.7176" fill="white" transform="matrix(0.984808 0.173648 -0.406737 0.913545 1289.2 805.154)"/>
</clipPath>
<clipPath id="clip23_380_31392">
<rect width="59.7176" height="59.7176" fill="white" transform="matrix(0.984808 0.173648 -0.406737 0.913545 27.8672 779.522)"/>
</clipPath>
<clipPath id="clip24_380_31392">
<rect width="59.7176" height="59.7176" fill="white" transform="matrix(0.984808 0.173648 -0.406737 0.913545 224.551 814.202)"/>
</clipPath>
<clipPath id="clip25_380_31392">
<rect width="59.7176" height="59.7176" fill="white" transform="matrix(0.984808 0.173648 -0.406737 0.913545 421.234 848.883)"/>
</clipPath>
<clipPath id="clip26_380_31392">
<rect width="59.7176" height="59.7176" fill="white" transform="matrix(0.984808 0.173648 -0.406737 0.913545 617.918 883.564)"/>
</clipPath>
<clipPath id="clip27_380_31392">
<rect width="59.7176" height="59.7176" fill="white" transform="matrix(0.984808 0.173648 -0.406737 0.913545 814.602 918.244)"/>
</clipPath>
<clipPath id="clip28_380_31392">
<rect width="59.7176" height="59.7176" fill="white" transform="matrix(0.984808 0.173648 -0.406737 0.913545 1011.29 952.925)"/>
</clipPath>
</defs>
</svg>
