<svg width="99" height="26" viewBox="0 0 99 26" fill="none" xmlns="http://www.w3.org/2000/svg">
<path d="M0.121243 18.9561L14.0871 5.12683H0.121243V0.107315L20.2334 0.141461C20.2334 0.164225 20.2448 0.198371 20.2676 0.2439V6.08293L6.23344 19.9463V19.9805H20.2676V25H0.121243V18.9561ZM38.3651 0.0390229V5.05853H28.9749C28.7017 5.05853 28.5651 5.18374 28.5651 5.43414V10.0098H38.3651V15.0634H28.5651V19.639C28.5651 19.9122 28.7359 20.0488 29.0773 20.0488H38.3651V25.0683H28.8042C28.4399 25.0683 28.0188 25 27.5408 24.8634C26.4025 24.5447 25.4464 23.8959 24.6725 22.9171C23.8985 21.9154 23.5115 20.8228 23.5115 19.639V5.43414C23.5115 4.3187 23.853 3.28292 24.5359 2.32683C25.2416 1.37073 26.118 0.710566 27.1651 0.346338C27.757 0.141461 28.2237 0.0390229 28.5651 0.0390229H38.3651ZM59.3558 8.74634C59.3558 10.5447 58.8436 12.1837 57.8192 13.6634C56.7948 15.1203 55.4404 16.1675 53.7558 16.8049C52.868 17.1463 52.0143 17.3171 51.1948 17.3171H46.6192V24.9659H41.5997V7.14146C41.5997 6.93658 41.6339 6.64065 41.7022 6.25366C41.9526 4.86504 42.5444 3.64715 43.4778 2.6C44.4111 1.53008 45.5493 0.801624 46.8924 0.414632C47.7119 0.18699 48.3607 0.0731688 48.8387 0.0731688H51.2973C52.0257 0.0731688 52.8339 0.2439 53.7217 0.585363C55.429 1.24553 56.7948 2.31544 57.8192 3.79512C58.8436 5.25203 59.3558 6.90244 59.3558 8.74634ZM50.1022 5.12683C49.2143 5.12683 48.5883 5.17236 48.2241 5.26341C47.5867 5.44553 47.1428 5.83252 46.8924 6.42439C46.7103 6.83414 46.6192 7.16423 46.6192 7.41463V12.2293H51.3656C51.5704 12.2293 51.8778 12.1382 52.2875 11.9561C53.6534 11.3642 54.3363 10.2715 54.3363 8.67805C54.3363 7.74471 54.0176 6.94796 53.3802 6.2878C52.7428 5.60488 51.9574 5.21788 51.0241 5.12683H50.1022ZM62.589 0.0390229H67.6427V17.6244C67.6655 17.8748 67.6996 18.0683 67.7451 18.2049C68.0638 19.3203 68.8834 19.878 70.2037 19.878H75.9061V24.8976H69.8622C69.111 24.8976 68.3029 24.7496 67.4378 24.4537C65.9126 23.9301 64.7061 22.974 63.8183 21.5854C62.9988 20.2878 62.589 18.8081 62.589 17.1463V0.0390229ZM86.2458 16.7707C85.4035 16.5203 84.5954 16.1561 83.8214 15.678C82.41 14.8358 81.2718 13.652 80.4068 12.1268C79.5645 10.5789 79.1433 8.98536 79.1433 7.34634V0.0390229H84.197V7.6878C84.2425 8.0065 84.2881 8.26829 84.3336 8.47317C84.5612 9.49756 85.0962 10.3626 85.9385 11.0683C86.7807 11.7512 87.7255 12.0927 88.7726 12.0927C89.8425 12.0927 90.7873 11.7171 91.6068 10.9659C92.449 10.2146 92.984 9.29268 93.2116 8.2C93.2572 8.01789 93.2913 7.76748 93.3141 7.44878V0.0390229H98.3336V7.6878C98.3336 8.3252 98.197 9.12195 97.9238 10.078C97.4686 11.6715 96.6377 13.0602 95.4312 14.2439C94.2474 15.4276 92.8588 16.2699 91.2653 16.7707V25.0683H86.2458V16.7707Z" fill="white"/>
</svg>
