<svg width="106" height="31" viewBox="0 0 106 31" fill="none" xmlns="http://www.w3.org/2000/svg">
<path d="M0.0420313 22.92L16.402 6.72H0.0420313V0.839999L23.602 0.879998C23.602 0.906665 23.6154 0.946665 23.642 0.999999V7.84L7.20203 24.08V24.12H23.642V30H0.0420313V22.92ZM42.442 0.76V6.64H31.442C31.122 6.64 30.962 6.78667 30.962 7.08V12.44H42.442V18.36H30.962V23.72C30.962 24.04 31.162 24.2 31.562 24.2H42.442V30.08H31.242C30.8154 30.08 30.322 30 29.762 29.84C28.4287 29.4667 27.3087 28.7067 26.402 27.56C25.4954 26.3867 25.042 25.1067 25.042 23.72V7.08C25.042 5.77333 25.442 4.56 26.242 3.44C27.0687 2.32 28.0954 1.54667 29.322 1.12C30.0154 0.879999 30.562 0.76 30.962 0.76H42.442ZM64.6311 10.96C64.6311 13.0667 64.0311 14.9867 62.8311 16.72C61.6311 18.4267 60.0444 19.6533 58.0711 20.4C57.0311 20.8 56.0311 21 55.0711 21H49.7111V29.96H43.8311V9.08C43.8311 8.84 43.8711 8.49333 43.9511 8.04C44.2444 6.41333 44.9378 4.98667 46.0311 3.76C47.1244 2.50667 48.4578 1.65333 50.0311 1.2C50.9911 0.933332 51.7511 0.799999 52.3111 0.799999H55.1911C56.0444 0.799999 56.9911 0.999999 58.0311 1.4C60.0311 2.17333 61.6311 3.42666 62.8311 5.16C64.0311 6.86666 64.6311 8.8 64.6311 10.96ZM53.7911 6.72C52.7511 6.72 52.0178 6.77333 51.5911 6.88C50.8444 7.09333 50.3244 7.54666 50.0311 8.24C49.8178 8.72 49.7111 9.10667 49.7111 9.4V15.04H55.2711C55.5111 15.04 55.8711 14.9333 56.3511 14.72C57.9511 14.0267 58.7511 12.7467 58.7511 10.88C58.7511 9.78667 58.3778 8.85333 57.6311 8.08C56.8844 7.28 55.9644 6.82667 54.8711 6.72H53.7911ZM66.0186 0.76H71.9386V21.36C71.9653 21.6533 72.0053 21.88 72.0586 22.04C72.4319 23.3467 73.3919 24 74.9386 24H81.6186V29.88H74.5386C73.6586 29.88 72.7119 29.7067 71.6986 29.36C69.9119 28.7467 68.4986 27.6267 67.4586 26C66.4986 24.48 66.0186 22.7467 66.0186 20.8V0.76ZM91.3308 20.36C90.3441 20.0667 89.3974 19.64 88.4908 19.08C86.8374 18.0933 85.5041 16.7067 84.4908 14.92C83.5041 13.1067 83.0108 11.24 83.0108 9.32V0.76H88.9308V9.72C88.9841 10.0933 89.0374 10.4 89.0908 10.64C89.3574 11.84 89.9841 12.8533 90.9708 13.68C91.9574 14.48 93.0641 14.88 94.2908 14.88C95.5441 14.88 96.6508 14.44 97.6108 13.56C98.5974 12.68 99.2241 11.6 99.4908 10.32C99.5441 10.1067 99.5841 9.81333 99.6108 9.44V0.76H105.491V9.72C105.491 10.4667 105.331 11.4 105.011 12.52C104.477 14.3867 103.504 16.0133 102.091 17.4C100.704 18.7867 99.0774 19.7733 97.2108 20.36V30.08H91.3308V20.36Z" fill="#671786"/>
</svg>
