<svg width="133" height="27" viewBox="0 0 133 27" fill="none" xmlns="http://www.w3.org/2000/svg">
<path d="M0.303079 10.453V7.87686H2.80348V4.3662H5.83426V7.87686H9.16813V10.453H5.83426V15.7569C5.83426 16.3631 5.94371 16.8429 6.1626 17.1965C6.39832 17.5501 6.85294 17.7269 7.52645 17.7269C7.79585 17.7269 8.09051 17.7017 8.41043 17.6511C8.73035 17.5838 8.98291 17.4828 9.16813 17.3481V19.899C8.84821 20.0505 8.45252 20.1515 7.98107 20.2021C7.52645 20.2694 7.12235 20.3031 6.76875 20.3031C5.96054 20.3031 5.29546 20.2105 4.77349 20.0253C4.26836 19.8569 3.86425 19.5959 3.56117 19.2423C3.27493 18.8719 3.07288 18.4173 2.95502 17.8785C2.85399 17.3396 2.80348 16.7166 2.80348 16.0095V10.453H0.303079ZM14.5894 9.56905H14.6399C14.8756 9.06392 15.2882 8.6093 15.8775 8.20519C16.4836 7.78425 17.2582 7.57378 18.2011 7.57378C19.0093 7.57378 19.6912 7.70848 20.2469 7.97788C20.8194 8.24729 21.2824 8.60088 21.636 9.03866C21.9896 9.47644 22.2421 9.98157 22.3937 10.5541C22.5452 11.1265 22.621 11.7243 22.621 12.3473V20H19.5902V13.8627C19.5902 13.5259 19.5734 13.1555 19.5397 12.7514C19.506 12.3304 19.4134 11.9432 19.2619 11.5896C19.1272 11.2191 18.9083 10.9161 18.6052 10.6803C18.3021 10.4278 17.8896 10.3015 17.3676 10.3015C16.8625 10.3015 16.4331 10.3857 16.0795 10.5541C15.7428 10.7224 15.4565 10.9497 15.2208 11.236C15.0019 11.5222 14.842 11.8506 14.7409 12.221C14.6399 12.5914 14.5894 12.9787 14.5894 13.3828V20H11.5586V0.906052H14.5894V9.56905ZM26.1119 7.87686H29.1427V20H26.1119V7.87686ZM25.6826 3.76004C25.6826 3.27175 25.8593 2.85081 26.2129 2.49721C26.5834 2.12678 27.0464 1.94157 27.602 1.94157C28.1577 1.94157 28.6207 2.11837 28.9912 2.47196C29.3784 2.80871 29.5721 3.23807 29.5721 3.76004C29.5721 4.28201 29.3784 4.71979 28.9912 5.07338C28.6207 5.41014 28.1577 5.57851 27.602 5.57851C27.0464 5.57851 26.5834 5.40172 26.2129 5.04813C25.8593 4.6777 25.6826 4.24833 25.6826 3.76004ZM32.6222 7.87686H35.5014V9.82161H35.5519C35.8382 9.21546 36.276 8.69349 36.8653 8.25571C37.4546 7.80109 38.2544 7.57378 39.2647 7.57378C40.0729 7.57378 40.7548 7.70848 41.3104 7.97788C41.8829 8.24729 42.346 8.60088 42.6995 9.03866C43.0531 9.47644 43.3057 9.98157 43.4572 10.5541C43.6088 11.1265 43.6845 11.7243 43.6845 12.3473V20H40.6538V13.8627C40.6538 13.5259 40.6369 13.1555 40.6032 12.7514C40.5696 12.3304 40.477 11.9432 40.3254 11.5896C40.1907 11.2191 39.9718 10.9161 39.6688 10.6803C39.3657 10.4278 38.9532 10.3015 38.4312 10.3015C37.9261 10.3015 37.4967 10.3857 37.1431 10.5541C36.8063 10.7224 36.5201 10.9497 36.2844 11.236C36.0655 11.5222 35.9055 11.8506 35.8045 12.221C35.7035 12.5914 35.653 12.9787 35.653 13.3828V20H32.6222V7.87686ZM47.125 0.906052H50.1557V12.9029L54.8282 7.87686H58.7177L53.5149 13.3828L59.0461 20H55.0303L50.2063 13.8121H50.1557V20H47.125V0.906052ZM60.6652 0.906052H62.1806V10.3773H62.2311C62.4669 9.97315 62.7615 9.62798 63.1151 9.34174C63.4687 9.03866 63.8476 8.79451 64.2517 8.6093C64.6726 8.40725 65.1104 8.26413 65.565 8.17994C66.0196 8.07891 66.4658 8.0284 66.9036 8.0284C67.796 8.0284 68.6126 8.17994 69.3535 8.48302C70.1112 8.78609 70.7594 9.21546 71.2982 9.7711C71.8539 10.3099 72.2832 10.9582 72.5863 11.7159C72.8894 12.4567 73.0409 13.2733 73.0409 14.1657C73.0409 15.0581 72.8894 15.8832 72.5863 16.6409C72.2832 17.3817 71.8539 18.03 71.2982 18.5856C70.7594 19.1244 70.1112 19.5454 69.3535 19.8485C68.6126 20.1515 67.796 20.3031 66.9036 20.3031C66.4658 20.3031 66.0196 20.2526 65.565 20.1515C65.1104 20.0674 64.6726 19.9326 64.2517 19.7474C63.8476 19.5454 63.4687 19.3012 63.1151 19.015C62.7615 18.7119 62.4669 18.3583 62.2311 17.9542H62.1806V20H60.6652V0.906052ZM62.0291 14.1657C62.0291 14.8224 62.1554 15.4454 62.4079 16.0347C62.6605 16.6072 63.0057 17.1123 63.4435 17.5501C63.8812 17.9711 64.3948 18.3078 64.9841 18.5604C65.5734 18.8129 66.2133 18.9392 66.9036 18.9392C67.6108 18.9392 68.2506 18.8129 68.8231 18.5604C69.3956 18.3078 69.8839 17.9711 70.288 17.5501C70.6921 17.1123 70.9952 16.6072 71.1972 16.0347C71.4161 15.4454 71.5255 14.8224 71.5255 14.1657C71.5255 13.5091 71.4161 12.8945 71.1972 12.322C70.9952 11.7327 70.6921 11.2276 70.288 10.8066C69.8839 10.3688 69.3956 10.0237 68.8231 9.7711C68.2506 9.51853 67.6108 9.39225 66.9036 9.39225C66.2133 9.39225 65.5734 9.51853 64.9841 9.7711C64.3948 10.0237 63.8812 10.3688 63.4435 10.8066C63.0057 11.2276 62.6605 11.7327 62.4079 12.322C62.1554 12.8945 62.0291 13.5091 62.0291 14.1657ZM76.4336 11.6148C76.4336 11.3959 76.4252 11.135 76.4083 10.8319C76.3915 10.512 76.3747 10.192 76.3578 9.87213C76.3578 9.55221 76.3494 9.25755 76.3326 8.98815C76.3157 8.70191 76.3073 8.48302 76.3073 8.33148H77.8227C77.8395 8.76926 77.848 9.1902 77.848 9.5943C77.8648 9.99841 77.8901 10.2594 77.9237 10.3773C78.311 9.68691 78.8077 9.12285 79.4139 8.68507C80.02 8.24729 80.7609 8.0284 81.6365 8.0284C81.788 8.0284 81.9311 8.04523 82.0658 8.07891C82.2174 8.09575 82.3689 8.12101 82.5204 8.15468L82.3436 9.64482C82.1416 9.57747 81.9479 9.54379 81.7627 9.54379C81.1061 9.54379 80.5336 9.65323 80.0453 9.87213C79.5738 10.0742 79.1781 10.3604 78.8582 10.7308C78.5552 11.1013 78.3278 11.5391 78.1763 12.0442C78.0248 12.5325 77.949 13.0629 77.949 13.6354V20H76.4336V11.6148ZM85.0968 8.33148H86.6122V20H85.0968V8.33148ZM84.7179 3.70953C84.7179 3.38961 84.8274 3.12021 85.0463 2.90132C85.2652 2.68243 85.5346 2.57298 85.8545 2.57298C86.1744 2.57298 86.4438 2.68243 86.6627 2.90132C86.8816 3.12021 86.991 3.38961 86.991 3.70953C86.991 4.02944 86.8816 4.29885 86.6627 4.51774C86.4438 4.73663 86.1744 4.84607 85.8545 4.84607C85.5346 4.84607 85.2652 4.73663 85.0463 4.51774C84.8274 4.29885 84.7179 4.02944 84.7179 3.70953ZM101.115 17.9542H101.065C100.829 18.3583 100.534 18.7119 100.181 19.015C99.8273 19.3012 99.44 19.5454 99.0191 19.7474C98.615 19.9326 98.1856 20.0674 97.731 20.1515C97.2764 20.2526 96.8302 20.3031 96.3924 20.3031C95.5 20.3031 94.6749 20.1515 93.9172 19.8485C93.1596 19.5454 92.5113 19.1244 91.9725 18.5856C91.4337 18.03 91.0127 17.3817 90.7097 16.6409C90.4066 15.8832 90.2551 15.0581 90.2551 14.1657C90.2551 13.2733 90.4066 12.4567 90.7097 11.7159C91.0127 10.9582 91.4337 10.3099 91.9725 9.7711C92.5113 9.21546 93.1596 8.78609 93.9172 8.48302C94.6749 8.17994 95.5 8.0284 96.3924 8.0284C96.8302 8.0284 97.2764 8.07891 97.731 8.17994C98.1856 8.26413 98.615 8.40725 99.0191 8.6093C99.44 8.79451 99.8273 9.03866 100.181 9.34174C100.534 9.62798 100.829 9.97315 101.065 10.3773H101.115V0.906052H102.631V20H101.115V17.9542ZM101.267 14.1657C101.267 13.5091 101.141 12.8945 100.888 12.322C100.635 11.7327 100.29 11.2276 99.8525 10.8066C99.4148 10.3688 98.9012 10.0237 98.3119 9.7711C97.7226 9.51853 97.0827 9.39225 96.3924 9.39225C95.6852 9.39225 95.0454 9.51853 94.4729 9.7711C93.9004 10.0237 93.4121 10.3688 93.008 10.8066C92.6039 11.2276 92.2924 11.7327 92.0735 12.322C91.8715 12.8945 91.7704 13.5091 91.7704 14.1657C91.7704 14.8224 91.8715 15.4454 92.0735 16.0347C92.2924 16.6072 92.6039 17.1123 93.008 17.5501C93.4121 17.9711 93.9004 18.3078 94.4729 18.5604C95.0454 18.8129 95.6852 18.9392 96.3924 18.9392C97.0827 18.9392 97.7226 18.8129 98.3119 18.5604C98.9012 18.3078 99.4148 17.9711 99.8525 17.5501C100.29 17.1123 100.635 16.6072 100.888 16.0347C101.141 15.4454 101.267 14.8224 101.267 14.1657ZM118.071 19.2423C118.071 20.6903 117.86 21.8606 117.439 22.753C117.018 23.6454 116.488 24.3357 115.848 24.824C115.225 25.3123 114.552 25.6406 113.828 25.809C113.104 25.9774 112.447 26.0616 111.858 26.0616C111.268 26.0616 110.687 26.0026 110.115 25.8848C109.559 25.7837 109.029 25.6238 108.524 25.4049C108.019 25.2028 107.556 24.9503 107.135 24.6472C106.731 24.3441 106.377 23.999 106.074 23.6117L107.261 22.5004C107.8 23.2581 108.473 23.8137 109.282 24.1673C110.09 24.5209 110.948 24.6977 111.858 24.6977C112.632 24.6977 113.28 24.5967 113.802 24.3946C114.341 24.1926 114.779 23.9232 115.116 23.5864C115.469 23.2665 115.739 22.9045 115.924 22.5004C116.126 22.1131 116.269 21.7174 116.353 21.3133C116.454 20.9261 116.513 20.5556 116.53 20.2021C116.547 19.8485 116.555 19.5622 116.555 19.3433V17.7269H116.505C116.067 18.4341 115.469 18.9897 114.712 19.3938C113.971 19.7979 113.095 20 112.085 20C111.226 20 110.418 19.8485 109.66 19.5454C108.903 19.2255 108.238 18.7961 107.665 18.2573C107.109 17.7017 106.663 17.0618 106.326 16.3378C106.007 15.6138 105.847 14.8392 105.847 14.0142C105.847 13.1892 106.007 12.4146 106.326 11.6906C106.663 10.9666 107.109 10.3352 107.665 9.79636C108.238 9.25755 108.903 8.82819 109.66 8.50827C110.418 8.18836 111.226 8.0284 112.085 8.0284C113.095 8.0284 113.971 8.23045 114.712 8.63455C115.469 9.03866 116.067 9.5943 116.505 10.3015H116.555V8.33148H118.071V19.2423ZM116.606 14.0142C116.606 13.3744 116.48 12.7766 116.227 12.221C115.991 11.6485 115.663 11.1602 115.242 10.7561C114.838 10.3352 114.35 10.0068 113.777 9.7711C113.222 9.51853 112.624 9.39225 111.984 9.39225C111.344 9.39225 110.738 9.51853 110.165 9.7711C109.61 10.0068 109.122 10.3352 108.701 10.7561C108.297 11.1602 107.968 11.6485 107.716 12.221C107.48 12.7766 107.362 13.3744 107.362 14.0142C107.362 14.654 107.48 15.2602 107.716 15.8327C107.968 16.3883 108.297 16.8766 108.701 17.2975C109.122 17.7017 109.61 18.03 110.165 18.2826C110.738 18.5183 111.344 18.6361 111.984 18.6361C112.624 18.6361 113.222 18.5183 113.777 18.2826C114.35 18.03 114.838 17.7017 115.242 17.2975C115.663 16.8766 115.991 16.3883 116.227 15.8327C116.48 15.2602 116.606 14.654 116.606 14.0142ZM132.096 17.8027C131.507 18.6951 130.775 19.3349 129.899 19.7222C129.04 20.1094 128.089 20.3031 127.045 20.3031C126.153 20.3031 125.345 20.1515 124.621 19.8485C123.897 19.5454 123.274 19.1244 122.752 18.5856C122.23 18.03 121.825 17.3817 121.539 16.6409C121.27 15.8832 121.135 15.0497 121.135 14.1405C121.135 13.2649 121.278 12.4567 121.564 11.7159C121.851 10.975 122.255 10.3352 122.777 9.79636C123.299 9.24071 123.913 8.81135 124.621 8.50827C125.328 8.18836 126.111 8.0284 126.969 8.0284C127.862 8.0284 128.645 8.18836 129.318 8.50827C130.009 8.81135 130.581 9.22387 131.036 9.74584C131.507 10.251 131.861 10.8319 132.096 11.4885C132.332 12.1452 132.45 12.8103 132.45 13.4838V14.5446H122.651C122.651 14.8645 122.709 15.277 122.827 15.7822C122.962 16.2705 123.198 16.7503 123.534 17.2218C123.871 17.6932 124.317 18.0973 124.873 18.4341C125.446 18.7708 126.178 18.9392 127.07 18.9392C127.845 18.9392 128.594 18.754 129.318 18.3836C130.042 18.0132 130.598 17.508 130.985 16.8682L132.096 17.8027ZM130.935 13.1807C130.935 12.6588 130.825 12.1705 130.606 11.7159C130.404 11.2612 130.118 10.8655 129.748 10.5288C129.394 10.1752 128.965 9.89738 128.46 9.69533C127.971 9.49328 127.449 9.39225 126.894 9.39225C126.069 9.39225 125.378 9.56063 124.823 9.89738C124.284 10.2341 123.854 10.6214 123.534 11.0592C123.215 11.497 122.987 11.9263 122.853 12.3473C122.718 12.7514 122.651 13.0292 122.651 13.1807H130.935Z" fill="white"/>
</svg>
