<svg width="997" height="800" viewBox="0 0 997 800" fill="none" xmlns="http://www.w3.org/2000/svg">
<g opacity="0.1">
<path d="M481.239 531.205L494.519 953.99H455.484L468.764 531.205H481.239Z" fill="#DBDBDB"/>
<path opacity="0.5" d="M481.239 531.205L494.519 953.99H455.484L468.764 531.205H481.239Z" fill="white"/>
<path d="M481.535 541.105L468.416 542.513L468.778 531.205H481.253L481.535 541.105Z" fill="#DBDBDB"/>
<path d="M489.474 793.429H460.54L460.781 785.622H489.233L489.474 793.429Z" fill="#DBDBDB"/>
<path opacity="0.5" d="M474.977 953.99V531.205H481.254L494.534 953.99H474.977Z" fill="white"/>
<path d="M440.031 526.016L443.371 538.411H486.954V513.621H443.371L441.762 519.577L440.031 526.016Z" fill="#DBDBDB"/>
<path opacity="0.3" d="M440.031 526.016L443.371 538.411H486.954V513.621H443.371L441.762 519.577L440.031 526.016Z" fill="white"/>
<path opacity="0.5" d="M440.031 526.012H486.954V519.574H441.762L440.031 526.012Z" fill="white"/>
<path d="M501.348 523.929L639.701 391.412L635.717 389.239L493.782 516.042L501.348 523.929Z" fill="#DBDBDB"/>
<path opacity="0.5" d="M501.348 523.929L639.701 391.412L635.717 389.239L493.782 516.042L501.348 523.929Z" fill="white"/>
<path d="M516.939 508.963L639.678 391.415L639.96 395.842L529.173 514.195L516.939 508.963Z" fill="#DBDBDB"/>
<path d="M602.588 435.803L593.855 426.628L598.121 422.805L606.532 431.578L602.588 435.803Z" fill="#DBDBDB"/>
<path d="M483.475 517.241L305.484 469.875L305.443 474.543L480.054 528.066L483.475 517.241Z" fill="#DBDBDB"/>
<path opacity="0.5" d="M483.475 517.241L305.484 469.875L305.443 474.543L480.054 528.066L483.475 517.241Z" fill="white"/>
<path d="M463.381 511.91L305.471 469.897L309.213 467.201L462.375 498.428L463.381 511.91Z" fill="#DBDBDB"/>
<path d="M360.883 477.717L356.94 490.313L351.668 488.703L355.491 476.63L360.883 477.717Z" fill="#DBDBDB"/>
<path d="M485.754 536.319L525.392 716.202L529.457 713.707L496.74 533.382L485.754 536.319Z" fill="#DBDBDB"/>
<path opacity="0.5" d="M485.754 536.319L525.392 716.202L529.457 713.707L496.74 533.382L485.754 536.319Z" fill="white"/>
<path d="M490.233 556.618L525.404 716.218L521.38 714.448L479.005 564.867L490.233 556.618Z" fill="#DBDBDB"/>
<path d="M507.081 663.935L519.798 660.515L520.804 665.947L508.57 669.247L507.081 663.935Z" fill="#DBDBDB"/>
<path d="M488.494 538.411C495.34 538.411 500.889 532.861 500.889 526.016C500.889 519.171 495.34 513.621 488.494 513.621C481.649 513.621 476.1 519.171 476.1 526.016C476.1 532.861 481.649 538.411 488.494 538.411Z" fill="#DBDBDB"/>
<path d="M479.144 526.036C479.144 528.815 480.245 531.48 482.206 533.449C484.167 535.417 486.828 536.529 489.606 536.539C495.401 536.539 507.514 529.014 507.514 526.036C507.514 523.058 495.442 515.573 489.606 515.573C486.832 515.573 484.17 516.675 482.208 518.638C480.246 520.6 479.144 523.261 479.144 526.036Z" fill="#DBDBDB"/>
<path opacity="0.5" d="M479.144 526.036C479.144 528.815 480.245 531.48 482.206 533.449C484.167 535.417 486.828 536.529 489.606 536.539C495.401 536.539 507.514 529.014 507.514 526.036C507.514 523.058 495.442 515.573 489.606 515.573C486.832 515.573 484.17 516.675 482.208 518.638C480.246 520.6 479.144 523.261 479.144 526.036Z" fill="white"/>
<path d="M467.414 544.67C463.724 540.408 461.397 535.137 460.734 529.539C459.97 523.907 460.87 518.175 463.322 513.049C465.775 507.922 469.673 503.624 474.537 500.685C479.361 497.694 484.961 496.196 490.634 496.379C485.075 496.609 479.675 498.302 474.98 501.289C470.366 504.225 466.682 508.412 464.356 513.362C461.912 518.353 460.922 523.931 461.499 529.458C462.097 534.961 464.137 540.209 467.414 544.67Z" fill="#C7C7C7"/>
<path d="M520.164 526.026C520.211 528.862 519.873 531.692 519.157 534.437C518.411 537.182 517.258 539.799 515.737 542.203C512.714 547.117 508.302 551.024 503.059 553.431C497.815 555.838 491.976 556.636 486.28 555.725C480.627 554.897 475.355 552.387 471.148 548.521C475.557 552.029 480.822 554.293 486.4 555.081C491.901 555.749 497.479 554.857 502.497 552.505C507.622 550.234 511.982 546.531 515.053 541.841C518.148 537.125 519.914 531.662 520.164 526.026Z" fill="#C7C7C7"/>
<path d="M496.061 496.913C500.555 497.419 504.834 499.113 508.455 501.823C510.26 503.193 511.895 504.773 513.324 506.531C514.663 508.324 515.81 510.253 516.745 512.286C515.494 510.461 514.151 508.702 512.721 507.014C511.264 505.389 509.631 503.931 507.852 502.668C504.319 500.023 500.319 498.07 496.061 496.913Z" fill="#C7C7C7"/>
<path d="M527.497 540.935C524.912 547.84 520.401 553.86 514.498 558.279C508.605 562.807 501.548 565.57 494.146 566.247C486.745 566.923 479.304 565.486 472.687 562.102C466.029 558.806 460.446 553.684 456.59 547.333C460.662 553.349 466.203 558.224 472.687 561.499C479.241 564.651 486.535 565.946 493.774 565.241C501.048 564.676 508.019 562.083 513.895 557.756C519.825 553.438 524.515 547.637 527.497 540.935Z" fill="#C7C7C7"/>
<path d="M515.87 495.288C520.658 498.797 524.492 503.448 527.023 508.819C529.553 514.189 530.7 520.107 530.357 526.033C529.73 514.286 524.53 503.251 515.87 495.288Z" fill="#C7C7C7"/>
<path d="M452.072 536.741C450.245 530.827 449.872 524.56 450.985 518.471C452.063 512.351 454.591 506.577 458.358 501.635C462.125 496.692 467.02 492.723 472.636 490.06C475.403 488.702 478.32 487.675 481.328 487.001C484.347 486.393 487.424 486.123 490.503 486.197C484.387 486.396 478.387 487.92 472.917 490.664C467.498 493.415 462.788 497.381 459.154 502.253C455.418 507.04 452.854 512.636 451.669 518.592C450.495 524.6 450.632 530.791 452.072 536.741Z" fill="#C7C7C7"/>
<path d="M468.171 500.646C474.374 495.051 482.424 491.941 490.778 491.913C499.132 491.884 507.202 494.939 513.443 500.493C519.684 506.046 523.657 513.706 524.6 522.007C525.543 530.307 523.39 538.664 518.554 545.476C515.413 550.016 511.196 553.708 506.281 556.221C501.366 558.735 495.904 559.993 490.385 559.883C495.815 559.78 501.143 558.387 505.929 555.819C510.716 553.251 514.822 549.582 517.91 545.114C520.947 540.649 522.867 535.52 523.506 530.158C524.146 524.797 523.487 519.36 521.586 514.306C519.684 509.253 516.596 504.73 512.58 501.12C508.565 497.51 503.74 494.918 498.514 493.563C493.256 492.257 487.764 492.218 482.489 493.449C477.214 494.681 472.306 497.147 468.171 500.646Z" fill="#C7C7C7"/>
<path d="M478.588 557.702C476.441 556.92 474.356 555.979 472.35 554.885C466.396 551.312 461.71 545.965 458.95 539.593C457.129 535.349 456.224 530.769 456.294 526.152C456.341 521.561 457.37 517.033 459.312 512.872C456.111 521.391 456.313 530.816 459.875 539.19C461.631 543.327 464.188 547.075 467.401 550.217C470.642 553.373 474.434 555.91 478.588 557.702Z" fill="#C7C7C7"/>
<path d="M807.298 531.205L820.578 953.99H781.543L794.823 531.205H807.298Z" fill="#DBDBDB"/>
<path opacity="0.5" d="M807.298 531.205L820.578 953.99H781.543L794.823 531.205H807.298Z" fill="white"/>
<path d="M807.614 541.104L794.455 542.513L794.817 531.205H807.292L807.614 541.104Z" fill="#DBDBDB"/>
<path d="M815.506 793.429H786.572L786.814 785.622H815.265L815.506 793.429Z" fill="#DBDBDB"/>
<path opacity="0.5" d="M801.023 953.99V531.205H807.301L820.581 953.99H801.023Z" fill="white"/>
<path d="M766.089 526.016L769.429 538.411H813.052V513.621H769.429L767.819 519.577L766.089 526.016Z" fill="#DBDBDB"/>
<path opacity="0.3" d="M766.089 526.016L769.429 538.411H813.052V513.621H769.429L767.819 519.577L766.089 526.016Z" fill="white"/>
<path opacity="0.5" d="M766.089 526.012H813.052V519.574H767.819L766.089 526.012Z" fill="white"/>
<path d="M820.21 515.808L776.386 329.285L772.482 331.659L809.586 518.303L820.21 515.808Z" fill="#DBDBDB"/>
<path opacity="0.5" d="M820.21 515.808L776.386 329.285L772.482 331.659L809.586 518.303L820.21 515.808Z" fill="white"/>
<path d="M815.263 494.761L776.389 329.285L780.373 331.297L826.007 486.874L815.263 494.761Z" fill="#DBDBDB"/>
<path d="M795.731 383.821L783.417 386.718L782.29 381.084L794.121 378.308L795.731 383.821Z" fill="#DBDBDB"/>
<path d="M805.415 527.803L674.186 657.021L678.17 659.476L812.981 536.254L805.415 527.803Z" fill="#DBDBDB"/>
<path opacity="0.5" d="M805.415 527.803L674.186 657.021L678.17 659.476L812.981 536.254L805.415 527.803Z" fill="white"/>
<path d="M790.604 542.361L674.183 657.011L673.74 652.424L778.491 536.406L790.604 542.361Z" fill="#DBDBDB"/>
<path d="M709.107 613.267L717.92 623.086L713.855 626.829L705.364 617.412L709.107 613.267Z" fill="#DBDBDB"/>
<path d="M822.981 535.48L998.035 592.785L997.955 587.996L826 524.574L822.981 535.48Z" fill="#DBDBDB"/>
<path opacity="0.5" d="M822.981 535.48L998.035 592.785L997.955 587.996L826 524.574L822.981 535.48Z" fill="white"/>
<path d="M842.756 541.96L998.051 592.786L994.469 595.362L844.124 555.844L842.756 541.96Z" fill="#DBDBDB"/>
<path d="M943.717 581.988L947.258 569.272L952.449 571.204L949.069 583.397L943.717 581.988Z" fill="#DBDBDB"/>
<path d="M814.569 538.41C821.415 538.41 826.964 532.861 826.964 526.016C826.964 519.171 821.415 513.621 814.569 513.621C807.724 513.621 802.175 519.171 802.175 526.016C802.175 532.861 807.724 538.41 814.569 538.41Z" fill="#DBDBDB"/>
<path d="M805.202 526.036C805.202 528.822 806.309 531.493 808.278 533.463C810.248 535.433 812.92 536.539 815.705 536.539C821.46 536.539 833.573 529.014 833.573 526.036C833.573 523.058 821.5 515.573 815.705 515.573C814.328 515.568 812.963 515.835 811.689 516.358C810.415 516.881 809.257 517.651 808.281 518.623C807.305 519.596 806.531 520.751 806.002 522.023C805.474 523.295 805.202 524.659 805.202 526.036Z" fill="#DBDBDB"/>
<path opacity="0.5" d="M805.202 526.036C805.202 528.822 806.309 531.493 808.278 533.463C810.248 535.433 812.92 536.539 815.705 536.539C821.46 536.539 833.573 529.014 833.573 526.036C833.573 523.058 821.5 515.573 815.705 515.573C814.328 515.568 812.963 515.835 811.689 516.358C810.415 516.881 809.257 517.651 808.281 518.623C807.305 519.596 806.531 520.751 806.002 522.023C805.474 523.295 805.202 524.659 805.202 526.036Z" fill="white"/>
<path d="M793.505 544.67C789.8 540.413 787.459 535.142 786.785 529.539C786.021 523.907 786.921 518.175 789.373 513.049C791.826 507.922 795.724 503.624 800.588 500.685C805.412 497.694 811.012 496.195 816.685 496.379C811.137 496.604 805.749 498.298 801.071 501.289C796.436 504.212 792.736 508.401 790.407 513.361C787.963 518.353 786.973 523.931 787.55 529.458C788.142 534.969 790.199 540.221 793.505 544.67Z" fill="#C7C7C7"/>
<path d="M846.219 526.026C846.261 528.859 845.936 531.686 845.253 534.437C844.475 537.177 843.31 539.792 841.792 542.203C838.776 547.114 834.371 551.019 829.135 553.426C823.899 555.833 818.066 556.633 812.375 555.725C806.708 554.907 801.42 552.397 797.204 548.521C801.612 552.029 806.878 554.293 812.456 555.081C817.957 555.738 823.532 554.846 828.553 552.505C833.667 550.234 838.014 546.53 841.068 541.841C844.178 537.129 845.957 531.665 846.219 526.026Z" fill="#C7C7C7"/>
<path d="M822.112 496.913C826.607 497.419 830.885 499.114 834.507 501.823C836.312 503.193 837.947 504.773 839.376 506.531C840.713 508.333 841.872 510.26 842.837 512.286C841.429 510.515 840.302 508.624 838.813 507.014C837.366 505.38 835.731 503.921 833.944 502.668C830.399 500.019 826.385 498.066 822.112 496.913Z" fill="#C7C7C7"/>
<path d="M853.561 540.935C850.948 547.836 846.426 553.851 840.523 558.279C834.629 562.807 827.572 565.57 820.171 566.247C812.769 566.923 805.328 565.486 798.711 562.102C792.116 558.791 786.601 553.668 782.815 547.333C786.867 553.367 792.413 558.247 798.912 561.499C805.451 564.654 812.733 565.949 819.959 565.241C827.234 564.676 834.205 562.083 840.08 557.756C845.951 553.408 850.596 547.612 853.561 540.935Z" fill="#C7C7C7"/>
<path d="M841.882 495.288C846.669 498.8 850.505 503.451 853.042 508.819C855.579 514.188 856.736 520.104 856.409 526.033C856.055 520.221 854.608 514.528 852.144 509.252C849.653 503.981 846.169 499.239 841.882 495.288Z" fill="#C7C7C7"/>
<path d="M778.108 536.741C776.274 530.827 775.915 524.555 777.062 518.471C778.484 510.838 782.112 503.789 787.498 498.196C792.884 492.603 799.79 488.711 807.364 487.001C810.383 486.393 813.461 486.123 816.54 486.197C810.424 486.396 804.424 487.92 798.954 490.664C793.57 493.461 788.872 497.416 785.198 502.245C781.524 507.074 778.966 512.656 777.706 518.592C776.531 524.6 776.668 530.791 778.108 536.741Z" fill="#C7C7C7"/>
<path d="M794.217 500.64C800.433 495.101 808.467 492.039 816.793 492.035C825.119 492.03 833.156 495.084 839.378 500.616C845.6 506.148 849.574 513.772 850.544 522.041C851.514 530.31 849.413 538.648 844.64 545.469C841.491 550.002 837.273 553.688 832.36 556.201C827.446 558.714 821.989 559.976 816.471 559.876C821.902 559.777 827.231 558.386 832.018 555.817C836.805 553.249 840.911 549.578 843.996 545.107C847.034 540.643 848.953 535.514 849.592 530.152C850.232 524.79 849.573 519.354 847.672 514.3C845.77 509.246 842.682 504.724 838.666 501.114C834.651 497.504 829.826 494.912 824.6 493.557C819.337 492.244 813.837 492.201 808.554 493.433C803.271 494.664 798.357 497.135 794.217 500.64Z" fill="#C7C7C7"/>
<path d="M804.637 557.702C802.49 556.92 800.405 555.979 798.399 554.885C792.445 551.312 787.759 545.965 784.999 539.593C783.178 535.349 782.273 530.769 782.343 526.152C782.39 521.561 783.419 517.033 785.361 512.872C782.16 521.391 782.362 530.816 785.924 539.19C787.679 543.327 790.237 547.075 793.449 550.217C796.691 553.373 800.483 555.91 804.637 557.702Z" fill="#C7C7C7"/>
<path d="M1120.46 516.016L992.73 383.337L990.517 387.563L1112.65 524.266L1120.46 516.016Z" fill="#DBDBDB"/>
<path opacity="0.5" d="M1120.46 516.016L992.73 383.337L990.517 387.563L1112.65 524.266L1120.46 516.016Z" fill="white"/>
<path d="M1106.02 501.047L992.741 383.338L997.087 382.735L1111.29 488.169L1106.02 501.047Z" fill="#DBDBDB"/>
<path d="M426.22 984.617C423.323 987.474 390.002 988.641 377.929 988.641C365.857 988.641 332.415 987.353 329.639 984.617C326.862 981.88 367.185 759.984 377.929 759.984C388.674 759.984 429.077 981.759 426.22 984.617Z" fill="#455A64"/>
<path d="M426.852 928.133C418.804 931.272 388.099 943.707 381.499 947.329C381.499 945.961 381.499 944.552 381.499 943.305C388.85 938.958 396.242 934.652 403.673 930.387C411.854 926.08 419.806 921.352 427.496 916.221C427.858 915.94 427.496 915.215 427.174 915.417C419.108 919.169 411.309 923.471 403.834 928.294C396.349 932.681 388.904 937.228 381.499 941.816C381.499 931.151 381.499 920.527 381.499 909.903C393.541 904.922 405.179 899.016 416.309 892.237C416.671 891.996 416.309 891.312 415.987 891.473C404.074 896.259 392.544 901.95 381.499 908.495V891.915C381.177 863.464 381.137 834.972 380.413 806.521C387.657 802.859 395.101 799.64 402.345 795.978C402.788 795.736 402.345 794.891 401.983 795.092C394.618 797.95 387.536 801.37 380.332 804.509C379.97 789.861 379.407 775.172 378.481 760.524C378.481 760.428 378.443 760.336 378.375 760.268C378.307 760.2 378.215 760.162 378.119 760.162C378.023 760.162 377.931 760.2 377.863 760.268C377.795 760.336 377.757 760.428 377.757 760.524C376.711 787.768 376.791 815.053 377.153 842.337C369.668 836.341 361.66 831.029 354.014 825.234C353.732 825.033 353.451 825.516 353.732 825.757C361.781 831.793 369.185 838.554 377.194 844.59C377.194 846.12 377.194 847.689 377.194 849.218C369.145 845.516 360.815 842.055 352.606 838.514C351.962 838.232 351.358 839.158 352.042 839.48C360.413 843.504 368.743 847.528 377.234 851.552L377.837 892.076C378.119 915.658 378.642 939.24 379.165 962.862C363.793 955.082 348.326 947.53 332.766 940.206C332.651 940.164 332.526 940.164 332.411 940.205C332.296 940.246 332.199 940.326 332.137 940.432C332.075 940.537 332.052 940.66 332.071 940.78C332.09 940.901 332.151 941.011 332.243 941.091C347.458 949.798 363.135 957.671 379.206 964.673C379.608 984.271 380.01 1003.87 380.252 1023.47C380.252 1023.71 380.349 1023.95 380.523 1024.12C380.697 1024.3 380.932 1024.39 381.177 1024.39C381.423 1024.39 381.658 1024.3 381.832 1024.12C382.006 1023.95 382.103 1023.71 382.103 1023.47C381.862 998.477 381.821 973.486 381.741 948.456C397.386 943.067 412.728 936.834 427.698 929.783C428.18 929.139 427.657 927.811 426.852 928.133Z" fill="#37474F"/>
<path d="M159.732 990.218C157.277 992.673 128.665 993.799 118.242 993.799C107.819 993.799 79.2069 992.673 76.7521 990.218C74.2973 987.763 108.946 797.458 118.242 797.458C127.538 797.458 162.186 987.763 159.732 990.218Z" fill="#455A64"/>
<path d="M160.317 941.7C153.235 944.397 127.037 955.061 121.363 958.2V954.699C127.681 950.956 133.999 947.294 140.357 943.592C147.382 939.935 154.206 935.905 160.8 931.519C161.122 931.318 160.8 930.674 160.519 930.835C153.574 934.074 146.852 937.771 140.398 941.902C133.959 945.684 127.56 949.548 121.202 953.491C121.202 944.356 121.202 935.262 121.202 926.127C131.52 921.823 141.502 916.751 151.062 910.955C151.384 910.955 151.062 910.15 150.78 910.311C140.551 914.422 130.65 919.306 121.162 924.919C121.162 920.171 121.162 915.422 121.162 910.674C120.88 886.247 120.84 861.82 120.236 837.393C126.433 834.254 132.832 831.477 139.029 828.338C139.472 828.137 139.029 827.412 138.748 827.614C132.43 830.068 126.353 832.966 120.196 835.662C119.834 823.066 119.351 810.47 118.586 797.875C118.586 797.789 118.552 797.707 118.492 797.647C118.432 797.587 118.35 797.553 118.264 797.553C118.179 797.553 118.097 797.587 118.037 797.647C117.976 797.707 117.942 797.789 117.942 797.875C117.057 821.255 117.138 844.676 117.419 868.097C110.98 862.946 104.139 858.399 97.5798 853.409C97.3383 853.409 97.0969 853.65 97.3383 853.852C104.18 859.083 110.578 864.838 117.459 869.948C117.459 871.276 117.459 872.604 117.459 873.973C110.498 870.753 103.415 867.816 96.3725 864.797C95.8091 864.556 95.3262 865.321 95.8896 865.602C103.053 869.063 110.216 872.564 117.5 875.824C117.5 887.414 117.862 899.003 118.023 910.593C118.264 930.714 118.707 951.077 119.15 971.319C105.99 964.679 92.7105 958.159 79.3501 951.882C78.8269 951.64 78.3843 952.365 78.9074 952.646C91.9384 960.094 105.373 966.811 119.15 972.767C119.525 989.589 119.834 1006.41 120.075 1023.23C120.075 1023.44 120.158 1023.64 120.305 1023.79C120.452 1023.93 120.652 1024.02 120.86 1024.02C121.068 1024.02 121.268 1023.93 121.415 1023.79C121.562 1023.64 121.645 1023.44 121.645 1023.23C121.403 1001.78 121.403 980.333 121.323 958.844C134.75 954.195 147.915 948.822 160.76 942.747C160.833 942.656 160.881 942.547 160.897 942.432C160.913 942.316 160.898 942.198 160.853 942.091C160.807 941.983 160.733 941.89 160.639 941.821C160.545 941.753 160.434 941.711 160.317 941.7Z" fill="#37474F"/>
<path d="M702.265 987.682C699.65 990.338 668.864 991.505 657.637 991.505C646.409 991.505 615.664 990.338 613.008 987.682C610.352 985.026 647.657 780.394 657.637 780.394C667.617 780.394 704.921 985.026 702.265 987.682Z" fill="#37474F"/>
<path d="M702.909 935.532C695.303 938.43 667.134 949.899 661.017 953.239V949.416C667.818 945.391 674.619 941.367 681.46 937.343C689.014 933.397 696.349 929.045 703.432 924.304C703.794 924.063 703.432 923.379 703.15 923.54C695.712 927.077 688.519 931.111 681.621 935.613C674.699 939.637 667.818 943.862 661.017 948.088V918.63C672.15 914.109 682.914 908.727 693.21 902.533C693.532 902.332 693.211 901.688 692.929 901.849C681.919 906.258 671.264 911.505 661.057 917.544C661.057 912.433 661.057 907.322 661.057 902.212C660.775 875.974 660.695 849.695 660.051 823.417C666.731 820.037 673.612 817.059 680.172 813.679C680.615 813.477 680.172 812.713 679.81 812.874C673.049 815.53 666.53 818.669 659.689 821.606C659.367 808.045 658.844 794.483 657.999 780.962C657.974 780.891 657.928 780.829 657.866 780.785C657.805 780.742 657.732 780.719 657.656 780.719C657.581 780.719 657.508 780.742 657.447 780.785C657.385 780.829 657.339 780.891 657.314 780.962C656.389 806.113 656.429 831.305 656.751 856.496C649.829 850.943 642.465 846.074 635.423 840.721C635.141 840.48 634.859 840.963 635.141 841.164C642.505 846.758 649.387 852.995 656.791 858.549C656.791 859.997 656.791 861.406 656.791 862.814C649.306 859.394 641.7 856.215 634.095 852.955C633.491 852.713 632.968 853.559 633.572 853.84C641.298 857.543 649.025 861.325 656.832 864.826C656.832 877.302 657.234 889.777 657.395 902.212C657.677 924.023 658.159 945.794 658.602 967.525C644.437 960.361 630.164 953.4 615.784 946.639C615.261 946.397 614.778 947.162 615.301 947.444C629.333 955.499 643.803 962.767 658.642 969.215C659.045 987.324 659.38 1005.42 659.648 1023.5C659.648 1023.73 659.737 1023.94 659.896 1024.1C660.054 1024.26 660.269 1024.35 660.494 1024.35C660.718 1024.35 660.933 1024.26 661.091 1024.1C661.25 1023.94 661.339 1023.73 661.339 1023.5C661.097 1000.4 661.057 977.344 660.976 954.285C675.412 949.289 689.571 943.526 703.392 937.021C704.116 936.458 703.633 935.25 702.909 935.532Z" fill="#455A64"/>
<path d="M87.0654 35.678C105.013 35.3561 117.569 19.5811 135.759 18.2531C140.23 18.0815 144.684 18.9063 148.797 20.6677C152.815 22.4108 156.702 24.4416 160.427 26.7442C167.751 31.1306 175.679 35.2354 184.17 34.5512C188.413 34.2837 192.54 33.0592 196.243 30.9697C199.985 28.9173 203.526 26.3821 207.269 24.1285C210.984 21.7444 215.061 19.9777 219.342 18.897C223.704 17.952 228.219 17.952 232.581 18.897C241.394 20.7079 248.678 26.1004 256.324 29.7222C264.108 33.5495 272.642 35.6107 281.315 35.7585C272.573 35.9498 263.898 34.1901 255.922 30.6075C247.873 27.1064 240.71 21.9152 232.3 20.4262C228.127 19.6602 223.844 19.7423 219.704 20.6677C215.481 21.6699 211.455 23.37 207.792 25.698C204.13 27.9515 200.589 30.527 196.726 32.6599C192.836 34.9242 188.493 36.2985 184.009 36.6841C164.974 37.8913 153.103 19.0983 135.718 19.9434C127.187 19.9434 119.34 24.4907 111.573 28.354C104.1 32.7039 95.6998 35.2143 87.0654 35.678Z" fill="#263238"/>
<path d="M182.56 11.5923C200.548 11.2704 213.103 -4.50457 231.293 -5.83257C235.764 -6.00421 240.218 -5.1795 244.331 -3.41807C248.39 -1.68022 252.318 0.350706 256.082 2.65855C263.406 7.04495 271.334 11.1497 279.825 10.4656C284.068 10.198 288.195 8.97356 291.898 6.88399C295.64 4.87188 299.182 2.33657 302.924 0.0427637C306.639 -2.34139 310.716 -4.10804 314.997 -5.18868C319.359 -6.13372 323.874 -6.13372 328.236 -5.18868C337.049 -3.37778 344.333 2.05487 351.979 5.63643C359.757 9.48272 368.294 11.545 376.97 11.6728C368.233 11.8579 359.562 10.1129 351.577 6.56205C343.528 3.06097 336.365 -2.17055 327.955 -3.65951C323.781 -4.40934 319.501 -4.32729 315.359 -3.41807C311.247 -2.34608 307.334 -0.620494 303.769 1.69271C300.147 3.94628 296.606 6.52176 292.743 8.6546C288.861 10.9364 284.514 12.312 280.026 12.6788C260.992 13.8861 249.12 -4.86674 231.736 -4.0619C223.204 -3.82045 215.357 0.485458 207.59 4.34871C199.954 8.74917 191.366 11.2346 182.56 11.5923Z" fill="#263238"/>
<path d="M379.068 249.689C397.016 249.407 409.572 233.592 427.761 232.304C432.229 232.136 436.679 232.946 440.8 234.678C444.811 236.451 448.697 238.495 452.43 240.795C459.754 245.182 467.682 249.286 476.173 248.602C480.413 248.32 484.537 247.096 488.246 245.021C491.988 242.968 495.529 240.433 499.272 238.179C502.978 235.779 507.058 234.011 511.345 232.948C515.707 232.003 520.222 232.003 524.584 232.948C533.438 234.759 540.681 240.151 548.327 243.773C556.107 247.607 564.645 249.655 573.318 249.769C564.579 249.975 555.904 248.229 547.925 244.658C539.876 241.157 532.713 235.966 524.303 234.477C520.146 233.691 515.871 233.773 511.747 234.719C507.623 235.757 503.705 237.485 500.157 239.829C496.495 242.043 492.994 244.618 489.091 246.791C485.193 249.038 480.854 250.411 476.374 250.815C457.34 252.023 445.468 233.23 428.083 234.035C419.552 234.276 411.705 238.622 403.938 242.445C396.366 246.858 387.826 249.345 379.068 249.689Z" fill="#263238"/>
<path d="M297.522 374.254L317.921 1023.44H257.987L278.387 374.254H297.522Z" fill="#5584AC"/>
<path opacity="0.5" d="M297.522 374.254L317.921 1023.44H257.987L278.387 374.254H297.522Z" fill="white"/>
<path d="M297.982 389.436L277.83 391.553L278.352 374.205H297.515L297.982 389.436Z" fill="#5584AC"/>
<path d="M311.242 812.113H264.643L265.385 788.194H310.5L311.242 812.113Z" fill="#5584AC"/>
<path d="M310.151 776.844H265.695L266.08 764.885H309.766L310.151 776.844Z" fill="#5584AC"/>
<path opacity="0.5" d="M287.882 1023.44L287.882 374.254H297.504L317.904 1023.44H287.882Z" fill="white"/>
<path d="M234.267 366.268L239.408 385.293H306.352V347.215H239.408L236.933 356.343L234.267 366.268Z" fill="#5584AC"/>
<path opacity="0.3" d="M234.267 366.268L239.408 385.293H306.352V347.215H239.408L236.933 356.343L234.267 366.268Z" fill="white"/>
<path opacity="0.5" d="M234.267 366.268H306.352V356.343H236.933L234.267 366.268Z" fill="white"/>
<path d="M320.075 351.878V57.6797L313.422 59.8241L303.359 351.878H320.075Z" fill="#5584AC"/>
<path opacity="0.5" d="M320.075 351.878V57.6797L313.422 59.8241L303.359 351.878H320.075Z" fill="white"/>
<path d="M320.104 318.666V57.6797L325.356 62.0785L338.937 310.639L320.104 318.666Z" fill="#5584AC"/>
<path d="M329.933 145.962H310.469L310.771 137.165H329.466L329.933 145.962Z" fill="#5584AC"/>
<path d="M293.748 364.597L52.1982 511.682L57.2844 516.713L302.133 379.883L293.748 364.597Z" fill="#5584AC"/>
<path opacity="0.5" d="M293.748 364.597L52.1982 511.682L57.2844 516.713L302.133 379.883L293.748 364.597Z" fill="white"/>
<path d="M266.475 381.195L52.1982 511.674L53.188 504.691L250.475 368.026L266.475 381.195Z" fill="#5584AC"/>
<path d="M119.785 458.544L129.517 476.332L122.122 480.456L112.774 463.383L119.785 458.544Z" fill="#5584AC"/>
<path d="M317.327 382.311L558.877 529.424L560.471 522.276L325.712 367.025L317.327 382.311Z" fill="#5584AC"/>
<path opacity="0.5" d="M317.327 382.311L558.877 529.424L560.471 522.276L325.712 367.025L317.327 382.311Z" fill="white"/>
<path d="M344.617 398.888L558.894 529.395L552.653 531.98L341.812 420.112L344.617 398.888Z" fill="#5584AC"/>
<path d="M481.494 494.24L491.226 476.452L498.32 481.153L488.972 498.199L481.494 494.24Z" fill="#5584AC"/>
<path d="M308.664 385.32C319.186 385.32 327.716 376.79 327.716 366.268C327.716 355.745 319.186 347.215 308.664 347.215C298.141 347.215 289.611 355.745 289.611 366.268C289.611 376.79 298.141 385.32 308.664 385.32Z" fill="#5584AC"/>
<path d="M294.332 366.252C294.332 370.518 296.027 374.609 299.043 377.625C302.059 380.641 306.15 382.336 310.415 382.336C319.295 382.336 337.908 370.816 337.908 366.252C337.908 361.689 319.323 350.142 310.415 350.142C308.301 350.142 306.207 350.559 304.254 351.369C302.301 352.179 300.527 353.366 299.033 354.862C297.539 356.358 296.355 358.135 295.548 360.089C294.742 362.044 294.328 364.138 294.332 366.252Z" fill="#5584AC"/>
<path opacity="0.5" d="M294.332 366.252C294.332 370.518 296.027 374.609 299.043 377.625C302.059 380.641 306.15 382.336 310.415 382.336C319.295 382.336 337.908 370.816 337.908 366.252C337.908 361.689 319.323 350.142 310.415 350.142C308.301 350.142 306.207 350.559 304.254 351.369C302.301 352.179 300.527 353.366 299.033 354.862C297.539 356.358 296.355 358.135 295.548 360.089C294.742 362.044 294.328 364.138 294.332 366.252Z" fill="white"/>
<path d="M276.285 394.85C270.769 388.228 267.293 380.149 266.277 371.591C265.998 369.459 265.897 367.307 265.975 365.158L266.14 361.941C266.14 360.869 266.415 359.824 266.552 358.752C266.892 356.633 267.369 354.54 267.982 352.484C268.641 350.433 269.44 348.431 270.374 346.49C272.198 342.59 274.608 338.993 277.522 335.823C280.368 332.604 283.675 329.824 287.337 327.575C290.967 325.276 294.912 323.517 299.048 322.352C303.184 321.256 307.444 320.702 311.722 320.702C303.166 320.882 294.821 323.391 287.584 327.96C280.418 332.555 274.699 339.084 271.088 346.793C270.167 348.701 269.368 350.666 268.697 352.676C268.059 354.699 267.572 356.767 267.24 358.862C267.24 359.907 266.882 360.951 266.772 361.996L266.607 365.185C266.502 367.304 266.575 369.429 266.827 371.536C267.771 380.03 271.044 388.098 276.285 394.85Z" fill="#C7C7C7"/>
<path d="M357.254 366.224C357.274 370.56 356.71 374.879 355.577 379.064C353.747 385.357 350.592 391.186 346.325 396.16C342.057 401.134 336.775 405.138 330.834 407.903C326.866 409.717 322.65 410.931 318.324 411.505C311.851 412.467 305.246 412.002 298.972 410.14C292.698 408.278 286.907 405.065 282.007 400.728C288.682 406.287 296.774 409.876 305.375 411.092C309.649 411.652 313.981 411.606 318.242 410.955C322.506 410.337 326.656 409.095 330.559 407.271C338.416 403.722 345.094 397.998 349.803 390.775C354.529 383.447 357.109 374.943 357.254 366.224Z" fill="#C7C7C7"/>
<path d="M320.321 321.527C327.12 322.594 333.555 325.302 339.071 329.417C341.826 331.458 344.327 333.821 346.522 336.455C348.61 339.162 350.45 342.051 352.02 345.088C350.222 342.212 348.239 339.457 346.082 336.84C343.854 334.285 341.345 331.989 338.604 329.995C333.165 325.93 326.938 323.046 320.321 321.527Z" fill="#C7C7C7"/>
<path d="M368.567 389.085C364.408 399.609 357.416 408.776 348.366 415.57C339.315 422.364 328.561 426.519 317.294 427.575C306.019 428.582 294.686 426.437 284.559 421.378C274.433 416.32 265.911 408.547 259.944 398.927C266.081 408.336 274.625 415.93 284.688 420.921C294.792 425.842 306.049 427.907 317.242 426.894C328.435 425.882 339.138 421.829 348.195 415.175C357.194 408.453 364.228 399.445 368.567 389.085Z" fill="#C7C7C7"/>
<path d="M350.662 319.028C357.795 324.624 363.522 331.808 367.388 340.008C371.254 348.208 373.152 357.198 372.931 366.261C372.709 357.265 370.611 348.415 366.772 340.277C362.932 332.139 357.436 324.892 350.635 319.001L350.662 319.028Z" fill="#C7C7C7"/>
<path d="M252.734 382.733C250.09 373.649 249.629 364.069 251.386 354.773C253.112 345.456 256.994 336.672 262.723 329.124C268.451 321.576 275.868 315.475 284.378 311.307C288.613 309.217 293.079 307.63 297.684 306.578C302.284 305.599 306.975 305.11 311.678 305.121C302.274 305.292 293.026 307.545 284.597 311.719C276.273 315.983 269.016 322.067 263.366 329.521C257.716 336.975 253.819 345.606 251.964 354.773C250.13 364.033 250.393 373.587 252.734 382.733Z" fill="#C7C7C7"/>
<path d="M277.45 327.235C283.733 321.629 291.29 317.644 299.465 315.627C307.64 313.61 316.183 313.621 324.352 315.66C332.559 317.671 340.151 321.651 346.473 327.256C352.794 332.861 357.655 339.922 360.633 347.828C363.612 355.735 364.618 364.248 363.566 372.631C362.514 381.014 359.434 389.014 354.594 395.939C349.789 402.852 343.374 408.492 335.901 412.372C328.429 416.252 320.125 418.254 311.706 418.208C320.079 418.132 328.311 416.044 335.708 412.12C343.105 408.197 349.45 402.553 354.209 395.664C358.935 388.781 361.928 380.859 362.934 372.572C363.939 364.284 362.928 355.876 359.985 348.063C357.042 340.251 352.256 333.264 346.033 327.699C339.81 322.134 332.334 318.155 324.243 316.1C316.122 314.071 307.632 314.024 299.489 315.961C291.345 317.899 283.787 321.765 277.45 327.235Z" fill="#C7C7C7"/>
<path d="M293.437 414.881C290.186 413.613 287.034 412.106 284.007 410.372C281.044 408.527 278.28 406.38 275.759 403.966C270.642 399.146 266.555 393.338 263.745 386.893C260.984 380.42 259.581 373.449 259.621 366.412C259.602 359.395 261.064 352.453 263.91 346.04C261.302 352.499 260.001 359.411 260.081 366.376C260.161 373.341 261.622 380.221 264.377 386.619C267.081 393.023 271.056 398.812 276.061 403.636C281.095 408.444 286.989 412.259 293.437 414.881Z" fill="#C7C7C7"/>
<path d="M1018.87 374.254L1039.27 1023.44H979.338L999.737 374.254H1018.87Z" fill="#5584AC"/>
<path opacity="0.5" d="M1018.87 374.254L1039.27 1023.44H979.338L999.737 374.254H1018.87Z" fill="white"/>
<path d="M1032.58 812.113H985.983L986.726 788.194H1031.84L1032.58 812.113Z" fill="#5584AC"/>
<path d="M1031.51 776.844H987.053L987.438 764.885H1031.12L1031.51 776.844Z" fill="#5584AC"/>
<path d="M955.599 366.268L960.74 385.293H1027.68V347.215H960.74L958.265 356.343L955.599 366.268Z" fill="#5584AC"/>
<path opacity="0.3" d="M955.599 366.268L960.74 385.293H1027.68V347.215H960.74L958.265 356.343L955.599 366.268Z" fill="white"/>
<path opacity="0.5" d="M955.599 366.268H1027.68V356.343H958.265L955.599 366.268Z" fill="white"/>
<path d="M1020.07 356.96L741.294 309.397L742.449 316.628L1017.95 374.252L1020.07 356.96Z" fill="#5584AC"/>
<path opacity="0.5" d="M1020.07 356.96L741.294 309.397L742.449 316.628L1017.95 374.252L1020.07 356.96Z" fill="white"/>
<path d="M988.589 351.545L741.294 309.372L746.133 304.67L983.393 330.816L988.589 351.545Z" fill="#5584AC"/>
<path d="M826.202 313.508L823.728 333.605L815.425 331.873L817.789 312.573L826.202 313.508Z" fill="#5584AC"/>
<path d="M1006.55 402.687C1003.07 400.093 999.953 397.042 997.287 393.614C994.643 390.153 992.53 386.317 991.018 382.233C987.924 374.037 987.237 365.127 989.039 356.554C989.951 352.284 991.509 348.177 993.658 344.375C996.773 338.62 1001.11 333.615 1006.36 329.711C1011.61 325.808 1017.66 323.099 1024.06 321.776C1015.62 323.785 1007.9 328.107 1001.77 334.258C998.742 337.337 996.177 340.837 994.153 344.65C992.081 348.419 990.589 352.479 989.726 356.692C987.85 365.148 988.442 373.965 991.431 382.095C994.485 390.217 999.717 397.341 1006.55 402.687Z" fill="#C7C7C7"/>
<path d="M981.491 398.048C975.545 388.416 972.396 377.321 972.396 366.002C972.395 354.683 975.544 343.587 981.49 333.956C987.435 324.324 995.943 316.536 1006.06 311.464C1016.18 306.391 1027.51 304.234 1038.79 305.233C1027.56 304.502 1016.34 306.78 1006.29 311.831C996.297 316.95 987.908 324.721 982.041 334.292C976.1 343.822 972.93 354.817 972.886 366.046C972.837 377.291 975.809 388.343 981.491 398.048Z" fill="#C7C7C7"/>
<path d="M1085.65 362.246C1086.31 370.634 1084.92 379.056 1081.61 386.791C1078.3 394.525 1073.16 401.34 1066.63 406.652C1060.11 411.964 1052.39 415.614 1044.15 417.288C1035.9 418.963 1027.37 418.612 1019.29 416.267C1011.21 413.921 1003.82 409.651 997.755 403.821C991.688 397.992 987.126 390.778 984.459 382.797C981.793 374.817 981.102 366.31 982.446 358.004C983.79 349.698 987.129 341.843 992.176 335.111C987.22 341.876 983.966 349.734 982.688 358.022C981.411 366.311 982.147 374.784 984.836 382.728C987.506 390.64 992.049 397.791 998.078 403.569C1004.11 409.348 1011.44 413.584 1019.46 415.917C1027.48 418.249 1035.94 418.61 1044.13 416.967C1052.32 415.324 1059.99 411.727 1066.49 406.481C1073 401.189 1078.14 394.406 1081.48 386.706C1084.81 379.006 1086.24 370.616 1085.65 362.246Z" fill="#C7C7C7"/>
<path d="M651.956 185.04L678.294 1023.42H600.875L627.213 185.04H651.956Z" fill="#5584AC"/>
<path opacity="0.5" d="M651.956 185.04L678.294 1023.42H600.875L627.213 185.04H651.956Z" fill="white"/>
<path d="M654.169 255.338L626.539 207.418L627.226 185.04H651.97L654.169 255.338Z" fill="#5584AC"/>
<path d="M669.713 750.512H609.504L610.466 719.638H668.75L669.713 750.512Z" fill="#5584AC"/>
<path d="M668.306 704.975H610.901L611.396 689.552H667.811L668.306 704.975Z" fill="#5584AC"/>
<path opacity="0.5" d="M640.339 1023.67V185.04H651.968L678.306 1023.42L640.339 1023.67Z" fill="white"/>
<path d="M567.715 174.726L574.341 199.332H660.805V150.147H574.341L571.151 161.942L567.715 174.726Z" fill="#5584AC"/>
<path opacity="0.3" d="M567.715 174.726L574.341 199.332H660.805V150.147H574.341L571.151 161.942L567.715 174.726Z" fill="white"/>
<path opacity="0.5" d="M567.715 174.737H660.805V161.953H571.151L567.715 174.737Z" fill="white"/>
<path d="M689.157 184.61L1061.52 109.116L1057.12 101.226L684.868 163.414L689.157 184.61Z" fill="#5584AC"/>
<path opacity="0.5" d="M689.157 184.61L1061.52 109.116L1057.12 101.226L684.868 163.414L689.157 184.61Z" fill="white"/>
<path d="M731.171 176.075L1061.49 109.103L1057.26 116.884L746.182 197.822L731.171 176.075Z" fill="#5584AC"/>
<path d="M952.286 144.187L947.282 119.554L958.499 117.684L963.31 141.328L952.286 144.187Z" fill="#5584AC"/>
<path d="M666.328 154.519L418.152 -113.451L413.094 -105.725L649.117 169.035L666.328 154.519Z" fill="#5584AC"/>
<path opacity="0.5" d="M666.328 154.519L418.152 -113.451L413.094 -105.725L649.117 169.035L666.328 154.519Z" fill="white"/>
<path d="M638.326 124.25L418.166 -113.45L427.266 -114L650.863 100.607L638.326 124.25Z" fill="#5584AC"/>
<path d="M649.952 188.917L525.769 532.409L535.226 532.574L671.452 195.598L649.952 188.917Z" fill="#5584AC"/>
<path opacity="0.5" d="M649.952 188.917L525.769 532.409L535.226 532.574L671.452 195.598L649.952 188.917Z" fill="white"/>
<path d="M635.925 227.685L525.762 532.412L520.868 525.181L608.377 229.582L635.925 227.685Z" fill="#5584AC"/>
<path d="M550.411 425.431L575.401 433.156L571.277 443.328L547.276 435.878L550.411 425.431Z" fill="#5584AC"/>
<path d="M663.828 199.335C677.418 199.335 688.434 188.319 688.434 174.729C688.434 161.14 677.418 150.124 663.828 150.124C650.239 150.124 639.223 161.14 639.223 174.729C639.223 188.319 650.239 199.335 663.828 199.335Z" fill="#5584AC"/>
<path d="M645.274 174.731C645.271 177.461 645.806 180.166 646.849 182.689C647.892 185.212 649.423 187.505 651.354 189.436C653.285 191.367 655.577 192.897 658.101 193.941C660.624 194.984 663.328 195.519 666.059 195.515C677.523 195.515 701.524 180.669 701.524 174.731C701.524 169.233 677.523 153.974 666.059 153.974C663.331 153.971 660.629 154.505 658.107 155.546C655.586 156.588 653.294 158.116 651.364 160.044C649.433 161.972 647.902 164.261 646.857 166.781C645.812 169.301 645.274 172.003 645.274 174.731Z" fill="#5584AC"/>
<path opacity="0.5" d="M645.274 174.731C645.271 177.461 645.806 180.166 646.849 182.689C647.892 185.212 649.423 187.505 651.354 189.436C653.285 191.367 655.577 192.897 658.101 193.941C660.624 194.984 663.328 195.519 666.059 195.515C677.523 195.515 701.524 180.669 701.524 174.731C701.524 169.233 677.523 153.974 666.059 153.974C663.331 153.971 660.629 154.505 658.107 155.546C655.586 156.588 653.294 158.116 651.364 160.044C649.433 161.972 647.902 164.261 646.857 166.781C645.812 169.301 645.274 172.003 645.274 174.731Z" fill="white"/>
<path d="M630.973 133.573C638.67 127.158 648.071 123.126 658.025 121.972C660.495 121.647 662.987 121.527 665.476 121.614L669.215 121.807C670.452 121.807 671.689 122.136 672.926 122.301C675.389 122.688 677.823 123.239 680.212 123.951C682.587 124.717 684.91 125.636 687.167 126.7C691.685 128.808 695.856 131.589 699.539 134.948C703.286 138.243 706.52 142.079 709.134 146.33C711.802 150.59 713.848 155.21 715.21 160.049C716.493 164.855 717.14 169.81 717.134 174.785C716.958 164.837 714.058 155.129 708.749 146.715C703.372 138.361 695.749 131.691 686.755 127.47C684.537 126.401 682.25 125.483 679.909 124.721C677.553 123.984 675.146 123.423 672.706 123.044C671.497 122.851 670.287 122.604 669.05 122.494L665.366 122.301C662.897 122.186 660.423 122.278 657.97 122.576C648.127 123.675 638.782 127.482 630.973 133.573Z" fill="#C7C7C7"/>
<path d="M664.362 227.647C659.32 227.647 654.301 226.982 649.434 225.667C642.133 223.535 635.373 219.865 629.607 214.905C623.841 209.946 619.202 203.81 616.003 196.91C613.872 192.311 612.445 187.417 611.769 182.394C611.424 179.888 611.231 177.363 611.191 174.833C611.209 172.313 611.393 169.797 611.741 167.301C613.185 157.24 617.532 147.819 624.25 140.193C617.774 147.945 613.594 157.353 612.181 167.356C611.503 172.322 611.558 177.361 612.346 182.311C613.042 187.272 614.478 192.101 616.607 196.635C620.771 205.776 627.445 213.546 635.852 219.042C644.368 224.511 654.242 227.491 664.362 227.647Z" fill="#C7C7C7"/>
<path d="M716.203 184.791C714.902 192.676 711.745 200.139 706.993 206.565C704.584 209.758 701.817 212.663 698.745 215.225C695.718 217.804 692.374 219.984 688.793 221.713C692.233 219.764 695.466 217.47 698.443 214.867C701.429 212.291 704.104 209.375 706.416 206.18C708.797 203.035 710.817 199.632 712.436 196.035C714.052 192.417 715.314 188.652 716.203 184.791Z" fill="#C7C7C7"/>
<path d="M637.705 240.75C625.489 235.904 614.851 227.775 606.966 217.261C599.082 206.747 594.258 194.258 593.029 181.173C591.854 168.076 594.339 154.911 600.208 143.143C606.077 131.376 615.099 121.471 626.268 114.531C615.319 121.665 606.474 131.593 600.645 143.288C594.925 155.02 592.526 168.094 593.708 181.092C594.891 194.09 599.61 206.517 607.353 217.023C615.154 227.516 625.639 235.712 637.705 240.75Z" fill="#C7C7C7"/>
<path d="M719.115 219.98C712.587 228.266 704.221 234.92 694.677 239.415C685.134 243.91 674.676 246.123 664.13 245.878C674.602 245.677 684.913 243.266 694.389 238.803C703.864 234.34 712.29 227.925 719.115 219.98Z" fill="#C7C7C7"/>
<path d="M645.096 106.156C655.658 103.107 666.789 102.579 677.592 104.616C688.407 106.684 698.603 111.209 707.394 117.84C716.127 124.536 723.201 133.153 728.068 143.023C730.497 147.932 732.342 153.108 733.567 158.446C734.718 163.795 735.298 169.251 735.299 174.722C735.139 163.781 732.527 153.014 727.656 143.216C722.739 133.501 715.667 125.038 706.981 118.472C702.666 115.184 697.978 112.416 693.015 110.225C688.055 107.975 682.852 106.306 677.509 105.248C666.771 103.143 655.699 103.453 645.096 106.156Z" fill="#C7C7C7"/>
<path d="M709.569 134.917C716.076 142.214 720.701 150.991 723.041 160.485C725.967 172.418 725.19 184.959 720.812 196.439C716.435 207.92 708.665 217.795 698.536 224.75C688.408 231.705 676.402 235.411 664.115 235.374C651.828 235.337 639.845 231.559 629.758 224.542C621.719 218.967 615.16 211.518 610.647 202.838C606.135 194.157 603.805 184.509 603.86 174.726C603.886 184.461 606.269 194.046 610.805 202.66C615.341 211.275 621.896 218.662 629.909 224.192C637.922 229.721 647.155 233.228 656.819 234.412C666.482 235.596 676.289 234.422 685.4 230.991C694.511 227.56 702.655 221.973 709.137 214.709C715.619 207.445 720.245 198.719 722.621 189.277C724.996 179.836 725.049 169.959 722.776 160.493C720.504 151.026 715.972 142.251 709.569 134.917Z" fill="#C7C7C7"/>
<path d="M607.707 153.476C609.19 149.684 610.955 146.008 612.986 142.479C615.127 139.02 617.614 135.786 620.409 132.829C626.023 126.906 632.774 122.174 640.258 118.918C647.775 115.711 655.867 114.074 664.039 114.107C672.189 114.087 680.252 115.772 687.71 119.056C680.184 116.044 672.146 114.513 664.039 114.547C647.709 114.767 632.135 121.461 620.739 133.159C617.937 136.064 615.432 139.242 613.261 142.644C611.158 146.12 609.302 149.74 607.707 153.476Z" fill="#C7C7C7"/>
</g>
</svg>
