<svg width="127" height="34" viewBox="0 0 127 34" fill="none" xmlns="http://www.w3.org/2000/svg">
<path d="M4.426 3.498V10.434H12.586V13.596H4.426V20.838H13.606V24H0.55V0.335999H13.606V3.498H4.426ZM27.8321 4.96C29.3054 4.96 30.6201 5.266 31.7761 5.878C32.9547 6.49 33.8727 7.39667 34.5301 8.598C35.1874 9.79933 35.5161 11.25 35.5161 12.95V24H31.6741V13.528C31.6741 11.8507 31.2547 10.57 30.4161 9.686C29.5774 8.77933 28.4327 8.326 26.9821 8.326C25.5314 8.326 24.3754 8.77933 23.5141 9.686C22.6754 10.57 22.2561 11.8507 22.2561 13.528V24H18.3801V5.266H22.2561V7.408C22.8907 6.63733 23.6954 6.03667 24.6701 5.606C25.6674 5.17533 26.7214 4.96 27.8321 4.96ZM48.0082 4.96C49.4588 4.96 50.7395 5.25467 51.8502 5.844C52.9835 6.41067 53.8675 7.12467 54.5022 7.986V5.266H58.4122V24.306C58.4122 26.0287 58.0495 27.5587 57.3242 28.896C56.5988 30.256 55.5448 31.3213 54.1622 32.092C52.8022 32.8627 51.1702 33.248 49.2662 33.248C46.7275 33.248 44.6195 32.6473 42.9422 31.446C41.2648 30.2673 40.3128 28.658 40.0862 26.618H43.9282C44.2228 27.5927 44.8462 28.3747 45.7982 28.964C46.7728 29.576 47.9288 29.882 49.2662 29.882C50.8302 29.882 52.0882 29.406 53.0402 28.454C54.0148 27.502 54.5022 26.1193 54.5022 24.306V21.178C53.8448 22.062 52.9495 22.81 51.8162 23.422C50.7055 24.0113 49.4362 24.306 48.0082 24.306C46.3762 24.306 44.8802 23.898 43.5202 23.082C42.1828 22.2433 41.1175 21.0873 40.3242 19.614C39.5535 18.118 39.1682 16.4293 39.1682 14.548C39.1682 12.6667 39.5535 11.0007 40.3242 9.55C41.1175 8.09933 42.1828 6.97733 43.5202 6.184C44.8802 5.368 46.3762 4.96 48.0082 4.96ZM54.5022 14.616C54.5022 13.324 54.2302 12.202 53.6862 11.25C53.1648 10.298 52.4735 9.57267 51.6122 9.074C50.7508 8.57533 49.8215 8.326 48.8242 8.326C47.8268 8.326 46.8975 8.57533 46.0362 9.074C45.1748 9.55 44.4722 10.264 43.9282 11.216C43.4068 12.1453 43.1462 13.256 43.1462 14.548C43.1462 15.84 43.4068 16.9733 43.9282 17.948C44.4722 18.9227 45.1748 19.6707 46.0362 20.192C46.9202 20.6907 47.8495 20.94 48.8242 20.94C49.8215 20.94 50.7508 20.6907 51.6122 20.192C52.4735 19.6933 53.1648 18.968 53.6862 18.016C54.2302 17.0413 54.5022 15.908 54.5022 14.616ZM62.2111 14.548C62.2111 12.6667 62.5965 11.0007 63.3671 9.55C64.1605 8.09933 65.2258 6.97733 66.5631 6.184C67.9231 5.368 69.4191 4.96 71.0511 4.96C72.5245 4.96 73.8051 5.25467 74.8931 5.844C76.0038 6.41067 76.8878 7.12467 77.5451 7.986V5.266H81.4551V24H77.5451V21.212C76.8878 22.096 75.9925 22.8327 74.8591 23.422C73.7258 24.0113 72.4338 24.306 70.9831 24.306C69.3738 24.306 67.9005 23.898 66.5631 23.082C65.2258 22.2433 64.1605 21.0873 63.3671 19.614C62.5965 18.118 62.2111 16.4293 62.2111 14.548ZM77.5451 14.616C77.5451 13.324 77.2731 12.202 76.7291 11.25C76.2078 10.298 75.5165 9.57267 74.6551 9.074C73.7938 8.57533 72.8645 8.326 71.8671 8.326C70.8698 8.326 69.9405 8.57533 69.0791 9.074C68.2178 9.55 67.5151 10.264 66.9711 11.216C66.4498 12.1453 66.1891 13.256 66.1891 14.548C66.1891 15.84 66.4498 16.9733 66.9711 17.948C67.5151 18.9227 68.2178 19.6707 69.0791 20.192C69.9631 20.6907 70.8925 20.94 71.8671 20.94C72.8645 20.94 73.7938 20.6907 74.6551 20.192C75.5165 19.6933 76.2078 18.968 76.7291 18.016C77.2731 17.0413 77.5451 15.908 77.5451 14.616ZM94.0941 4.96C95.5448 4.96 96.8254 5.25467 97.9361 5.844C99.0694 6.41067 99.9534 7.12467 100.588 7.986V5.266H104.498V24.306C104.498 26.0287 104.135 27.5587 103.41 28.896C102.685 30.256 101.631 31.3213 100.248 32.092C98.8881 32.8627 97.2561 33.248 95.3521 33.248C92.8134 33.248 90.7054 32.6473 89.0281 31.446C87.3508 30.2673 86.3988 28.658 86.1721 26.618H90.0141C90.3088 27.5927 90.9321 28.3747 91.8841 28.964C92.8588 29.576 94.0148 29.882 95.3521 29.882C96.9161 29.882 98.1741 29.406 99.1261 28.454C100.101 27.502 100.588 26.1193 100.588 24.306V21.178C99.9308 22.062 99.0354 22.81 97.9021 23.422C96.7914 24.0113 95.5221 24.306 94.0941 24.306C92.4621 24.306 90.9661 23.898 89.6061 23.082C88.2688 22.2433 87.2034 21.0873 86.4101 19.614C85.6394 18.118 85.2541 16.4293 85.2541 14.548C85.2541 12.6667 85.6394 11.0007 86.4101 9.55C87.2034 8.09933 88.2688 6.97733 89.6061 6.184C90.9661 5.368 92.4621 4.96 94.0941 4.96ZM100.588 14.616C100.588 13.324 100.316 12.202 99.7721 11.25C99.2508 10.298 98.5594 9.57267 97.6981 9.074C96.8368 8.57533 95.9074 8.326 94.9101 8.326C93.9128 8.326 92.9834 8.57533 92.1221 9.074C91.2608 9.55 90.5581 10.264 90.0141 11.216C89.4928 12.1453 89.2321 13.256 89.2321 14.548C89.2321 15.84 89.4928 16.9733 90.0141 17.948C90.5581 18.9227 91.2608 19.6707 92.1221 20.192C93.0061 20.6907 93.9354 20.94 94.9101 20.94C95.9074 20.94 96.8368 20.6907 97.6981 20.192C98.5594 19.6933 99.2508 18.968 99.7721 18.016C100.316 17.0413 100.588 15.908 100.588 14.616ZM126.759 14.174C126.759 14.8767 126.714 15.5113 126.623 16.078H112.309C112.422 17.574 112.978 18.7753 113.975 19.682C114.972 20.5887 116.196 21.042 117.647 21.042C119.732 21.042 121.206 20.1693 122.067 18.424H126.249C125.682 20.1467 124.651 21.5633 123.155 22.674C121.682 23.762 119.846 24.306 117.647 24.306C115.856 24.306 114.247 23.9093 112.819 23.116C111.414 22.3 110.303 21.1667 109.487 19.716C108.694 18.2427 108.297 16.5427 108.297 14.616C108.297 12.6893 108.682 11.0007 109.453 9.55C110.246 8.07667 111.346 6.94333 112.751 6.15C114.179 5.35667 115.811 4.96 117.647 4.96C119.415 4.96 120.99 5.34533 122.373 6.116C123.756 6.88667 124.832 7.97467 125.603 9.38C126.374 10.7627 126.759 12.3607 126.759 14.174ZM122.713 12.95C122.69 11.522 122.18 10.3773 121.183 9.516C120.186 8.65467 118.95 8.224 117.477 8.224C116.14 8.224 114.995 8.65467 114.043 9.516C113.091 10.3547 112.524 11.4993 112.343 12.95H122.713Z" fill="#22577E"/>
</svg>
