<svg width="96" height="26" viewBox="0 0 96 26" fill="none" xmlns="http://www.w3.org/2000/svg">
<path d="M17.9652 7.07723C17.1009 6.14646 16.2588 5.52595 15.4388 5.2157C14.641 4.90544 13.8321 4.75031 13.0121 4.75031C11.7933 4.75031 10.6852 4.97192 9.68797 5.41515C8.71288 5.83621 7.87076 6.43456 7.1616 7.2102C6.45245 7.96368 5.89842 8.85012 5.49952 9.86954C5.12278 10.8889 4.93441 11.9859 4.93441 13.1605C4.93441 14.4236 5.12278 15.5871 5.49952 16.6508C5.89842 17.7146 6.45245 18.6343 7.1616 19.4099C7.87076 20.1855 8.71288 20.795 9.68797 21.2382C10.6852 21.6814 11.7933 21.903 13.0121 21.903C13.9651 21.903 14.8848 21.6814 15.7712 21.2382C16.6798 20.7728 17.5219 20.0415 18.2976 19.0442L21.7547 21.5041C20.691 22.9668 19.3946 24.0305 17.8654 24.6953C16.3363 25.3602 14.7075 25.6926 12.9789 25.6926C11.1617 25.6926 9.48852 25.4045 7.9594 24.8283C6.45245 24.23 5.14494 23.3989 4.03688 22.3352C2.95099 21.2493 2.09778 19.9529 1.47727 18.4459C0.85676 16.9389 0.546504 15.2658 0.546504 13.4264C0.546504 11.5427 0.85676 9.83629 1.47727 8.30718C2.09778 6.7559 2.95099 5.43731 4.03688 4.35141C5.14494 3.26552 6.45245 2.43447 7.9594 1.85828C9.48852 1.25993 11.1617 0.960759 12.9789 0.960759C14.5745 0.960759 16.0482 1.24885 17.4001 1.82504C18.774 2.37907 20.0483 3.332 21.2228 4.68383L17.9652 7.07723ZM40.7214 7.07723C39.8572 6.14646 39.015 5.52595 38.1951 5.2157C37.3973 4.90544 36.5884 4.75031 35.7684 4.75031C34.5496 4.75031 33.4415 4.97192 32.4443 5.41515C31.4692 5.83621 30.627 6.43456 29.9179 7.2102C29.2087 7.96368 28.6547 8.85012 28.2558 9.86954C27.8791 10.8889 27.6907 11.9859 27.6907 13.1605C27.6907 14.4236 27.8791 15.5871 28.2558 16.6508C28.6547 17.7146 29.2087 18.6343 29.9179 19.4099C30.627 20.1855 31.4692 20.795 32.4443 21.2382C33.4415 21.6814 34.5496 21.903 35.7684 21.903C36.7214 21.903 37.641 21.6814 38.5275 21.2382C39.4361 20.7728 40.2782 20.0415 41.0539 19.0442L44.511 21.5041C43.4473 22.9668 42.1508 24.0305 40.6217 24.6953C39.0926 25.3602 37.4638 25.6926 35.7352 25.6926C33.918 25.6926 32.2448 25.4045 30.7157 24.8283C29.2087 24.23 27.9012 23.3989 26.7932 22.3352C25.7073 21.2493 24.8541 19.9529 24.2336 18.4459C23.613 16.9389 23.3028 15.2658 23.3028 13.4264C23.3028 11.5427 23.613 9.83629 24.2336 8.30718C24.8541 6.7559 25.7073 5.43731 26.7932 4.35141C27.9012 3.26552 29.2087 2.43447 30.7157 1.85828C32.2448 1.25993 33.918 0.960759 35.7352 0.960759C37.3308 0.960759 38.8045 1.24885 40.1563 1.82504C41.5303 2.37907 42.8046 3.332 43.9791 4.68383L40.7214 7.07723ZM46.0591 13.4264C46.0591 11.5427 46.3693 9.83629 46.9898 8.30718C47.6104 6.7559 48.4636 5.43731 49.5495 4.35141C50.6575 3.26552 51.965 2.43447 53.472 1.85828C55.0011 1.25993 56.6743 0.960759 58.4915 0.960759C60.3308 0.938597 62.0151 1.21561 63.5442 1.7918C65.0733 2.34583 66.3919 3.16579 67.5 4.25169C68.608 5.33758 69.4723 6.64509 70.0928 8.17421C70.7133 9.70333 71.0236 11.4097 71.0236 13.2934C71.0236 15.1328 70.7133 16.806 70.0928 18.3129C69.4723 19.8199 68.608 21.1163 67.5 22.2022C66.3919 23.2881 65.0733 24.1413 63.5442 24.7618C62.0151 25.3602 60.3308 25.6704 58.4915 25.6926C56.6743 25.6926 55.0011 25.4045 53.472 24.8283C51.965 24.23 50.6575 23.3989 49.5495 22.3352C48.4636 21.2493 47.6104 19.9529 46.9898 18.4459C46.3693 16.9389 46.0591 15.2658 46.0591 13.4264ZM50.447 13.1605C50.447 14.4236 50.6353 15.5871 51.0121 16.6508C51.411 17.7146 51.965 18.6343 52.6742 19.4099C53.3833 20.1855 54.2255 20.795 55.2005 21.2382C56.1978 21.6814 57.3059 21.903 58.5247 21.903C59.7436 21.903 60.8516 21.6814 61.8489 21.2382C62.8461 20.795 63.6993 20.1855 64.4085 19.4099C65.1177 18.6343 65.6606 17.7146 66.0373 16.6508C66.4362 15.5871 66.6357 14.4236 66.6357 13.1605C66.6357 11.9859 66.4362 10.8889 66.0373 9.86954C65.6606 8.85012 65.1177 7.96368 64.4085 7.2102C63.6993 6.43456 62.8461 5.83621 61.8489 5.41515C60.8516 4.97192 59.7436 4.75031 58.5247 4.75031C57.3059 4.75031 56.1978 4.97192 55.2005 5.41515C54.2255 5.83621 53.3833 6.43456 52.6742 7.2102C51.965 7.96368 51.411 8.85012 51.0121 9.86954C50.6353 10.8889 50.447 11.9859 50.447 13.1605ZM95.9219 23.3657C93.0188 24.9169 89.7722 25.6926 86.1821 25.6926C84.3649 25.6926 82.6917 25.4045 81.1626 24.8283C79.6556 24.23 78.3481 23.3989 77.2401 22.3352C76.1542 21.2493 75.301 19.9529 74.6804 18.4459C74.0599 16.9389 73.7497 15.2658 73.7497 13.4264C73.7497 11.5427 74.0599 9.83629 74.6804 8.30718C75.301 6.7559 76.1542 5.43731 77.2401 4.35141C78.3481 3.26552 79.6556 2.43447 81.1626 1.85828C82.6917 1.25993 84.3649 0.960759 86.1821 0.960759C87.9771 0.960759 89.6614 1.18237 91.2348 1.62559C92.8083 2.04665 94.2155 2.81121 95.4565 3.91927L92.365 7.04399C91.6116 6.31267 90.6919 5.74756 89.606 5.34866C88.5422 4.94976 87.412 4.75031 86.2153 4.75031C84.9965 4.75031 83.8884 4.97192 82.8911 5.41515C81.9161 5.83621 81.0739 6.43456 80.3648 7.2102C79.6556 7.96368 79.1016 8.85012 78.7027 9.86954C78.3259 10.8889 78.1376 11.9859 78.1376 13.1605C78.1376 14.4236 78.3259 15.5871 78.7027 16.6508C79.1016 17.7146 79.6556 18.6343 80.3648 19.4099C81.0739 20.1855 81.9161 20.795 82.8911 21.2382C83.8884 21.6814 84.9965 21.903 86.2153 21.903C87.279 21.903 88.2763 21.8033 89.2071 21.6039C90.16 21.4044 91.0021 21.0942 91.7334 20.6731V15.1217H86.9134V11.3322H95.9219V23.3657Z" fill="white"/>
</svg>
