<svg width="141" height="28" viewBox="0 0 141 28" fill="none" xmlns="http://www.w3.org/2000/svg">
<path d="M20.8275 17.4598C20.8275 18.9084 20.5652 20.2571 20.0407 21.5059C19.5162 22.7297 18.7919 23.8037 17.8678 24.7278C16.9437 25.6269 15.8573 26.3387 14.6085 26.8632C13.3847 27.3877 12.061 27.6499 10.6374 27.6499C9.21375 27.6499 7.87755 27.3877 6.62876 26.8632C5.40495 26.3137 4.33099 25.5894 3.40689 24.6903C2.50776 23.7662 1.78347 22.6922 1.234 21.4684C0.709511 20.2196 0.447266 18.8834 0.447266 17.4598C0.447266 16.0362 0.709511 14.7125 1.234 13.4887C1.78347 12.2399 2.50776 11.1659 3.40689 10.2668C4.33099 9.34272 5.40495 8.61842 6.62876 8.09393C7.87755 7.54446 9.21375 7.26973 10.6374 7.26973C11.7113 7.26973 12.7853 7.49451 13.8592 7.94408C14.9582 8.36866 15.8323 8.88066 16.4817 9.48008V0.638672H20.8275V17.4598Z" fill="white"/>
<path d="M24.3742 17.4598C24.3742 16.0362 24.6365 14.7125 25.1609 13.4887C25.7104 12.2399 26.4472 11.1659 27.3713 10.2668C28.2954 9.34272 29.3694 8.61842 30.5932 8.09393C31.842 7.54446 33.1782 7.26973 34.6018 7.26973C36.0254 7.26973 37.3491 7.54446 38.5729 8.09393C39.8217 8.61842 40.8957 9.34272 41.7948 10.2668C42.7189 11.1659 43.4432 12.2399 43.9677 13.4887C44.5171 14.7125 44.7919 16.0362 44.7919 17.4598C44.7919 18.8834 44.5171 20.2196 43.9677 21.4684C43.4432 22.6922 42.7189 23.7662 41.7948 24.6903C40.8957 25.5894 39.8217 26.3137 38.5729 26.8632C37.3491 27.3877 36.0254 27.6499 34.6018 27.6499C33.1782 27.6499 31.842 27.3877 30.5932 26.8632C29.3694 26.3137 28.2954 25.5894 27.3713 24.6903C26.4472 23.7662 25.7104 22.6922 25.1609 21.4684C24.6365 20.2196 24.3742 18.8834 24.3742 17.4598ZM28.7575 17.4598C28.7575 18.2591 28.9073 19.0208 29.207 19.7451C29.5317 20.4444 29.9563 21.0563 30.4808 21.5808C31.0053 22.1053 31.6172 22.5299 32.3165 22.8546C33.0408 23.1543 33.8026 23.3042 34.6018 23.3042C35.401 23.3042 36.1503 23.1543 36.8496 22.8546C37.5739 22.5299 38.1983 22.1053 38.7228 21.5808C39.2473 21.0563 39.6594 20.4444 39.9591 19.7451C40.2838 19.0208 40.4461 18.2591 40.4461 17.4598C40.4461 16.6606 40.2838 15.9113 39.9591 15.212C39.6594 14.4877 39.2473 13.8633 38.7228 13.3388C38.1983 12.8143 37.5739 12.4022 36.8496 12.1025C36.1503 11.7779 35.401 11.6155 34.6018 11.6155C33.8026 11.6155 33.0408 11.7779 32.3165 12.1025C31.6172 12.4022 31.0053 12.8143 30.4808 13.3388C29.9563 13.8633 29.5317 14.4877 29.207 15.212C28.9073 15.9113 28.7575 16.6606 28.7575 17.4598Z" fill="white"/>
<path d="M48.7256 8.13139H53.1463V9.18037C53.7207 8.50603 54.3326 8.019 54.982 7.71929C55.6313 7.41958 56.3806 7.26973 57.2298 7.26973C58.5036 7.26973 59.6524 7.53198 60.6764 8.05647C61.7254 8.55598 62.637 9.24281 63.4113 10.117C64.2105 9.24281 65.1596 8.55598 66.2585 8.05647C67.3824 7.53198 68.5813 7.26973 69.855 7.26973C71.0289 7.26973 72.1278 7.49451 73.1518 7.94408C74.2008 8.39364 75.0999 9.00554 75.8492 9.77979C76.6234 10.554 77.2354 11.4657 77.6849 12.5146C78.1345 13.5386 78.3593 14.6376 78.3593 15.8114V26.8632H73.9386V15.8114C73.9386 15.262 73.8262 14.7375 73.6014 14.238C73.4016 13.7384 73.1144 13.3014 72.7397 12.9267C72.3651 12.5521 71.928 12.2524 71.4285 12.0276C70.929 11.8028 70.4045 11.6904 69.855 11.6904C69.2806 11.6904 68.7436 11.8028 68.2441 12.0276C67.7695 12.2524 67.345 12.5521 66.9703 12.9267C66.5957 13.3014 66.296 13.7384 66.0712 14.238C65.8714 14.7375 65.7715 15.262 65.7715 15.8114V26.8632H61.3508V15.8114C61.3508 15.237 61.2384 14.7 61.0136 14.2005C60.8138 13.701 60.5266 13.2639 60.152 12.8893C59.7773 12.5146 59.3402 12.2274 58.8407 12.0276C58.3412 11.8028 57.8042 11.6904 57.2298 11.6904C56.6553 11.6904 56.1184 11.8028 55.6189 12.0276C55.1443 12.2524 54.7197 12.5646 54.3451 12.9642C53.9705 13.3388 53.6707 13.7759 53.446 14.2754C53.2462 14.7749 53.1463 15.2869 53.1463 15.8114V26.8632H48.7256V8.13139Z" fill="white"/>
<path d="M95.5556 8.13139H99.9014V19.1082C99.9014 20.2821 99.6766 21.381 99.2271 22.405C98.7775 23.429 98.1656 24.3406 97.3913 25.1399C96.6421 25.9141 95.743 26.526 94.694 26.9756C93.67 27.4251 92.571 27.6499 91.3972 27.6499C90.2233 27.6499 89.1244 27.4251 88.1004 26.9756C87.0764 26.526 86.1648 25.9141 85.3655 25.1399C84.5913 24.3406 83.9794 23.429 83.5298 22.405C83.0803 21.356 82.8555 20.2446 82.8555 19.0708V8.13139H87.2012V19.1082C87.2012 19.6827 87.3136 20.2196 87.5384 20.7192C87.7632 21.2187 88.0629 21.6558 88.4376 22.0304C88.8122 22.405 89.2493 22.7047 89.7488 22.9295C90.2733 23.1293 90.8227 23.2292 91.3972 23.2292C91.9466 23.2292 92.4711 23.1293 92.9706 22.9295C93.4951 22.7047 93.9447 22.405 94.3193 22.0304C94.694 21.6558 94.9937 21.2187 95.2185 20.7192C95.4432 20.2196 95.5556 19.6827 95.5556 19.1082V8.13139Z" fill="white"/>
<path d="M113.05 21.6183C113.05 21.3935 113.025 21.1812 112.975 20.9814C112.925 20.7566 112.8 20.5568 112.6 20.382C112.425 20.1822 112.163 19.9949 111.813 19.82C111.464 19.6202 110.977 19.4204 110.352 19.2206L108.254 18.5837C107.055 18.2341 106.019 17.6097 105.145 16.7106C104.271 15.7865 103.834 14.6251 103.834 13.2264C103.834 12.4022 104.008 11.628 104.358 10.9037C104.733 10.1794 105.22 9.55501 105.819 9.03052C106.444 8.48105 107.155 8.05646 107.955 7.75676C108.779 7.43207 109.64 7.26973 110.54 7.26973C111.589 7.26973 112.488 7.46954 113.237 7.86915C113.986 8.24378 114.611 8.71832 115.11 9.29276C115.61 9.84223 115.984 10.4416 116.234 11.091C116.509 11.7404 116.671 12.3273 116.721 12.8518H112.338C112.313 12.7269 112.263 12.5646 112.188 12.3648C112.113 12.165 112.001 11.9777 111.851 11.8028C111.701 11.603 111.501 11.4407 111.251 11.3158C111.002 11.1659 110.689 11.091 110.315 11.091C109.74 11.091 109.228 11.2409 108.779 11.5406C108.329 11.8403 108.104 12.2774 108.104 12.8518C108.104 13.1515 108.192 13.4138 108.367 13.6385C108.567 13.8633 108.804 14.0506 109.079 14.2005C109.378 14.3503 109.69 14.4752 110.015 14.5751C110.34 14.675 110.64 14.7749 110.914 14.8748L112.975 15.5866C114.323 16.0612 115.41 16.7855 116.234 17.7595C117.083 18.7336 117.508 20.0448 117.508 21.6932C117.508 22.6423 117.308 23.4915 116.908 24.2407C116.534 24.965 116.022 25.5894 115.372 26.1139C114.723 26.6134 113.974 27.0006 113.125 27.2753C112.275 27.55 111.389 27.6874 110.465 27.6874C109.516 27.6874 108.616 27.5126 107.767 27.1629C106.918 26.8132 106.169 26.3387 105.519 25.7393C104.895 25.1149 104.396 24.3781 104.021 23.5289C103.646 22.6798 103.459 21.7557 103.459 20.7566H107.842C107.842 21.1063 107.892 21.4559 107.992 21.8056C108.092 22.1553 108.242 22.4675 108.442 22.7422C108.666 23.0169 108.941 23.2542 109.266 23.454C109.616 23.6288 110.04 23.7163 110.54 23.7163C111.289 23.7163 111.888 23.4915 112.338 23.0419C112.812 22.5923 113.05 22.1178 113.05 21.6183Z" fill="white"/>
<path d="M120.302 17.4598C120.302 16.0362 120.564 14.7125 121.088 13.4887C121.638 12.2399 122.374 11.1659 123.299 10.2668C124.223 9.34272 125.297 8.61842 126.52 8.09393C127.769 7.54446 129.105 7.26973 130.529 7.26973C131.953 7.26973 133.276 7.54446 134.5 8.09393C135.749 8.61842 136.823 9.34272 137.722 10.2668C138.646 11.1659 139.37 12.2399 139.895 13.4887C140.444 14.7125 140.719 16.0362 140.719 17.4598C140.719 18.8834 140.444 20.2196 139.895 21.4684C139.37 22.6922 138.646 23.7662 137.722 24.6903C136.823 25.5894 135.749 26.3137 134.5 26.8632C133.276 27.3877 131.953 27.6499 130.529 27.6499C129.105 27.6499 127.769 27.3877 126.52 26.8632C125.297 26.3137 124.223 25.5894 123.299 24.6903C122.374 23.7662 121.638 22.6922 121.088 21.4684C120.564 20.2196 120.302 18.8834 120.302 17.4598ZM124.685 17.4598C124.685 18.2591 124.835 19.0208 125.134 19.7451C125.459 20.4444 125.884 21.0563 126.408 21.5808C126.933 22.1053 127.544 22.5299 128.244 22.8546C128.968 23.1543 129.73 23.3042 130.529 23.3042C131.328 23.3042 132.078 23.1543 132.777 22.8546C133.501 22.5299 134.126 22.1053 134.65 21.5808C135.175 21.0563 135.587 20.4444 135.886 19.7451C136.211 19.0208 136.373 18.2591 136.373 17.4598C136.373 16.6606 136.211 15.9113 135.886 15.212C135.587 14.4877 135.175 13.8633 134.65 13.3388C134.126 12.8143 133.501 12.4022 132.777 12.1025C132.078 11.7779 131.328 11.6155 130.529 11.6155C129.73 11.6155 128.968 11.7779 128.244 12.1025C127.544 12.4022 126.933 12.8143 126.408 13.3388C125.884 13.8633 125.459 14.4877 125.134 15.212C124.835 15.9113 124.685 16.6606 124.685 17.4598Z" fill="white"/>
</svg>
