<svg width="141" height="31" viewBox="0 0 141 31" fill="none" xmlns="http://www.w3.org/2000/svg">
<path d="M20.8275 16.8212C20.8275 18.2698 20.5652 19.6184 20.0407 20.8672C19.5162 22.091 18.7919 23.165 17.8678 24.0891C16.9437 24.9882 15.8573 25.7 14.6085 26.2245C13.3847 26.749 12.061 27.0113 10.6374 27.0113C9.21375 27.0113 7.87755 26.749 6.62876 26.2245C5.40495 25.6751 4.33099 24.9508 3.40689 24.0516C2.50776 23.1275 1.78347 22.0536 1.234 20.8298C0.709511 19.581 0.447266 18.2448 0.447266 16.8212C0.447266 15.3975 0.709511 14.0738 1.234 12.85C1.78347 11.6012 2.50776 10.5273 3.40689 9.62815C4.33099 8.70404 5.40495 7.97975 6.62876 7.45526C7.87755 6.90579 9.21375 6.63106 10.6374 6.63106C11.7113 6.63106 12.7853 6.85584 13.8592 7.3054C14.9582 7.72999 15.8323 8.24199 16.4817 8.84141V0H20.8275V16.8212Z" fill="white"/>
<path d="M24.3742 16.8212C24.3742 15.3975 24.6365 14.0738 25.1609 12.85C25.7104 11.6012 26.4472 10.5273 27.3713 9.62815C28.2954 8.70404 29.3694 7.97975 30.5932 7.45526C31.842 6.90579 33.1782 6.63106 34.6018 6.63106C36.0254 6.63106 37.3491 6.90579 38.5729 7.45526C39.8217 7.97975 40.8957 8.70404 41.7948 9.62815C42.7189 10.5273 43.4432 11.6012 43.9677 12.85C44.5171 14.0738 44.7919 15.3975 44.7919 16.8212C44.7919 18.2448 44.5171 19.581 43.9677 20.8298C43.4432 22.0536 42.7189 23.1275 41.7948 24.0516C40.8957 24.9508 39.8217 25.6751 38.5729 26.2245C37.3491 26.749 36.0254 27.0113 34.6018 27.0113C33.1782 27.0113 31.842 26.749 30.5932 26.2245C29.3694 25.6751 28.2954 24.9508 27.3713 24.0516C26.4472 23.1275 25.7104 22.0536 25.1609 20.8298C24.6365 19.581 24.3742 18.2448 24.3742 16.8212ZM28.7575 16.8212C28.7575 17.6204 28.9073 18.3821 29.207 19.1064C29.5317 19.8058 29.9563 20.4177 30.4808 20.9422C31.0053 21.4666 31.6172 21.8912 32.3165 22.2159C33.0408 22.5156 33.8026 22.6655 34.6018 22.6655C35.401 22.6655 36.1503 22.5156 36.8496 22.2159C37.5739 21.8912 38.1983 21.4666 38.7228 20.9422C39.2473 20.4177 39.6594 19.8058 39.9591 19.1064C40.2838 18.3821 40.4461 17.6204 40.4461 16.8212C40.4461 16.0219 40.2838 15.2727 39.9591 14.5733C39.6594 13.849 39.2473 13.2247 38.7228 12.7002C38.1983 12.1757 37.5739 11.7636 36.8496 11.4639C36.1503 11.1392 35.401 10.9768 34.6018 10.9768C33.8026 10.9768 33.0408 11.1392 32.3165 11.4639C31.6172 11.7636 31.0053 12.1757 30.4808 12.7002C29.9563 13.2247 29.5317 13.849 29.207 14.5733C28.9073 15.2727 28.7575 16.0219 28.7575 16.8212Z" fill="white"/>
<path d="M48.7256 7.49272H53.1463V8.5417C53.7207 7.86736 54.3326 7.38033 54.982 7.08062C55.6313 6.78091 56.3806 6.63106 57.2298 6.63106C58.5036 6.63106 59.6524 6.8933 60.6764 7.41779C61.7254 7.91731 62.637 8.60414 63.4113 9.47829C64.2105 8.60414 65.1596 7.91731 66.2585 7.41779C67.3824 6.8933 68.5813 6.63106 69.855 6.63106C71.0289 6.63106 72.1278 6.85584 73.1518 7.3054C74.2008 7.75497 75.0999 8.36687 75.8492 9.14112C76.6234 9.91537 77.2354 10.827 77.6849 11.876C78.1345 12.9 78.3593 13.9989 78.3593 15.1728V26.2245H73.9386V15.1728C73.9386 14.6233 73.8262 14.0988 73.6014 13.5993C73.4016 13.0998 73.1144 12.6627 72.7397 12.2881C72.3651 11.9134 71.928 11.6137 71.4285 11.3889C70.929 11.1642 70.4045 11.0518 69.855 11.0518C69.2806 11.0518 68.7436 11.1642 68.2441 11.3889C67.7695 11.6137 67.345 11.9134 66.9703 12.2881C66.5957 12.6627 66.296 13.0998 66.0712 13.5993C65.8714 14.0988 65.7715 14.6233 65.7715 15.1728V26.2245H61.3508V15.1728C61.3508 14.5983 61.2384 14.0613 61.0136 13.5618C60.8138 13.0623 60.5266 12.6252 60.152 12.2506C59.7773 11.876 59.3402 11.5887 58.8407 11.3889C58.3412 11.1642 57.8042 11.0518 57.2298 11.0518C56.6553 11.0518 56.1184 11.1642 55.6189 11.3889C55.1443 11.6137 54.7197 11.9259 54.3451 12.3255C53.9705 12.7002 53.6707 13.1372 53.446 13.6368C53.2462 14.1363 53.1463 14.6483 53.1463 15.1728V26.2245H48.7256V7.49272Z" fill="white"/>
<path d="M95.5556 7.49272H99.9014V18.4696C99.9014 19.6434 99.6766 20.7423 99.2271 21.7664C98.7775 22.7904 98.1656 23.702 97.3913 24.5012C96.6421 25.2754 95.743 25.8873 94.694 26.3369C93.67 26.7865 92.571 27.0113 91.3972 27.0113C90.2233 27.0113 89.1244 26.7865 88.1004 26.3369C87.0764 25.8873 86.1648 25.2754 85.3655 24.5012C84.5913 23.702 83.9794 22.7904 83.5298 21.7664C83.0803 20.7174 82.8555 19.606 82.8555 18.4321V7.49272H87.2012V18.4696C87.2012 19.044 87.3136 19.581 87.5384 20.0805C87.7632 20.58 88.0629 21.0171 88.4376 21.3917C88.8122 21.7664 89.2493 22.0661 89.7488 22.2908C90.2733 22.4907 90.8227 22.5906 91.3972 22.5906C91.9466 22.5906 92.4711 22.4907 92.9706 22.2908C93.4951 22.0661 93.9447 21.7664 94.3193 21.3917C94.694 21.0171 94.9937 20.58 95.2185 20.0805C95.4432 19.581 95.5556 19.044 95.5556 18.4696V7.49272Z" fill="white"/>
<path d="M113.05 20.9796C113.05 20.7548 113.025 20.5425 112.975 20.3427C112.925 20.118 112.8 19.9181 112.6 19.7433C112.425 19.5435 112.163 19.3562 111.813 19.1814C111.464 18.9816 110.977 18.7818 110.352 18.5819L108.254 17.9451C107.055 17.5954 106.019 16.971 105.145 16.0719C104.271 15.1478 103.834 13.9864 103.834 12.5878C103.834 11.7636 104.008 10.9893 104.358 10.265C104.733 9.54073 105.22 8.91634 105.819 8.39185C106.444 7.84238 107.155 7.41779 107.955 7.11808C108.779 6.7934 109.64 6.63106 110.54 6.63106C111.589 6.63106 112.488 6.83086 113.237 7.23048C113.986 7.60511 114.611 8.07965 115.11 8.65409C115.61 9.20356 115.984 9.80298 116.234 10.4523C116.509 11.1017 116.671 11.6886 116.721 12.2131H112.338C112.313 12.0883 112.263 11.9259 112.188 11.7261C112.113 11.5263 112.001 11.339 111.851 11.1642C111.701 10.9643 111.501 10.802 111.251 10.6771C111.002 10.5273 110.689 10.4523 110.315 10.4523C109.74 10.4523 109.228 10.6022 108.779 10.9019C108.329 11.2016 108.104 11.6387 108.104 12.2131C108.104 12.5128 108.192 12.7751 108.367 12.9999C108.567 13.2247 108.804 13.412 109.079 13.5618C109.378 13.7117 109.69 13.8366 110.015 13.9365C110.34 14.0364 110.64 14.1363 110.914 14.2362L112.975 14.948C114.323 15.4225 115.41 16.1468 116.234 17.1209C117.083 18.0949 117.508 19.4061 117.508 21.0545C117.508 22.0036 117.308 22.8528 116.908 23.6021C116.534 24.3264 116.022 24.9508 115.372 25.4753C114.723 25.9748 113.974 26.3619 113.125 26.6366C112.275 26.9114 111.389 27.0487 110.465 27.0487C109.516 27.0487 108.616 26.8739 107.767 26.5242C106.918 26.1746 106.169 25.7 105.519 25.1006C104.895 24.4762 104.396 23.7394 104.021 22.8903C103.646 22.0411 103.459 21.117 103.459 20.118H107.842C107.842 20.4676 107.892 20.8173 107.992 21.1669C108.092 21.5166 108.242 21.8288 108.442 22.1035C108.666 22.3783 108.941 22.6155 109.266 22.8153C109.616 22.9902 110.04 23.0776 110.54 23.0776C111.289 23.0776 111.888 22.8528 112.338 22.4032C112.812 21.9537 113.05 21.4791 113.05 20.9796Z" fill="white"/>
<path d="M120.302 16.8212C120.302 15.3975 120.564 14.0738 121.088 12.85C121.638 11.6012 122.374 10.5273 123.299 9.62815C124.223 8.70404 125.297 7.97975 126.52 7.45526C127.769 6.90579 129.105 6.63106 130.529 6.63106C131.953 6.63106 133.276 6.90579 134.5 7.45526C135.749 7.97975 136.823 8.70404 137.722 9.62815C138.646 10.5273 139.37 11.6012 139.895 12.85C140.444 14.0738 140.719 15.3975 140.719 16.8212C140.719 18.2448 140.444 19.581 139.895 20.8298C139.37 22.0536 138.646 23.1275 137.722 24.0516C136.823 24.9508 135.749 25.6751 134.5 26.2245C133.276 26.749 131.953 27.0113 130.529 27.0113C129.105 27.0113 127.769 26.749 126.52 26.2245C125.297 25.6751 124.223 24.9508 123.299 24.0516C122.374 23.1275 121.638 22.0536 121.088 20.8298C120.564 19.581 120.302 18.2448 120.302 16.8212ZM124.685 16.8212C124.685 17.6204 124.835 18.3821 125.134 19.1064C125.459 19.8058 125.884 20.4177 126.408 20.9422C126.933 21.4666 127.544 21.8912 128.244 22.2159C128.968 22.5156 129.73 22.6655 130.529 22.6655C131.328 22.6655 132.078 22.5156 132.777 22.2159C133.501 21.8912 134.126 21.4666 134.65 20.9422C135.175 20.4177 135.587 19.8058 135.886 19.1064C136.211 18.3821 136.373 17.6204 136.373 16.8212C136.373 16.0219 136.211 15.2727 135.886 14.5733C135.587 13.849 135.175 13.2247 134.65 12.7002C134.126 12.1757 133.501 11.7636 132.777 11.4639C132.078 11.1392 131.328 10.9768 130.529 10.9768C129.73 10.9768 128.968 11.1392 128.244 11.4639C127.544 11.7636 126.933 12.1757 126.408 12.7002C125.884 13.2247 125.459 13.849 125.134 14.5733C124.835 15.2727 124.685 16.0219 124.685 16.8212Z" fill="white"/>
<path d="M13.7566 20.2576C14.1574 20.7335 14.8811 20.806 15.2682 20.322C15.7118 19.7675 16.0406 19.1288 16.2308 18.4426C16.5206 17.3974 16.4744 16.2936 16.0987 15.2835C15.723 14.2735 15.0363 13.4072 14.1335 12.8044C13.2307 12.2015 12.1565 11.8919 11.0592 11.9184C9.96188 11.9448 8.89573 12.3059 8.00809 12.9518C7.12044 13.5978 6.45513 14.4966 6.10409 15.5241C5.75306 16.5517 5.73364 17.6571 6.04851 18.6878C6.25426 19.3612 6.59611 19.981 7.04962 20.5122C7.45161 20.983 8.16833 20.8875 8.54937 20.4027L10.2605 18.2258C10.7038 17.6619 11.5602 17.6495 12.0242 18.2005L13.7566 20.2576Z" fill="#2E2E2E"/>
</svg>
