<svg width="124" height="33" viewBox="0 0 124 33" fill="none" xmlns="http://www.w3.org/2000/svg">
<path d="M4.09518 3.24431V10.0256H12.0732V13.1171H4.09518V20.1976H13.0704V23.2891H0.305628V0.152833H13.0704V3.24431H4.09518ZM26.9792 4.67371C28.4197 4.67371 29.7051 4.97288 30.8353 5.57123C31.9877 6.16958 32.8852 7.05603 33.5279 8.23057C34.1705 9.40511 34.4919 10.8234 34.4919 12.4855V23.2891H30.7356V13.0506C30.7356 11.4107 30.3256 10.1586 29.5056 9.2943C28.6856 8.40786 27.5665 7.96463 26.1482 7.96463C24.7299 7.96463 23.5997 8.40786 22.7575 9.2943C21.9376 10.1586 21.5276 11.4107 21.5276 13.0506V23.2891H17.738V4.97288H21.5276V7.06711C22.1481 6.31363 22.9348 5.72636 23.8878 5.3053C24.8629 4.88424 25.8933 4.67371 26.9792 4.67371ZM46.7053 4.67371C48.1237 4.67371 49.3758 4.9618 50.4617 5.53799C51.5697 6.09202 52.434 6.7901 53.0545 7.63222V4.97288H56.8773V23.5882C56.8773 25.2725 56.5227 26.7684 55.8136 28.0759C55.1044 29.4055 54.0739 30.4471 52.7221 31.2006C51.3924 31.9541 49.7968 32.3308 47.9353 32.3308C45.4532 32.3308 43.3922 31.7435 41.7523 30.569C40.1124 29.4166 39.1816 27.8432 38.96 25.8487H42.7163C43.0044 26.8016 43.6139 27.5662 44.5446 28.1424C45.4976 28.7407 46.6278 29.0399 47.9353 29.0399C49.4644 29.0399 50.6943 28.5745 51.6251 27.6437C52.578 26.713 53.0545 25.3611 53.0545 23.5882V20.53C52.4118 21.3943 51.5365 22.1256 50.4284 22.724C49.3425 23.3001 48.1015 23.5882 46.7053 23.5882C45.1097 23.5882 43.6471 23.1893 42.3174 22.3915C41.0099 21.5716 39.9684 20.4414 39.1927 19.0009C38.4392 17.5382 38.0625 15.8872 38.0625 14.0479C38.0625 12.2085 38.4392 10.5796 39.1927 9.16134C39.9684 7.74302 41.0099 6.64605 42.3174 5.87041C43.6471 5.07261 45.1097 4.67371 46.7053 4.67371ZM53.0545 14.1144C53.0545 12.8512 52.7886 11.7542 52.2567 10.8234C51.747 9.89265 51.0711 9.1835 50.229 8.69595C49.3868 8.20841 48.4782 7.96463 47.5031 7.96463C46.528 7.96463 45.6194 8.20841 44.7773 8.69595C43.9352 9.16134 43.2482 9.85941 42.7163 10.7902C42.2066 11.6988 41.9518 12.7847 41.9518 14.0479C41.9518 15.3111 42.2066 16.4191 42.7163 17.372C43.2482 18.325 43.9352 19.0563 44.7773 19.566C45.6416 20.0535 46.5502 20.2973 47.5031 20.2973C48.4782 20.2973 49.3868 20.0535 50.229 19.566C51.0711 19.0784 51.747 18.3693 52.2567 17.4385C52.7886 16.4856 53.0545 15.3775 53.0545 14.1144ZM60.5915 14.0479C60.5915 12.2085 60.9683 10.5796 61.7218 9.16134C62.4974 7.74302 63.539 6.64605 64.8465 5.87041C66.1761 5.07261 67.6388 4.67371 69.2344 4.67371C70.6749 4.67371 71.927 4.9618 72.9907 5.53799C74.0766 6.09202 74.9409 6.7901 75.5835 7.63222V4.97288H79.4063V23.2891H75.5835V20.5632C74.9409 21.4275 74.0655 22.1478 72.9575 22.724C71.8494 23.3001 70.5862 23.5882 69.1679 23.5882C67.5945 23.5882 66.154 23.1893 64.8465 22.3915C63.539 21.5716 62.4974 20.4414 61.7218 19.0009C60.9683 17.5382 60.5915 15.8872 60.5915 14.0479ZM75.5835 14.1144C75.5835 12.8512 75.3176 11.7542 74.7857 10.8234C74.276 9.89265 73.6001 9.1835 72.758 8.69595C71.9159 8.20841 71.0073 7.96463 70.0322 7.96463C69.0571 7.96463 68.1485 8.20841 67.3064 8.69595C66.4642 9.16134 65.7772 9.85941 65.2454 10.7902C64.7357 11.6988 64.4808 12.7847 64.4808 14.0479C64.4808 15.3111 64.7357 16.4191 65.2454 17.372C65.7772 18.325 66.4642 19.0563 67.3064 19.566C68.1706 20.0535 69.0793 20.2973 70.0322 20.2973C71.0073 20.2973 71.9159 20.0535 72.758 19.566C73.6001 19.0784 74.276 18.3693 74.7857 17.4385C75.3176 16.4856 75.5835 15.3775 75.5835 14.1144ZM91.7634 4.67371C93.1817 4.67371 94.4338 4.9618 95.5197 5.53799C96.6278 6.09202 97.4921 6.7901 98.1126 7.63222V4.97288H101.935V23.5882C101.935 25.2725 101.581 26.7684 100.872 28.0759C100.162 29.4055 99.132 30.4471 97.7802 31.2006C96.4505 31.9541 94.8549 32.3308 92.9934 32.3308C90.5113 32.3308 88.4503 31.7435 86.8104 30.569C85.1705 29.4166 84.2397 27.8432 84.0181 25.8487H87.7744C88.0625 26.8016 88.6719 27.5662 89.6027 28.1424C90.5556 28.7407 91.6859 29.0399 92.9934 29.0399C94.5225 29.0399 95.7524 28.5745 96.6832 27.6437C97.6361 26.713 98.1126 25.3611 98.1126 23.5882V20.53C97.4699 21.3943 96.5946 22.1256 95.4865 22.724C94.4006 23.3001 93.1596 23.5882 91.7634 23.5882C90.1678 23.5882 88.7052 23.1893 87.3755 22.3915C86.068 21.5716 85.0264 20.4414 84.2508 19.0009C83.4973 17.5382 83.1206 15.8872 83.1206 14.0479C83.1206 12.2085 83.4973 10.5796 84.2508 9.16134C85.0264 7.74302 86.068 6.64605 87.3755 5.87041C88.7052 5.07261 90.1678 4.67371 91.7634 4.67371ZM98.1126 14.1144C98.1126 12.8512 97.8467 11.7542 97.3148 10.8234C96.8051 9.89265 96.1292 9.1835 95.287 8.69595C94.4449 8.20841 93.5363 7.96463 92.5612 7.96463C91.5861 7.96463 90.6775 8.20841 89.8354 8.69595C88.9933 9.16134 88.3063 9.85941 87.7744 10.7902C87.2647 11.6988 87.0099 12.7847 87.0099 14.0479C87.0099 15.3111 87.2647 16.4191 87.7744 17.372C88.3063 18.325 88.9933 19.0563 89.8354 19.566C90.6997 20.0535 91.6083 20.2973 92.5612 20.2973C93.5363 20.2973 94.4449 20.0535 95.287 19.566C96.1292 19.0784 96.8051 18.3693 97.3148 17.4385C97.8467 16.4856 98.1126 15.3775 98.1126 14.1144ZM123.7 13.6822C123.7 14.3692 123.656 14.9897 123.567 15.5437H109.572C109.683 17.0064 110.226 18.1809 111.201 19.0674C112.176 19.9538 113.373 20.397 114.791 20.397C116.83 20.397 118.27 19.5438 119.113 17.8374H123.201C122.647 19.5217 121.639 20.9067 120.176 21.9926C118.736 23.0564 116.941 23.5882 114.791 23.5882C113.04 23.5882 111.467 23.2004 110.071 22.4248C108.697 21.627 107.611 20.5189 106.813 19.1006C106.037 17.6601 105.65 15.998 105.65 14.1144C105.65 12.2307 106.026 10.5796 106.78 9.16134C107.555 7.72086 108.63 6.61281 110.004 5.83717C111.4 5.06153 112.996 4.67371 114.791 4.67371C116.52 4.67371 118.06 5.05045 119.412 5.80392C120.764 6.5574 121.816 7.62114 122.57 8.99513C123.323 10.347 123.7 11.9093 123.7 13.6822ZM119.744 12.4855C119.722 11.0894 119.223 9.97022 118.248 9.12809C117.273 8.28597 116.065 7.86491 114.625 7.86491C113.317 7.86491 112.198 8.28597 111.267 9.12809C110.337 9.94806 109.783 11.0672 109.605 12.4855H119.744Z" fill="white"/>
</svg>
