<svg width="141" height="25" viewBox="0 0 141 25" fill="none" xmlns="http://www.w3.org/2000/svg">
<line x1="1.37788" y1="3.27364" x2="1.37788" y2="22.2788" stroke="white" stroke-width="2.56827" stroke-linecap="round"/>
<line x1="67.1259" y1="3.30513" x2="67.1259" y2="22.3103" stroke="white" stroke-width="2.56827" stroke-linecap="round"/>
<line x1="34.2509" y1="3.27388" x2="34.2509" y2="22.2791" stroke="white" stroke-width="2.56827" stroke-linecap="round"/>
<line x1="134.902" y1="13.7198" x2="139.695" y2="21.3078" stroke="white" stroke-width="2.56827" stroke-linecap="round"/>
<line x1="50.6904" y1="3.30513" x2="50.6904" y2="22.3103" stroke="white" stroke-width="2.56827" stroke-linecap="round"/>
<line x1="126.71" y1="13.5764" x2="126.71" y2="21.2812" stroke="white" stroke-width="2.56827" stroke-linecap="round"/>
<line x1="17.8134" y1="3.30513" x2="17.8134" y2="22.3103" stroke="white" stroke-width="2.56827" stroke-linecap="round"/>
<line x1="11.1377" y1="3.30424" x2="23.979" y2="3.30424" stroke="white" stroke-width="2.56827" stroke-linecap="round"/>
<line x1="77.4013" y1="2.79057" x2="90.2427" y2="2.79057" stroke="white" stroke-width="2.56827" stroke-linecap="round"/>
<line x1="101.026" y1="2.79057" x2="113.868" y2="2.79057" stroke="white" stroke-width="2.56827" stroke-linecap="round"/>
<line x1="77.4013" y1="21.2818" x2="90.2427" y2="21.2818" stroke="white" stroke-width="2.56827" stroke-linecap="round"/>
<line x1="101.026" y1="21.2818" x2="113.868" y2="21.2818" stroke="white" stroke-width="2.56827" stroke-linecap="round"/>
<line x1="77.4013" y1="12.0357" x2="90.2427" y2="12.0357" stroke="white" stroke-width="2.56827" stroke-linecap="round"/>
<line x1="101.026" y1="12.0357" x2="113.868" y2="12.0357" stroke="white" stroke-width="2.56827" stroke-linecap="round"/>
<g clip-path="url(#clip0_380_33555)">
<rect x="117.466" y="2.27754" width="20.5462" height="10.7867" rx="3.8524" stroke="white" stroke-width="2.56827"/>
</g>
<path d="M50.6917 3.30419L67.1287 22.3095" stroke="white" stroke-width="2.56827" stroke-linecap="round"/>
<defs>
<clipPath id="clip0_380_33555">
<rect x="125.426" y="0.993408" width="13.8679" height="13.324" rx="0.815758" fill="white"/>
</clipPath>
</defs>
</svg>
