<svg width="118" height="55" viewBox="0 0 118 55" fill="none" xmlns="http://www.w3.org/2000/svg">
<path d="M2.32748 19.3929L18.8765 3.21021H25.6899L5.78898 23.1384L4.757 24.3982L3.91954 26.0343L2.74727 29.6519L1.65882 28.6187L0.821594 27.0678L0.570312 24.7427L0.821452 22.5894L1.40766 20.8667L2.32748 19.3929Z" fill="url(#paint0_linear_380_33535)"/>
<path d="M8.59959 24.1178L29.7553 4.12799L37.5874 3.21021L12.0852 27.7623L10.6182 29.2219L9.55475 31.1924L8.64264 33.2565L8.17274 36.2623L6.73919 34.8374L5.85742 32.7439V30.3117L6.44724 27.8289L7.24511 25.786L8.59959 24.1178Z" fill="url(#paint1_linear_380_33535)"/>
<path d="M31.6444 25.6855L50.8112 46.8388L42.2546 46.8389L27.0137 29.9848L31.6444 25.6855Z" fill="white"/>
<path d="M24.7279 32.2954L37.5894 46.8383L29.5258 46.8376L20.4023 36.4064L24.7279 32.2954Z" fill="white"/>
<g filter="url(#filter0_d_380_33535)">
<path d="M13.487 31.3256L42.1346 4.53296H50.8109L17.5594 35.5706L17.0207 36.6642V38.3457L24.8249 46.8396H17.9863C17.9863 46.8396 12.272 43.717 11.4024 40.1959C11.1648 39.2337 11.1484 37.6729 11.1484 37.6729C11.1484 37.6729 11.2222 36.1755 11.4023 35.235C11.5689 34.3654 11.5847 33.8308 12.0032 33.0476C12.4202 32.2672 13.487 31.3256 13.487 31.3256Z" fill="url(#paint2_linear_380_33535)" shape-rendering="crispEdges"/>
</g>
<path d="M61.5829 9.89417H64.1758V26.3156L71.2563 19.4678H74.9461L67.4335 26.5483L75.7107 35.0249H71.8879L64.1758 26.8474V35.0249H61.5829V9.89417ZM78.0043 21.4623C78.8021 20.6423 79.744 20.044 80.8299 19.6672C81.9379 19.2683 83.0571 19.0689 84.1873 19.0689C86.4921 19.0689 88.1541 19.6118 89.1736 20.6977C90.193 21.7836 90.7027 23.4346 90.7027 25.6507V32.3323C90.7027 32.7755 90.7248 33.2409 90.7692 33.7285C90.8135 34.1939 90.8689 34.626 90.9354 35.0249H88.4422C88.3536 34.6703 88.2982 34.2825 88.276 33.8614C88.276 33.4182 88.276 33.0304 88.276 32.698H88.2095C87.6998 33.4958 87.0128 34.1495 86.1486 34.6592C85.3064 35.1689 84.287 35.4238 83.0903 35.4238C82.2925 35.4238 81.539 35.3241 80.8299 35.1246C80.1429 34.9252 79.5335 34.6371 79.0016 34.2603C78.4919 33.8614 78.0819 33.3739 77.7716 32.7977C77.4614 32.2215 77.3063 31.5567 77.3063 30.8032C77.3063 29.5179 77.6387 28.5095 78.3035 27.7782C78.9683 27.0469 79.7883 26.5039 80.7634 26.1494C81.7606 25.7948 82.8244 25.5732 83.9546 25.4845C85.107 25.3959 86.1596 25.3516 87.1126 25.3516H88.1098V24.8862C88.1098 23.756 87.7663 22.9028 87.0793 22.3266C86.4145 21.7504 85.4726 21.4623 84.2538 21.4623C83.4117 21.4623 82.5806 21.6063 81.7606 21.8944C80.9628 22.1604 80.2537 22.5814 79.6332 23.1576L78.0043 21.4623ZM85.517 27.5455C83.8549 27.5455 82.5363 27.7782 81.5612 28.2436C80.5861 28.709 80.0986 29.4735 80.0986 30.5373C80.0986 31.5124 80.4199 32.2104 81.0626 32.6315C81.7274 33.0304 82.5474 33.2299 83.5225 33.2299C84.2759 33.2299 84.9297 33.108 85.4837 32.8642C86.0599 32.5983 86.5364 32.2548 86.9131 31.8337C87.2899 31.4126 87.5779 30.9251 87.7774 30.3711C87.9768 29.7949 88.0877 29.1854 88.1098 28.5428V27.5455H85.517ZM102.522 35.0249H99.6631L93.314 19.4678H96.339L101.192 31.6675H101.259L105.879 19.4678H108.672L102.522 35.0249ZM111.711 19.4678H114.303V35.0249H111.711V19.4678ZM111.112 13.3846C111.112 12.8748 111.29 12.4316 111.644 12.0549C112.021 11.6781 112.475 11.4898 113.007 11.4898C113.539 11.4898 113.982 11.6781 114.337 12.0549C114.713 12.4316 114.902 12.8748 114.902 13.3846C114.902 13.9386 114.725 14.3929 114.37 14.7475C114.015 15.102 113.561 15.2793 113.007 15.2793C112.453 15.2793 111.999 15.102 111.644 14.7475C111.29 14.3929 111.112 13.9386 111.112 13.3846Z" fill="white"/>
<defs>
<filter id="filter0_d_380_33535" x="10.1096" y="3.49416" width="47.9725" height="50.6171" filterUnits="userSpaceOnUse" color-interpolation-filters="sRGB">
<feFlood flood-opacity="0" result="BackgroundImageFix"/>
<feColorMatrix in="SourceAlpha" type="matrix" values="0 0 0 0 0 0 0 0 0 0 0 0 0 0 0 0 0 0 127 0" result="hardAlpha"/>
<feOffset dx="3.11641" dy="3.11641"/>
<feGaussianBlur stdDeviation="2.07761"/>
<feComposite in2="hardAlpha" operator="out"/>
<feColorMatrix type="matrix" values="0 0 0 0 0 0 0 0 0 0 0 0 0 0 0 0 0 0 0.45 0"/>
<feBlend mode="normal" in2="BackgroundImageFix" result="effect1_dropShadow_380_33535"/>
<feBlend mode="normal" in="SourceGraphic" in2="effect1_dropShadow_380_33535" result="shape"/>
</filter>
<linearGradient id="paint0_linear_380_33535" x1="6.98588" y1="11.812" x2="5.10442" y2="31.0173" gradientUnits="userSpaceOnUse">
<stop stop-color="white"/>
<stop offset="1" stop-color="white" stop-opacity="0.2"/>
</linearGradient>
<linearGradient id="paint1_linear_380_33535" x1="15.0677" y1="16.2764" x2="4.94258" y2="39.8416" gradientUnits="userSpaceOnUse">
<stop stop-color="white"/>
<stop offset="1" stop-color="white" stop-opacity="0.1"/>
</linearGradient>
<linearGradient id="paint2_linear_380_33535" x1="27.4713" y1="18.7321" x2="35.6871" y2="56.3112" gradientUnits="userSpaceOnUse">
<stop stop-color="white"/>
<stop offset="1" stop-color="white" stop-opacity="0"/>
</linearGradient>
</defs>
</svg>
