<svg width="200" height="100" viewBox="0 0 200 100" fill="none" xmlns="http://www.w3.org/2000/svg">
<path d="M168.396 24.093H166.694H166.174V24.6124V29.6269V30.1463H166.694H168.321L168.504 44.1896C168.699 59.1074 168.58 61.6982 167.696 64.4291C162.026 81.9376 137.359 81.9898 131.641 64.5097L131.147 64.6712L131.641 64.5097C126.721 49.4722 142.08 35.2636 156.806 41.2566L158.698 42.0263L159.413 42.3174V41.5452V22.9067L163.153 22.8272C163.716 22.8153 164.222 22.8034 164.678 22.7928C165.489 22.7738 166.139 22.7587 166.663 22.7532C167.495 22.7446 167.952 22.7624 168.21 22.8129C168.263 22.8232 168.298 22.8332 168.32 22.8408C168.324 22.8711 168.328 22.9199 168.331 22.9999C168.332 23.0284 168.333 23.0614 168.334 23.0977C168.337 23.2004 168.341 23.3306 168.351 23.4659L168.396 24.093ZM157.397 64.5838L157.397 64.5837C159.299 62.4201 159.752 59.3843 159.091 56.6021C158.429 53.8181 156.636 51.2082 153.936 49.8872C146.472 46.2349 137.796 53.3444 140.106 61.2892C140.411 62.3375 140.714 63.1774 141.05 63.7862C141.38 64.3825 141.801 64.8644 142.391 65.0031C142.988 65.1433 143.569 64.8894 144.107 64.4906C144.654 64.0852 145.258 63.4547 145.943 62.6384C146.011 62.557 146.078 62.4771 146.144 62.3987C147.072 61.2929 147.754 60.4801 148.313 59.9219C148.928 59.3088 149.293 59.1128 149.561 59.0903C149.802 59.0701 150.116 59.1819 150.666 59.6815C151.174 60.143 151.784 60.84 152.626 61.8029C152.685 61.8693 152.744 61.937 152.804 62.006C153.5 62.8003 154.048 63.4171 154.488 63.88C154.922 64.3369 155.278 64.6717 155.586 64.8799C155.896 65.0895 156.247 65.2308 156.631 65.1313C156.974 65.0426 157.22 64.7855 157.397 64.5838ZM178.432 12.0384V16.2927H173.899V12.0384H178.432ZM169.522 14.2671L169.393 18.6607H164.83L164.701 14.2671H169.522ZM176.761 21.2318V26.8788H171.113V21.2318H176.761ZM176.954 30.4249V34.3778H172.785V30.4249H176.954Z" fill="white" stroke="#2E2E2E" stroke-width="1.0388"/>
<mask id="path-2-inside-1_380_33548" fill="white">
<path d="M12.1912 53.5698V60.1425H9.68726C9.29975 60.1425 9.01657 60.2915 8.83772 60.5896C8.68868 60.8579 8.61416 61.0069 8.61416 61.0368V77.5356H1.99672V61.2156C1.99672 59.4867 2.53327 57.9367 3.60637 56.5655C4.70927 55.1943 6.11026 54.2703 7.80933 53.7933C8.34588 53.6443 8.85262 53.5698 9.32956 53.5698H12.1912ZM17.3631 65.5527C17.3631 62.2738 18.5256 59.4569 20.8507 57.1021C23.1757 54.7472 25.9777 53.5698 29.2566 53.5698C33.7875 53.5698 37.2602 55.6265 39.6746 59.7401C39.7939 59.9189 40.0174 60.3214 40.3453 60.9473C40.7626 61.8416 41.2396 62.8998 41.7761 64.1219C41.7761 64.1517 41.791 64.1964 41.8208 64.256V64.3008C41.8208 64.3306 41.8059 64.3455 41.7761 64.3455L27.334 70.4711C27.7513 70.7394 28.3922 70.8735 29.2566 70.8735C30.8961 70.8735 32.3418 70.173 33.5937 68.772H40.7924V68.8167C40.6732 69.4725 40.3602 70.2475 39.8535 71.1418C37.439 75.3447 33.8769 77.4462 29.1672 77.4462C25.9181 77.4462 23.131 76.2837 20.806 73.9586C18.5107 71.6038 17.3631 68.8018 17.3631 65.5527ZM29.3461 60.1872C27.021 60.1872 25.3965 61.2007 24.4724 63.2277C24.1743 63.8834 24.0253 64.3753 24.0253 64.7032H24.07L32.3865 61.2156C32.3567 61.1262 32.1927 60.992 31.8947 60.8132C31.0898 60.3959 30.2403 60.1872 29.3461 60.1872ZM47.0078 53.6145H53.5805V66.447C53.6402 66.9537 53.7147 67.3412 53.8041 67.6095C53.9532 68.4441 54.2959 69.1893 54.8325 69.8451C55.4585 70.6499 56.159 71.0523 56.934 71.0523C57.7686 71.0523 58.4989 70.6052 59.1249 69.711C59.6018 68.9956 59.9446 68.1609 60.1533 67.2071C60.1533 67.2071 60.1831 66.9686 60.2427 66.4917V53.5698H66.8154L66.9049 66.7599C66.9347 66.8494 66.9496 66.9537 66.9496 67.0729C67.4563 69.7259 68.5443 71.0523 70.2136 71.0523C70.9886 71.0523 71.6891 70.635 72.3151 69.8004C72.8218 69.1148 73.1646 68.3398 73.3434 67.4753C73.4031 67.2965 73.4627 66.9984 73.5223 66.5811V53.6145H80.095L80.1397 65.7316C80.1397 68.8018 79.2753 71.4995 77.5464 73.8245C75.6387 76.3582 73.2093 77.6251 70.2583 77.6251C67.8736 77.6251 65.638 76.6563 63.5514 74.7188H63.5067C61.4201 76.6563 59.2143 77.6251 56.8893 77.6251C54.594 77.6251 52.5373 76.7755 50.719 75.0765C49.0497 73.4668 47.9319 71.4995 47.3655 69.1744C47.3059 68.8465 47.2314 68.459 47.142 68.0119C47.0525 67.5648 47.0078 67.1326 47.0078 66.7152V53.6145ZM102.601 76.239C100.812 77.0438 99.0088 77.4462 97.1905 77.4462C93.9116 77.4462 91.1096 76.2837 88.7846 73.9586C86.4596 71.6038 85.297 68.7869 85.297 65.508C85.297 62.1993 86.4596 59.3973 88.7846 57.1021C91.1395 54.777 93.9712 53.6145 97.28 53.6145C99.7541 53.6145 102.019 54.3448 104.076 55.8054C106.163 57.2362 107.623 59.1141 108.458 61.4392C108.935 62.7805 109.173 63.8984 109.173 64.7926V77.5356H102.601V76.239ZM91.8698 65.508C91.8698 66.9686 92.3914 68.2355 93.4347 69.3086C94.5078 70.3518 95.7746 70.8735 97.2352 70.8735C98.6959 70.8735 99.9478 70.3518 100.991 69.3086C102.064 68.2355 102.601 66.9686 102.601 65.508C102.601 64.0772 102.079 62.8402 101.036 61.7969C99.9925 60.7238 98.7406 60.1872 97.28 60.1872C95.8194 60.1872 94.5525 60.7089 93.4794 61.7522C92.4063 62.7656 91.8698 64.0176 91.8698 65.508ZM124.57 53.5698V60.1425H122.066C121.678 60.1425 121.395 60.2915 121.216 60.5896C121.067 60.8579 120.993 61.0069 120.993 61.0368V77.5356H114.375V61.2156C114.375 59.4867 114.912 57.9367 115.985 56.5655C117.088 55.1943 118.489 54.2703 120.188 53.7933C120.724 53.6443 121.231 53.5698 121.708 53.5698H124.57ZM172.351 71.0971H175.168C175.436 71.0971 175.749 70.9331 176.107 70.6052C176.494 70.2475 176.718 69.9345 176.778 69.6663L178.477 60.2319C178.805 58.4434 179.773 56.8785 181.383 55.5371C183.022 54.1958 184.736 53.5251 186.525 53.5251H189.342V60.0978H186.838C186.48 60.0978 186.078 60.2617 185.631 60.5896C185.213 60.8877 184.975 61.2156 184.915 61.5733L183.216 71.0971C183.008 72.349 182.396 73.5115 181.383 74.5846C179.624 76.4924 177.731 77.5207 175.705 77.6698C175.347 77.6996 174.229 77.7145 172.351 77.7145V71.0971Z"/>
</mask>
<path d="M12.1912 53.5698V60.1425H9.68726C9.29975 60.1425 9.01657 60.2915 8.83772 60.5896C8.68868 60.8579 8.61416 61.0069 8.61416 61.0368V77.5356H1.99672V61.2156C1.99672 59.4867 2.53327 57.9367 3.60637 56.5655C4.70927 55.1943 6.11026 54.2703 7.80933 53.7933C8.34588 53.6443 8.85262 53.5698 9.32956 53.5698H12.1912ZM17.3631 65.5527C17.3631 62.2738 18.5256 59.4569 20.8507 57.1021C23.1757 54.7472 25.9777 53.5698 29.2566 53.5698C33.7875 53.5698 37.2602 55.6265 39.6746 59.7401C39.7939 59.9189 40.0174 60.3214 40.3453 60.9473C40.7626 61.8416 41.2396 62.8998 41.7761 64.1219C41.7761 64.1517 41.791 64.1964 41.8208 64.256V64.3008C41.8208 64.3306 41.8059 64.3455 41.7761 64.3455L27.334 70.4711C27.7513 70.7394 28.3922 70.8735 29.2566 70.8735C30.8961 70.8735 32.3418 70.173 33.5937 68.772H40.7924V68.8167C40.6732 69.4725 40.3602 70.2475 39.8535 71.1418C37.439 75.3447 33.8769 77.4462 29.1672 77.4462C25.9181 77.4462 23.131 76.2837 20.806 73.9586C18.5107 71.6038 17.3631 68.8018 17.3631 65.5527ZM29.3461 60.1872C27.021 60.1872 25.3965 61.2007 24.4724 63.2277C24.1743 63.8834 24.0253 64.3753 24.0253 64.7032H24.07L32.3865 61.2156C32.3567 61.1262 32.1927 60.992 31.8947 60.8132C31.0898 60.3959 30.2403 60.1872 29.3461 60.1872ZM47.0078 53.6145H53.5805V66.447C53.6402 66.9537 53.7147 67.3412 53.8041 67.6095C53.9532 68.4441 54.2959 69.1893 54.8325 69.8451C55.4585 70.6499 56.159 71.0523 56.934 71.0523C57.7686 71.0523 58.4989 70.6052 59.1249 69.711C59.6018 68.9956 59.9446 68.1609 60.1533 67.2071C60.1533 67.2071 60.1831 66.9686 60.2427 66.4917V53.5698H66.8154L66.9049 66.7599C66.9347 66.8494 66.9496 66.9537 66.9496 67.0729C67.4563 69.7259 68.5443 71.0523 70.2136 71.0523C70.9886 71.0523 71.6891 70.635 72.3151 69.8004C72.8218 69.1148 73.1646 68.3398 73.3434 67.4753C73.4031 67.2965 73.4627 66.9984 73.5223 66.5811V53.6145H80.095L80.1397 65.7316C80.1397 68.8018 79.2753 71.4995 77.5464 73.8245C75.6387 76.3582 73.2093 77.6251 70.2583 77.6251C67.8736 77.6251 65.638 76.6563 63.5514 74.7188H63.5067C61.4201 76.6563 59.2143 77.6251 56.8893 77.6251C54.594 77.6251 52.5373 76.7755 50.719 75.0765C49.0497 73.4668 47.9319 71.4995 47.3655 69.1744C47.3059 68.8465 47.2314 68.459 47.142 68.0119C47.0525 67.5648 47.0078 67.1326 47.0078 66.7152V53.6145ZM102.601 76.239C100.812 77.0438 99.0088 77.4462 97.1905 77.4462C93.9116 77.4462 91.1096 76.2837 88.7846 73.9586C86.4596 71.6038 85.297 68.7869 85.297 65.508C85.297 62.1993 86.4596 59.3973 88.7846 57.1021C91.1395 54.777 93.9712 53.6145 97.28 53.6145C99.7541 53.6145 102.019 54.3448 104.076 55.8054C106.163 57.2362 107.623 59.1141 108.458 61.4392C108.935 62.7805 109.173 63.8984 109.173 64.7926V77.5356H102.601V76.239ZM91.8698 65.508C91.8698 66.9686 92.3914 68.2355 93.4347 69.3086C94.5078 70.3518 95.7746 70.8735 97.2352 70.8735C98.6959 70.8735 99.9478 70.3518 100.991 69.3086C102.064 68.2355 102.601 66.9686 102.601 65.508C102.601 64.0772 102.079 62.8402 101.036 61.7969C99.9925 60.7238 98.7406 60.1872 97.28 60.1872C95.8194 60.1872 94.5525 60.7089 93.4794 61.7522C92.4063 62.7656 91.8698 64.0176 91.8698 65.508ZM124.57 53.5698V60.1425H122.066C121.678 60.1425 121.395 60.2915 121.216 60.5896C121.067 60.8579 120.993 61.0069 120.993 61.0368V77.5356H114.375V61.2156C114.375 59.4867 114.912 57.9367 115.985 56.5655C117.088 55.1943 118.489 54.2703 120.188 53.7933C120.724 53.6443 121.231 53.5698 121.708 53.5698H124.57ZM172.351 71.0971H175.168C175.436 71.0971 175.749 70.9331 176.107 70.6052C176.494 70.2475 176.718 69.9345 176.778 69.6663L178.477 60.2319C178.805 58.4434 179.773 56.8785 181.383 55.5371C183.022 54.1958 184.736 53.5251 186.525 53.5251H189.342V60.0978H186.838C186.48 60.0978 186.078 60.2617 185.631 60.5896C185.213 60.8877 184.975 61.2156 184.915 61.5733L183.216 71.0971C183.008 72.349 182.396 73.5115 181.383 74.5846C179.624 76.4924 177.731 77.5207 175.705 77.6698C175.347 77.6996 174.229 77.7145 172.351 77.7145V71.0971Z" fill="white"/>
<path d="M12.1912 53.5698H13.23V52.531H12.1912V53.5698ZM12.1912 60.1425V61.1813H13.23V60.1425H12.1912ZM8.83772 60.5896L7.94695 60.0552L7.93805 60.07L7.92964 60.0851L8.83772 60.5896ZM8.61416 77.5356V78.5744H9.65296V77.5356H8.61416ZM1.99672 77.5356H0.957914V78.5744H1.99672V77.5356ZM3.60636 56.5655L2.79684 55.9144L2.7883 55.9253L3.60636 56.5655ZM7.80933 53.7933L7.5313 52.7924L7.52859 52.7932L7.80933 53.7933ZM11.1524 53.5698V60.1425H13.23V53.5698H11.1524ZM12.1912 59.1037H9.68726V61.1813H12.1912V59.1037ZM9.68726 59.1037C8.98505 59.1037 8.338 59.4034 7.94695 60.0552L9.72849 61.1241C9.73033 61.121 9.72626 61.1285 9.71383 61.1405C9.70099 61.1529 9.68501 61.1646 9.66806 61.1735C9.65153 61.1822 9.6411 61.1846 9.64154 61.1845C9.64267 61.1843 9.65669 61.1813 9.68726 61.1813V59.1037ZM7.92964 60.0851C7.85279 60.2235 7.7883 60.3433 7.74091 60.4381C7.71802 60.4838 7.69194 60.538 7.66924 60.5925C7.65821 60.619 7.64162 60.6606 7.62613 60.7101C7.61899 60.733 7.57535 60.8657 7.57535 61.0368H9.65296C9.65296 61.0883 9.64905 61.1313 9.64516 61.1625C9.64118 61.1943 9.63626 61.2212 9.632 61.2416C9.62372 61.2814 9.6147 61.3121 9.60917 61.3298C9.60325 61.3488 9.59799 61.3633 9.59468 61.3722C9.59123 61.3814 9.58851 61.388 9.58703 61.3916C9.58425 61.3982 9.58351 61.3995 9.58619 61.3938C9.58864 61.3886 9.59281 61.3799 9.59918 61.3672C9.62632 61.3129 9.67361 61.2241 9.7458 61.0941L7.92964 60.0851ZM7.57535 61.0368V77.5356H9.65296V61.0368H7.57535ZM8.61416 76.4968H1.99672V78.5744H8.61416V76.4968ZM3.03552 77.5356V61.2156H0.957914V77.5356H3.03552ZM3.03552 61.2156C3.03552 59.7206 3.49325 58.3956 4.42443 57.2057L2.7883 55.9253C1.57328 57.4778 0.957914 59.2529 0.957914 61.2156H3.03552ZM4.41581 57.2166C5.38272 56.0145 6.59865 55.2121 8.09008 54.7935L7.52859 52.7932C5.62188 53.3284 4.03583 54.3742 2.79692 55.9144L4.41581 57.2166ZM8.08736 54.7942C8.54812 54.6663 8.96075 54.6086 9.32956 54.6086V52.531C8.7445 52.531 8.14365 52.6223 7.5313 52.7924L8.08736 54.7942ZM9.32956 54.6086H12.1912V52.531H9.32956V54.6086ZM20.8507 57.1021L21.5899 57.8319L20.8507 57.1021ZM39.6746 59.7401L38.7788 60.2659L38.7938 60.2916L38.8103 60.3163L39.6746 59.7401ZM40.3453 60.9473L41.2867 60.508L41.2766 60.4864L41.2655 60.4653L40.3453 60.9473ZM41.7761 64.1219H42.8149V63.9039L42.7273 63.7043L41.7761 64.1219ZM41.8208 64.2561H42.8596V64.0108L42.75 63.7915L41.8208 64.2561ZM41.7761 64.3455V63.3067H41.5649L41.3705 63.3891L41.7761 64.3455ZM27.334 70.4711L26.9284 69.5147L25.1191 70.2821L26.7723 71.3449L27.334 70.4711ZM33.5937 68.772V67.7332H33.1289L32.8191 68.0798L33.5937 68.772ZM40.7924 68.772H41.8312V67.7332H40.7924V68.772ZM40.7924 68.8167L41.8145 69.0025L41.8312 68.9104V68.8167H40.7924ZM39.8535 71.1418L40.7542 71.6592L40.7573 71.6539L39.8535 71.1418ZM20.806 73.9586L20.062 74.6838L20.0714 74.6932L20.806 73.9586ZM24.4724 63.2277L23.5272 62.7968L23.5267 62.7978L24.4724 63.2277ZM24.0253 64.7032H22.9865V65.742H24.0253V64.7032ZM24.07 64.7032V65.742H24.279L24.4717 65.6612L24.07 64.7032ZM32.3865 61.2156L32.7882 62.1736L33.6766 61.801L33.372 60.8871L32.3865 61.2156ZM31.8947 60.8132L32.4291 59.9224L32.4015 59.9058L32.3728 59.891L31.8947 60.8132ZM18.4019 65.5527C18.4019 62.5498 19.4548 59.9944 21.5899 57.8319L20.1115 56.3722C17.5965 58.9195 16.3243 61.9978 16.3243 65.5527H18.4019ZM21.5899 57.8319C23.7218 55.6727 26.2584 54.6086 29.2566 54.6086V52.531C25.697 52.531 22.6297 53.8217 20.1115 56.3722L21.5899 57.8319ZM29.2566 54.6086C33.3959 54.6086 36.5388 56.4497 38.7788 60.2659L40.5705 59.2143C37.9816 54.8034 34.1791 52.531 29.2566 52.531V54.6086ZM38.8103 60.3163C38.8934 60.4409 39.0912 60.7919 39.4251 61.4293L41.2655 60.4653C40.9436 59.8508 40.6944 59.3969 40.539 59.1639L38.8103 60.3163ZM39.404 61.3866C39.817 62.2717 40.2906 63.3223 40.8249 64.5395L42.7273 63.7043C42.1886 62.4773 41.7083 61.4115 41.2867 60.508L39.404 61.3866ZM40.7373 64.1219C40.7373 64.4164 40.8578 64.6529 40.8917 64.7206L42.75 63.7915C42.7501 63.7917 42.7524 63.7964 42.7561 63.8049C42.7596 63.8132 42.7658 63.8283 42.7728 63.8493C42.7796 63.8697 42.7892 63.9018 42.7975 63.9433C42.8056 63.9838 42.8149 64.0453 42.8149 64.1219H40.7373ZM40.782 64.2561V64.3008H42.8596V64.2561H40.782ZM40.782 64.3008C40.782 64.1555 40.819 63.8558 41.0751 63.5998C41.3312 63.3437 41.6309 63.3067 41.7761 63.3067V65.3843C41.9511 65.3843 42.2732 65.3398 42.5442 65.0688C42.8152 64.7979 42.8596 64.4758 42.8596 64.3008H40.782ZM41.3705 63.3891L26.9284 69.5147L27.7396 71.4274L42.1817 65.3018L41.3705 63.3891ZM26.7723 71.3449C27.4404 71.7744 28.3229 71.9123 29.2566 71.9123V69.8347C28.4615 69.8347 28.0623 69.7043 27.8957 69.5973L26.7723 71.3449ZM29.2566 71.9123C31.2365 71.9123 32.9511 71.0501 34.3683 69.4642L32.8191 68.0798C31.7325 69.2959 30.5557 69.8347 29.2566 69.8347V71.9123ZM33.5937 69.8108H40.7924V67.7332H33.5937V69.8108ZM39.7536 68.772V68.8167H41.8312V68.772H39.7536ZM39.7704 68.6309C39.6801 69.1275 39.4267 69.7879 38.9497 70.6296L40.7573 71.6539C41.2938 70.7071 41.6663 69.8176 41.8145 69.0025L39.7704 68.6309ZM38.9527 70.6243C36.7168 74.5164 33.4918 76.4074 29.1672 76.4074V78.485C34.2621 78.485 38.1612 76.1731 40.7542 71.6592L38.9527 70.6243ZM29.1672 76.4074C26.1973 76.4074 23.6734 75.357 21.5405 73.2241L20.0714 74.6932C22.5887 77.2104 25.6389 78.485 29.1672 78.485V76.4074ZM21.5499 73.2336C19.4412 71.0701 18.4019 68.5273 18.4019 65.5527H16.3243C16.3243 69.0764 17.5803 72.1375 20.0621 74.6837L21.5499 73.2336ZM29.3461 59.1484C28.031 59.1484 26.8435 59.4362 25.834 60.066C24.8217 60.6975 24.0597 61.6286 23.5272 62.7968L25.4176 63.6586C25.8091 62.7997 26.3215 62.2106 26.9337 61.8287C27.5488 61.4449 28.3361 61.226 29.3461 61.226V59.1484ZM23.5267 62.7978C23.2235 63.4648 22.9865 64.1338 22.9865 64.7032H25.0641C25.0641 64.6167 25.1251 64.3021 25.4181 63.6575L23.5267 62.7978ZM24.0253 65.742H24.07V63.6644H24.0253V65.742ZM24.4717 65.6612L32.7882 62.1736L31.9848 60.2576L23.6683 63.7452L24.4717 65.6612ZM33.372 60.8871C33.304 60.683 33.1923 60.5386 33.124 60.4598C33.0484 60.3725 32.968 60.3004 32.899 60.2439C32.7614 60.1313 32.5977 60.0236 32.4291 59.9224L31.3602 61.704C31.4222 61.7411 31.4717 61.7728 31.5105 61.799C31.5499 61.8257 31.5728 61.8433 31.5834 61.8519C31.5963 61.8625 31.5812 61.8519 31.554 61.8205C31.5395 61.8038 31.5159 61.7747 31.49 61.7335C31.4645 61.693 31.4294 61.6293 31.401 61.5441L33.372 60.8871ZM32.3728 59.891C31.4224 59.3982 30.4091 59.1484 29.3461 59.1484V61.226C30.0715 61.226 30.7573 61.3936 31.4165 61.7354L32.3728 59.891ZM47.0078 53.6145V52.5757H45.969V53.6145H47.0078ZM53.5805 53.6145H54.6194V52.5757H53.5805V53.6145ZM53.5805 66.447H52.5417V66.5079L52.5489 66.5683L53.5805 66.447ZM53.8041 67.6095L54.8267 67.4269L54.8135 67.3526L54.7896 67.281L53.8041 67.6095ZM54.8325 69.8451L55.6525 69.2073L55.6446 69.1972L55.6365 69.1873L54.8325 69.8451ZM59.1249 69.711L59.9759 70.3067L59.9827 70.297L59.9892 70.2872L59.1249 69.711ZM60.1533 67.2071L61.1681 67.4291L61.1782 67.3829L61.1841 67.3359L60.1533 67.2071ZM60.2427 66.4917L61.2735 66.6205L61.2815 66.5563V66.4917H60.2427ZM60.2427 53.5698V52.531H59.2039V53.5698H60.2427ZM66.8154 53.5698L67.8542 53.5627L67.8472 52.531H66.8154V53.5698ZM66.9049 66.7599L65.8661 66.767L65.8672 66.9319L65.9194 67.0884L66.9049 66.7599ZM66.9496 67.0729H65.9108V67.1713L65.9292 67.2678L66.9496 67.0729ZM72.3151 69.8004L73.1461 70.4237L73.1504 70.4178L72.3151 69.8004ZM73.3434 67.4753L72.3579 67.1468L72.3386 67.2049L72.3262 67.2649L73.3434 67.4753ZM73.5223 66.5811L74.5507 66.728L74.5611 66.6549V66.5811H73.5223ZM73.5223 53.6145V52.5757H72.4835V53.6145H73.5223ZM80.095 53.6145L81.1338 53.6107L81.13 52.5757H80.095V53.6145ZM80.1397 65.7316H81.1785L81.1785 65.7277L80.1397 65.7316ZM77.5464 73.8245L78.3763 74.4494L78.38 74.4444L77.5464 73.8245ZM63.5514 74.7188L64.2583 73.9575L63.9593 73.68H63.5514V74.7188ZM63.5067 74.7188V73.68H63.0988L62.7999 73.9575L63.5067 74.7188ZM50.719 75.0765L49.9979 75.8242L50.0038 75.8299L50.0097 75.8355L50.719 75.0765ZM47.3655 69.1744L46.3435 69.3602L46.349 69.3904L46.3562 69.4203L47.3655 69.1744ZM47.0078 54.6533H53.5805V52.5757H47.0078V54.6533ZM52.5417 53.6145V66.447H54.6194V53.6145H52.5417ZM52.5489 66.5683C52.6113 67.099 52.6957 67.5691 52.8186 67.938L54.7896 67.281C54.7337 67.1133 54.669 66.8084 54.6122 66.3256L52.5489 66.5683ZM52.7815 67.7921C52.9617 68.8011 53.3797 69.7099 54.0285 70.5029L55.6365 69.1873C55.2122 68.6688 54.9446 68.0872 54.8267 67.4269L52.7815 67.7921ZM54.0125 70.4829C54.7681 71.4543 55.7428 72.0911 56.934 72.0911V70.0135C56.5751 70.0135 56.1489 69.8456 55.6525 69.2073L54.0125 70.4829ZM56.934 72.0911C58.2086 72.0911 59.2217 71.3841 59.9759 70.3067L58.2739 69.1153C57.7761 69.8263 57.3287 70.0135 56.934 70.0135V72.0911ZM59.9892 70.2872C60.547 69.4505 60.9355 68.4923 61.1681 67.4291L59.1385 66.9851C58.9537 67.8295 58.6566 68.5406 58.2606 69.1347L59.9892 70.2872ZM60.1533 67.2071C61.1841 67.3359 61.1841 67.3359 61.1841 67.3359C61.1841 67.3359 61.1841 67.3359 61.1841 67.3359C61.1841 67.3359 61.1841 67.3359 61.1841 67.3359C61.1841 67.3359 61.1841 67.3359 61.1841 67.3359C61.1841 67.3359 61.1841 67.3358 61.1841 67.3357C61.1841 67.3355 61.1841 67.3356 61.1841 67.3352C61.1845 67.3325 61.184 67.3363 61.1844 67.3331C61.1856 67.3237 61.184 67.3361 61.1855 67.3247C61.1921 67.2713 61.182 67.3521 61.1896 67.2912C61.1987 67.2186 61.1866 67.3154 61.1966 67.2353C61.1983 67.222 61.1971 67.2316 61.1988 67.2178C61.2053 67.166 61.1946 67.2513 61.2012 67.199C61.2035 67.1806 61.2014 67.1976 61.2037 67.1787C61.204 67.1763 61.2061 67.16 61.2064 67.1571C61.2086 67.1397 61.2159 67.0813 61.219 67.0565C61.2239 67.0174 61.2212 67.0387 61.2263 66.9978C61.2312 66.9584 61.2233 67.0217 61.2283 66.9822C61.2302 66.9668 61.2283 66.9819 61.2303 66.9663C61.2322 66.9504 61.2323 66.9499 61.2344 66.9335C61.2381 66.9036 61.266 66.6802 61.2735 66.6205L59.2119 66.3628C59.1921 66.5215 59.1498 66.8599 59.1448 66.8994C59.1379 66.9553 59.1411 66.9292 59.1351 66.9776C59.1316 67.0056 59.1306 67.013 59.1281 67.0335C59.1276 67.0374 59.1272 67.0405 59.1268 67.044C59.1228 67.0759 59.1296 67.0217 59.1256 67.0531C59.1232 67.0722 59.127 67.0421 59.1247 67.0608C59.1233 67.0718 59.1252 67.0565 59.1239 67.067C59.1229 67.0748 59.1242 67.0647 59.1233 67.0719C59.1231 67.0732 59.1229 67.0746 59.1228 67.0754C59.1223 67.0801 59.1233 67.0714 59.1228 67.0761C59.1225 67.0779 59.1229 67.0749 59.1227 67.0767C59.1227 67.0769 59.1227 67.0767 59.1227 67.0769C59.1227 67.0769 59.1227 67.077 59.1226 67.077C59.1226 67.0771 59.1226 67.0771 59.1226 67.0771C59.1226 67.0772 59.1226 67.0772 59.1226 67.0772C59.1226 67.0773 59.1226 67.0773 59.1226 67.0773C59.1226 67.0775 59.1226 67.0774 59.1226 67.0775C59.1226 67.0776 59.1226 67.0776 59.1226 67.0776C59.1226 67.0776 59.1226 67.0777 59.1226 67.0777C59.1226 67.0777 59.1225 67.0778 59.1225 67.0778C59.1225 67.0783 59.1226 67.0776 59.1225 67.078C59.1225 67.0781 59.1225 67.0781 59.1225 67.0782C59.1225 67.0782 59.1225 67.0782 59.1225 67.0782C59.1225 67.0782 59.1225 67.0782 59.1225 67.0782C59.1225 67.0782 59.1225 67.0782 59.1225 67.0782C59.1225 67.0782 59.1225 67.0782 60.1533 67.2071ZM61.2815 66.4917V53.5698H59.2039V66.4917H61.2815ZM60.2427 54.6086H66.8154V52.531H60.2427V54.6086ZM65.7766 53.5768L65.8661 66.767L67.9436 66.7529L67.8542 53.5627L65.7766 53.5768ZM65.9194 67.0884C65.9124 67.0676 65.9104 67.0546 65.91 67.0522C65.9097 67.0498 65.9108 67.0562 65.9108 67.0729H67.9884C67.9884 66.8702 67.9634 66.6506 67.8904 66.4315L65.9194 67.0884ZM65.9292 67.2678C66.1982 68.6762 66.6428 69.8633 67.3424 70.7163C68.0774 71.6123 69.058 72.0911 70.2136 72.0911V70.0135C69.6999 70.0135 69.3018 69.8291 68.9488 69.3987C68.5604 68.9252 68.2076 68.1226 67.9699 66.878L65.9292 67.2678ZM70.2136 72.0911C71.4211 72.0911 72.3973 71.422 73.1461 70.4237L71.484 69.1771C70.9808 69.848 70.5561 70.0135 70.2136 70.0135V72.0911ZM73.1504 70.4178C73.7497 69.607 74.1525 68.6921 74.3607 67.6858L72.3262 67.2649C72.1767 67.9874 71.8939 68.6226 71.4797 69.1829L73.1504 70.4178ZM74.3289 67.8038C74.4205 67.5291 74.4903 67.1506 74.5507 66.728L72.4939 66.4342C72.4351 66.8462 72.3856 67.0639 72.3579 67.1468L74.3289 67.8038ZM74.5611 66.5811V53.6145H72.4835V66.5811H74.5611ZM73.5223 54.6533H80.095V52.5757H73.5223V54.6533ZM79.0562 53.6183L79.1009 65.7354L81.1785 65.7277L81.1338 53.6107L79.0562 53.6183ZM79.1009 65.7316C79.1009 68.5927 78.3002 71.0699 76.7128 73.2047L78.38 74.4444C80.2504 71.9291 81.1785 69.0109 81.1785 65.7316H79.1009ZM76.7165 73.1997C74.988 75.4953 72.8557 76.5863 70.2583 76.5863V78.6639C73.5629 78.6639 76.2893 77.2211 78.3763 74.4494L76.7165 73.1997ZM70.2583 76.5863C68.1852 76.5863 66.1922 75.7534 64.2583 73.9575L62.8446 75.48C65.0838 77.5592 67.562 78.6639 70.2583 78.6639V76.5863ZM63.5514 73.68H63.5067V75.7576H63.5514V73.68ZM62.7999 73.9575C60.86 75.7588 58.8961 76.5863 56.8893 76.5863V78.6639C59.5325 78.6639 61.9802 77.5538 64.2136 75.48L62.7999 73.9575ZM56.8893 76.5863C54.8806 76.5863 53.0718 75.8533 51.4282 74.3175L50.0097 75.8355C52.0027 77.6978 54.3074 78.6639 56.8893 78.6639V76.5863ZM51.44 74.3287C49.9171 72.8602 48.8962 71.0688 48.3748 68.9286L46.3562 69.4203C46.9676 71.9301 48.1822 74.0734 49.9979 75.8242L51.44 74.3287ZM48.3876 68.9886C48.3265 68.653 48.2508 68.2593 48.1606 67.8082L46.1233 68.2156C46.212 68.6588 46.2853 69.04 46.3435 69.3602L48.3876 68.9886ZM48.1606 67.8082C48.0834 67.422 48.0466 67.0582 48.0466 66.7152H45.969C45.969 67.2069 46.0217 67.7075 46.1233 68.2156L48.1606 67.8082ZM48.0466 66.7152V53.6145H45.969V66.7152H48.0466ZM102.601 76.239H103.64V74.6324L102.174 75.2917L102.601 76.239ZM88.7846 73.9586L88.0454 74.6885L88.0501 74.6932L88.7846 73.9586ZM88.7846 57.1021L89.5144 57.8413L89.5145 57.8413L88.7846 57.1021ZM104.076 55.8054L103.475 56.6524L103.482 56.6573L103.489 56.6621L104.076 55.8054ZM108.458 61.4392L109.437 61.0912L109.436 61.0882L108.458 61.4392ZM109.173 77.5356V78.5744H110.212V77.5356H109.173ZM102.601 77.5356H101.562V78.5744H102.601V77.5356ZM93.4347 69.3086L92.6899 70.0327L92.7001 70.0432L92.7106 70.0534L93.4347 69.3086ZM100.991 69.3086L101.726 70.0431V70.0431L100.991 69.3086ZM101.036 61.7969L100.291 62.521L100.296 62.5262L100.301 62.5314L101.036 61.7969ZM93.4794 61.7522L94.1927 62.5074L94.1981 62.5022L94.2035 62.497L93.4794 61.7522ZM102.174 75.2917C100.509 76.041 98.8506 76.4074 97.1905 76.4074V78.485C99.1671 78.485 101.115 78.0466 103.027 77.1863L102.174 75.2917ZM97.1905 76.4074C94.188 76.4074 91.65 75.355 89.5191 73.2241L88.0501 74.6932C90.5693 77.2124 93.6352 78.485 97.1905 78.485V76.4074ZM89.5238 73.2288C87.3887 71.0663 86.3358 68.5109 86.3358 65.508H84.2582C84.2582 69.063 85.5304 72.1412 88.0454 74.6885L89.5238 73.2288ZM86.3358 65.508C86.3358 62.4731 87.3899 59.9386 89.5144 57.8413L88.0548 56.3628C85.5292 58.856 84.2582 61.9254 84.2582 65.508H86.3358ZM89.5145 57.8413C91.6749 55.7081 94.2445 54.6533 97.28 54.6533V52.5757C93.698 52.5757 90.604 53.8459 88.0547 56.3629L89.5145 57.8413ZM97.28 54.6533C99.534 54.6533 101.59 55.3139 103.475 56.6524L104.678 54.9584C102.449 53.3757 99.9741 52.5757 97.28 52.5757V54.6533ZM103.489 56.6621C105.4 57.9727 106.721 59.6757 107.48 61.7901L109.436 61.0882C108.526 58.5525 106.926 56.4997 104.664 54.9487L103.489 56.6621ZM107.479 61.7872C107.937 63.0749 108.135 64.0659 108.135 64.7926H110.212C110.212 63.7308 109.933 62.4862 109.437 61.0912L107.479 61.7872ZM108.135 64.7926V77.5356H110.212V64.7926H108.135ZM109.173 76.4968H102.601V78.5744H109.173V76.4968ZM103.64 77.5356V76.239H101.562V77.5356H103.64ZM90.831 65.508C90.831 67.2464 91.4633 68.771 92.6899 70.0327L94.1795 68.5844C93.3195 67.6999 92.9086 66.6908 92.9086 65.508H90.831ZM92.7106 70.0534C93.9722 71.28 95.4968 71.9123 97.2353 71.9123V69.8347C96.0524 69.8347 95.0434 69.4237 94.1588 68.5637L92.7106 70.0534ZM97.2353 71.9123C98.9745 71.9123 100.49 71.279 101.726 70.0431L100.257 68.574C99.4059 69.4247 98.4172 69.8347 97.2353 69.8347V71.9123ZM101.726 70.0431C102.985 68.7837 103.64 67.2559 103.64 65.508H101.562C101.562 66.6813 101.143 67.6872 100.257 68.574L101.726 70.0431ZM103.64 65.508C103.64 63.7922 103.002 62.2936 101.77 61.0623L100.301 62.5314C101.157 63.3867 101.562 64.3622 101.562 65.508H103.64ZM101.781 61.0727C100.547 59.8041 99.0288 59.1484 97.28 59.1484V61.226C98.4523 61.226 99.4379 61.6435 100.291 62.521L101.781 61.0727ZM97.28 59.1484C95.5416 59.1484 94.0169 59.7807 92.7553 61.0073L94.2035 62.497C95.0881 61.637 96.0972 61.226 97.28 61.226V59.1484ZM92.7661 60.9969C91.483 62.2088 90.831 63.7349 90.831 65.508H92.9086C92.9086 64.3002 93.3296 63.3225 94.1927 62.5074L92.7661 60.9969ZM124.57 53.5698H125.608V52.531H124.57V53.5698ZM124.57 60.1425V61.1813H125.608V60.1425H124.57ZM121.216 60.5896L120.325 60.0552L120.316 60.07L120.308 60.0851L121.216 60.5896ZM120.993 77.5356V78.5744H122.031V77.5356H120.993ZM114.375 77.5356H113.336V78.5744H114.375V77.5356ZM115.985 56.5655L115.175 55.9144L115.167 55.9253L115.985 56.5655ZM120.188 53.7933L119.91 52.7924L119.907 52.7932L120.188 53.7933ZM123.531 53.5698V60.1425H125.608V53.5698H123.531ZM124.57 59.1037H122.066V61.1813H124.57V59.1037ZM122.066 59.1037C121.363 59.1037 120.716 59.4034 120.325 60.0552L122.107 61.1241C122.109 61.121 122.105 61.1285 122.092 61.1405C122.079 61.1529 122.063 61.1646 122.046 61.1735C122.03 61.1822 122.02 61.1846 122.02 61.1845C122.021 61.1843 122.035 61.1813 122.066 61.1813V59.1037ZM120.308 60.0851C120.231 60.2235 120.167 60.3433 120.119 60.4381C120.096 60.4838 120.07 60.538 120.048 60.5925C120.037 60.619 120.02 60.6606 120.005 60.7101C119.997 60.733 119.954 60.8657 119.954 61.0368H122.031C122.031 61.0883 122.027 61.1313 122.024 61.1625C122.02 61.1943 122.015 61.2212 122.01 61.2416C122.002 61.2814 121.993 61.3121 121.988 61.3298C121.982 61.3488 121.976 61.3633 121.973 61.3722C121.97 61.3814 121.967 61.388 121.965 61.3916C121.963 61.3982 121.962 61.3995 121.965 61.3938C121.967 61.3886 121.971 61.3799 121.978 61.3672C122.005 61.3129 122.052 61.2241 122.124 61.0941L120.308 60.0851ZM119.954 61.0368V77.5356H122.031V61.0368H119.954ZM120.993 76.4968H114.375V78.5744H120.993V76.4968ZM115.414 77.5356V61.2156H113.336V77.5356H115.414ZM115.414 61.2156C115.414 59.7206 115.872 58.3956 116.803 57.2057L115.167 55.9253C113.952 57.4778 113.336 59.2529 113.336 61.2156H115.414ZM116.794 57.2166C117.761 56.0145 118.977 55.2121 120.468 54.7935L119.907 52.7932C118 53.3284 116.414 54.3742 115.175 55.9144L116.794 57.2166ZM120.466 54.7942C120.927 54.6663 121.339 54.6086 121.708 54.6086V52.531C121.123 52.531 120.522 52.6223 119.91 52.7924L120.466 54.7942ZM121.708 54.6086H124.57V52.531H121.708V54.6086ZM172.351 71.0971V70.0583H171.312V71.0971H172.351ZM176.107 70.6052L176.809 71.371L176.812 71.3685L176.107 70.6052ZM176.778 69.6663L177.792 69.8916L177.796 69.8711L177.8 69.8504L176.778 69.6663ZM178.477 60.2319L177.455 60.0446L177.454 60.0478L178.477 60.2319ZM181.383 55.5371L180.725 54.7331L180.718 54.7391L181.383 55.5371ZM189.342 53.5251H190.381V52.4863H189.342V53.5251ZM189.342 60.0978V61.1366H190.381V60.0978H189.342ZM185.631 60.5896L186.235 61.435L186.245 61.4273L185.631 60.5896ZM184.915 61.5733L185.938 61.7558L185.94 61.7441L184.915 61.5733ZM183.216 71.0971L182.193 70.9146L182.192 70.9263L183.216 71.0971ZM181.383 74.5846L180.628 73.8713L180.619 73.8805L181.383 74.5846ZM175.705 77.6698L175.628 76.6337L175.618 76.6346L175.705 77.6698ZM172.351 77.7145H171.312V78.7533H172.351V77.7145ZM172.351 72.1359H175.168V70.0583H172.351V72.1359ZM175.168 72.1359C175.838 72.1359 176.399 71.7467 176.809 71.371L175.405 69.8395C175.27 69.9635 175.175 70.0259 175.122 70.0539C175.069 70.0817 175.09 70.0583 175.168 70.0583V72.1359ZM176.812 71.3685C177.234 70.9789 177.66 70.4837 177.792 69.8916L175.764 69.4409C175.774 69.396 175.781 69.4132 175.72 69.4984C175.661 69.5802 175.562 69.6949 175.402 69.8419L176.812 71.3685ZM177.8 69.8504L179.499 60.4161L177.454 60.0478L175.755 69.4821L177.8 69.8504ZM179.498 60.4193C179.776 58.9056 180.595 57.546 182.048 56.3352L180.718 54.7391C178.952 56.211 177.833 57.9813 177.455 60.0446L179.498 60.4193ZM182.041 56.3411C183.53 55.1224 185.019 54.5639 186.525 54.5639V52.4863C184.454 52.4863 182.515 53.2691 180.725 54.7331L182.041 56.3411ZM186.525 54.5639H189.342V52.4863H186.525V54.5639ZM188.303 53.5251V60.0978H190.381V53.5251H188.303ZM189.342 59.059H186.838V61.1366H189.342V59.059ZM186.838 59.059C186.168 59.059 185.55 59.3606 185.016 59.7519L186.245 61.4273C186.606 61.1628 186.793 61.1366 186.838 61.1366V59.059ZM185.027 59.7443C184.479 60.1355 184.012 60.6772 183.891 61.4025L185.94 61.7441C185.94 61.7423 185.943 61.7192 185.979 61.6701C186.018 61.6167 186.094 61.5355 186.234 61.4349L185.027 59.7443ZM183.893 61.3909L182.194 70.9146L184.239 71.2795L185.938 61.7557L183.893 61.3909ZM182.192 70.9263C182.022 71.9431 181.523 72.9232 180.628 73.8714L182.138 75.2979C183.27 74.0998 183.993 72.7549 184.241 71.2678L182.192 70.9263ZM180.619 73.8805C178.988 75.65 177.325 76.509 175.628 76.6338L175.781 78.7058C178.138 78.5325 180.261 77.3347 182.147 75.2887L180.619 73.8805ZM175.618 76.6346C175.315 76.6598 174.253 76.6757 172.351 76.6757V78.7533C174.205 78.7533 175.379 78.7393 175.791 78.705L175.618 76.6346ZM173.39 77.7145V71.0971H171.312V77.7145H173.39Z" fill="#2E2E2E" mask="url(#path-2-inside-1_380_33548)"/>
</svg>
