<svg width="105" height="40" viewBox="0 0 105 40" fill="none" xmlns="http://www.w3.org/2000/svg">
<path d="M6.55677 32.2985C6.05815 32.16 5.65648 32.0354 5.35176 31.9246C5.04705 31.8415 4.89469 31.7999 4.89469 31.7999C4.95009 31.6614 4.92239 31.5368 4.81158 31.426C4.72848 31.3151 4.53457 31.2459 4.22985 31.2182C3.81433 30.9412 3.38496 30.5534 2.94174 30.0547C2.49852 29.5561 2.1107 29.0436 1.77828 28.5173C1.44586 27.991 1.22425 27.6032 1.11344 27.3538C0.919534 26.9383 0.933385 26.689 1.155 26.6059C1.37661 26.4951 1.63977 26.3704 1.94449 26.2319C2.2492 26.0103 2.56777 25.8441 2.90019 25.7333C3.2603 25.6225 3.55117 25.8026 3.77278 26.2735C4.1329 26.9106 4.68693 27.4508 5.43487 27.894C6.21051 28.3372 7.0831 28.6004 8.05265 28.6835C9.0499 28.7666 10.0472 28.6004 11.0444 28.1849C11.7092 27.8802 12.0694 27.4646 12.1248 26.9383C12.1802 26.3843 11.9724 25.7472 11.5015 25.0269C11.4184 24.8053 11.2937 24.6253 11.1275 24.4867C10.989 24.3482 10.7674 24.1682 10.4627 23.9466C10.1857 23.725 9.78399 23.3648 9.25766 22.8662C8.84214 22.6723 8.45432 22.4922 8.0942 22.326C7.76179 22.1598 7.40167 21.9798 7.01385 21.7859C6.57062 21.5642 6.072 21.2595 5.51797 20.8717C4.96394 20.4562 4.45147 20.013 3.98054 19.542C3.50962 19.0434 3.1495 18.5725 2.90019 18.1293C2.45696 17.7137 2.17995 17.1459 2.06914 16.4256C1.95834 15.6777 1.97219 14.8882 2.1107 14.0572C2.2769 13.2261 2.54007 12.4782 2.90019 11.8133C3.06639 11.4255 3.37111 10.9269 3.81433 10.3175C4.25756 9.68033 4.75618 9.02935 5.31021 8.36452C5.86424 7.69968 6.39057 7.1041 6.88919 6.57777C7.41552 6.02375 7.83104 5.64978 8.13576 5.45587C8.35737 5.23425 8.59283 5.01264 8.84214 4.79103C9.09145 4.54172 9.21611 4.41706 9.21611 4.41706C9.24381 4.27856 9.28536 4.2093 9.34077 4.2093C9.42387 4.2093 9.46542 4.2093 9.46542 4.2093C9.60393 4.1262 9.90865 3.98769 10.3796 3.79378C10.8505 3.59987 11.363 3.23975 11.917 2.71343C13.773 1.82698 15.352 1.2314 16.6539 0.926683C17.9559 0.594267 18.9809 0.428059 19.7288 0.428059C20.4213 0.45576 21.1 0.64967 21.7649 1.00979C22.4297 1.3422 22.9976 1.77158 23.4685 2.29791C23.9671 2.82423 24.258 3.41981 24.3411 4.08465C24.535 4.74948 24.438 5.55282 24.0502 6.49467C23.6901 7.40882 23.1776 8.28141 22.5128 9.11245C21.8757 9.9158 21.2108 10.5114 20.5183 10.8992C19.7427 11.2316 19.0778 11.2732 18.5238 11.0239C17.9975 10.7745 17.7481 10.3867 17.7758 9.86039C17.7758 9.63878 17.8451 9.37562 17.9836 9.0709C18.1498 8.76619 18.5792 8.22601 19.2717 7.45037C20.1582 6.1484 20.6291 5.2204 20.6845 4.66638C20.7399 4.11235 20.4906 3.79378 19.9366 3.71068C19.7704 3.65528 19.4518 3.66913 18.9809 3.75223C18.5099 3.83533 17.9975 3.94614 17.4434 4.08465C16.9171 4.19545 16.4462 4.32011 16.0307 4.45862C15.6428 4.59712 15.4489 4.69408 15.4489 4.74948C15.4489 4.74948 15.4489 4.79103 15.4489 4.87414C15.4489 4.95724 15.3935 4.98494 15.2827 4.95724C15.2273 4.95724 15.0334 5.0542 14.701 5.24811C14.3963 5.41431 14.0223 5.63593 13.5791 5.91294C13.1359 6.18995 12.6926 6.48082 12.2494 6.78553C11.8339 7.06255 11.4738 7.31186 11.1691 7.53347C10.8643 7.75509 10.6981 7.89359 10.6704 7.94899C10.615 8.25371 10.2965 8.53072 9.71474 8.78004C9.16071 9.11245 8.67593 9.58338 8.26041 10.1928C7.84489 10.8022 7.36012 11.5779 6.80609 12.5197C6.33516 13.1569 6.00275 13.8494 5.80884 14.5973C5.61493 15.3176 5.61493 15.8993 5.80884 16.3425C5.94734 16.7857 6.32131 17.229 6.93074 17.6722C7.56788 18.0877 8.42662 18.614 9.50698 19.2512C10.4488 19.7775 11.3353 20.3315 12.1663 20.9133C12.9974 21.495 13.7037 22.0629 14.2855 22.6169C14.8672 23.1432 15.2412 23.5864 15.4074 23.9466C15.7398 24.4175 15.9337 24.9577 15.9891 25.5671C16.0722 26.1765 16.0722 26.7721 15.9891 27.3538C15.9337 27.9079 15.8506 28.3649 15.7398 28.7251C15.5459 29.1683 15.2412 29.6392 14.8256 30.1378C14.4378 30.6365 14.0777 30.8719 13.7453 30.8442C13.4406 30.9273 13.2051 31.0243 13.0389 31.1351C12.9004 31.2459 12.7342 31.3428 12.5403 31.426C12.3464 31.5368 11.8893 31.6614 11.1691 31.7999C10.4488 31.9661 9.65933 32.0908 8.80059 32.1739C7.94184 32.2847 7.19391 32.3262 6.55677 32.2985ZM18.6118 39.2793C18.501 39.2793 18.3347 39.2793 18.1131 39.2793C17.9192 39.307 17.753 39.1962 17.6145 38.9469C17.5037 38.8084 17.3375 38.5314 17.1159 38.1158C16.8943 37.728 16.8527 37.174 16.9912 36.4538C17.1297 35.9828 17.2405 35.5119 17.3236 35.041C17.4067 34.5978 17.4483 34.2653 17.4483 34.0437C17.4483 33.9329 17.476 33.7113 17.5314 33.3789C17.6145 33.0742 17.6561 32.8526 17.6561 32.7141C17.7946 32.4925 17.9054 32.1877 17.9885 31.7999C18.0716 31.4121 18.1131 31.0658 18.1131 30.7611C18.1131 30.4287 18.2793 30.124 18.6118 29.847C18.6118 29.6254 18.6533 29.3483 18.7364 29.0159C18.8472 28.6835 18.9026 28.4619 18.9026 28.3511C18.9857 27.9633 19.1658 27.2846 19.4428 26.315C19.7475 25.3178 20.1076 24.1959 20.5232 22.9493C20.9664 21.7028 21.3958 20.4839 21.8113 19.2927C22.2268 18.1016 22.6008 17.0905 22.9332 16.2594C23.2656 15.4838 23.5426 14.7635 23.7642 14.0987C23.9858 13.4339 24.0966 12.963 24.0966 12.6859C24.0966 12.5751 24.1243 12.492 24.1797 12.4366C24.2352 12.3535 24.3598 12.2012 24.5537 11.9796C24.8307 11.7025 25.1908 11.6056 25.6341 11.6887C26.105 11.7441 26.4928 11.8826 26.7975 12.1042C27.0191 12.4643 27.1715 12.7967 27.2546 13.1015C27.3654 13.3785 27.3654 13.8217 27.2546 14.4311C27.2546 14.8466 27.1577 15.2345 26.9637 15.5946C26.7698 15.927 26.5898 16.204 26.4236 16.4256C26.2851 16.6195 26.2435 16.7026 26.2989 16.6749C27.5178 15.927 28.612 15.5253 29.5815 15.4699C30.5788 15.3868 31.4098 15.553 32.0747 15.9686C32.7672 16.3564 33.2935 16.8966 33.6536 17.5891C34.0138 18.2816 34.1938 19.0296 34.1938 19.8329C34.1938 20.1653 34.083 20.6085 33.8614 21.1626C33.6398 21.7166 33.3905 22.2429 33.1135 22.7416C32.8364 23.2125 32.6148 23.531 32.4486 23.6973C32.3378 23.6973 32.227 23.7942 32.1162 23.9881C32.0054 24.1543 31.8946 24.3482 31.7838 24.5698C31.5622 24.8469 31.1882 25.1654 30.6619 25.5255C30.1633 25.858 29.6508 26.135 29.1245 26.3566C28.5981 26.5505 28.2242 26.6059 28.0025 26.5228C28.0025 26.5228 27.961 26.5505 27.8779 26.6059C27.8225 26.6613 27.7948 26.7583 27.7948 26.8968C27.7948 26.9522 27.6009 27.063 27.2131 27.2292C26.8252 27.3954 26.3682 27.5478 25.8418 27.6863C25.3155 27.8248 24.8307 27.894 24.3875 27.894C23.8058 27.894 23.3903 27.7832 23.1409 27.5616C23.0855 27.617 23.0163 27.7001 22.9332 27.8109C22.8778 27.9217 22.8501 28.0187 22.8501 28.1018C22.8501 28.268 22.7808 28.5312 22.6423 28.8913C22.5315 29.2514 22.393 29.57 22.2268 29.847C22.0606 30.1517 21.9082 30.304 21.7697 30.304C21.7697 30.304 21.742 30.3456 21.6866 30.4287C21.6312 30.5118 21.6589 30.6226 21.7697 30.7611C21.7697 30.7611 21.7559 30.9135 21.7282 31.2182C21.7282 31.5506 21.6589 31.8276 21.5204 32.0492C21.5204 32.2708 21.4789 32.6033 21.3958 33.0465C21.3127 33.4897 21.2157 33.8221 21.1049 34.0437C21.1049 34.3762 21.0495 34.6947 20.9387 34.9994C20.8556 35.3319 20.7586 35.4981 20.6478 35.4981C20.537 35.5258 20.4678 35.692 20.4401 35.9967C20.4124 36.3291 20.3985 36.5646 20.3985 36.7031C20.3708 37.3956 20.1492 37.9912 19.7337 38.4898C19.3181 39.0161 18.9442 39.2793 18.6118 39.2793ZM23.9304 24.7361C24.152 24.7361 24.5537 24.6391 25.1354 24.4452C25.7172 24.2513 26.3266 24.0158 26.9637 23.7388C27.6009 23.4341 28.0995 23.1294 28.4596 22.8247C29.1799 22.1875 29.7339 21.5642 30.1217 20.9548C30.5372 20.3454 30.5095 19.6667 30.0386 18.9188C29.817 18.5309 29.4569 18.3786 28.9582 18.4617C28.4873 18.5171 27.961 18.7387 27.3793 19.1265C26.7975 19.5143 26.202 19.9991 25.5925 20.5808C25.2601 20.941 24.9554 21.3565 24.6784 21.8274C24.4014 22.2983 24.1659 22.7554 23.972 23.1986C23.8058 23.6419 23.7088 24.0158 23.6811 24.3205C23.6534 24.5975 23.7365 24.7361 23.9304 24.7361ZM36.9333 28.7251C36.8225 28.5035 36.5732 28.2818 36.1854 28.0602C35.8253 27.8386 35.6452 27.6724 35.6452 27.5616C35.6452 27.4508 35.576 27.2846 35.4375 27.063C35.3266 26.8137 35.2158 26.6336 35.105 26.5228C34.9665 26.3566 35.0081 25.9549 35.2297 25.3178C35.4513 24.653 35.7837 23.8496 36.2269 22.9078C36.6702 21.9659 37.1549 21.0102 37.6813 20.0407C37.9029 19.8191 38.1245 19.5282 38.3461 19.1681C38.5677 18.808 38.7339 18.5725 38.8447 18.4617C38.8447 18.3509 38.8863 18.2539 38.9694 18.1708C39.0525 18.06 39.1494 18.0046 39.2602 18.0046L39.5927 17.3398C39.6481 17.229 39.8143 17.0074 40.0913 16.6749C40.396 16.3425 40.7561 15.9824 41.1716 15.5946C41.5872 15.1791 42.0027 14.7912 42.4182 14.4311C42.8614 14.071 43.2216 13.8078 43.4986 13.6416C44.0803 13.2538 44.6759 13.0738 45.2853 13.1015C45.9224 13.1292 46.4626 13.3231 46.9058 13.6832C46.9889 13.7663 47.169 13.9325 47.446 14.1818C47.7507 14.4311 48.0832 14.7081 48.4433 15.0129C48.8311 15.3176 49.1635 15.5946 49.4405 15.8439L50.978 17.2151L50.2716 19.2927C49.9114 20.4008 49.8145 21.3703 49.9807 22.2014C50.1469 23.0324 50.4101 23.7527 50.7702 24.3621C50.9087 24.6668 51.0888 24.9023 51.3104 25.0685C51.5597 25.2347 51.8782 25.3455 52.2661 25.4009C52.4877 25.4286 52.6954 25.5117 52.8893 25.6502C53.0833 25.7887 53.1802 26.0103 53.1802 26.315C53.1802 26.9799 53.0556 27.4646 52.8062 27.7694C52.5846 28.0464 52.3353 28.2126 52.0583 28.268C51.1442 28.3788 50.2716 28.2818 49.4405 27.9771C48.6095 27.6724 47.8615 26.8829 47.1967 25.6087C47.0859 25.4424 46.9335 25.1377 46.7396 24.6945C46.5734 24.2236 46.4765 23.9189 46.4488 23.7804C46.338 23.9189 46.1856 24.0989 45.9917 24.3205C45.8255 24.5144 45.6593 24.6945 45.4931 24.8607C43.5263 26.8552 41.8365 28.1572 40.4237 28.7666C39.0386 29.3483 37.8752 29.3345 36.9333 28.7251ZM39.2187 25.2762C39.4126 25.3039 39.7173 25.207 40.1328 24.9854C40.5484 24.7361 41.1024 24.3344 41.7949 23.7804C42.7368 22.977 43.5124 22.3122 44.1218 21.7859C44.7313 21.2595 45.3269 20.5808 45.9086 19.7498L46.8227 18.2539C46.5457 17.6168 46.2964 17.2013 46.0748 17.0074C45.8532 16.8135 45.6316 16.7165 45.41 16.7165C45.0498 16.7165 44.6205 16.952 44.1218 17.4229C43.6232 17.8661 43.0553 18.5309 42.4182 19.4174C41.8088 20.2761 41.1162 21.3565 40.3406 22.6584C39.9805 23.2679 39.7035 23.8635 39.5096 24.4452C39.3157 24.9992 39.2187 25.2762 39.2187 25.2762ZM57.8045 28.7251C57.7214 28.7528 57.5413 28.7389 57.2643 28.6835C57.015 28.6281 56.7519 28.5589 56.4748 28.4757C56.2255 28.3926 56.0732 28.3234 56.0178 28.268C55.907 28.1572 55.7546 27.9633 55.5607 27.6863C55.3668 27.3815 55.256 26.9799 55.2283 26.4812C55.2283 25.9826 55.4637 25.387 55.9347 24.6945C56.0732 24.4175 56.2394 24.002 56.4333 23.4479C56.6272 22.8939 56.8211 22.3122 57.015 21.7028C57.2366 21.0656 57.4305 20.4977 57.5968 19.9991C57.7907 19.5005 57.9292 19.1542 58.0123 18.9603C58.0677 18.4894 58.04 18.157 57.9292 17.9631C57.8461 17.7414 57.6106 17.6168 57.2228 17.5891C56.9458 17.5891 56.7242 17.4921 56.5579 17.2982C56.4194 17.1043 56.3502 16.758 56.3502 16.2594C56.4056 15.8716 56.5025 15.5392 56.6411 15.2622C56.8073 14.9575 57.0289 14.7081 57.3059 14.5142C57.5829 14.3757 57.9292 14.2788 58.3447 14.2234C58.7879 14.168 59.2173 14.1541 59.6328 14.1818C60.0483 14.2095 60.3392 14.3065 60.5054 14.4727C60.6993 14.5835 60.8517 14.8328 60.9625 15.2206C61.101 15.5807 61.2118 15.9547 61.2949 16.3425C61.378 16.7303 61.4334 17.0212 61.4611 17.2151C61.7381 16.9935 62.0428 16.6888 62.3752 16.301C62.7354 15.8855 63.0955 15.4976 63.4556 15.1375C63.8988 14.8328 64.4252 14.5281 65.0346 14.2234C65.644 13.8909 66.0872 13.7247 66.3642 13.7247C66.669 13.7247 67.0429 13.8771 67.4862 14.1818C67.9294 14.4588 68.2064 14.7081 68.3172 14.9298C68.5942 15.4007 68.7881 15.8993 68.8989 16.4256C69.0374 16.9243 68.9543 17.3675 68.6496 17.7553C68.3726 18.1154 67.9848 18.4755 67.4862 18.8357C66.9875 19.1681 66.3643 19.265 65.6163 19.1265C65.4501 19.0711 65.27 18.8634 65.0761 18.5032C64.9099 18.1431 64.813 17.88 64.7853 17.7137C64.7853 17.6306 64.6606 17.7137 64.4113 17.9631C64.1897 18.1847 63.9127 18.4617 63.5803 18.7941C63.2755 19.1265 62.9847 19.4312 62.7077 19.7082C62.2367 20.29 61.7381 21.0795 61.2118 22.0767C60.6855 23.074 60.0622 24.279 59.3419 25.6918C59.0095 26.3843 58.7325 27.0491 58.5109 27.6863C58.2893 28.2957 58.0538 28.642 57.8045 28.7251ZM77.9719 29.9301C77.8611 29.8193 77.6949 29.6808 77.4733 29.5146C77.2517 29.3206 77.0855 29.1267 76.9746 28.9328C76.9192 28.8497 76.7807 28.6974 76.5591 28.4757C76.3375 28.2264 76.1159 27.991 75.8943 27.7694C75.6727 27.52 75.5203 27.3677 75.4372 27.3123C75.3818 27.1738 75.2849 27.0214 75.1464 26.8552C75.0078 26.6613 74.8555 26.4674 74.6893 26.2735C74.5231 26.0519 74.3292 25.8441 74.1076 25.6502C73.8028 25.2347 73.5535 24.9161 73.3596 24.6945C73.1934 24.4729 73.0549 24.3621 72.9441 24.3621C72.9441 24.3621 72.861 24.6253 72.6948 25.1516C72.5286 25.6502 72.3485 26.2319 72.1546 26.8968C71.9607 27.5339 71.7945 28.0602 71.656 28.4757C71.5452 28.6697 71.4344 28.822 71.3236 28.9328C71.2128 29.0436 71.1019 29.1267 70.9911 29.1821C70.908 29.2375 70.8111 29.2791 70.7003 29.3068C70.5895 29.3068 70.4787 29.3068 70.3679 29.3068C70.0631 29.3068 69.6753 29.1683 69.2044 28.8913C68.7335 28.6143 68.498 28.2126 68.498 27.6863C68.3872 27.2984 68.5257 26.4535 68.9135 25.1516C69.3014 23.8496 69.8969 22.1875 70.7003 20.1653C70.8111 19.7498 70.9496 19.3204 71.1158 18.8772C71.282 18.4063 71.4205 18.0185 71.5313 17.7137C71.9468 16.3564 72.4039 15.1098 72.9025 13.9741C73.4012 12.8106 73.9552 11.5225 74.5646 10.1097C74.8139 9.61108 74.994 9.25096 75.1048 9.02935C75.2156 8.78004 75.3403 8.53073 75.4788 8.28141C75.6173 8.0044 75.825 7.60273 76.1021 7.0764C76.7115 5.94064 77.1963 5.0542 77.5564 4.41706C77.9165 3.77993 78.1935 3.30901 78.3874 3.00429C78.5813 2.69958 78.7475 2.47796 78.886 2.33946C79.0246 2.20095 79.2462 2.10399 79.5509 2.04859C79.8556 1.99319 80.1603 1.99319 80.465 2.04859C80.7974 2.07629 81.0329 2.17325 81.1714 2.33946C81.393 2.56107 81.5592 2.78268 81.67 3.00429C81.7808 3.1982 81.7808 3.47522 81.67 3.83533C81.5869 4.16775 81.3376 4.68023 80.9221 5.37276C80.7005 5.87139 80.5204 6.23151 80.3819 6.45312C80.2434 6.67473 80.1049 6.89634 79.9664 7.11795C79.8279 7.33956 79.6063 7.72738 79.3016 8.28141C79.2739 8.39222 79.2185 8.51687 79.1354 8.65538C79.08 8.76619 79.0107 8.87699 78.9276 8.9878C78.8445 9.0709 78.7614 9.11245 78.6783 9.11245C78.6783 9.19556 78.6367 9.36177 78.5536 9.61108C78.4705 9.86039 78.3736 10.0959 78.2628 10.3175C78.1797 10.6222 78.0412 10.9546 77.8472 11.3147C77.681 11.6471 77.5564 11.9241 77.4733 12.1458C77.2517 12.6721 76.9469 13.3092 76.5591 14.0572C76.199 14.7774 75.9774 15.3591 75.8943 15.8023C75.8943 15.8578 75.9358 15.8716 76.019 15.8439C76.1021 15.7885 76.199 15.7192 76.3098 15.6361C76.4483 15.5253 76.573 15.4422 76.6838 15.3868C77.3209 14.8882 77.9996 14.4173 78.7198 13.9741C79.4678 13.5308 80.0911 13.2677 80.5897 13.1846C80.8667 13.1015 81.116 13.0599 81.3376 13.0599C81.5592 13.0322 81.767 13.0322 81.9609 13.0599C82.1548 13.0876 82.3487 13.143 82.5426 13.2261C82.8474 13.42 83.1244 13.7801 83.3737 14.3065C83.623 14.8328 83.8031 15.3591 83.9139 15.8855C83.9139 16.1348 83.7892 16.5918 83.5399 17.2567C83.3183 17.8938 83.0413 18.5309 82.7088 19.1681C82.4041 19.7775 82.1133 20.193 81.8362 20.4146C81.6977 20.47 81.5731 20.5254 81.4623 20.5808C81.3792 20.6362 81.3099 20.6916 81.2545 20.7471C81.2268 20.7748 81.213 20.7886 81.213 20.7886C81.213 20.8994 81.1576 21.0379 81.0468 21.2041C80.9637 21.3703 80.8113 21.5088 80.5897 21.6196C80.4789 21.7305 80.3542 21.869 80.2157 22.0352C80.0772 22.2014 80.008 22.326 80.008 22.4091C80.008 22.4091 80.008 22.4507 80.008 22.5338C80.008 22.5892 80.008 22.6169 80.008 22.6169C79.8971 22.6169 79.8002 22.6307 79.7171 22.6584C79.6617 22.6584 79.4816 22.7693 79.1769 22.9909C78.8722 23.2956 78.6506 23.4618 78.5121 23.4895C78.4013 23.5172 78.2351 23.5726 78.0135 23.6557C77.9026 23.7665 77.7641 23.8358 77.5979 23.8635C77.4594 23.8912 77.3902 23.9604 77.3902 24.0712C77.3902 24.182 77.501 24.3898 77.7226 24.6945C77.9442 24.9992 78.2074 25.3316 78.5121 25.6918C78.8445 26.0519 79.1631 26.3843 79.4678 26.689C79.7725 26.9937 80.008 27.2015 80.1742 27.3123C80.3681 27.3954 80.5066 27.5478 80.5897 27.7694C80.6728 27.991 80.7143 28.2264 80.7143 28.4757C80.742 28.7251 80.7282 28.9605 80.6728 29.1821C80.6451 29.4037 80.6035 29.57 80.5481 29.6808C80.4927 29.7362 80.2988 29.8054 79.9664 29.8885C79.6617 29.9993 79.3154 30.0686 78.9276 30.0963C78.5675 30.124 78.2489 30.0686 77.9719 29.9301ZM75.5619 21.9936C75.7004 21.8828 75.9497 21.675 76.3098 21.3703C76.6976 21.0656 77.1132 20.7332 77.5564 20.3731C77.9996 19.9853 78.4013 19.6113 78.7614 19.2512C79.1492 18.8911 79.4262 18.614 79.5924 18.4201C79.7863 18.2262 79.9941 17.9077 80.2157 17.4644C80.4373 17.0212 80.4789 16.6611 80.3404 16.3841C80.3127 16.2733 80.1049 16.3425 79.7171 16.5918C79.3293 16.8412 78.8306 17.1182 78.2212 17.4229C77.7503 17.6999 77.224 18.0185 76.6422 18.3786C76.0882 18.711 75.5619 19.085 75.0633 19.5005C74.5646 19.8883 74.1768 20.3177 73.8998 20.7886C73.8444 20.9825 73.8998 21.2041 74.066 21.4534C74.2322 21.7028 74.4538 21.8967 74.7308 22.0352C75.0078 22.146 75.2849 22.1321 75.5619 21.9936ZM86.7404 30.0547C86.214 30.1932 85.7431 30.0409 85.3276 29.5977C84.9121 29.1821 84.6212 28.5589 84.455 27.7278C84.2888 26.8968 84.3165 25.9688 84.5381 24.9438C84.6766 24.6114 84.7874 24.2928 84.8705 23.9881C84.9536 23.6557 84.9952 23.3925 84.9952 23.1986C85.0506 22.9216 85.1614 22.5199 85.3276 21.9936C85.4938 21.4396 85.6739 20.8717 85.8678 20.29C86.0617 19.7082 86.2418 19.1958 86.408 18.7525C86.6019 18.2816 86.7265 17.9908 86.7819 17.88C86.8927 17.88 86.9897 17.783 87.0728 17.5891C87.1559 17.3952 87.1975 17.2013 87.1975 17.0074C87.1975 16.7857 87.239 16.5364 87.3221 16.2594C87.4329 15.9824 87.5437 15.7885 87.6545 15.6777C87.6545 15.5392 87.6822 15.3868 87.7376 15.2206C87.8207 15.0267 87.8623 14.8744 87.8623 14.7635C87.8623 14.6527 87.89 14.5419 87.9454 14.4311C88.0285 14.3203 88.07 14.2095 88.07 14.0987C88.264 13.7386 88.5133 13.1707 88.818 12.3951C89.1504 11.5917 89.4967 10.7053 89.8568 9.73574C90.2446 8.76619 90.6047 7.81049 90.9371 6.86864C91.2696 5.92679 91.5327 5.1373 91.7266 4.50017C91.9482 3.83533 92.059 3.43366 92.059 3.29516C92.059 3.07354 92.1422 2.86578 92.3084 2.67187C92.4746 2.47796 92.6685 2.38101 92.8901 2.38101C92.9732 2.2979 93.1671 2.2425 93.4718 2.2148C93.7765 2.1594 93.9843 2.1317 94.0951 2.1317C94.0951 2.1317 94.1505 2.1871 94.2613 2.29791C94.3721 2.40871 94.5383 2.57492 94.7599 2.79653C94.9815 2.99044 95.1893 3.21205 95.3832 3.46137C95.6048 3.71068 95.7156 4.00154 95.7156 4.33396C95.7156 4.69408 95.6602 5.04035 95.5494 5.37276C95.4663 5.70518 95.3001 6.16225 95.0508 6.74398C94.8015 7.29801 94.4137 8.12905 93.8873 9.23711C93.6657 9.79114 93.4303 10.3175 93.181 10.8161C92.9316 11.287 92.807 11.5779 92.807 11.6887C92.807 11.7995 92.7516 11.9657 92.6408 12.1873C92.5577 12.4089 92.4607 12.6859 92.3499 13.0184C92.2391 13.24 92.0868 13.5724 91.8928 14.0156C91.6989 14.4311 91.4912 14.8882 91.2696 15.3868C91.0756 15.8578 90.9094 16.2733 90.7709 16.6334C90.6324 16.9658 90.5632 17.1597 90.5632 17.2151C90.5632 17.3259 90.5493 17.4367 90.5216 17.5475C90.5216 17.6583 90.4662 17.7691 90.3554 17.88C90.2446 17.88 90.1754 17.9631 90.1477 18.1293C90.1477 18.2678 90.1477 18.337 90.1477 18.337C90.1477 18.614 89.926 19.3481 89.4828 20.5393C89.0396 22.0629 88.6241 23.4618 88.2363 24.7361C87.8761 26.0103 87.6961 27.0353 87.6961 27.8109C87.6961 28.4757 87.5853 28.9882 87.3637 29.3483C87.1697 29.7085 86.962 29.9439 86.7404 30.0547ZM96.5772 30.3456C95.0536 30.3456 93.8763 29.9024 93.0453 29.0159C92.2419 28.1295 91.8403 26.7721 91.8403 24.9438C91.8403 23.9466 92.0203 22.8524 92.3804 21.6612C92.7683 20.47 93.2669 19.3066 93.8763 18.1708C94.5134 17.0351 95.206 16.0517 95.9539 15.2206C96.7019 14.3619 97.4498 13.7663 98.1977 13.4339C98.4747 13.2954 98.7656 13.1984 99.0703 13.143C99.4027 13.0599 99.7213 13.0184 100.026 13.0184C100.358 13.0184 100.719 13.0461 101.106 13.1015C101.522 13.1292 101.91 13.2123 102.27 13.3508C102.907 13.5447 103.461 13.9187 103.932 14.4727C104.431 15.0267 104.68 15.83 104.68 16.8827C104.68 17.1597 104.652 17.4644 104.597 17.7969C104.541 18.1016 104.444 18.4063 104.306 18.711C103.946 19.6251 103.392 20.4977 102.644 21.3288C101.924 22.1598 101.162 22.7416 100.358 23.074C100.137 23.1848 99.9152 23.2679 99.6936 23.3233C99.4997 23.351 99.2919 23.3648 99.0703 23.3648C98.4886 23.3648 97.9623 23.2817 97.4913 23.1155C97.0481 22.9493 96.6326 22.7277 96.2448 22.4507L95.9124 22.1598L95.7046 22.5753C95.5107 23.1017 95.3722 23.5449 95.2891 23.905C95.2337 24.2651 95.206 24.5283 95.206 24.6945C95.206 25.0269 95.2198 25.3732 95.2475 25.7333C95.2752 26.0657 95.3583 26.3427 95.4968 26.5644C95.6076 26.7029 95.7462 26.8137 95.9124 26.8968C96.1063 26.9799 96.3417 27.0214 96.6188 27.0214C96.785 27.0214 96.9373 27.0214 97.0758 27.0214C97.242 26.9937 97.3805 26.966 97.4913 26.9383C97.99 26.8275 98.3916 26.6475 98.6964 26.3981C99.0288 26.1211 99.375 25.8857 99.7352 25.6918L99.9014 25.6087L99.8598 25.484C100.331 25.2347 100.649 25.0823 100.816 25.0269C100.982 24.9438 101.106 24.8746 101.189 24.8192C101.3 24.7084 101.425 24.653 101.563 24.653C101.951 24.5975 102.325 24.7084 102.685 24.9854C103.073 25.2347 103.267 25.5532 103.267 25.9411C103.267 26.1073 103.142 26.3704 102.893 26.7306C102.672 27.0907 102.381 27.4508 102.021 27.8109C101.688 28.1433 101.342 28.4065 100.982 28.6004C100.899 28.6281 100.816 28.6697 100.732 28.7251C100.649 28.7528 100.566 28.7943 100.483 28.8497H100.525C100.275 29.1821 100.026 29.3483 99.7767 29.3483H99.4443C99.3335 29.5423 98.9734 29.75 98.3639 29.9716C97.7545 30.2209 97.1589 30.3456 96.5772 30.3456ZM98.7379 20.3315C98.9872 20.3315 99.2088 20.29 99.4027 20.2069C99.6244 20.1238 99.8321 20.0268 100.026 19.916C100.691 19.4451 101.12 18.8357 101.314 18.0877C101.508 17.3398 101.439 16.7719 101.106 16.3841C101.051 16.301 100.982 16.2456 100.899 16.2179C100.816 16.1625 100.719 16.1348 100.608 16.1348C100.303 16.1348 99.9568 16.2317 99.569 16.4256C99.2088 16.6195 98.8487 16.8966 98.4886 17.2567C98.1285 17.6168 97.7961 18.0462 97.4913 18.5448L96.9512 19.4174C97.0066 19.3897 97.0481 19.3758 97.0758 19.3758C97.1312 19.3481 97.1728 19.3343 97.2005 19.3343C97.4498 19.3343 97.616 19.4174 97.6991 19.5836C97.7822 19.7498 97.8792 19.916 97.99 20.0822C98.1285 20.2484 98.3778 20.3315 98.7379 20.3315Z" fill="white"/>
</svg>
