<svg width="151" height="27" viewBox="0 0 151 27" fill="none" xmlns="http://www.w3.org/2000/svg">
<path d="M0.834447 13.1263V9.73563H4.12538V5.11503H8.11438V9.73563H12.5023V13.1263H8.11438V20.107C8.11438 20.9048 8.25843 21.5364 8.54652 22.0018C8.85678 22.4672 9.45513 22.6999 10.3416 22.6999C10.6962 22.6999 11.084 22.6667 11.505 22.6002C11.9261 22.5115 12.2585 22.3786 12.5023 22.2013V25.5587C12.0812 25.7581 11.5604 25.8911 10.9399 25.9576C10.3416 26.0462 9.80971 26.0906 9.34432 26.0906C8.28059 26.0906 7.40523 25.9687 6.71823 25.7249C6.0534 25.5033 5.52153 25.1598 5.12263 24.6944C4.74589 24.2069 4.47995 23.6085 4.32483 22.8993C4.19186 22.1902 4.12538 21.3702 4.12538 20.4395V13.1263H0.834447ZM19.6376 11.9628H19.7041C20.0143 11.298 20.5573 10.6996 21.3329 10.1678C22.1307 9.61374 23.1501 9.33673 24.3911 9.33673C25.4549 9.33673 26.3524 9.51402 27.0837 9.8686C27.8372 10.2232 28.4466 10.6886 28.912 11.2647C29.3774 11.8409 29.7098 12.5058 29.9093 13.2593C30.1087 14.0127 30.2084 14.7995 30.2084 15.6194V25.6917H26.2194V17.6139C26.2194 17.1707 26.1973 16.6831 26.1529 16.1513C26.1086 15.5973 25.9867 15.0875 25.7873 14.6222C25.61 14.1346 25.3219 13.7357 24.923 13.4255C24.5241 13.093 23.9812 12.9268 23.2942 12.9268C22.6293 12.9268 22.0642 13.0376 21.5988 13.2593C21.1556 13.4809 20.7789 13.78 20.4686 14.1568C20.1805 14.5335 19.97 14.9657 19.837 15.4532C19.7041 15.9407 19.6376 16.4505 19.6376 16.9823V25.6917H15.6486V0.560919H19.6376V11.9628ZM34.8031 9.73563H38.7921V25.6917H34.8031V9.73563ZM34.2379 4.31723C34.2379 3.67456 34.4706 3.12053 34.936 2.65515C35.4236 2.1676 36.033 1.92383 36.7643 1.92383C37.4956 1.92383 38.1051 2.15652 38.5926 2.62191C39.1023 3.06513 39.3572 3.63024 39.3572 4.31723C39.3572 5.00423 39.1023 5.58042 38.5926 6.0458C38.1051 6.48902 37.4956 6.71063 36.7643 6.71063C36.033 6.71063 35.4236 6.47794 34.936 6.01256C34.4706 5.52501 34.2379 4.95991 34.2379 4.31723ZM43.3716 9.73563H47.1612V12.2952H47.2277C47.6044 11.4974 48.1806 10.8104 48.9562 10.2343C49.7319 9.63591 50.7845 9.33673 52.1142 9.33673C53.1779 9.33673 54.0755 9.51402 54.8068 9.8686C55.5603 10.2232 56.1697 10.6886 56.6351 11.2647C57.1005 11.8409 57.4329 12.5058 57.6323 13.2593C57.8318 14.0127 57.9315 14.7995 57.9315 15.6194V25.6917H53.9425V17.6139C53.9425 17.1707 53.9203 16.6831 53.876 16.1513C53.8317 15.5973 53.7098 15.0875 53.5103 14.6222C53.3331 14.1346 53.045 13.7357 52.6461 13.4255C52.2472 13.093 51.7042 12.9268 51.0172 12.9268C50.3524 12.9268 49.7873 13.0376 49.3219 13.2593C48.8787 13.4809 48.5019 13.78 48.1917 14.1568C47.9036 14.5335 47.693 14.9657 47.5601 15.4532C47.4271 15.9407 47.3606 16.4505 47.3606 16.9823V25.6917H43.3716V9.73563ZM62.4596 0.560919H66.4486V16.3507L72.5984 9.73563H77.7176L70.8698 16.9823L78.1497 25.6917H72.8643L66.5151 17.5474H66.4486V25.6917H62.4596V0.560919ZM93.5775 23.4312C92.824 24.3398 91.9708 25.0157 91.0179 25.459C90.065 25.88 89.0345 26.0906 87.9264 26.0906C86.7519 26.0906 85.666 25.8911 84.6687 25.4922C83.6715 25.0933 82.8183 24.5393 82.1091 23.8301C81.4 23.0988 80.8459 22.2456 80.447 21.2705C80.0481 20.2733 79.8487 19.1874 79.8487 18.0128C79.8487 16.8383 80.0481 15.7635 80.447 14.7884C80.8459 13.7911 81.4 12.9379 82.1091 12.2288C82.8183 11.4974 83.6715 10.9323 84.6687 10.5334C85.666 10.1345 86.7519 9.93508 87.9264 9.93508C89.0566 9.93508 90.0982 10.1678 91.0511 10.6332C92.0262 11.0985 92.8905 11.7523 93.644 12.5944L92.0484 13.7911C91.4722 13.1484 90.8406 12.6498 90.1536 12.2952C89.4666 11.9185 88.7242 11.7301 87.9264 11.7301C86.9957 11.7301 86.1535 11.8963 85.4001 12.2288C84.6466 12.5612 84.0039 13.0155 83.472 13.5917C82.9402 14.1457 82.5302 14.8105 82.2421 15.5862C81.9762 16.3396 81.8432 17.1485 81.8432 18.0128C81.8432 18.8771 81.9762 19.6971 82.2421 20.4727C82.5302 21.2262 82.9402 21.891 83.472 22.4672C84.0039 23.0212 84.6466 23.4645 85.4001 23.7969C86.1535 24.1293 86.9957 24.2955 87.9264 24.2955C88.7685 24.2955 89.5331 24.1071 90.2201 23.7304C90.9293 23.3315 91.5387 22.8107 92.0484 22.168L93.5775 23.4312ZM95.8528 18.0128C95.8528 16.8383 96.0522 15.7635 96.4511 14.7884C96.85 13.7911 97.404 12.9379 98.1132 12.2288C98.8223 11.4974 99.6756 10.9323 100.673 10.5334C101.67 10.1345 102.756 9.93508 103.93 9.93508C105.105 9.93508 106.18 10.1345 107.155 10.5334C108.152 10.9323 109.005 11.4974 109.715 12.2288C110.446 12.9379 111.011 13.7911 111.41 14.7884C111.809 15.7635 112.008 16.8383 112.008 18.0128C112.008 19.1874 111.809 20.2733 111.41 21.2705C111.011 22.2456 110.446 23.0988 109.715 23.8301C109.005 24.5393 108.152 25.0933 107.155 25.4922C106.18 25.8911 105.105 26.0906 103.93 26.0906C102.756 26.0906 101.67 25.8911 100.673 25.4922C99.6756 25.0933 98.8223 24.5393 98.1132 23.8301C97.404 23.0988 96.85 22.2456 96.4511 21.2705C96.0522 20.2733 95.8528 19.1874 95.8528 18.0128ZM97.8473 18.0128C97.8473 18.8771 97.9802 19.6971 98.2462 20.4727C98.5343 21.2262 98.9442 21.891 99.4761 22.4672C100.008 23.0212 100.651 23.4645 101.404 23.7969C102.158 24.1293 103 24.2955 103.93 24.2955C104.861 24.2955 105.703 24.1293 106.457 23.7969C107.21 23.4645 107.853 23.0212 108.385 22.4672C108.917 21.891 109.316 21.2262 109.582 20.4727C109.87 19.6971 110.014 18.8771 110.014 18.0128C110.014 17.1485 109.87 16.3396 109.582 15.5862C109.316 14.8105 108.917 14.1457 108.385 13.5917C107.853 13.0155 107.21 12.5612 106.457 12.2288C105.703 11.8963 104.861 11.7301 103.93 11.7301C103 11.7301 102.158 11.8963 101.404 12.2288C100.651 12.5612 100.008 13.0155 99.4761 13.5917C98.9442 14.1457 98.5343 14.8105 98.2462 15.5862C97.9802 16.3396 97.8473 17.1485 97.8473 18.0128ZM129.884 22.9991H129.817C129.507 23.5309 129.119 23.9963 128.654 24.3952C128.189 24.772 127.679 25.0933 127.125 25.3592C126.593 25.603 126.028 25.7803 125.43 25.8911C124.831 26.0241 124.244 26.0906 123.668 26.0906C122.493 26.0906 121.407 25.8911 120.41 25.4922C119.413 25.0933 118.56 24.5393 117.85 23.8301C117.141 23.0988 116.587 22.2456 116.188 21.2705C115.789 20.2733 115.59 19.1874 115.59 18.0128C115.59 16.8383 115.789 15.7635 116.188 14.7884C116.587 13.7911 117.141 12.9379 117.85 12.2288C118.56 11.4974 119.413 10.9323 120.41 10.5334C121.407 10.1345 122.493 9.93508 123.668 9.93508C124.244 9.93508 124.831 10.0016 125.43 10.1345C126.028 10.2453 126.593 10.4337 127.125 10.6996C127.679 10.9434 128.189 11.2647 128.654 11.6636C129.119 12.0404 129.507 12.4947 129.817 13.0266H129.884V0.560919H131.878V25.6917H129.884V22.9991ZM130.083 18.0128C130.083 17.1485 129.917 16.3396 129.585 15.5862C129.252 14.8105 128.798 14.1457 128.222 13.5917C127.646 13.0155 126.97 12.5612 126.194 12.2288C125.418 11.8963 124.576 11.7301 123.668 11.7301C122.737 11.7301 121.895 11.8963 121.141 12.2288C120.388 12.5612 119.745 13.0155 119.213 13.5917C118.681 14.1457 118.272 14.8105 117.983 15.5862C117.717 16.3396 117.585 17.1485 117.585 18.0128C117.585 18.8771 117.717 19.6971 117.983 20.4727C118.272 21.2262 118.681 21.891 119.213 22.4672C119.745 23.0212 120.388 23.4645 121.141 23.7969C121.895 24.1293 122.737 24.2955 123.668 24.2955C124.576 24.2955 125.418 24.1293 126.194 23.7969C126.97 23.4645 127.646 23.0212 128.222 22.4672C128.798 21.891 129.252 21.2262 129.585 20.4727C129.917 19.6971 130.083 18.8771 130.083 18.0128ZM150.339 22.7996C149.563 23.9742 148.599 24.8163 147.446 25.326C146.316 25.8357 145.064 26.0906 143.69 26.0906C142.516 26.0906 141.452 25.8911 140.499 25.4922C139.546 25.0933 138.726 24.5393 138.039 23.8301C137.352 23.0988 136.82 22.2456 136.443 21.2705C136.089 20.2733 135.912 19.1763 135.912 17.9796C135.912 16.8272 136.1 15.7635 136.477 14.7884C136.853 13.8133 137.385 12.9712 138.072 12.262C138.759 11.5307 139.568 10.9656 140.499 10.5667C141.43 10.1456 142.46 9.93508 143.59 9.93508C144.765 9.93508 145.795 10.1456 146.682 10.5667C147.591 10.9656 148.344 11.5085 148.942 12.1955C149.563 12.8604 150.028 13.6249 150.339 14.4892C150.649 15.3535 150.804 16.2288 150.804 17.1153V18.5114H137.906C137.906 18.9325 137.984 19.4755 138.139 20.1403C138.316 20.783 138.626 21.4146 139.07 22.0351C139.513 22.6556 140.1 23.1874 140.831 23.6307C141.585 24.0739 142.549 24.2955 143.723 24.2955C144.743 24.2955 145.729 24.0517 146.682 23.5642C147.635 23.0766 148.366 22.4118 148.876 21.5697L150.339 22.7996ZM148.809 16.7164C148.809 16.0294 148.665 15.3867 148.377 14.7884C148.111 14.19 147.735 13.6692 147.247 13.226C146.782 12.7606 146.217 12.395 145.552 12.129C144.909 11.8631 144.222 11.7301 143.491 11.7301C142.405 11.7301 141.496 11.9517 140.765 12.395C140.056 12.8382 139.491 13.3479 139.07 13.9241C138.648 14.5003 138.349 15.0654 138.172 15.6194C137.995 16.1513 137.906 16.5169 137.906 16.7164H148.809Z" fill="white"/>
</svg>
