<svg width="183" height="27" viewBox="0 0 183 27" fill="none" xmlns="http://www.w3.org/2000/svg">
<path d="M0.0864005 13.1263V9.73563H3.37733V5.11503H7.36633V9.73563H11.7542V13.1263H7.36633V20.107C7.36633 20.9048 7.51038 21.5364 7.79848 22.0018C8.10873 22.4672 8.70708 22.6999 9.59353 22.6999C9.94811 22.6999 10.3359 22.6667 10.757 22.6002C11.1781 22.5115 11.5105 22.3786 11.7542 22.2013V25.5587C11.3332 25.7581 10.8124 25.8911 10.1919 25.9576C9.59353 26.0462 9.06166 26.0906 8.59628 26.0906C7.53254 26.0906 6.65718 25.9687 5.97018 25.7249C5.30535 25.5033 4.77348 25.1598 4.37458 24.6944C3.99784 24.2069 3.73191 23.6085 3.57678 22.8993C3.44381 22.1902 3.37733 21.3702 3.37733 20.4395V13.1263H0.0864005ZM18.8895 11.9628H18.956C19.2663 11.298 19.8092 10.6996 20.5848 10.1678C21.3826 9.61374 22.4021 9.33673 23.6431 9.33673C24.7068 9.33673 25.6043 9.51402 26.3357 9.8686C27.0891 10.2232 27.6986 10.6886 28.164 11.2647C28.6293 11.8409 28.9618 12.5058 29.1612 13.2593C29.3607 14.0127 29.4604 14.7995 29.4604 15.6194V25.6917H25.4714V17.6139C25.4714 17.1707 25.4492 16.6831 25.4049 16.1513C25.3606 15.5973 25.2387 15.0875 25.0392 14.6222C24.8619 14.1346 24.5739 13.7357 24.175 13.4255C23.7761 13.093 23.2331 12.9268 22.5461 12.9268C21.8813 12.9268 21.3162 13.0376 20.8508 13.2593C20.4076 13.4809 20.0308 13.78 19.7206 14.1568C19.4325 14.5335 19.2219 14.9657 19.089 15.4532C18.956 15.9407 18.8895 16.4505 18.8895 16.9823V25.6917H14.9005V0.560919H18.8895V11.9628ZM34.055 9.73563H38.044V25.6917H34.055V9.73563ZM33.4899 4.31723C33.4899 3.67456 33.7226 3.12053 34.188 2.65515C34.6755 2.1676 35.285 1.92383 36.0163 1.92383C36.7476 1.92383 37.357 2.15652 37.8446 2.62191C38.3543 3.06513 38.6091 3.63024 38.6091 4.31723C38.6091 5.00423 38.3543 5.58042 37.8446 6.0458C37.357 6.48902 36.7476 6.71063 36.0163 6.71063C35.285 6.71063 34.6755 6.47794 34.188 6.01256C33.7226 5.52501 33.4899 4.95991 33.4899 4.31723ZM42.6236 9.73563H46.4131V12.2952H46.4796C46.8564 11.4974 47.4325 10.8104 48.2082 10.2343C48.9838 9.63591 50.0365 9.33673 51.3661 9.33673C52.4299 9.33673 53.3274 9.51402 54.0587 9.8686C54.8122 10.2232 55.4216 10.6886 55.887 11.2647C56.3524 11.8409 56.6848 12.5058 56.8843 13.2593C57.0837 14.0127 57.1834 14.7995 57.1834 15.6194V25.6917H53.1944V17.6139C53.1944 17.1707 53.1723 16.6831 53.128 16.1513C53.0836 15.5973 52.9618 15.0875 52.7623 14.6222C52.585 14.1346 52.2969 13.7357 51.898 13.4255C51.4991 13.093 50.9562 12.9268 50.2692 12.9268C49.6043 12.9268 49.0392 13.0376 48.5738 13.2593C48.1306 13.4809 47.7539 13.78 47.4436 14.1568C47.1555 14.5335 46.945 14.9657 46.812 15.4532C46.6791 15.9407 46.6126 16.4505 46.6126 16.9823V25.6917H42.6236V9.73563ZM61.7116 0.560919H65.7006V16.3507L71.8503 9.73563H76.9695L70.1217 16.9823L77.4017 25.6917H72.1162L65.7671 17.5474H65.7006V25.6917H61.7116V0.560919ZM91.8987 19.2428C91.8987 19.9962 91.8987 20.6722 91.8987 21.2705C91.9209 21.8689 91.943 22.4229 91.9652 22.9326C91.9873 23.4423 92.0095 23.9188 92.0317 24.362C92.076 24.8052 92.1314 25.2484 92.1979 25.6917H90.3363C90.2034 24.9382 90.1369 24.1071 90.1369 23.1985H90.0704C89.4942 24.1958 88.774 24.9271 87.9097 25.3925C87.0676 25.8579 85.9928 26.0906 84.6852 26.0906C84.0204 26.0906 83.3667 26.0019 82.724 25.8246C82.0813 25.6695 81.5051 25.4146 80.9954 25.0601C80.4857 24.6833 80.0646 24.2069 79.7322 23.6307C79.422 23.0545 79.2668 22.3564 79.2668 21.5364C79.2668 20.3619 79.566 19.4311 80.1644 18.7441C80.7627 18.0571 81.494 17.5474 82.3583 17.215C83.2448 16.8604 84.1755 16.6388 85.1506 16.5502C86.1479 16.4394 87.0232 16.384 87.7767 16.384H90.1036V15.4532C90.1036 14.1235 89.6937 13.1706 88.8737 12.5944C88.0537 12.0182 87.0232 11.7301 85.7822 11.7301C84.0093 11.7301 82.447 12.3063 81.0951 13.4587L79.9317 12.0958C80.663 11.3866 81.5716 10.8548 82.6575 10.5002C83.7434 10.1235 84.785 9.93508 85.7822 9.93508C87.6438 9.93508 89.1286 10.3783 90.2366 11.2647C91.3447 12.129 91.8987 13.5363 91.8987 15.4864V19.2428ZM87.9097 17.9796C87.0676 17.9796 86.2476 18.035 85.4498 18.1458C84.6742 18.2566 83.965 18.445 83.3223 18.7109C82.7018 18.9768 82.2032 19.3314 81.8265 19.7746C81.4497 20.2178 81.2614 20.7719 81.2614 21.4367C81.2614 21.9021 81.3611 22.3232 81.5605 22.6999C81.7821 23.0545 82.0592 23.3537 82.3916 23.5974C82.724 23.819 83.0896 23.9963 83.4885 24.1293C83.9096 24.2401 84.3307 24.2955 84.7517 24.2955C85.8155 24.2955 86.6908 24.1404 87.3778 23.8301C88.0648 23.5199 88.6078 23.121 89.0067 22.6334C89.4277 22.1237 89.7158 21.5586 89.871 20.9381C90.0261 20.2954 90.1036 19.6527 90.1036 19.0101V17.9796H87.9097ZM110.632 22.9991H110.566C110.255 23.5309 109.868 23.9963 109.402 24.3952C108.937 24.772 108.427 25.0933 107.873 25.3592C107.341 25.603 106.776 25.7803 106.178 25.8911C105.579 26.0241 104.992 26.0906 104.416 26.0906C103.241 26.0906 102.156 25.8911 101.158 25.4922C100.161 25.0933 99.3079 24.5393 98.5987 23.8301C97.8896 23.0988 97.3355 22.2456 96.9366 21.2705C96.5377 20.2733 96.3383 19.1874 96.3383 18.0128C96.3383 16.8383 96.5377 15.7635 96.9366 14.7884C97.3355 13.7911 97.8896 12.9379 98.5987 12.2288C99.3079 11.4974 100.161 10.9323 101.158 10.5334C102.156 10.1345 103.241 9.93508 104.416 9.93508C104.992 9.93508 105.579 10.0016 106.178 10.1345C106.776 10.2453 107.341 10.4337 107.873 10.6996C108.427 10.9434 108.937 11.2647 109.402 11.6636C109.868 12.0404 110.255 12.4947 110.566 13.0266H110.632V0.560919H112.627V25.6917H110.632V22.9991ZM110.832 18.0128C110.832 17.1485 110.665 16.3396 110.333 15.5862C110.001 14.8105 109.546 14.1457 108.97 13.5917C108.394 13.0155 107.718 12.5612 106.942 12.2288C106.167 11.8963 105.325 11.7301 104.416 11.7301C103.485 11.7301 102.643 11.8963 101.89 12.2288C101.136 12.5612 100.493 13.0155 99.9616 13.5917C99.4298 14.1457 99.0198 14.8105 98.7317 15.5862C98.4657 16.3396 98.3328 17.1485 98.3328 18.0128C98.3328 18.8771 98.4657 19.6971 98.7317 20.4727C99.0198 21.2262 99.4298 21.891 99.9616 22.4672C100.493 23.0212 101.136 23.4645 101.89 23.7969C102.643 24.1293 103.485 24.2955 104.416 24.2955C105.325 24.2955 106.167 24.1293 106.942 23.7969C107.718 23.4645 108.394 23.0212 108.97 22.4672C109.546 21.891 110.001 21.2262 110.333 20.4727C110.665 19.6971 110.832 18.8771 110.832 18.0128ZM115.363 10.334H117.624L122.743 23.5309L127.729 10.334H129.757L123.707 25.6917H121.646L115.363 10.334ZM133.244 10.334H135.238V25.6917H133.244V10.334ZM132.745 4.25075C132.745 3.82969 132.889 3.47511 133.177 3.18701C133.465 2.89892 133.82 2.75487 134.241 2.75487C134.662 2.75487 135.017 2.89892 135.305 3.18701C135.593 3.47511 135.737 3.82969 135.737 4.25075C135.737 4.67181 135.593 5.02639 135.305 5.31448C135.017 5.60258 134.662 5.74663 134.241 5.74663C133.82 5.74663 133.465 5.60258 133.177 5.31448C132.889 5.02639 132.745 4.67181 132.745 4.25075ZM140.93 21.7691C141.352 22.5891 141.972 23.2207 142.792 23.6639C143.612 24.085 144.476 24.2955 145.385 24.2955C145.806 24.2955 146.227 24.229 146.648 24.096C147.069 23.9631 147.446 23.7747 147.778 23.5309C148.111 23.2872 148.377 22.9991 148.576 22.6667C148.798 22.3121 148.908 21.9132 148.908 21.47C148.908 20.7608 148.676 20.2289 148.21 19.8744C147.767 19.5198 147.213 19.2428 146.548 19.0433C145.883 18.8439 145.152 18.6777 144.354 18.5447C143.557 18.3896 142.825 18.1679 142.16 17.8798C141.496 17.5696 140.93 17.1485 140.465 16.6167C140.022 16.0848 139.8 15.3313 139.8 14.3562C139.8 13.6027 139.955 12.949 140.266 12.395C140.576 11.8409 140.975 11.3866 141.462 11.0321C141.972 10.6553 142.537 10.3783 143.158 10.201C143.778 10.0237 144.41 9.93508 145.052 9.93508C146.316 9.93508 147.402 10.1678 148.31 10.6332C149.241 11.0985 149.961 11.8299 150.471 12.8271L148.676 13.8908C148.299 13.1817 147.823 12.6498 147.246 12.2952C146.692 11.9185 145.961 11.7301 145.052 11.7301C144.698 11.7301 144.321 11.7855 143.922 11.8963C143.545 12.0071 143.202 12.1623 142.892 12.3617C142.581 12.5612 142.316 12.816 142.094 13.1263C141.894 13.4365 141.795 13.7911 141.795 14.19C141.795 14.877 142.016 15.3867 142.46 15.7191C142.925 16.0516 143.49 16.3175 144.155 16.5169C144.82 16.6942 145.551 16.8494 146.349 16.9823C147.147 17.1153 147.878 17.3369 148.543 17.6472C149.208 17.9353 149.762 18.3674 150.205 18.9436C150.67 19.4976 150.903 20.2954 150.903 21.337C150.903 22.1348 150.748 22.8329 150.438 23.4312C150.15 24.0074 149.74 24.4949 149.208 24.8938C148.698 25.2927 148.111 25.5919 147.446 25.7914C146.781 25.9908 146.083 26.0906 145.352 26.0906C144.022 26.0906 142.803 25.8357 141.695 25.326C140.609 24.8163 139.767 24.0296 139.169 22.9658L140.93 21.7691ZM154.187 18.0128C154.187 16.8383 154.386 15.7635 154.785 14.7884C155.184 13.7911 155.738 12.9379 156.447 12.2288C157.156 11.4974 158.009 10.9323 159.007 10.5334C160.004 10.1345 161.09 9.93508 162.264 9.93508C163.439 9.93508 164.514 10.1345 165.489 10.5334C166.486 10.9323 167.339 11.4974 168.048 12.2288C168.78 12.9379 169.345 13.7911 169.744 14.7884C170.143 15.7635 170.342 16.8383 170.342 18.0128C170.342 19.1874 170.143 20.2733 169.744 21.2705C169.345 22.2456 168.78 23.0988 168.048 23.8301C167.339 24.5393 166.486 25.0933 165.489 25.4922C164.514 25.8911 163.439 26.0906 162.264 26.0906C161.09 26.0906 160.004 25.8911 159.007 25.4922C158.009 25.0933 157.156 24.5393 156.447 23.8301C155.738 23.0988 155.184 22.2456 154.785 21.2705C154.386 20.2733 154.187 19.1874 154.187 18.0128ZM156.181 18.0128C156.181 18.8771 156.314 19.6971 156.58 20.4727C156.868 21.2262 157.278 21.891 157.81 22.4672C158.342 23.0212 158.985 23.4645 159.738 23.7969C160.491 24.1293 161.334 24.2955 162.264 24.2955C163.195 24.2955 164.037 24.1293 164.791 23.7969C165.544 23.4645 166.187 23.0212 166.719 22.4672C167.251 21.891 167.65 21.2262 167.915 20.4727C168.204 19.6971 168.348 18.8771 168.348 18.0128C168.348 17.1485 168.204 16.3396 167.915 15.5862C167.65 14.8105 167.251 14.1457 166.719 13.5917C166.187 13.0155 165.544 12.5612 164.791 12.2288C164.037 11.8963 163.195 11.7301 162.264 11.7301C161.334 11.7301 160.491 11.8963 159.738 12.2288C158.985 12.5612 158.342 13.0155 157.81 13.5917C157.278 14.1457 156.868 14.8105 156.58 15.5862C156.314 16.3396 156.181 17.1485 156.181 18.0128ZM174.788 14.6554C174.788 14.3673 174.777 14.0238 174.755 13.6249C174.733 13.2038 174.711 12.7828 174.688 12.3617C174.688 11.9407 174.677 11.5528 174.655 11.1983C174.633 10.8215 174.622 10.5334 174.622 10.334H176.616C176.639 10.9102 176.65 11.4642 176.65 11.9961C176.672 12.5279 176.705 12.8714 176.749 13.0266C177.259 12.118 177.913 11.3756 178.711 10.7994C179.509 10.2232 180.484 9.93508 181.636 9.93508C181.835 9.93508 182.024 9.95724 182.201 10.0016C182.401 10.0237 182.6 10.057 182.799 10.1013L182.567 12.0625C182.301 11.9739 182.046 11.9296 181.802 11.9296C180.938 11.9296 180.184 12.0736 179.542 12.3617C178.921 12.6277 178.4 13.0044 177.979 13.4919C177.58 13.9795 177.281 14.5557 177.082 15.2205C176.882 15.8632 176.783 16.5613 176.783 17.3147V25.6917H174.788V14.6554Z" fill="white"/>
</svg>
