<svg width="234" height="42" viewBox="0 0 234 42" fill="none" xmlns="http://www.w3.org/2000/svg">
<g filter="url(#filter0_d_380_33523)">
<path d="M4.65476 13.1263V9.73563H7.94569V5.11503H11.9347V9.73563H16.3226V13.1263H11.9347V20.107C11.9347 20.9048 12.0787 21.5364 12.3668 22.0018C12.6771 22.4672 13.2754 22.6999 14.1619 22.6999C14.5165 22.6999 14.9043 22.6667 15.3253 22.6002C15.7464 22.5115 16.0788 22.3786 16.3226 22.2013V25.5587C15.9015 25.7581 15.3808 25.8911 14.7602 25.9576C14.1619 26.0462 13.63 26.0906 13.1646 26.0906C12.1009 26.0906 11.2255 25.9687 10.5385 25.7249C9.87371 25.5033 9.34184 25.1598 8.94294 24.6944C8.5662 24.2069 8.30027 23.6085 8.14514 22.8993C8.01217 22.1902 7.94569 21.3702 7.94569 20.4395V13.1263H4.65476ZM23.4579 11.9628H23.5244C23.8346 11.298 24.3776 10.6996 25.1532 10.1678C25.951 9.61374 26.9704 9.33673 28.2114 9.33673C29.2752 9.33673 30.1727 9.51402 30.904 9.8686C31.6575 10.2232 32.2669 10.6886 32.7323 11.2647C33.1977 11.8409 33.5301 12.5058 33.7296 13.2593C33.929 14.0127 34.0287 14.7995 34.0287 15.6194V25.6917H30.0397V17.6139C30.0397 17.1707 30.0176 16.6831 29.9733 16.1513C29.9289 15.5973 29.807 15.0875 29.6076 14.6222C29.4303 14.1346 29.1422 13.7357 28.7433 13.4255C28.3444 13.093 27.8015 12.9268 27.1145 12.9268C26.4496 12.9268 25.8845 13.0376 25.4191 13.2593C24.9759 13.4809 24.5992 13.78 24.2889 14.1568C24.0008 14.5335 23.7903 14.9657 23.6573 15.4532C23.5244 15.9407 23.4579 16.4505 23.4579 16.9823V25.6917H19.4689V0.560919H23.4579V11.9628ZM38.6234 9.73563H42.6124V25.6917H38.6234V9.73563ZM38.0583 4.31723C38.0583 3.67456 38.291 3.12053 38.7563 2.65515C39.2439 2.1676 39.8533 1.92383 40.5846 1.92383C41.3159 1.92383 41.9254 2.15652 42.4129 2.62191C42.9226 3.06513 43.1775 3.63024 43.1775 4.31723C43.1775 5.00423 42.9226 5.58042 42.4129 6.0458C41.9254 6.48902 41.3159 6.71063 40.5846 6.71063C39.8533 6.71063 39.2439 6.47794 38.7563 6.01256C38.291 5.52501 38.0583 4.95991 38.0583 4.31723ZM47.1919 9.73563H50.9815V12.2952H51.048C51.4247 11.4974 52.0009 10.8104 52.7765 10.2343C53.5522 9.63591 54.6048 9.33673 55.9345 9.33673C56.9982 9.33673 57.8958 9.51402 58.6271 9.8686C59.3806 10.2232 59.99 10.6886 60.4554 11.2647C60.9208 11.8409 61.2532 12.5058 61.4526 13.2593C61.6521 14.0127 61.7518 14.7995 61.7518 15.6194V25.6917H57.7628V17.6139C57.7628 17.1707 57.7406 16.6831 57.6963 16.1513C57.652 15.5973 57.5301 15.0875 57.3307 14.6222C57.1534 14.1346 56.8653 13.7357 56.4664 13.4255C56.0675 13.093 55.5245 12.9268 54.8375 12.9268C54.1727 12.9268 53.6076 13.0376 53.1422 13.2593C52.699 13.4809 52.3222 13.78 52.012 14.1568C51.7239 14.5335 51.5134 14.9657 51.3804 15.4532C51.2474 15.9407 51.1809 16.4505 51.1809 16.9823V25.6917H47.1919V9.73563ZM66.2799 0.560919H70.269V16.3507L76.4187 9.73563H81.5379L74.6901 16.9823L81.97 25.6917H76.6846L70.3354 17.5474H70.269V25.6917H66.2799V0.560919ZM98.0959 22.7996C97.3203 23.9742 96.3563 24.8163 95.2039 25.326C94.0737 25.8357 92.8215 26.0906 91.4476 26.0906C90.273 26.0906 89.2093 25.8911 88.2564 25.4922C87.3034 25.0933 86.4835 24.5393 85.7965 23.8301C85.1095 23.0988 84.5776 22.2456 84.2009 21.2705C83.8463 20.2733 83.669 19.1763 83.669 17.9796C83.669 16.8272 83.8574 15.7635 84.2341 14.7884C84.6108 13.8133 85.1427 12.9712 85.8297 12.262C86.5167 11.5307 87.3256 10.9656 88.2564 10.5667C89.1871 10.1456 90.2176 9.93508 91.3478 9.93508C92.5224 9.93508 93.5529 10.1456 94.4393 10.5667C95.3479 10.9656 96.1014 11.5085 96.6997 12.1955C97.3203 12.8604 97.7856 13.6249 98.0959 14.4892C98.4062 15.3535 98.5613 16.2288 98.5613 17.1153V18.5114H85.6635C85.6635 18.9325 85.7411 19.4755 85.8962 20.1403C86.0735 20.783 86.3837 21.4146 86.827 22.0351C87.2702 22.6556 87.8575 23.1874 88.5888 23.6307C89.3423 24.0739 90.3063 24.2955 91.4808 24.2955C92.5002 24.2955 93.4864 24.0517 94.4393 23.5642C95.3922 23.0766 96.1236 22.4118 96.6333 21.5697L98.0959 22.7996ZM96.5668 16.7164C96.5668 16.0294 96.4227 15.3867 96.1346 14.7884C95.8687 14.19 95.492 13.6692 95.0044 13.226C94.539 12.7606 93.9739 12.395 93.3091 12.129C92.6664 11.8631 91.9794 11.7301 91.2481 11.7301C90.1622 11.7301 89.2536 11.9517 88.5223 12.395C87.8131 12.8382 87.248 13.3479 86.827 13.9241C86.4059 14.5003 86.1067 15.0654 85.9294 15.6194C85.7521 16.1513 85.6635 16.5169 85.6635 16.7164H96.5668ZM103.005 14.6554C103.005 14.3673 102.993 14.0238 102.971 13.6249C102.949 13.2038 102.927 12.7828 102.905 12.3617C102.905 11.9407 102.894 11.5528 102.872 11.1983C102.849 10.8215 102.838 10.5334 102.838 10.334H104.833C104.855 10.9102 104.866 11.4642 104.866 11.9961C104.888 12.5279 104.921 12.8714 104.966 13.0266H105.065C105.464 12.1844 106.129 11.4642 107.06 10.8658C107.991 10.2453 109.077 9.93508 110.318 9.93508C111.514 9.93508 112.489 10.1235 113.243 10.5002C113.996 10.8769 114.584 11.3756 115.005 11.9961C115.448 12.5944 115.747 13.2925 115.902 14.0903C116.08 14.8881 116.168 15.7081 116.168 16.5502V25.6917H114.174V16.6499C114.174 16.0294 114.118 15.431 114.008 14.8549C113.897 14.2565 113.697 13.7246 113.409 13.2593C113.143 12.7939 112.755 12.4282 112.246 12.1623C111.758 11.8742 111.115 11.7301 110.318 11.7301C109.586 11.7301 108.888 11.8631 108.223 12.129C107.581 12.3728 107.016 12.7606 106.528 13.2925C106.063 13.8022 105.686 14.456 105.398 15.2538C105.132 16.0294 104.999 16.9491 104.999 18.0128V25.6917H103.005V14.6554ZM128.988 12.129H124.6V22.1348C124.6 22.8218 124.789 23.3537 125.166 23.7304C125.542 24.1071 126.063 24.2955 126.728 24.2955C127.105 24.2955 127.481 24.2512 127.858 24.1625C128.257 24.0517 128.634 23.9188 128.988 23.7636L129.155 25.5587C128.778 25.6917 128.346 25.8135 127.858 25.9243C127.371 26.0351 126.938 26.0906 126.562 26.0906C125.853 26.0906 125.243 25.9797 124.733 25.7581C124.224 25.5587 123.814 25.2817 123.503 24.9271C123.193 24.5725 122.961 24.1625 122.805 23.6971C122.672 23.2096 122.606 22.6888 122.606 22.1348V12.129H119.282V10.334H122.606V5.91283H124.6V10.334H128.988V12.129ZM146.108 22.7996C145.332 23.9742 144.368 24.8163 143.216 25.326C142.086 25.8357 140.834 26.0906 139.46 26.0906C138.285 26.0906 137.221 25.8911 136.269 25.4922C135.316 25.0933 134.496 24.5393 133.809 23.8301C133.122 23.0988 132.59 22.2456 132.213 21.2705C131.858 20.2733 131.681 19.1763 131.681 17.9796C131.681 16.8272 131.87 15.7635 132.246 14.7884C132.623 13.8133 133.155 12.9712 133.842 12.262C134.529 11.5307 135.338 10.9656 136.269 10.5667C137.199 10.1456 138.23 9.93508 139.36 9.93508C140.535 9.93508 141.565 10.1456 142.452 10.5667C143.36 10.9656 144.114 11.5085 144.712 12.1955C145.332 12.8604 145.798 13.6249 146.108 14.4892C146.418 15.3535 146.573 16.2288 146.573 17.1153V18.5114H133.676C133.676 18.9325 133.753 19.4755 133.908 20.1403C134.086 20.783 134.396 21.4146 134.839 22.0351C135.282 22.6556 135.87 23.1874 136.601 23.6307C137.354 24.0739 138.318 24.2955 139.493 24.2955C140.512 24.2955 141.499 24.0517 142.452 23.5642C143.404 23.0766 144.136 22.4118 144.645 21.5697L146.108 22.7996ZM144.579 16.7164C144.579 16.0294 144.435 15.3867 144.147 14.7884C143.881 14.19 143.504 13.6692 143.017 13.226C142.551 12.7606 141.986 12.395 141.321 12.129C140.679 11.8631 139.992 11.7301 139.26 11.7301C138.174 11.7301 137.266 11.9517 136.534 12.395C135.825 12.8382 135.26 13.3479 134.839 13.9241C134.418 14.5003 134.119 15.0654 133.942 15.6194C133.764 16.1513 133.676 16.5169 133.676 16.7164H144.579ZM151.017 14.6554C151.017 14.3673 151.006 14.0238 150.983 13.6249C150.961 13.2038 150.939 12.7828 150.917 12.3617C150.917 11.9407 150.906 11.5528 150.884 11.1983C150.862 10.8215 150.85 10.5334 150.85 10.334H152.845C152.867 10.9102 152.878 11.4642 152.878 11.9961C152.9 12.5279 152.934 12.8714 152.978 13.0266C153.488 12.118 154.141 11.3756 154.939 10.7994C155.737 10.2232 156.712 9.93508 157.864 9.93508C158.064 9.93508 158.252 9.95724 158.43 10.0016C158.629 10.0237 158.828 10.057 159.028 10.1013L158.795 12.0625C158.529 11.9739 158.274 11.9296 158.031 11.9296C157.166 11.9296 156.413 12.0736 155.77 12.3617C155.15 12.6277 154.629 13.0044 154.208 13.4919C153.809 13.9795 153.51 14.5557 153.31 15.2205C153.111 15.8632 153.011 16.5613 153.011 17.3147V25.6917H151.017V14.6554ZM161.654 10.334H163.649V13.0266H163.715C164.026 12.4947 164.413 12.0404 164.879 11.6636C165.344 11.2647 165.843 10.9434 166.375 10.6996C166.929 10.4337 167.505 10.2453 168.103 10.1345C168.702 10.0016 169.289 9.93508 169.865 9.93508C171.04 9.93508 172.114 10.1345 173.089 10.5334C174.087 10.9323 174.94 11.4974 175.649 12.2288C176.38 12.9379 176.945 13.7911 177.344 14.7884C177.743 15.7635 177.943 16.8383 177.943 18.0128C177.943 19.1874 177.743 20.2733 177.344 21.2705C176.945 22.2456 176.38 23.0988 175.649 23.8301C174.94 24.5393 174.087 25.0933 173.089 25.4922C172.114 25.8911 171.04 26.0906 169.865 26.0906C169.289 26.0906 168.702 26.0241 168.103 25.8911C167.505 25.7803 166.929 25.603 166.375 25.3592C165.843 25.0933 165.344 24.772 164.879 24.3952C164.413 23.9963 164.026 23.5309 163.715 22.9991H163.649V33.2708H161.654V10.334ZM163.449 18.0128C163.449 18.8771 163.616 19.6971 163.948 20.4727C164.28 21.2262 164.735 21.891 165.311 22.4672C165.887 23.0212 166.563 23.4645 167.339 23.7969C168.114 24.1293 168.956 24.2955 169.865 24.2955C170.796 24.2955 171.638 24.1293 172.391 23.7969C173.145 23.4645 173.788 23.0212 174.319 22.4672C174.851 21.891 175.25 21.2262 175.516 20.4727C175.804 19.6971 175.948 18.8771 175.948 18.0128C175.948 17.1485 175.804 16.3396 175.516 15.5862C175.25 14.8105 174.851 14.1457 174.319 13.5917C173.788 13.0155 173.145 12.5612 172.391 12.2288C171.638 11.8963 170.796 11.7301 169.865 11.7301C168.956 11.7301 168.114 11.8963 167.339 12.2288C166.563 12.5612 165.887 13.0155 165.311 13.5917C164.735 14.1457 164.28 14.8105 163.948 15.5862C163.616 16.3396 163.449 17.1485 163.449 18.0128ZM182.408 14.6554C182.408 14.3673 182.397 14.0238 182.375 13.6249C182.353 13.2038 182.33 12.7828 182.308 12.3617C182.308 11.9407 182.297 11.5528 182.275 11.1983C182.253 10.8215 182.242 10.5334 182.242 10.334H184.236C184.258 10.9102 184.27 11.4642 184.27 11.9961C184.292 12.5279 184.325 12.8714 184.369 13.0266C184.879 12.118 185.533 11.3756 186.331 10.7994C187.128 10.2232 188.103 9.93508 189.256 9.93508C189.455 9.93508 189.644 9.95724 189.821 10.0016C190.02 10.0237 190.22 10.057 190.419 10.1013L190.187 12.0625C189.921 11.9739 189.666 11.9296 189.422 11.9296C188.558 11.9296 187.804 12.0736 187.162 12.3617C186.541 12.6277 186.02 13.0044 185.599 13.4919C185.2 13.9795 184.901 14.5557 184.702 15.2205C184.502 15.8632 184.403 16.5613 184.403 17.3147V25.6917H182.408V14.6554ZM193.81 10.334H195.805V25.6917H193.81V10.334ZM193.312 4.25075C193.312 3.82969 193.456 3.47511 193.744 3.18701C194.032 2.89892 194.386 2.75487 194.807 2.75487C195.229 2.75487 195.583 2.89892 195.871 3.18701C196.159 3.47511 196.303 3.82969 196.303 4.25075C196.303 4.67181 196.159 5.02639 195.871 5.31448C195.583 5.60258 195.229 5.74663 194.807 5.74663C194.386 5.74663 194.032 5.60258 193.744 5.31448C193.456 5.02639 193.312 4.67181 193.312 4.25075ZM201.497 21.7691C201.918 22.5891 202.538 23.2207 203.358 23.6639C204.178 24.085 205.043 24.2955 205.951 24.2955C206.372 24.2955 206.793 24.229 207.214 24.096C207.635 23.9631 208.012 23.7747 208.345 23.5309C208.677 23.2872 208.943 22.9991 209.142 22.6667C209.364 22.3121 209.475 21.9132 209.475 21.47C209.475 20.7608 209.242 20.2289 208.777 19.8744C208.334 19.5198 207.78 19.2428 207.115 19.0433C206.45 18.8439 205.719 18.6777 204.921 18.5447C204.123 18.3896 203.392 18.1679 202.727 17.8798C202.062 17.5696 201.497 17.1485 201.031 16.6167C200.588 16.0848 200.367 15.3313 200.367 14.3562C200.367 13.6027 200.522 12.949 200.832 12.395C201.142 11.8409 201.541 11.3866 202.029 11.0321C202.538 10.6553 203.104 10.3783 203.724 10.201C204.345 10.0237 204.976 9.93508 205.619 9.93508C206.882 9.93508 207.968 10.1678 208.876 10.6332C209.807 11.0985 210.527 11.8299 211.037 12.8271L209.242 13.8908C208.865 13.1817 208.389 12.6498 207.813 12.2952C207.259 11.9185 206.527 11.7301 205.619 11.7301C205.264 11.7301 204.887 11.7855 204.489 11.8963C204.112 12.0071 203.768 12.1623 203.458 12.3617C203.148 12.5612 202.882 12.816 202.66 13.1263C202.461 13.4365 202.361 13.7911 202.361 14.19C202.361 14.877 202.583 15.3867 203.026 15.7191C203.491 16.0516 204.056 16.3175 204.721 16.5169C205.386 16.6942 206.117 16.8494 206.915 16.9823C207.713 17.1153 208.444 17.3369 209.109 17.6472C209.774 17.9353 210.328 18.3674 210.771 18.9436C211.237 19.4976 211.469 20.2954 211.469 21.337C211.469 22.1348 211.314 22.8329 211.004 23.4312C210.716 24.0074 210.306 24.4949 209.774 24.8938C209.264 25.2927 208.677 25.5919 208.012 25.7914C207.347 25.9908 206.649 26.0906 205.918 26.0906C204.588 26.0906 203.369 25.8357 202.261 25.326C201.175 24.8163 200.333 24.0296 199.735 22.9658L201.497 21.7691ZM229.18 22.7996C228.404 23.9742 227.44 24.8163 226.288 25.326C225.158 25.8357 223.906 26.0906 222.532 26.0906C221.357 26.0906 220.293 25.8911 219.34 25.4922C218.387 25.0933 217.567 24.5393 216.88 23.8301C216.193 23.0988 215.662 22.2456 215.285 21.2705C214.93 20.2733 214.753 19.1763 214.753 17.9796C214.753 16.8272 214.941 15.7635 215.318 14.7884C215.695 13.8133 216.227 12.9712 216.914 12.262C217.601 11.5307 218.41 10.9656 219.34 10.5667C220.271 10.1456 221.302 9.93508 222.432 9.93508C223.606 9.93508 224.637 10.1456 225.523 10.5667C226.432 10.9656 227.185 11.5085 227.784 12.1955C228.404 12.8604 228.87 13.6249 229.18 14.4892C229.49 15.3535 229.645 16.2288 229.645 17.1153V18.5114H216.748C216.748 18.9325 216.825 19.4755 216.98 20.1403C217.157 20.783 217.468 21.4146 217.911 22.0351C218.354 22.6556 218.941 23.1874 219.673 23.6307C220.426 24.0739 221.39 24.2955 222.565 24.2955C223.584 24.2955 224.57 24.0517 225.523 23.5642C226.476 23.0766 227.208 22.4118 227.717 21.5697L229.18 22.7996ZM227.651 16.7164C227.651 16.0294 227.507 15.3867 227.219 14.7884C226.953 14.19 226.576 13.6692 226.088 13.226C225.623 12.7606 225.058 12.395 224.393 12.129C223.75 11.8631 223.063 11.7301 222.332 11.7301C221.246 11.7301 220.338 11.9517 219.606 12.395C218.897 12.8382 218.332 13.3479 217.911 13.9241C217.49 14.5003 217.191 15.0654 217.013 15.6194C216.836 16.1513 216.748 16.5169 216.748 16.7164H227.651Z" fill="white"/>
</g>
<defs>
<filter id="filter0_d_380_33523" x="0.654297" y="0.560913" width="232.99" height="40.7098" filterUnits="userSpaceOnUse" color-interpolation-filters="sRGB">
<feFlood flood-opacity="0" result="BackgroundImageFix"/>
<feColorMatrix in="SourceAlpha" type="matrix" values="0 0 0 0 0 0 0 0 0 0 0 0 0 0 0 0 0 0 127 0" result="hardAlpha"/>
<feOffset dy="4"/>
<feGaussianBlur stdDeviation="2"/>
<feComposite in2="hardAlpha" operator="out"/>
<feColorMatrix type="matrix" values="0 0 0 0 0 0 0 0 0 0 0 0 0 0 0 0 0 0 0.25 0"/>
<feBlend mode="normal" in2="BackgroundImageFix" result="effect1_dropShadow_380_33523"/>
<feBlend mode="normal" in="SourceGraphic" in2="effect1_dropShadow_380_33523" result="shape"/>
</filter>
</defs>
</svg>
