<svg width="89" height="26" viewBox="0 0 89 26" fill="none" xmlns="http://www.w3.org/2000/svg">
<path d="M0.54972 19.2105L14.1456 5.74756H0.54972V0.861033L20.1291 0.894274C20.1291 0.916435 20.1402 0.949677 20.1623 0.994V6.67833L6.49999 20.1745V20.2077H20.1623V25.0942H0.54972V19.2105ZM35.7859 0.79455V5.68108H26.6445C26.3785 5.68108 26.2456 5.80297 26.2456 6.04674V10.5011H35.7859V15.4209H26.2456V19.8753C26.2456 20.1412 26.4118 20.2742 26.7442 20.2742H35.7859V25.1607H26.4783C26.1237 25.1607 25.7137 25.0942 25.2483 24.9613C24.1403 24.651 23.2095 24.0194 22.456 23.0665C21.7025 22.0914 21.3258 21.0277 21.3258 19.8753V6.04674C21.3258 4.96084 21.6582 3.95251 22.323 3.02174C23.01 2.09098 23.8632 1.4483 24.8826 1.09372C25.4588 0.894275 25.9131 0.79455 26.2456 0.79455H35.7859ZM54.226 9.27119C54.226 11.0219 53.7274 12.6175 52.7301 14.058C51.7329 15.4763 50.4143 16.4957 48.7743 17.1162C47.9101 17.4486 47.079 17.6149 46.2812 17.6149H41.8268V25.061H36.9403V7.70883C36.9403 7.50938 36.9735 7.22128 37.04 6.84454C37.2838 5.49271 37.86 4.30709 38.7686 3.28768C39.6772 2.2461 40.7853 1.53695 42.0928 1.16021C42.8906 0.938597 43.5222 0.827792 43.9875 0.827792H46.3809C47.0901 0.827792 47.8768 0.994 48.7411 1.32642C50.4032 1.96909 51.7329 3.01066 52.7301 4.45114C53.7274 5.86945 54.226 7.47613 54.226 9.27119ZM45.2175 5.74756C44.3532 5.74756 43.7438 5.79189 43.3892 5.88053C42.7687 6.05782 42.3365 6.43456 42.0928 7.01075C41.9155 7.40965 41.8268 7.73099 41.8268 7.97476V12.6618H46.4474C46.6469 12.6618 46.9461 12.5732 47.345 12.3959C48.6746 11.8197 49.3395 10.756 49.3395 9.2047C49.3395 8.29609 49.0292 7.52045 48.4087 6.87778C47.7882 6.21295 47.0236 5.83621 46.115 5.74756H45.2175ZM55.3791 0.79455H60.2988V17.914C60.321 18.1578 60.3542 18.3462 60.3986 18.4791C60.7088 19.565 61.5066 20.108 62.792 20.108H68.3433V24.9945H62.4595C61.7282 24.9945 60.9415 24.8505 60.0994 24.5624C58.6146 24.0527 57.44 23.1219 56.5758 21.7701C55.778 20.5069 55.3791 19.0664 55.3791 17.4486V0.79455ZM76.4146 17.083C75.5946 16.8392 74.8079 16.4846 74.0544 16.0193C72.6804 15.1993 71.5724 14.0469 70.7302 12.5621C69.9103 11.0552 69.5003 9.50388 69.5003 7.90828V0.79455H74.4201V8.24069C74.4644 8.55095 74.5087 8.8058 74.553 9.00525C74.7746 10.0025 75.2954 10.8446 76.1154 11.5316C76.9353 12.1965 77.855 12.5289 78.8744 12.5289C79.916 12.5289 80.8357 12.1632 81.6335 11.4319C82.4535 10.7006 82.9743 9.80305 83.1959 8.73932C83.2402 8.56203 83.2734 8.31826 83.2956 8.008V0.79455H88.1821V8.24069C88.1821 8.8612 88.0492 9.63684 87.7832 10.5676C87.34 12.1189 86.5311 13.4707 85.3566 14.6231C84.2042 15.7755 82.8524 16.5954 81.3011 17.083V25.1607H76.4146V17.083Z" fill="white"/>
</svg>
