<svg width="20" height="20" viewBox="0 0 20 20" fill="none" xmlns="http://www.w3.org/2000/svg">
<path d="M17.084 8.49199H14.6757C12.7007 8.49199 11.0923 6.88366 11.0923 4.90866V2.50033C11.0923 2.04199 10.7173 1.66699 10.259 1.66699H6.72565C4.15898 1.66699 2.08398 3.33366 2.08398 6.30866V13.692C2.08398 16.667 4.15898 18.3337 6.72565 18.3337H13.2757C15.8423 18.3337 17.9173 16.667 17.9173 13.692V9.32532C17.9173 8.86699 17.5423 8.49199 17.084 8.49199ZM10.234 13.1503L8.56732 14.817C8.50898 14.8753 8.43398 14.9253 8.35898 14.9503C8.28398 14.9837 8.20898 15.0003 8.12565 15.0003C8.04232 15.0003 7.96732 14.9837 7.89232 14.9503C7.82565 14.9253 7.75898 14.8753 7.70898 14.8253C7.70065 14.817 7.69232 14.817 7.69232 14.8087L6.02565 13.142C5.78398 12.9003 5.78398 12.5003 6.02565 12.2587C6.26732 12.017 6.66732 12.017 6.90898 12.2587L7.50065 12.867V9.37533C7.50065 9.03366 7.78398 8.75033 8.12565 8.75033C8.46732 8.75033 8.75065 9.03366 8.75065 9.37533V12.867L9.35065 12.267C9.59232 12.0253 9.99232 12.0253 10.234 12.267C10.4757 12.5087 10.4757 12.9087 10.234 13.1503Z" fill="white"/>
<path d="M14.5241 7.34207C15.3158 7.3504 16.4158 7.3504 17.3574 7.3504C17.8324 7.3504 18.0824 6.79207 17.7491 6.45873C16.5491 5.2504 14.3991 3.0754 13.1658 1.84207C12.8241 1.5004 12.2324 1.73373 12.2324 2.20873V5.11707C12.2324 6.33373 13.2658 7.34207 14.5241 7.34207Z" fill="white"/>
</svg>
