<svg width="40" height="40" viewBox="0 0 40 40" fill="none" xmlns="http://www.w3.org/2000/svg">
<g opacity="0.8">
<rect width="40" height="40" rx="4" fill="white" fill-opacity="0.1"/>
<path d="M30 20C30.0016 21.3172 29.7423 22.6216 29.2369 23.8379C28.7315 25.0542 27.9901 26.1584 27.0555 27.0865C26.1285 28.0118 25.0282 28.7453 23.8176 29.2452C22.607 29.7451 21.3098 30.0016 20 30C14.477 30 10 25.523 10 20C9.99641 17.4359 10.9814 14.969 12.75 13.1125C13.6831 12.1277 14.8074 11.3438 16.054 10.8086C17.3006 10.2734 18.6434 9.99825 20 10C21.3098 9.99839 22.607 10.2549 23.8176 10.7548C25.0282 11.2547 26.1285 11.9882 27.0555 12.9135C27.9901 13.8417 28.7315 14.9458 29.2369 16.1621C29.7423 17.3784 30.0016 18.6829 30 20Z" stroke="white" stroke-width="2" stroke-linecap="round" stroke-linejoin="round"/>
<path d="M30.0001 20C28.5411 20 24.5161 19.45 20.9136 21.0315C17.0001 22.75 14.1666 25.416 12.9316 27.0735" stroke="white" stroke-width="2" stroke-linecap="round" stroke-linejoin="round"/>
<path d="M16.25 10.727C17.815 12.1715 21.23 15.849 22.5 19.5C23.77 23.151 24.24 27.64 24.53 28.9175" stroke="white" stroke-width="2" stroke-linecap="round" stroke-linejoin="round"/>
<path d="M10.0762 18.75C11.9652 18.864 16.9657 18.9665 20.1657 17.6C23.3657 16.2335 26.1192 13.72 27.0637 12.9225M10.7492 23.8065C11.6305 25.9393 13.2196 27.7035 15.2492 28.802" stroke="white" stroke-width="2" stroke-linecap="round" stroke-linejoin="round"/>
<path d="M10 20C9.99641 17.4359 10.9814 14.969 12.75 13.1125C13.6831 12.1277 14.8074 11.3438 16.054 10.8086C17.3006 10.2734 18.6434 9.99825 20 10M24 10.832C25.139 11.3299 26.1752 12.0358 27.0555 12.9135C27.9901 13.8417 28.7315 14.9458 29.2369 16.1621C29.7423 17.3784 30.0016 18.6829 30 20C30 21.231 29.7775 22.4105 29.37 23.5M20 30C21.3098 30.0016 22.607 29.7451 23.8176 29.2452C25.0282 28.7453 26.1285 28.0118 27.0555 27.0865" stroke="white" stroke-width="2" stroke-linecap="round" stroke-linejoin="round"/>
</g>
</svg>
