<svg width="40" height="40" viewBox="0 0 40 40" fill="none" xmlns="http://www.w3.org/2000/svg">
<g opacity="0.8">
<rect width="40" height="40" rx="4" fill="white" fill-opacity="0.1"/>
<path d="M15.3688 13C16.0078 13 16.5988 13.05 17.1388 13.198C17.6798 13.297 18.1228 13.495 18.5158 13.742C18.9098 13.9893 19.2048 14.3357 19.4008 14.781C19.5978 15.226 19.6968 15.771 19.6968 16.364C19.6968 17.057 19.5488 17.65 19.2048 18.095C18.9098 18.541 18.4178 18.936 17.8278 19.233C18.6638 19.481 19.3028 19.926 19.6968 20.519C20.0908 21.112 20.3358 21.855 20.3358 22.696C20.3358 23.389 20.1878 23.982 19.9418 24.477C19.6968 24.972 19.3028 25.417 18.8598 25.714C18.3784 26.032 17.8465 26.266 17.2868 26.406C16.6968 26.555 16.1068 26.654 15.5168 26.654H8.92578V13H15.3688ZM14.9748 18.54C15.5158 18.54 15.9588 18.392 16.3028 18.145C16.6468 17.898 16.7948 17.452 16.7948 16.908C16.7948 16.611 16.7448 16.314 16.6468 16.117C16.5488 15.92 16.4008 15.77 16.2048 15.622C16.0044 15.5094 15.7888 15.4263 15.5648 15.375C15.3188 15.325 15.0738 15.325 14.7778 15.325H11.9258V18.541L14.9748 18.54ZM15.1228 24.378C15.4178 24.378 15.7128 24.328 15.9588 24.279C16.2048 24.229 16.4508 24.131 16.6468 23.982C16.8464 23.8364 17.0139 23.6512 17.1388 23.438C17.2368 23.191 17.3358 22.894 17.3358 22.548C17.3358 21.855 17.1388 21.36 16.7458 21.014C16.3518 20.717 15.8108 20.569 15.1718 20.569H11.9258V24.379L15.1228 24.378ZM24.6148 24.328C25.0081 24.724 25.5981 24.922 26.3848 24.922C26.9258 24.922 27.4178 24.774 27.8108 24.527C28.2048 24.2297 28.4508 23.9327 28.5488 23.636H30.9588C30.5648 24.823 29.9748 25.664 29.1888 26.208C28.4008 26.703 27.4668 27 26.3358 27C25.6123 27.0011 24.8949 26.8668 24.2208 26.604C23.6139 26.3777 23.073 26.0037 22.6468 25.516C22.1891 25.0613 21.8513 24.5003 21.6638 23.883C21.4178 23.24 21.3188 22.548 21.3188 21.756C21.3188 21.014 21.4178 20.322 21.6638 19.678C21.8998 19.0576 22.2502 18.487 22.6968 17.996C23.1388 17.551 23.6798 17.156 24.2698 16.908C24.9266 16.6443 25.628 16.5098 26.3358 16.512C27.1718 16.512 27.9098 16.661 28.5488 17.007C29.1888 17.353 29.6798 17.749 30.0728 18.343C30.4668 18.887 30.7628 19.53 30.9588 20.223C31.0568 20.915 31.1058 21.608 31.0568 22.399H23.9258C23.9258 23.191 24.2208 23.933 24.6148 24.329M27.7128 19.135C27.3688 18.789 26.8278 18.591 26.1878 18.591C25.8125 18.5854 25.4414 18.6701 25.1058 18.838C24.8108 18.987 24.6148 19.185 24.4178 19.383C24.2356 19.5735 24.1157 19.8148 24.0738 20.075C24.0238 20.323 23.9748 20.52 23.9748 20.718H28.4008C28.3028 19.976 28.0568 19.482 27.7128 19.135ZM23.3848 13.94H28.8928V15.276H23.3858L23.3848 13.94Z" fill="white"/>
</g>
</svg>
