<svg width="40" height="40" viewBox="0 0 40 40" fill="none" xmlns="http://www.w3.org/2000/svg">
<g opacity="0.8">
<rect width="40" height="40" rx="4" fill="white" fill-opacity="0.1"/>
<path d="M14.4707 13.0005C14.4704 13.5309 14.2595 14.0395 13.8842 14.4144C13.5089 14.7893 13.0001 14.9998 12.4697 14.9995C11.9393 14.9992 11.4307 14.7883 11.0558 14.413C10.6809 14.0378 10.4704 13.5289 10.4707 12.9985C10.471 12.4681 10.6819 11.9595 11.0572 11.5846C11.4325 11.2097 11.9413 10.9992 12.4717 10.9995C13.0021 10.9998 13.5107 11.2107 13.8856 11.586C14.2605 11.9613 14.471 12.4701 14.4707 13.0005ZM14.5307 16.4805H10.5307V29.0005H14.5307V16.4805ZM20.8507 16.4805H16.8707V29.0005H20.8107V22.4305C20.8107 18.7705 25.5807 18.4305 25.5807 22.4305V29.0005H29.5307V21.0705C29.5307 14.9005 22.4707 15.1305 20.8107 18.1605L20.8507 16.4805Z" fill="white"/>
</g>
</svg>
