<svg width="125" height="27" viewBox="0 0 125 27" fill="none" xmlns="http://www.w3.org/2000/svg">
<path d="M18.0501 14.8979C18.0501 16.1809 17.8178 17.3754 17.3533 18.4814C16.8887 19.5653 16.2473 20.5165 15.4288 21.3349C14.6104 22.1312 13.6481 22.7616 12.5421 23.2262C11.4582 23.6907 10.2859 23.923 9.02502 23.923C7.76418 23.923 6.58075 23.6907 5.47474 23.2262C4.39085 22.7395 3.43968 22.098 2.62124 21.3017C1.82491 20.4833 1.18343 19.5321 0.696785 18.4482C0.232262 17.3422 0 16.1588 0 14.8979C0 13.6371 0.232262 12.4647 0.696785 11.3808C1.18343 10.2748 1.82491 9.32365 2.62124 8.52732C3.43968 7.70888 4.39085 7.06739 5.47474 6.60287C6.58075 6.11623 7.76418 5.8729 9.02502 5.8729C9.97619 5.8729 10.9274 6.07199 11.8785 6.47015C12.8518 6.84619 13.626 7.29965 14.2011 7.83054V0H18.0501V14.8979Z" fill="white"/>
<path d="M21.1913 14.8979C21.1913 13.6371 21.4235 12.4647 21.8881 11.3808C22.3747 10.2748 23.0273 9.32365 23.8457 8.52732C24.6641 7.70888 25.6153 7.06739 26.6992 6.60287C27.8052 6.11623 28.9886 5.8729 30.2495 5.8729C31.5103 5.8729 32.6827 6.11623 33.7666 6.60287C34.8726 7.06739 35.8238 7.70888 36.6201 8.52732C37.4385 9.32365 38.08 10.2748 38.5445 11.3808C39.0312 12.4647 39.2745 13.6371 39.2745 14.8979C39.2745 16.1588 39.0312 17.3422 38.5445 18.4482C38.08 19.5321 37.4385 20.4833 36.6201 21.3017C35.8238 22.098 34.8726 22.7395 33.7666 23.2262C32.6827 23.6907 31.5103 23.923 30.2495 23.923C28.9886 23.923 27.8052 23.6907 26.6992 23.2262C25.6153 22.7395 24.6641 22.098 23.8457 21.3017C23.0273 20.4833 22.3747 19.5321 21.8881 18.4482C21.4235 17.3422 21.1913 16.1588 21.1913 14.8979ZM25.0734 14.8979C25.0734 15.6058 25.2061 16.2804 25.4715 16.9219C25.7591 17.5413 26.1351 18.0832 26.5997 18.5478C27.0642 19.0123 27.6061 19.3883 28.2255 19.6759C28.867 19.9413 29.5416 20.074 30.2495 20.074C30.9573 20.074 31.6209 19.9413 32.2403 19.6759C32.8818 19.3883 33.4348 19.0123 33.8993 18.5478C34.3638 18.0832 34.7288 17.5413 34.9943 16.9219C35.2818 16.2804 35.4256 15.6058 35.4256 14.8979C35.4256 14.1901 35.2818 13.5265 34.9943 12.9071C34.7288 12.2656 34.3638 11.7126 33.8993 11.2481C33.4348 10.7836 32.8818 10.4186 32.2403 10.1532C31.6209 9.86559 30.9573 9.72181 30.2495 9.72181C29.5416 9.72181 28.867 9.86559 28.2255 10.1532C27.6061 10.4186 27.0642 10.7836 26.5997 11.2481C26.1351 11.7126 25.7591 12.2656 25.4715 12.9071C25.2061 13.5265 25.0734 14.1901 25.0734 14.8979Z" fill="white"/>
<path d="M42.7584 6.63605H46.6737V7.56509C47.1825 6.96785 47.7244 6.53651 48.2995 6.27107C48.8747 6.00562 49.5383 5.8729 50.2904 5.8729C51.4185 5.8729 52.436 6.10517 53.3429 6.56969C54.272 7.01209 55.0794 7.6204 55.7651 8.3946C56.4729 7.6204 57.3135 7.01209 58.2868 6.56969C59.2822 6.10517 60.344 5.8729 61.4721 5.8729C62.5117 5.8729 63.485 6.07199 64.392 6.47015C65.321 6.86831 66.1173 7.41025 66.7809 8.09598C67.4667 8.7817 68.0086 9.58909 68.4068 10.5181C68.8049 11.4251 69.004 12.3984 69.004 13.438V23.2262H65.0887V13.438C65.0887 12.9514 64.9892 12.4868 64.7901 12.0444C64.6132 11.602 64.3588 11.2149 64.027 10.8831C63.6952 10.5513 63.3081 10.2859 62.8657 10.0868C62.4233 9.88771 61.9587 9.78817 61.4721 9.78817C60.9633 9.78817 60.4877 9.88771 60.0453 10.0868C59.6251 10.2859 59.249 10.5513 58.9172 10.8831C58.5854 11.2149 58.32 11.602 58.1209 12.0444C57.9439 12.4868 57.8554 12.9514 57.8554 13.438V23.2262H53.9402V13.438C53.9402 12.9292 53.8406 12.4537 53.6416 12.0112C53.4646 11.5688 53.2102 11.1817 52.8784 10.8499C52.5466 10.5181 52.1595 10.2638 51.7171 10.0868C51.2747 9.88771 50.7991 9.78817 50.2904 9.78817C49.7816 9.78817 49.306 9.88771 48.8636 10.0868C48.4433 10.2859 48.0673 10.5624 47.7355 10.9163C47.4037 11.2481 47.1382 11.6352 46.9391 12.0776C46.7622 12.52 46.6737 12.9735 46.6737 13.438V23.2262H42.7584V6.63605Z" fill="white"/>
<path d="M84.2343 6.63605H88.0832V16.3579C88.0832 17.3975 87.8841 18.3708 87.4859 19.2777C87.0878 20.1846 86.5458 20.992 85.8601 21.6999C85.1965 22.3856 84.4002 22.9275 83.4711 23.3257C82.5642 23.7239 81.5909 23.923 80.5512 23.923C79.5116 23.923 78.5383 23.7239 77.6314 23.3257C76.7245 22.9275 75.9171 22.3856 75.2092 21.6999C74.5235 20.992 73.9816 20.1846 73.5834 19.2777C73.1852 18.3487 72.9862 17.3643 72.9862 16.3247V6.63605H76.8351V16.3579C76.8351 16.8666 76.9346 17.3422 77.1337 17.7846C77.3328 18.227 77.5982 18.6141 77.93 18.9459C78.2618 19.2777 78.6489 19.5432 79.0913 19.7422C79.5558 19.9192 80.0425 20.0077 80.5512 20.0077C81.0379 20.0077 81.5024 19.9192 81.9448 19.7422C82.4093 19.5432 82.8075 19.2777 83.1393 18.9459C83.4711 18.6141 83.7365 18.227 83.9356 17.7846C84.1347 17.3422 84.2343 16.8666 84.2343 16.3579V6.63605Z" fill="white"/>
<path d="M99.7281 18.5809C99.7281 18.3819 99.706 18.1938 99.6618 18.0169C99.6175 17.8178 99.5069 17.6408 99.33 17.486C99.1751 17.309 98.9429 17.1431 98.6332 16.9883C98.3235 16.8113 97.8922 16.6344 97.3391 16.4574L95.4811 15.8933C94.4193 15.5837 93.5013 15.0306 92.7271 14.2343C91.9529 13.4159 91.5658 12.3873 91.5658 11.1486C91.5658 10.4186 91.7206 9.73287 92.0303 9.09139C92.3621 8.4499 92.7934 7.8969 93.3243 7.43237C93.8773 6.94573 94.5078 6.56969 95.2156 6.30425C95.9456 6.01668 96.7087 5.8729 97.5051 5.8729C98.4341 5.8729 99.2304 6.04987 99.894 6.40379C100.558 6.73559 101.111 7.15587 101.553 7.66464C101.995 8.15128 102.327 8.68216 102.548 9.25729C102.792 9.83241 102.936 10.3522 102.98 10.8168H99.0977C99.0756 10.7062 99.0313 10.5624 98.965 10.3854C98.8986 10.2085 98.7991 10.0426 98.6664 9.88771C98.5336 9.71075 98.3567 9.56697 98.1355 9.45637C97.9143 9.32365 97.6378 9.25729 97.306 9.25729C96.7972 9.25729 96.3437 9.39001 95.9456 9.65545C95.5474 9.92089 95.3483 10.308 95.3483 10.8168C95.3483 11.0822 95.4258 11.3145 95.5806 11.5135C95.7576 11.7126 95.9677 11.8785 96.211 12.0112C96.4765 12.144 96.753 12.2546 97.0405 12.3431C97.3281 12.4315 97.5935 12.52 97.8369 12.6085L99.6618 13.2389C100.856 13.6592 101.818 14.3007 102.548 15.1634C103.301 16.0261 103.677 17.1874 103.677 18.6473C103.677 19.4879 103.5 20.2399 103.146 20.9036C102.814 21.545 102.36 22.098 101.785 22.5626C101.21 23.005 100.547 23.3478 99.7945 23.5912C99.0424 23.8345 98.2571 23.9561 97.4387 23.9561C96.5981 23.9561 95.8018 23.8013 95.0497 23.4916C94.2976 23.1819 93.634 22.7616 93.0589 22.2308C92.5059 21.6778 92.0635 21.0252 91.7317 20.2731C91.3999 19.521 91.234 18.7026 91.234 17.8178H95.1161C95.1161 18.1275 95.1603 18.4372 95.2488 18.7468C95.3373 19.0565 95.47 19.333 95.6469 19.5763C95.846 19.8197 96.0894 20.0298 96.3769 20.2068C96.6866 20.3616 97.0626 20.439 97.5051 20.439C98.1687 20.439 98.6995 20.2399 99.0977 19.8418C99.518 19.4436 99.7281 19.0233 99.7281 18.5809Z" fill="white"/>
<path d="M106.151 14.8979C106.151 13.6371 106.383 12.4647 106.848 11.3808C107.334 10.2748 107.987 9.32365 108.805 8.52732C109.624 7.70888 110.575 7.06739 111.659 6.60287C112.765 6.11623 113.948 5.8729 115.209 5.8729C116.47 5.8729 117.642 6.11623 118.726 6.60287C119.832 7.06739 120.783 7.70888 121.58 8.52732C122.398 9.32365 123.04 10.2748 123.504 11.3808C123.991 12.4647 124.234 13.6371 124.234 14.8979C124.234 16.1588 123.991 17.3422 123.504 18.4482C123.04 19.5321 122.398 20.4833 121.58 21.3017C120.783 22.098 119.832 22.7395 118.726 23.2262C117.642 23.6907 116.47 23.923 115.209 23.923C113.948 23.923 112.765 23.6907 111.659 23.2262C110.575 22.7395 109.624 22.098 108.805 21.3017C107.987 20.4833 107.334 19.5321 106.848 18.4482C106.383 17.3422 106.151 16.1588 106.151 14.8979ZM110.033 14.8979C110.033 15.6058 110.166 16.2804 110.431 16.9219C110.719 17.5413 111.095 18.0832 111.559 18.5478C112.024 19.0123 112.566 19.3883 113.185 19.6759C113.827 19.9413 114.501 20.074 115.209 20.074C115.917 20.074 116.58 19.9413 117.2 19.6759C117.841 19.3883 118.394 19.0123 118.859 18.5478C119.323 18.0832 119.688 17.5413 119.954 16.9219C120.241 16.2804 120.385 15.6058 120.385 14.8979C120.385 14.1901 120.241 13.5265 119.954 12.9071C119.688 12.2656 119.323 11.7126 118.859 11.2481C118.394 10.7836 117.841 10.4186 117.2 10.1532C116.58 9.86559 115.917 9.72181 115.209 9.72181C114.501 9.72181 113.827 9.86559 113.185 10.1532C112.566 10.4186 112.024 10.7836 111.559 11.2481C111.095 11.7126 110.719 12.2656 110.431 12.9071C110.166 13.5265 110.033 14.1901 110.033 14.8979Z" fill="white"/>
<path d="M11.7887 17.9417C12.1436 18.3632 12.7846 18.4274 13.1274 17.9987C13.5203 17.5076 13.8115 16.942 13.98 16.3342C14.2366 15.4086 14.1957 14.4309 13.8629 13.5363C13.5302 12.6418 12.922 11.8745 12.1225 11.3406C11.3229 10.8067 10.3715 10.5325 9.39962 10.5559C8.42778 10.5793 7.48354 10.8991 6.69738 11.4712C5.91122 12.0433 5.32198 12.8394 5.01108 13.7494C4.70018 14.6595 4.68298 15.6386 4.96185 16.5514C5.14408 17.1478 5.44684 17.6967 5.84849 18.1672C6.20453 18.5842 6.8393 18.4996 7.17678 18.0702L8.69228 16.1422C9.08491 15.6427 9.84339 15.6318 10.2543 16.1198L11.7887 17.9417Z" fill="#121724"/>
</svg>
