<svg width="186" height="40" viewBox="0 0 186 40" fill="none" xmlns="http://www.w3.org/2000/svg">
<path d="M26.9295 22.2267C26.9295 24.1409 26.583 25.923 25.8899 27.573C25.1969 29.1901 24.2399 30.6092 23.0188 31.8303C21.7977 33.0184 20.3621 33.9589 18.712 34.6519C17.095 35.345 15.3459 35.6915 13.4648 35.6915C11.5836 35.6915 9.81805 35.345 8.16796 34.6519C6.55087 33.9259 5.13179 32.9688 3.91072 31.7808C2.72265 30.5597 1.7656 29.1406 1.03956 27.5235C0.346519 25.8735 0 24.1079 0 22.2267C0 20.3456 0.346519 18.5965 1.03956 16.9795C1.7656 15.3294 2.72265 13.9103 3.91072 12.7222C5.13179 11.5011 6.55087 10.5441 8.16796 9.85105C9.81805 9.12501 11.5836 8.76199 13.4648 8.76199C14.8838 8.76199 16.3029 9.05901 17.722 9.65304C19.1741 10.2141 20.3291 10.8906 21.1872 11.6827V0H26.9295V22.2267Z" fill="#F26924"/>
<path d="M31.616 22.2267C31.616 20.3456 31.9625 18.5965 32.6556 16.9795C33.3816 15.3294 34.3552 13.9103 35.5762 12.7222C36.7973 11.5011 38.2164 10.5441 39.8335 9.85105C41.4836 9.12501 43.2492 8.76199 45.1303 8.76199C47.0114 8.76199 48.7605 9.12501 50.3776 9.85105C52.0277 10.5441 53.4468 11.5011 54.6348 12.7222C55.8559 13.9103 56.8129 15.3294 57.506 16.9795C58.232 18.5965 58.595 20.3456 58.595 22.2267C58.595 24.1079 58.232 25.8735 57.506 27.5235C56.8129 29.1406 55.8559 30.5597 54.6348 31.7808C53.4468 32.9688 52.0277 33.9259 50.3776 34.6519C48.7605 35.345 47.0114 35.6915 45.1303 35.6915C43.2492 35.6915 41.4836 35.345 39.8335 34.6519C38.2164 33.9259 36.7973 32.9688 35.5762 31.7808C34.3552 30.5597 33.3816 29.1406 32.6556 27.5235C31.9625 25.8735 31.616 24.1079 31.616 22.2267ZM37.4079 22.2267C37.4079 23.2828 37.6059 24.2894 38.0019 25.2464C38.4309 26.1705 38.9919 26.979 39.685 27.6721C40.378 28.3651 41.1866 28.9261 42.1106 29.3551C43.0677 29.7512 44.0742 29.9492 45.1303 29.9492C46.1863 29.9492 47.1764 29.7512 48.1005 29.3551C49.0575 28.9261 49.8825 28.3651 50.5756 27.6721C51.2686 26.979 51.8132 26.1705 52.2092 25.2464C52.6382 24.2894 52.8527 23.2828 52.8527 22.2267C52.8527 21.1707 52.6382 20.1806 52.2092 19.2566C51.8132 18.2995 51.2686 17.4745 50.5756 16.7814C49.8825 16.0884 49.0575 15.5439 48.1005 15.1479C47.1764 14.7188 46.1863 14.5043 45.1303 14.5043C44.0742 14.5043 43.0677 14.7188 42.1106 15.1479C41.1866 15.5439 40.378 16.0884 39.685 16.7814C38.9919 17.4745 38.4309 18.2995 38.0019 19.2566C37.6059 20.1806 37.4079 21.1707 37.4079 22.2267Z" fill="#F26924"/>
<path d="M63.7928 9.90056H69.6342V11.2866C70.3932 10.3956 71.2017 9.75205 72.0598 9.35602C72.9178 8.96 73.9079 8.76199 75.03 8.76199C76.7131 8.76199 78.2311 9.10851 79.5842 9.80155C80.9703 10.4616 82.1749 11.3691 83.1979 12.5242C84.254 11.3691 85.508 10.4616 86.9601 9.80155C88.4452 9.10851 90.0293 8.76199 91.7124 8.76199C93.2635 8.76199 94.7156 9.05901 96.0686 9.65304C97.4547 10.2471 98.6428 11.0556 99.6328 12.0787C100.656 13.1017 101.464 14.3063 102.058 15.6924C102.653 17.0455 102.95 18.4975 102.95 20.0486V34.6519H97.1082V20.0486C97.1082 19.3226 96.9597 18.6295 96.6627 17.9695C96.3987 17.3095 96.0191 16.7319 95.5241 16.2369C95.0291 15.7419 94.4515 15.3459 93.7915 15.0488C93.1315 14.7518 92.4384 14.6033 91.7124 14.6033C90.9534 14.6033 90.2438 14.7518 89.5838 15.0488C88.9567 15.3459 88.3957 15.7419 87.9007 16.2369C87.4057 16.7319 87.0096 17.3095 86.7126 17.9695C86.4486 18.6295 86.3166 19.3226 86.3166 20.0486V34.6519H80.4753V20.0486C80.4753 19.2896 80.3268 18.58 80.0297 17.92C79.7657 17.26 79.3862 16.6824 78.8912 16.1874C78.3961 15.6924 77.8186 15.3129 77.1586 15.0488C76.4985 14.7518 75.789 14.6033 75.03 14.6033C74.2709 14.6033 73.5614 14.7518 72.9013 15.0488C72.2743 15.3459 71.7133 15.7584 71.2182 16.2864C70.7232 16.7814 70.3272 17.359 70.0302 18.019C69.7662 18.6791 69.6342 19.3556 69.6342 20.0486V34.6519H63.7928V9.90056Z" fill="#F26924"/>
<path d="M125.672 9.90056H131.414V24.4049C131.414 25.956 131.117 27.408 130.523 28.7611C129.929 30.1142 129.121 31.3188 128.098 32.3748C127.108 33.3979 125.92 34.2064 124.534 34.8005C123.18 35.3945 121.728 35.6915 120.177 35.6915C118.626 35.6915 117.174 35.3945 115.821 34.8005C114.468 34.2064 113.263 33.3979 112.207 32.3748C111.184 31.3188 110.376 30.1142 109.782 28.7611C109.188 27.375 108.891 25.9065 108.891 24.3554V9.90056H114.633V24.4049C114.633 25.1639 114.781 25.8735 115.078 26.5335C115.375 27.1935 115.772 27.7711 116.267 28.2661C116.762 28.7611 117.339 29.1571 117.999 29.4542C118.692 29.7182 119.418 29.8502 120.177 29.8502C120.903 29.8502 121.596 29.7182 122.256 29.4542C122.949 29.1571 123.543 28.7611 124.038 28.2661C124.534 27.7711 124.93 27.1935 125.227 26.5335C125.524 25.8735 125.672 25.1639 125.672 24.4049V9.90056Z" fill="#F26924"/>
<path d="M148.788 27.7216C148.788 27.4245 148.755 27.144 148.689 26.88C148.623 26.583 148.458 26.319 148.194 26.088C147.963 25.824 147.616 25.5764 147.154 25.3454C146.692 25.0814 146.049 24.8174 145.224 24.5534L142.452 23.7118C140.867 23.2498 139.498 22.4248 138.343 21.2367C137.188 20.0156 136.61 18.481 136.61 16.6329C136.61 15.5439 136.841 14.5208 137.303 13.5638C137.798 12.6067 138.442 11.7817 139.234 11.0886C140.059 10.3626 140.999 9.80155 142.056 9.40553C143.145 8.97651 144.283 8.76199 145.471 8.76199C146.857 8.76199 148.045 9.02601 149.035 9.55404C150.025 10.0491 150.851 10.6761 151.511 11.4351C152.171 12.1612 152.666 12.9532 152.996 13.8113C153.359 14.6693 153.573 15.4449 153.639 16.1379H147.847C147.814 15.9729 147.748 15.7584 147.649 15.4944C147.55 15.2304 147.402 14.9828 147.204 14.7518C147.006 14.4878 146.742 14.2733 146.412 14.1083C146.082 13.9103 145.669 13.8113 145.174 13.8113C144.415 13.8113 143.739 14.0093 143.145 14.4053C142.551 14.8013 142.254 15.3789 142.254 16.1379C142.254 16.5339 142.369 16.8804 142.6 17.1775C142.864 17.4745 143.178 17.722 143.541 17.92C143.937 18.118 144.349 18.283 144.778 18.415C145.207 18.547 145.603 18.6791 145.966 18.8111L148.689 19.7516C150.471 20.3786 151.907 21.3357 152.996 22.6228C154.118 23.9098 154.679 25.6424 154.679 27.8206C154.679 29.0746 154.415 30.1967 153.887 31.1868C153.392 32.1438 152.715 32.9689 151.857 33.6619C150.999 34.3219 150.009 34.8335 148.887 35.1965C147.765 35.5595 146.593 35.741 145.372 35.741C144.118 35.741 142.93 35.51 141.808 35.048C140.686 34.5859 139.696 33.9589 138.838 33.1669C138.013 32.3418 137.353 31.3683 136.858 30.2462C136.363 29.1241 136.115 27.9031 136.115 26.583H141.907C141.907 27.045 141.973 27.507 142.105 27.9691C142.237 28.4311 142.435 28.8436 142.699 29.2066C142.996 29.5697 143.359 29.8832 143.788 30.1472C144.25 30.3782 144.811 30.4937 145.471 30.4937C146.461 30.4937 147.253 30.1967 147.847 29.6027C148.474 29.0086 148.788 28.3816 148.788 27.7216Z" fill="#F26924"/>
<path d="M158.37 22.2267C158.37 20.3456 158.717 18.5965 159.41 16.9795C160.136 15.3294 161.109 13.9103 162.33 12.7222C163.551 11.5011 164.971 10.5441 166.588 9.85105C168.238 9.12501 170.003 8.76199 171.884 8.76199C173.766 8.76199 175.515 9.12501 177.132 9.85105C178.782 10.5441 180.201 11.5011 181.389 12.7222C182.61 13.9103 183.567 15.3294 184.26 16.9795C184.986 18.5965 185.349 20.3456 185.349 22.2267C185.349 24.1079 184.986 25.8735 184.26 27.5235C183.567 29.1406 182.61 30.5597 181.389 31.7808C180.201 32.9688 178.782 33.9259 177.132 34.6519C175.515 35.345 173.766 35.6915 171.884 35.6915C170.003 35.6915 168.238 35.345 166.588 34.6519C164.971 33.9259 163.551 32.9688 162.33 31.7808C161.109 30.5597 160.136 29.1406 159.41 27.5235C158.717 25.8735 158.37 24.1079 158.37 22.2267ZM164.162 22.2267C164.162 23.2828 164.36 24.2894 164.756 25.2464C165.185 26.1705 165.746 26.979 166.439 27.6721C167.132 28.3651 167.941 28.9261 168.865 29.3551C169.822 29.7512 170.828 29.9492 171.884 29.9492C172.941 29.9492 173.931 29.7512 174.855 29.3551C175.812 28.9261 176.637 28.3651 177.33 27.6721C178.023 26.979 178.567 26.1705 178.963 25.2464C179.392 24.2894 179.607 23.2828 179.607 22.2267C179.607 21.1707 179.392 20.1806 178.963 19.2566C178.567 18.2995 178.023 17.4745 177.33 16.7814C176.637 16.0884 175.812 15.5439 174.855 15.1479C173.931 14.7188 172.941 14.5043 171.884 14.5043C170.828 14.5043 169.822 14.7188 168.865 15.1479C167.941 15.5439 167.132 16.0884 166.439 16.7814C165.746 17.4745 165.185 18.2995 164.756 19.2566C164.36 20.1806 164.162 21.1707 164.162 22.2267Z" fill="#F26924"/>
<path d="M17.5872 26.7681C18.1167 27.397 19.073 27.4927 19.5845 26.8533C20.1706 26.1205 20.6051 25.2766 20.8565 24.3699C21.2393 22.9889 21.1783 21.5302 20.6819 20.1956C20.1854 18.861 19.278 17.7163 18.0852 16.9198C16.8923 16.1232 15.4728 15.7141 14.0229 15.749C12.5729 15.7839 11.1642 16.2611 9.99129 17.1146C8.8184 17.9681 7.93928 19.1558 7.47544 20.5136C7.0116 21.8713 6.98593 23.332 7.402 24.6938C7.67387 25.5837 8.12557 26.4026 8.72481 27.1045C9.25599 27.7267 10.203 27.6005 10.7065 26.9599L12.9676 24.0835C13.5533 23.3383 14.6849 23.322 15.298 24.0499L17.5872 26.7681Z" fill="white"/>
</svg>
