<svg width="600" height="602" viewBox="0 0 600 602" fill="none" xmlns="http://www.w3.org/2000/svg">
<rect width="292" height="107.6" rx="10" fill="#F26924"/>
<path d="M113.855 60.7998V47.1998H118.635C119.408 47.1998 120.115 47.3731 120.755 47.7198C121.408 48.0665 121.928 48.5531 122.315 49.1798C122.715 49.8065 122.915 50.5398 122.915 51.3798C122.915 52.2198 122.722 52.9598 122.335 53.5998C121.948 54.2265 121.428 54.7198 120.775 55.0798C120.135 55.4265 119.422 55.5998 118.635 55.5998H115.795V60.7998H113.855ZM115.795 53.9198H118.555C119.008 53.9198 119.415 53.8131 119.775 53.5998C120.148 53.3731 120.442 53.0665 120.655 52.6798C120.868 52.2931 120.975 51.8531 120.975 51.3598C120.975 50.8531 120.868 50.4198 120.655 50.0598C120.455 49.6865 120.175 49.3931 119.815 49.1798C119.455 48.9665 119.035 48.8598 118.555 48.8598H115.795V53.9198ZM124.674 60.7998V51.9998H126.594V53.4998C126.767 53.0998 126.967 52.7798 127.194 52.5398C127.434 52.2865 127.701 52.0998 127.994 51.9798C128.287 51.8598 128.601 51.7998 128.934 51.7998C129.081 51.7998 129.234 51.8198 129.394 51.8598C129.554 51.8865 129.694 51.9331 129.814 51.9998V54.1198C129.667 53.9598 129.494 53.8465 129.294 53.7798C129.107 53.6998 128.914 53.6598 128.714 53.6598C128.301 53.6598 127.934 53.7998 127.614 54.0798C127.294 54.3465 127.041 54.6865 126.854 55.0998C126.681 55.5131 126.594 55.9465 126.594 56.3998V60.7998H124.674ZM131.945 60.7998V51.9998H133.865V60.7998H131.945ZM132.905 50.5598C132.571 50.5598 132.291 50.4465 132.065 50.2198C131.838 49.9798 131.725 49.6998 131.725 49.3798C131.725 49.0465 131.838 48.7665 132.065 48.5398C132.291 48.3131 132.571 48.1998 132.905 48.1998C133.225 48.1998 133.498 48.3131 133.725 48.5398C133.965 48.7665 134.085 49.0465 134.085 49.3798C134.085 49.6998 133.965 49.9798 133.725 50.2198C133.498 50.4465 133.225 50.5598 132.905 50.5598ZM136.744 60.7798V51.9598H138.664V53.2598C138.944 52.8331 139.298 52.4798 139.724 52.1998C140.151 51.9065 140.651 51.7598 141.224 51.7598C141.851 51.7598 142.398 51.8931 142.864 52.1598C143.344 52.4265 143.718 52.8331 143.984 53.3798C144.304 52.8865 144.698 52.4931 145.164 52.1998C145.631 51.9065 146.184 51.7598 146.824 51.7598C147.531 51.7598 148.124 51.9198 148.604 52.2398C149.084 52.5465 149.444 52.9798 149.684 53.5398C149.924 54.0865 150.044 54.7331 150.044 55.4798V60.7798H148.104V55.4798C148.104 55.1065 148.051 54.7731 147.944 54.4798C147.851 54.1865 147.684 53.9531 147.444 53.7798C147.204 53.5931 146.891 53.4998 146.504 53.4998C146.131 53.4998 145.791 53.5998 145.484 53.7998C145.178 53.9998 144.931 54.2598 144.744 54.5798C144.558 54.8998 144.464 55.2465 144.464 55.6198V60.7798H142.524V55.4798C142.524 55.1065 142.471 54.7731 142.364 54.4798C142.271 54.1865 142.104 53.9531 141.864 53.7798C141.624 53.5931 141.311 53.4998 140.924 53.4998C140.484 53.4998 140.098 53.6398 139.764 53.9198C139.444 54.1998 139.191 54.5531 139.004 54.9798C138.818 55.4065 138.704 55.8465 138.664 56.2998V60.7798H136.744ZM156.267 60.9998C155.44 60.9998 154.7 60.7865 154.047 60.3598C153.394 59.9198 152.88 59.3531 152.507 58.6598C152.147 57.9531 151.967 57.1998 151.967 56.3998C151.967 55.5865 152.147 54.8331 152.507 54.1398C152.88 53.4465 153.394 52.8865 154.047 52.4598C154.7 52.0198 155.44 51.7998 156.267 51.7998C156.934 51.7998 157.54 51.9331 158.087 52.1998C158.634 52.4665 159.1 52.8531 159.487 53.3598V51.9998H161.427V60.7998H159.487V59.4398C159.26 59.7598 158.98 60.0398 158.647 60.2798C158.314 60.5198 157.947 60.6998 157.547 60.8198C157.147 60.9398 156.72 60.9998 156.267 60.9998ZM156.727 59.2598C157.26 59.2598 157.734 59.1265 158.147 58.8598C158.56 58.5931 158.887 58.2465 159.127 57.8198C159.367 57.3798 159.487 56.9065 159.487 56.3998C159.487 55.8931 159.367 55.4265 159.127 54.9998C158.887 54.5598 158.56 54.2065 158.147 53.9398C157.734 53.6731 157.26 53.5398 156.727 53.5398C156.194 53.5398 155.72 53.6731 155.307 53.9398C154.894 54.2065 154.567 54.5598 154.327 54.9998C154.087 55.4265 153.967 55.8931 153.967 56.3998C153.967 56.9065 154.087 57.3798 154.327 57.8198C154.567 58.2465 154.894 58.5931 155.307 58.8598C155.72 59.1265 156.194 59.2598 156.727 59.2598ZM164.108 60.7998V51.9998H166.028V53.4998C166.201 53.0998 166.401 52.7798 166.628 52.5398C166.868 52.2865 167.134 52.0998 167.428 51.9798C167.721 51.8598 168.034 51.7998 168.368 51.7998C168.514 51.7998 168.668 51.8198 168.828 51.8598C168.988 51.8865 169.128 51.9331 169.248 51.9998V54.1198C169.101 53.9598 168.928 53.8465 168.728 53.7798C168.541 53.6998 168.348 53.6598 168.148 53.6598C167.734 53.6598 167.368 53.7998 167.048 54.0798C166.728 54.3465 166.474 54.6865 166.288 55.0998C166.114 55.5131 166.028 55.9465 166.028 56.3998V60.7998H164.108ZM171.316 65.7998L173.876 60.0598L170.156 51.9998H172.216L174.876 57.8998L177.256 51.9998H179.296L173.496 65.7998H171.316Z" fill="white"/>
<rect x="308" width="292" height="107.6" rx="10" fill="#0B1336"/>
<path d="M412.805 61.0798C412.058 61.0798 411.372 60.9998 410.745 60.8398C410.118 60.6931 409.572 60.4598 409.105 60.1398C408.638 59.8065 408.258 59.3998 407.965 58.9198C407.672 58.4265 407.485 57.8465 407.405 57.1798H409.525C409.592 57.6865 409.765 58.1065 410.045 58.4398C410.325 58.7598 410.698 59.0065 411.165 59.1798C411.645 59.3398 412.205 59.4198 412.845 59.4198C413.378 59.4198 413.885 59.3465 414.365 59.1998C414.845 59.0531 415.238 58.8131 415.545 58.4798C415.865 58.1465 416.025 57.6998 416.025 57.1398C416.025 56.7398 415.892 56.3998 415.625 56.1198C415.372 55.8398 415.038 55.6131 414.625 55.4398C414.225 55.2531 413.792 55.0998 413.325 54.9798C412.872 54.8465 412.432 54.7265 412.005 54.6198C411.378 54.4731 410.805 54.2931 410.285 54.0798C409.765 53.8665 409.318 53.6131 408.945 53.3198C408.585 53.0131 408.305 52.6665 408.105 52.2798C407.905 51.8931 407.805 51.4398 407.805 50.9198C407.805 50.2531 407.932 49.6798 408.185 49.1998C408.438 48.7065 408.778 48.2998 409.205 47.9798C409.645 47.6465 410.145 47.3998 410.705 47.2398C411.278 47.0798 411.872 46.9998 412.485 46.9998C413.165 46.9998 413.785 47.0665 414.345 47.1998C414.905 47.3331 415.398 47.5398 415.825 47.8198C416.265 48.0998 416.618 48.4598 416.885 48.8998C417.165 49.3265 417.345 49.8331 417.425 50.4198H415.445C415.338 49.7931 415.038 49.3398 414.545 49.0598C414.052 48.7665 413.372 48.6198 412.505 48.6198C412.038 48.6198 411.598 48.6931 411.185 48.8398C410.772 48.9731 410.432 49.1865 410.165 49.4798C409.912 49.7598 409.785 50.1331 409.785 50.5998C409.785 50.9998 409.898 51.3398 410.125 51.6198C410.365 51.8865 410.672 52.1065 411.045 52.2798C411.432 52.4531 411.845 52.5998 412.285 52.7198C412.725 52.8398 413.152 52.9465 413.565 53.0398C414.138 53.1865 414.692 53.3531 415.225 53.5398C415.758 53.7265 416.232 53.9665 416.645 54.2598C417.072 54.5398 417.405 54.8998 417.645 55.3398C417.885 55.7665 418.005 56.3065 418.005 56.9598C418.005 57.6931 417.858 58.3265 417.565 58.8598C417.285 59.3798 416.898 59.8065 416.405 60.1398C415.912 60.4598 415.352 60.6931 414.725 60.8398C414.112 60.9998 413.472 61.0798 412.805 61.0798ZM424.261 60.9598C423.327 60.9598 422.487 60.7731 421.741 60.3998C421.007 60.0131 420.421 59.4798 419.981 58.7998C419.541 58.1065 419.321 57.2998 419.321 56.3798C419.321 55.4998 419.534 54.7131 419.961 54.0198C420.387 53.3265 420.961 52.7798 421.681 52.3798C422.401 51.9665 423.207 51.7598 424.101 51.7598C424.954 51.7598 425.734 51.9665 426.441 52.3798C427.147 52.7798 427.714 53.3198 428.141 53.9998C428.581 54.6798 428.801 55.4531 428.801 56.3198V56.8798H420.781V55.4398H426.861C426.754 54.8531 426.447 54.3598 425.941 53.9598C425.434 53.5465 424.827 53.3398 424.121 53.3398C423.547 53.3398 423.047 53.4731 422.621 53.7398C422.207 53.9931 421.887 54.3465 421.661 54.7998C421.434 55.2398 421.321 55.7465 421.321 56.3198C421.321 56.9331 421.447 57.4665 421.701 57.9198C421.967 58.3731 422.307 58.7265 422.721 58.9798C423.147 59.2198 423.601 59.3398 424.081 59.3398C424.494 59.3398 424.874 59.2931 425.221 59.1998C425.581 59.0931 425.901 58.9531 426.181 58.7798C426.474 58.6065 426.721 58.3931 426.921 58.1398L428.201 59.2198C427.921 59.5665 427.567 59.8731 427.141 60.1398C426.714 60.3931 426.254 60.5931 425.761 60.7398C425.267 60.8865 424.767 60.9598 424.261 60.9598ZM434.701 60.9998C434.088 60.9998 433.508 60.8865 432.961 60.6598C432.414 60.4198 431.928 60.0998 431.501 59.6998C431.088 59.2865 430.754 58.7998 430.501 58.2398C430.261 57.6798 430.141 57.0665 430.141 56.3998C430.141 55.5598 430.341 54.7931 430.741 54.0998C431.154 53.4065 431.708 52.8531 432.401 52.4398C433.108 52.0131 433.901 51.7998 434.781 51.7998C435.541 51.7998 436.228 51.9465 436.841 52.2398C437.468 52.5331 437.994 52.9398 438.421 53.4598C438.848 53.9798 439.128 54.5865 439.261 55.2798H437.261C437.101 54.7598 436.794 54.3465 436.341 54.0398C435.901 53.7198 435.421 53.5598 434.901 53.5598C434.368 53.5598 433.894 53.6865 433.481 53.9398C433.081 54.1931 432.761 54.5398 432.521 54.9798C432.294 55.4065 432.181 55.8798 432.181 56.3998C432.181 56.8931 432.288 57.3598 432.501 57.7998C432.714 58.2398 433.014 58.5931 433.401 58.8598C433.801 59.1265 434.274 59.2598 434.821 59.2598C435.341 59.2598 435.814 59.1331 436.241 58.8798C436.668 58.6131 436.974 58.2465 437.161 57.7798H439.201C439.014 58.4331 438.701 59.0065 438.261 59.4998C437.834 59.9798 437.314 60.3531 436.701 60.6198C436.101 60.8731 435.434 60.9998 434.701 60.9998ZM445.332 60.9598C444.439 60.9598 443.625 60.7598 442.892 60.3598C442.159 59.9598 441.579 59.4198 441.152 58.7398C440.725 58.0465 440.512 57.2598 440.512 56.3798C440.512 55.4998 440.725 54.7131 441.152 54.0198C441.592 53.3265 442.172 52.7798 442.892 52.3798C443.625 51.9798 444.439 51.7798 445.332 51.7798C446.225 51.7798 447.032 51.9798 447.752 52.3798C448.485 52.7798 449.065 53.3265 449.492 54.0198C449.919 54.7131 450.132 55.4998 450.132 56.3798C450.132 57.2598 449.919 58.0465 449.492 58.7398C449.065 59.4198 448.485 59.9598 447.752 60.3598C447.032 60.7598 446.225 60.9598 445.332 60.9598ZM445.332 59.2598C445.905 59.2598 446.399 59.1265 446.812 58.8598C447.239 58.5931 447.565 58.2398 447.792 57.7998C448.032 57.3598 448.152 56.8798 448.152 56.3598C448.152 55.8398 448.032 55.3665 447.792 54.9398C447.565 54.4998 447.239 54.1465 446.812 53.8798C446.399 53.6131 445.905 53.4798 445.332 53.4798C444.772 53.4798 444.279 53.6131 443.852 53.8798C443.425 54.1465 443.092 54.4998 442.852 54.9398C442.625 55.3665 442.512 55.8398 442.512 56.3598C442.512 56.8798 442.625 57.3598 442.852 57.7998C443.092 58.2398 443.419 58.5931 443.832 58.8598C444.259 59.1265 444.759 59.2598 445.332 59.2598ZM452.244 60.7998V51.9998H454.164V53.3598C454.458 52.9198 454.838 52.5531 455.304 52.2598C455.784 51.9531 456.338 51.7998 456.964 51.7998C457.684 51.7998 458.284 51.9465 458.764 52.2398C459.258 52.5331 459.624 52.9531 459.864 53.4998C460.104 54.0465 460.224 54.6998 460.224 55.4598V60.7998H458.304V55.4598C458.304 55.1131 458.251 54.7931 458.144 54.4998C458.051 54.2065 457.891 53.9731 457.664 53.7998C457.438 53.6265 457.124 53.5398 456.724 53.5398C456.151 53.5398 455.671 53.6931 455.284 53.9998C454.911 54.2931 454.631 54.6931 454.444 55.1998C454.258 55.7065 454.164 56.2665 454.164 56.8798V60.7998H452.244ZM466.394 60.9998C465.568 60.9998 464.828 60.7865 464.174 60.3598C463.521 59.9198 463.008 59.3531 462.634 58.6598C462.261 57.9531 462.074 57.1998 462.074 56.3998C462.074 55.5865 462.261 54.8331 462.634 54.1398C463.008 53.4465 463.521 52.8865 464.174 52.4598C464.828 52.0198 465.568 51.7998 466.394 51.7998C467.061 51.7998 467.674 51.9265 468.234 52.1798C468.794 52.4331 469.254 52.8265 469.614 53.3598V45.7998H471.554V60.7998H469.614V59.4398C469.374 59.7598 469.088 60.0398 468.754 60.2798C468.421 60.5198 468.054 60.6998 467.654 60.8198C467.254 60.9398 466.834 60.9998 466.394 60.9998ZM466.854 59.2598C467.388 59.2598 467.861 59.1265 468.274 58.8598C468.688 58.5931 469.014 58.2465 469.254 57.8198C469.494 57.3798 469.614 56.9065 469.614 56.3998C469.614 55.8931 469.494 55.4265 469.254 54.9998C469.014 54.5598 468.688 54.2065 468.274 53.9398C467.861 53.6731 467.388 53.5398 466.854 53.5398C466.321 53.5398 465.841 53.6731 465.414 53.9398C465.001 54.2065 464.674 54.5598 464.434 54.9998C464.194 55.4265 464.074 55.8931 464.074 56.3998C464.074 56.9065 464.194 57.3798 464.434 57.8198C464.674 58.2465 465.001 58.5931 465.414 58.8598C465.841 59.1265 466.321 59.2598 466.854 59.2598ZM478.017 60.9998C477.19 60.9998 476.45 60.7865 475.797 60.3598C475.144 59.9198 474.63 59.3531 474.257 58.6598C473.897 57.9531 473.717 57.1998 473.717 56.3998C473.717 55.5865 473.897 54.8331 474.257 54.1398C474.63 53.4465 475.144 52.8865 475.797 52.4598C476.45 52.0198 477.19 51.7998 478.017 51.7998C478.684 51.7998 479.29 51.9331 479.837 52.1998C480.384 52.4665 480.85 52.8531 481.237 53.3598V51.9998H483.177V60.7998H481.237V59.4398C481.01 59.7598 480.73 60.0398 480.397 60.2798C480.064 60.5198 479.697 60.6998 479.297 60.8198C478.897 60.9398 478.47 60.9998 478.017 60.9998ZM478.477 59.2598C479.01 59.2598 479.484 59.1265 479.897 58.8598C480.31 58.5931 480.637 58.2465 480.877 57.8198C481.117 57.3798 481.237 56.9065 481.237 56.3998C481.237 55.8931 481.117 55.4265 480.877 54.9998C480.637 54.5598 480.31 54.2065 479.897 53.9398C479.484 53.6731 479.01 53.5398 478.477 53.5398C477.944 53.5398 477.47 53.6731 477.057 53.9398C476.644 54.2065 476.317 54.5598 476.077 54.9998C475.837 55.4265 475.717 55.8931 475.717 56.3998C475.717 56.9065 475.837 57.3798 476.077 57.8198C476.317 58.2465 476.644 58.5931 477.057 58.8598C477.47 59.1265 477.944 59.2598 478.477 59.2598ZM485.858 60.7998V51.9998H487.778V53.4998C487.951 53.0998 488.151 52.7798 488.378 52.5398C488.618 52.2865 488.884 52.0998 489.178 51.9798C489.471 51.8598 489.784 51.7998 490.118 51.7998C490.264 51.7998 490.418 51.8198 490.578 51.8598C490.738 51.8865 490.878 51.9331 490.998 51.9998V54.1198C490.851 53.9598 490.678 53.8465 490.478 53.7798C490.291 53.6998 490.098 53.6598 489.898 53.6598C489.484 53.6598 489.118 53.7998 488.798 54.0798C488.478 54.3465 488.224 54.6865 488.038 55.0998C487.864 55.5131 487.778 55.9465 487.778 56.3998V60.7998H485.858ZM493.066 65.7998L495.626 60.0598L491.906 51.9998H493.966L496.626 57.8998L499.006 51.9998H501.046L495.246 65.7998H493.066Z" fill="white"/>
<rect y="123.6" width="189.333" height="107.6" rx="10" fill="#27AE60"/>
<path d="M65.1319 184.68C64.3852 184.68 63.6986 184.6 63.0719 184.44C62.4452 184.293 61.8986 184.06 61.4319 183.74C60.9652 183.407 60.5852 183 60.2919 182.52C59.9986 182.027 59.8119 181.447 59.7319 180.78H61.8519C61.9186 181.287 62.0919 181.707 62.3719 182.04C62.6519 182.36 63.0252 182.607 63.4919 182.78C63.9719 182.94 64.5319 183.02 65.1719 183.02C65.7052 183.02 66.2119 182.947 66.6919 182.8C67.1719 182.653 67.5652 182.413 67.8719 182.08C68.1919 181.747 68.3519 181.3 68.3519 180.74C68.3519 180.34 68.2186 180 67.9519 179.72C67.6986 179.44 67.3652 179.213 66.9519 179.04C66.5519 178.853 66.1186 178.7 65.6519 178.58C65.1986 178.447 64.7586 178.327 64.3319 178.22C63.7052 178.073 63.1319 177.893 62.6119 177.68C62.0919 177.467 61.6452 177.213 61.2719 176.92C60.9119 176.613 60.6319 176.267 60.4319 175.88C60.2319 175.493 60.1319 175.04 60.1319 174.52C60.1319 173.853 60.2586 173.28 60.5119 172.8C60.7652 172.307 61.1052 171.9 61.5319 171.58C61.9719 171.247 62.4719 171 63.0319 170.84C63.6052 170.68 64.1986 170.6 64.8119 170.6C65.4919 170.6 66.1119 170.667 66.6719 170.8C67.2319 170.933 67.7252 171.14 68.1519 171.42C68.5919 171.7 68.9452 172.06 69.2119 172.5C69.4919 172.927 69.6719 173.433 69.7519 174.02H67.7719C67.6652 173.393 67.3652 172.94 66.8719 172.66C66.3786 172.367 65.6986 172.22 64.8319 172.22C64.3652 172.22 63.9252 172.293 63.5119 172.44C63.0986 172.573 62.7586 172.787 62.4919 173.08C62.2386 173.36 62.1119 173.733 62.1119 174.2C62.1119 174.6 62.2252 174.94 62.4519 175.22C62.6919 175.487 62.9986 175.707 63.3719 175.88C63.7586 176.053 64.1719 176.2 64.6119 176.32C65.0519 176.44 65.4786 176.547 65.8919 176.64C66.4652 176.787 67.0186 176.953 67.5519 177.14C68.0852 177.327 68.5586 177.567 68.9719 177.86C69.3986 178.14 69.7319 178.5 69.9719 178.94C70.2119 179.367 70.3319 179.907 70.3319 180.56C70.3319 181.293 70.1852 181.927 69.8919 182.46C69.6119 182.98 69.2252 183.407 68.7319 183.74C68.2386 184.06 67.6786 184.293 67.0519 184.44C66.4386 184.6 65.7986 184.68 65.1319 184.68ZM75.4274 184.58C74.694 184.58 74.0874 184.42 73.6074 184.1C73.1407 183.78 72.794 183.347 72.5674 182.8C72.3407 182.253 72.2274 181.633 72.2274 180.94V175.6H74.1474V180.94C74.1474 181.273 74.194 181.587 74.2874 181.88C74.394 182.173 74.5607 182.413 74.7874 182.6C75.014 182.773 75.3274 182.86 75.7274 182.86C76.354 182.86 76.854 182.713 77.2274 182.42C77.6007 182.113 77.8674 181.707 78.0274 181.2C78.2007 180.693 78.2874 180.133 78.2874 179.52V175.6H80.2074V184.4H78.2874V183.04C77.9674 183.533 77.5674 183.913 77.0874 184.18C76.6074 184.447 76.054 184.58 75.4274 184.58ZM86.6761 184.6C86.0628 184.6 85.4828 184.487 84.9361 184.26C84.3895 184.02 83.9028 183.7 83.4761 183.3C83.0628 182.887 82.7295 182.4 82.4761 181.84C82.2361 181.28 82.1161 180.667 82.1161 180C82.1161 179.16 82.3161 178.393 82.7161 177.7C83.1295 177.007 83.6828 176.453 84.3761 176.04C85.0828 175.613 85.8761 175.4 86.7561 175.4C87.5161 175.4 88.2028 175.547 88.8161 175.84C89.4428 176.133 89.9695 176.54 90.3961 177.06C90.8228 177.58 91.1028 178.187 91.2361 178.88H89.2361C89.0761 178.36 88.7695 177.947 88.3161 177.64C87.8761 177.32 87.3961 177.16 86.8761 177.16C86.3428 177.16 85.8695 177.287 85.4561 177.54C85.0561 177.793 84.7361 178.14 84.4961 178.58C84.2695 179.007 84.1561 179.48 84.1561 180C84.1561 180.493 84.2628 180.96 84.4761 181.4C84.6895 181.84 84.9895 182.193 85.3761 182.46C85.7761 182.727 86.2495 182.86 86.7961 182.86C87.3161 182.86 87.7895 182.733 88.2161 182.48C88.6428 182.213 88.9495 181.847 89.1361 181.38H91.1761C90.9895 182.033 90.6761 182.607 90.2361 183.1C89.8095 183.58 89.2895 183.953 88.6761 184.22C88.0761 184.473 87.4095 184.6 86.6761 184.6ZM97.1058 184.6C96.4925 184.6 95.9125 184.487 95.3658 184.26C94.8191 184.02 94.3325 183.7 93.9058 183.3C93.4925 182.887 93.1591 182.4 92.9058 181.84C92.6658 181.28 92.5458 180.667 92.5458 180C92.5458 179.16 92.7458 178.393 93.1458 177.7C93.5591 177.007 94.1125 176.453 94.8058 176.04C95.5125 175.613 96.3058 175.4 97.1858 175.4C97.9458 175.4 98.6325 175.547 99.2458 175.84C99.8725 176.133 100.399 176.54 100.826 177.06C101.252 177.58 101.532 178.187 101.666 178.88H99.6658C99.5058 178.36 99.1991 177.947 98.7458 177.64C98.3058 177.32 97.8258 177.16 97.3058 177.16C96.7725 177.16 96.2991 177.287 95.8858 177.54C95.4858 177.793 95.1658 178.14 94.9258 178.58C94.6991 179.007 94.5858 179.48 94.5858 180C94.5858 180.493 94.6925 180.96 94.9058 181.4C95.1191 181.84 95.4191 182.193 95.8058 182.46C96.2058 182.727 96.6791 182.86 97.2258 182.86C97.7458 182.86 98.2191 182.733 98.6458 182.48C99.0725 182.213 99.3791 181.847 99.5658 181.38H101.606C101.419 182.033 101.106 182.607 100.666 183.1C100.239 183.58 99.7191 183.953 99.1058 184.22C98.5058 184.473 97.8391 184.6 97.1058 184.6ZM107.857 184.56C106.924 184.56 106.084 184.373 105.337 184C104.604 183.613 104.017 183.08 103.577 182.4C103.137 181.707 102.917 180.9 102.917 179.98C102.917 179.1 103.13 178.313 103.557 177.62C103.984 176.927 104.557 176.38 105.277 175.98C105.997 175.567 106.804 175.36 107.697 175.36C108.55 175.36 109.33 175.567 110.037 175.98C110.744 176.38 111.31 176.92 111.737 177.6C112.177 178.28 112.397 179.053 112.397 179.92V180.48H104.377V179.04H110.457C110.35 178.453 110.044 177.96 109.537 177.56C109.03 177.147 108.424 176.94 107.717 176.94C107.144 176.94 106.644 177.073 106.217 177.34C105.804 177.593 105.484 177.947 105.257 178.4C105.03 178.84 104.917 179.347 104.917 179.92C104.917 180.533 105.044 181.067 105.297 181.52C105.564 181.973 105.904 182.327 106.317 182.58C106.744 182.82 107.197 182.94 107.677 182.94C108.09 182.94 108.47 182.893 108.817 182.8C109.177 182.693 109.497 182.553 109.777 182.38C110.07 182.207 110.317 181.993 110.517 181.74L111.797 182.82C111.517 183.167 111.164 183.473 110.737 183.74C110.31 183.993 109.85 184.193 109.357 184.34C108.864 184.487 108.364 184.56 107.857 184.56ZM117.3 184.64C116.566 184.64 115.92 184.533 115.36 184.32C114.8 184.107 114.346 183.78 114 183.34C113.666 182.9 113.46 182.34 113.38 181.66H115.36C115.426 182.073 115.56 182.393 115.76 182.62C115.973 182.833 116.22 182.98 116.5 183.06C116.78 183.14 117.073 183.18 117.38 183.18C117.926 183.18 118.346 183.08 118.64 182.88C118.933 182.667 119.08 182.36 119.08 181.96C119.08 181.68 118.96 181.447 118.72 181.26C118.493 181.06 118.16 180.9 117.72 180.78C117.466 180.7 117.166 180.627 116.82 180.56C116.473 180.48 116.126 180.393 115.78 180.3C115.446 180.193 115.146 180.073 114.88 179.94C114.52 179.74 114.226 179.493 114 179.2C113.786 178.893 113.68 178.527 113.68 178.1C113.68 177.5 113.826 177 114.12 176.6C114.426 176.2 114.84 175.9 115.36 175.7C115.893 175.5 116.506 175.4 117.2 175.4C118.133 175.4 118.92 175.587 119.56 175.96C120.213 176.333 120.626 176.993 120.8 177.94H118.82C118.753 177.66 118.64 177.44 118.48 177.28C118.32 177.107 118.126 176.993 117.9 176.94C117.673 176.873 117.42 176.84 117.14 176.84C116.78 176.84 116.446 176.92 116.14 177.08C115.833 177.24 115.68 177.493 115.68 177.84C115.68 178.187 115.826 178.44 116.12 178.6C116.413 178.747 116.733 178.867 117.08 178.96C117.28 179 117.526 179.053 117.82 179.12C118.126 179.187 118.44 179.267 118.76 179.36C119.093 179.44 119.386 179.547 119.64 179.68C120.093 179.88 120.446 180.16 120.7 180.52C120.953 180.88 121.08 181.32 121.08 181.84C121.08 182.507 120.913 183.047 120.58 183.46C120.246 183.86 119.793 184.16 119.22 184.36C118.66 184.547 118.02 184.64 117.3 184.64ZM126.01 184.64C125.277 184.64 124.63 184.533 124.07 184.32C123.51 184.107 123.057 183.78 122.71 183.34C122.377 182.9 122.17 182.34 122.09 181.66H124.07C124.137 182.073 124.27 182.393 124.47 182.62C124.684 182.833 124.93 182.98 125.21 183.06C125.49 183.14 125.784 183.18 126.09 183.18C126.637 183.18 127.057 183.08 127.35 182.88C127.644 182.667 127.79 182.36 127.79 181.96C127.79 181.68 127.67 181.447 127.43 181.26C127.204 181.06 126.87 180.9 126.43 180.78C126.177 180.7 125.877 180.627 125.53 180.56C125.184 180.48 124.837 180.393 124.49 180.3C124.157 180.193 123.857 180.073 123.59 179.94C123.23 179.74 122.937 179.493 122.71 179.2C122.497 178.893 122.39 178.527 122.39 178.1C122.39 177.5 122.537 177 122.83 176.6C123.137 176.2 123.55 175.9 124.07 175.7C124.604 175.5 125.217 175.4 125.91 175.4C126.844 175.4 127.63 175.587 128.27 175.96C128.924 176.333 129.337 176.993 129.51 177.94H127.53C127.464 177.66 127.35 177.44 127.19 177.28C127.03 177.107 126.837 176.993 126.61 176.94C126.384 176.873 126.13 176.84 125.85 176.84C125.49 176.84 125.157 176.92 124.85 177.08C124.544 177.24 124.39 177.493 124.39 177.84C124.39 178.187 124.537 178.44 124.83 178.6C125.124 178.747 125.444 178.867 125.79 178.96C125.99 179 126.237 179.053 126.53 179.12C126.837 179.187 127.15 179.267 127.47 179.36C127.804 179.44 128.097 179.547 128.35 179.68C128.804 179.88 129.157 180.16 129.41 180.52C129.664 180.88 129.79 181.32 129.79 181.84C129.79 182.507 129.624 183.047 129.29 183.46C128.957 183.86 128.504 184.16 127.93 184.36C127.37 184.547 126.73 184.64 126.01 184.64Z" fill="white"/>
<rect x="205.334" y="123.6" width="189.333" height="107.6" rx="10" fill="#D81620"/>
<path d="M279.779 184.4V170.8H287.999V172.58H281.719V176.7H287.799V178.48H281.719V182.62H287.999V184.4H279.779ZM290.656 184.4V175.6H292.576V177.1C292.75 176.7 292.95 176.38 293.176 176.14C293.416 175.887 293.683 175.7 293.976 175.58C294.27 175.46 294.583 175.4 294.916 175.4C295.063 175.4 295.216 175.42 295.376 175.46C295.536 175.487 295.676 175.533 295.796 175.6V177.72C295.65 177.56 295.476 177.447 295.276 177.38C295.09 177.3 294.896 177.26 294.696 177.26C294.283 177.26 293.916 177.4 293.596 177.68C293.276 177.947 293.023 178.287 292.836 178.7C292.663 179.113 292.576 179.547 292.576 180V184.4H290.656ZM297.707 184.4V175.6H299.627V177.1C299.801 176.7 300.001 176.38 300.227 176.14C300.467 175.887 300.734 175.7 301.027 175.58C301.321 175.46 301.634 175.4 301.967 175.4C302.114 175.4 302.267 175.42 302.427 175.46C302.587 175.487 302.727 175.533 302.847 175.6V177.72C302.701 177.56 302.527 177.447 302.327 177.38C302.141 177.3 301.947 177.26 301.747 177.26C301.334 177.26 300.967 177.4 300.647 177.68C300.327 177.947 300.074 178.287 299.887 178.7C299.714 179.113 299.627 179.547 299.627 180V184.4H297.707ZM308.998 184.56C308.105 184.56 307.291 184.36 306.558 183.96C305.825 183.56 305.245 183.02 304.818 182.34C304.391 181.647 304.178 180.86 304.178 179.98C304.178 179.1 304.391 178.313 304.818 177.62C305.258 176.927 305.838 176.38 306.558 175.98C307.291 175.58 308.105 175.38 308.998 175.38C309.891 175.38 310.698 175.58 311.418 175.98C312.151 176.38 312.731 176.927 313.158 177.62C313.585 178.313 313.798 179.1 313.798 179.98C313.798 180.86 313.585 181.647 313.158 182.34C312.731 183.02 312.151 183.56 311.418 183.96C310.698 184.36 309.891 184.56 308.998 184.56ZM308.998 182.86C309.571 182.86 310.065 182.727 310.478 182.46C310.905 182.193 311.231 181.84 311.458 181.4C311.698 180.96 311.818 180.48 311.818 179.96C311.818 179.44 311.698 178.967 311.458 178.54C311.231 178.1 310.905 177.747 310.478 177.48C310.065 177.213 309.571 177.08 308.998 177.08C308.438 177.08 307.945 177.213 307.518 177.48C307.091 177.747 306.758 178.1 306.518 178.54C306.291 178.967 306.178 179.44 306.178 179.96C306.178 180.48 306.291 180.96 306.518 181.4C306.758 181.84 307.085 182.193 307.498 182.46C307.925 182.727 308.425 182.86 308.998 182.86ZM315.91 184.4V175.6H317.83V177.1C318.004 176.7 318.204 176.38 318.43 176.14C318.67 175.887 318.937 175.7 319.23 175.58C319.524 175.46 319.837 175.4 320.17 175.4C320.317 175.4 320.47 175.42 320.63 175.46C320.79 175.487 320.93 175.533 321.05 175.6V177.72C320.904 177.56 320.73 177.447 320.53 177.38C320.344 177.3 320.15 177.26 319.95 177.26C319.537 177.26 319.17 177.4 318.85 177.68C318.53 177.947 318.277 178.287 318.09 178.7C317.917 179.113 317.83 179.547 317.83 180V184.4H315.91Z" fill="white"/>
<rect x="410.666" y="123.6" width="189.333" height="107.6" rx="10" fill="#F1A153"/>
<path d="M472.48 184.4L469.64 170.8H471.7L473.8 181.38L473.38 181.34L477.04 170.84H478.46L482.12 181.34L481.68 181.38L483.8 170.8H485.84L483.02 184.4H481.38L477.48 173.24H478.02L474.12 184.4H472.48ZM490.395 184.6C489.568 184.6 488.828 184.387 488.175 183.96C487.521 183.52 487.008 182.953 486.635 182.26C486.275 181.553 486.095 180.8 486.095 180C486.095 179.187 486.275 178.433 486.635 177.74C487.008 177.047 487.521 176.487 488.175 176.06C488.828 175.62 489.568 175.4 490.395 175.4C491.061 175.4 491.668 175.533 492.215 175.8C492.761 176.067 493.228 176.453 493.615 176.96V175.6H495.555V184.4H493.615V183.04C493.388 183.36 493.108 183.64 492.775 183.88C492.441 184.12 492.075 184.3 491.675 184.42C491.275 184.54 490.848 184.6 490.395 184.6ZM490.855 182.86C491.388 182.86 491.861 182.727 492.275 182.46C492.688 182.193 493.015 181.847 493.255 181.42C493.495 180.98 493.615 180.507 493.615 180C493.615 179.493 493.495 179.027 493.255 178.6C493.015 178.16 492.688 177.807 492.275 177.54C491.861 177.273 491.388 177.14 490.855 177.14C490.321 177.14 489.848 177.273 489.435 177.54C489.021 177.807 488.695 178.16 488.455 178.6C488.215 179.027 488.095 179.493 488.095 180C488.095 180.507 488.215 180.98 488.455 181.42C488.695 181.847 489.021 182.193 489.435 182.46C489.848 182.727 490.321 182.86 490.855 182.86ZM498.235 184.4V175.6H500.155V177.1C500.329 176.7 500.529 176.38 500.755 176.14C500.995 175.887 501.262 175.7 501.555 175.58C501.849 175.46 502.162 175.4 502.495 175.4C502.642 175.4 502.795 175.42 502.955 175.46C503.115 175.487 503.255 175.533 503.375 175.6V177.72C503.229 177.56 503.055 177.447 502.855 177.38C502.669 177.3 502.475 177.26 502.275 177.26C501.862 177.26 501.495 177.4 501.175 177.68C500.855 177.947 500.602 178.287 500.415 178.7C500.242 179.113 500.155 179.547 500.155 180V184.4H498.235ZM505.286 184.4V175.6H507.206V176.96C507.499 176.52 507.879 176.153 508.346 175.86C508.826 175.553 509.379 175.4 510.006 175.4C510.726 175.4 511.326 175.547 511.806 175.84C512.299 176.133 512.666 176.553 512.906 177.1C513.146 177.647 513.266 178.3 513.266 179.06V184.4H511.346V179.06C511.346 178.713 511.293 178.393 511.186 178.1C511.093 177.807 510.933 177.573 510.706 177.4C510.479 177.227 510.166 177.14 509.766 177.14C509.193 177.14 508.713 177.293 508.326 177.6C507.953 177.893 507.673 178.293 507.486 178.8C507.299 179.307 507.206 179.867 507.206 180.48V184.4H505.286ZM515.975 184.4V175.6H517.895V184.4H515.975ZM516.935 174.16C516.601 174.16 516.321 174.047 516.095 173.82C515.868 173.58 515.755 173.3 515.755 172.98C515.755 172.647 515.868 172.367 516.095 172.14C516.321 171.913 516.601 171.8 516.935 171.8C517.255 171.8 517.528 171.913 517.755 172.14C517.995 172.367 518.115 172.647 518.115 172.98C518.115 173.3 517.995 173.58 517.755 173.82C517.528 174.047 517.255 174.16 516.935 174.16ZM520.774 184.4V175.6H522.694V176.96C522.988 176.52 523.368 176.153 523.834 175.86C524.314 175.553 524.868 175.4 525.494 175.4C526.214 175.4 526.814 175.547 527.294 175.84C527.788 176.133 528.154 176.553 528.394 177.1C528.634 177.647 528.754 178.3 528.754 179.06V184.4H526.834V179.06C526.834 178.713 526.781 178.393 526.674 178.1C526.581 177.807 526.421 177.573 526.194 177.4C525.968 177.227 525.654 177.14 525.254 177.14C524.681 177.14 524.201 177.293 523.814 177.6C523.441 177.893 523.161 178.293 522.974 178.8C522.788 179.307 522.694 179.867 522.694 180.48V184.4H520.774ZM535.444 189.4C534.871 189.4 534.324 189.307 533.804 189.12C533.298 188.933 532.838 188.673 532.424 188.34C532.011 188.007 531.678 187.607 531.424 187.14C531.171 186.687 531.011 186.187 530.944 185.64H532.884C533.031 186.28 533.344 186.787 533.824 187.16C534.304 187.533 534.824 187.72 535.384 187.72C535.931 187.72 536.411 187.587 536.824 187.32C537.251 187.053 537.584 186.693 537.824 186.24C538.078 185.8 538.204 185.32 538.204 184.8V183.06C538.018 183.34 537.764 183.6 537.444 183.84C537.124 184.067 536.758 184.253 536.344 184.4C535.944 184.533 535.498 184.6 535.004 184.6C534.178 184.6 533.431 184.387 532.764 183.96C532.111 183.533 531.598 182.973 531.224 182.28C530.864 181.573 530.684 180.813 530.684 180C530.684 179.187 530.864 178.433 531.224 177.74C531.598 177.033 532.111 176.467 532.764 176.04C533.431 175.613 534.178 175.4 535.004 175.4C535.498 175.4 535.944 175.473 536.344 175.62C536.758 175.753 537.118 175.94 537.424 176.18C537.744 176.42 538.004 176.673 538.204 176.94V175.6H540.144V184.68C540.144 185.56 539.931 186.353 539.504 187.06C539.091 187.78 538.524 188.347 537.804 188.76C537.098 189.187 536.311 189.4 535.444 189.4ZM535.444 182.86C535.978 182.86 536.451 182.727 536.864 182.46C537.278 182.193 537.604 181.84 537.844 181.4C538.084 180.96 538.204 180.493 538.204 180C538.204 179.48 538.084 179.007 537.844 178.58C537.604 178.153 537.278 177.807 536.864 177.54C536.451 177.26 535.978 177.12 535.444 177.12C534.924 177.12 534.451 177.253 534.024 177.52C533.611 177.787 533.284 178.14 533.044 178.58C532.804 179.007 532.684 179.48 532.684 180C532.684 180.507 532.804 180.98 533.044 181.42C533.284 181.86 533.611 182.213 534.024 182.48C534.451 182.733 534.924 182.86 535.444 182.86Z" fill="white"/>
<rect y="247.2" width="189.333" height="107.6" rx="10" fill="#333333"/>
<path d="M75.2825 308.18C74.3225 308.18 73.4158 308 72.5625 307.64C71.7225 307.266 70.9825 306.76 70.3425 306.12C69.7025 305.48 69.1958 304.74 68.8225 303.9C68.4625 303.046 68.2825 302.133 68.2825 301.16C68.2825 300.226 68.4558 299.34 68.8025 298.5C69.1625 297.66 69.6558 296.913 70.2825 296.26C70.9091 295.606 71.6425 295.093 72.4825 294.72C73.3225 294.346 74.2225 294.16 75.1825 294.16C76.2491 294.16 77.2358 294.366 78.1425 294.78C79.0625 295.193 79.8558 295.773 80.5225 296.52C81.1891 297.253 81.6691 298.113 81.9625 299.1H79.8825C79.4825 298.126 78.8691 297.373 78.0425 296.84C77.2158 296.293 76.2958 296.02 75.2825 296.02C74.5891 296.02 73.9358 296.153 73.3225 296.42C72.7091 296.686 72.1691 297.06 71.7025 297.54C71.2358 298.006 70.8691 298.553 70.6025 299.18C70.3491 299.793 70.2225 300.46 70.2225 301.18C70.2225 301.886 70.3491 302.553 70.6025 303.18C70.8691 303.793 71.2291 304.34 71.6825 304.82C72.1491 305.286 72.6891 305.66 73.3025 305.94C73.9158 306.206 74.5758 306.34 75.2825 306.34C75.9758 306.34 76.6491 306.213 77.3025 305.96C77.9558 305.693 78.5291 305.306 79.0225 304.8C79.5291 304.293 79.9091 303.66 80.1625 302.9H75.3225V301.34H82.2825L82.1825 302.06C82.0891 302.94 81.8358 303.753 81.4225 304.5C81.0225 305.246 80.5025 305.893 79.8625 306.44C79.2358 306.986 78.5291 307.413 77.7425 307.72C76.9691 308.026 76.1491 308.18 75.2825 308.18ZM84.4637 308V299.2H86.3837V300.7C86.557 300.3 86.757 299.98 86.9837 299.74C87.2237 299.486 87.4904 299.3 87.7837 299.18C88.077 299.06 88.3904 299 88.7237 299C88.8704 299 89.0237 299.02 89.1837 299.06C89.3437 299.086 89.4837 299.133 89.6037 299.2V301.32C89.457 301.16 89.2837 301.046 89.0837 300.98C88.897 300.9 88.7037 300.86 88.5037 300.86C88.0904 300.86 87.7237 301 87.4037 301.28C87.0837 301.546 86.8304 301.886 86.6437 302.3C86.4704 302.713 86.3837 303.146 86.3837 303.6V308H84.4637ZM95.8745 308.16C94.9412 308.16 94.1012 307.973 93.3545 307.6C92.6212 307.213 92.0345 306.68 91.5945 306C91.1545 305.306 90.9345 304.5 90.9345 303.58C90.9345 302.7 91.1478 301.913 91.5745 301.22C92.0012 300.526 92.5745 299.98 93.2945 299.58C94.0145 299.166 94.8212 298.96 95.7145 298.96C96.5678 298.96 97.3478 299.166 98.0545 299.58C98.7612 299.98 99.3278 300.52 99.7545 301.2C100.194 301.88 100.414 302.653 100.414 303.52V304.08H92.3945V302.64H98.4745C98.3678 302.053 98.0612 301.56 97.5545 301.16C97.0478 300.746 96.4412 300.54 95.7345 300.54C95.1612 300.54 94.6612 300.673 94.2345 300.94C93.8212 301.193 93.5012 301.546 93.2745 302C93.0478 302.44 92.9345 302.946 92.9345 303.52C92.9345 304.133 93.0612 304.666 93.3145 305.12C93.5812 305.573 93.9212 305.926 94.3345 306.18C94.7612 306.42 95.2145 306.54 95.6945 306.54C96.1078 306.54 96.4878 306.493 96.8345 306.4C97.1945 306.293 97.5145 306.153 97.7945 305.98C98.0878 305.806 98.3345 305.593 98.5345 305.34L99.8145 306.42C99.5345 306.766 99.1812 307.073 98.7545 307.34C98.3278 307.593 97.8678 307.793 97.3745 307.94C96.8812 308.086 96.3812 308.16 95.8745 308.16ZM102.297 313L104.857 307.26L101.137 299.2H103.197L105.857 305.1L108.237 299.2H110.277L104.477 313H102.297ZM118.757 308V296.54H116.917V295.04L120.677 294.3V308H118.757Z" fill="white"/>
<rect x="205.334" y="247.2" width="189.333" height="107.6" rx="10" fill="#666666"/>
<path d="M277.647 308.18C276.687 308.18 275.78 308 274.927 307.64C274.087 307.266 273.347 306.76 272.707 306.12C272.067 305.48 271.56 304.74 271.187 303.9C270.827 303.046 270.647 302.133 270.647 301.16C270.647 300.226 270.82 299.34 271.167 298.5C271.527 297.66 272.02 296.913 272.647 296.26C273.274 295.606 274.007 295.093 274.847 294.72C275.687 294.346 276.587 294.16 277.547 294.16C278.614 294.16 279.6 294.366 280.507 294.78C281.427 295.193 282.22 295.773 282.887 296.52C283.554 297.253 284.034 298.113 284.327 299.1H282.247C281.847 298.126 281.234 297.373 280.407 296.84C279.58 296.293 278.66 296.02 277.647 296.02C276.954 296.02 276.3 296.153 275.687 296.42C275.074 296.686 274.534 297.06 274.067 297.54C273.6 298.006 273.234 298.553 272.967 299.18C272.714 299.793 272.587 300.46 272.587 301.18C272.587 301.886 272.714 302.553 272.967 303.18C273.234 303.793 273.594 304.34 274.047 304.82C274.514 305.286 275.054 305.66 275.667 305.94C276.28 306.206 276.94 306.34 277.647 306.34C278.34 306.34 279.014 306.213 279.667 305.96C280.32 305.693 280.894 305.306 281.387 304.8C281.894 304.293 282.274 303.66 282.527 302.9H277.687V301.34H284.647L284.547 302.06C284.454 302.94 284.2 303.753 283.787 304.5C283.387 305.246 282.867 305.893 282.227 306.44C281.6 306.986 280.894 307.413 280.107 307.72C279.334 308.026 278.514 308.18 277.647 308.18ZM286.828 308V299.2H288.748V300.7C288.922 300.3 289.122 299.98 289.348 299.74C289.588 299.486 289.855 299.3 290.148 299.18C290.442 299.06 290.755 299 291.088 299C291.235 299 291.388 299.02 291.548 299.06C291.708 299.086 291.848 299.133 291.968 299.2V301.32C291.822 301.16 291.648 301.046 291.448 300.98C291.262 300.9 291.068 300.86 290.868 300.86C290.455 300.86 290.088 301 289.768 301.28C289.448 301.546 289.195 301.886 289.008 302.3C288.835 302.713 288.748 303.146 288.748 303.6V308H286.828ZM298.239 308.16C297.306 308.16 296.466 307.973 295.719 307.6C294.986 307.213 294.399 306.68 293.959 306C293.519 305.306 293.299 304.5 293.299 303.58C293.299 302.7 293.512 301.913 293.939 301.22C294.366 300.526 294.939 299.98 295.659 299.58C296.379 299.166 297.186 298.96 298.079 298.96C298.932 298.96 299.712 299.166 300.419 299.58C301.126 299.98 301.692 300.52 302.119 301.2C302.559 301.88 302.779 302.653 302.779 303.52V304.08H294.759V302.64H300.839C300.732 302.053 300.426 301.56 299.919 301.16C299.412 300.746 298.806 300.54 298.099 300.54C297.526 300.54 297.026 300.673 296.599 300.94C296.186 301.193 295.866 301.546 295.639 302C295.412 302.44 295.299 302.946 295.299 303.52C295.299 304.133 295.426 304.666 295.679 305.12C295.946 305.573 296.286 305.926 296.699 306.18C297.126 306.42 297.579 306.54 298.059 306.54C298.472 306.54 298.852 306.493 299.199 306.4C299.559 306.293 299.879 306.153 300.159 305.98C300.452 305.806 300.699 305.593 300.899 305.34L302.179 306.42C301.899 306.766 301.546 307.073 301.119 307.34C300.692 307.593 300.232 307.793 299.739 307.94C299.246 308.086 298.746 308.16 298.239 308.16ZM304.662 313L307.222 307.26L303.502 299.2H305.562L308.222 305.1L310.602 299.2H312.642L306.842 313H304.662ZM319.321 308L325.801 300.98C326.001 300.766 326.181 300.54 326.341 300.3C326.501 300.046 326.628 299.786 326.721 299.52C326.815 299.24 326.861 298.96 326.861 298.68C326.861 298.186 326.748 297.746 326.521 297.36C326.295 296.973 325.981 296.666 325.581 296.44C325.181 296.213 324.735 296.1 324.241 296.1C323.735 296.1 323.275 296.233 322.861 296.5C322.448 296.753 322.128 297.093 321.901 297.52C321.675 297.946 321.575 298.426 321.601 298.96H319.721C319.695 298.066 319.875 297.26 320.261 296.54C320.661 295.82 321.208 295.246 321.901 294.82C322.608 294.393 323.401 294.18 324.281 294.18C325.121 294.18 325.881 294.373 326.561 294.76C327.255 295.146 327.801 295.68 328.201 296.36C328.615 297.026 328.821 297.8 328.821 298.68C328.821 299.186 328.748 299.66 328.601 300.1C328.455 300.526 328.255 300.933 328.001 301.32C327.748 301.693 327.455 302.06 327.121 302.42L323.481 306.16H328.981V308H319.321Z" fill="white"/>
<rect x="410.666" y="247.2" width="189.333" height="107.6" rx="10" fill="#999999"/>
<path d="M483.575 308.18C482.615 308.18 481.709 308 480.855 307.64C480.015 307.266 479.275 306.76 478.635 306.12C477.995 305.48 477.489 304.74 477.115 303.9C476.755 303.046 476.575 302.133 476.575 301.16C476.575 300.226 476.749 299.34 477.095 298.5C477.455 297.66 477.949 296.913 478.575 296.26C479.202 295.606 479.935 295.093 480.775 294.72C481.615 294.346 482.515 294.16 483.475 294.16C484.542 294.16 485.529 294.366 486.435 294.78C487.355 295.193 488.149 295.773 488.815 296.52C489.482 297.253 489.962 298.113 490.255 299.1H488.175C487.775 298.126 487.162 297.373 486.335 296.84C485.509 296.293 484.589 296.02 483.575 296.02C482.882 296.02 482.229 296.153 481.615 296.42C481.002 296.686 480.462 297.06 479.995 297.54C479.529 298.006 479.162 298.553 478.895 299.18C478.642 299.793 478.515 300.46 478.515 301.18C478.515 301.886 478.642 302.553 478.895 303.18C479.162 303.793 479.522 304.34 479.975 304.82C480.442 305.286 480.982 305.66 481.595 305.94C482.209 306.206 482.869 306.34 483.575 306.34C484.269 306.34 484.942 306.213 485.595 305.96C486.249 305.693 486.822 305.306 487.315 304.8C487.822 304.293 488.202 303.66 488.455 302.9H483.615V301.34H490.575L490.475 302.06C490.382 302.94 490.129 303.753 489.715 304.5C489.315 305.246 488.795 305.893 488.155 306.44C487.529 306.986 486.822 307.413 486.035 307.72C485.262 308.026 484.442 308.18 483.575 308.18ZM492.757 308V299.2H494.677V300.7C494.85 300.3 495.05 299.98 495.277 299.74C495.517 299.486 495.783 299.3 496.077 299.18C496.37 299.06 496.683 299 497.017 299C497.163 299 497.317 299.02 497.477 299.06C497.637 299.086 497.777 299.133 497.897 299.2V301.32C497.75 301.16 497.577 301.046 497.377 300.98C497.19 300.9 496.997 300.86 496.797 300.86C496.383 300.86 496.017 301 495.697 301.28C495.377 301.546 495.123 301.886 494.937 302.3C494.763 302.713 494.677 303.146 494.677 303.6V308H492.757ZM504.167 308.16C503.234 308.16 502.394 307.973 501.647 307.6C500.914 307.213 500.327 306.68 499.887 306C499.447 305.306 499.227 304.5 499.227 303.58C499.227 302.7 499.441 301.913 499.867 301.22C500.294 300.526 500.867 299.98 501.587 299.58C502.307 299.166 503.114 298.96 504.007 298.96C504.861 298.96 505.641 299.166 506.347 299.58C507.054 299.98 507.621 300.52 508.047 301.2C508.487 301.88 508.707 302.653 508.707 303.52V304.08H500.687V302.64H506.767C506.661 302.053 506.354 301.56 505.847 301.16C505.341 300.746 504.734 300.54 504.027 300.54C503.454 300.54 502.954 300.673 502.527 300.94C502.114 301.193 501.794 301.546 501.567 302C501.341 302.44 501.227 302.946 501.227 303.52C501.227 304.133 501.354 304.666 501.607 305.12C501.874 305.573 502.214 305.926 502.627 306.18C503.054 306.42 503.507 306.54 503.987 306.54C504.401 306.54 504.781 306.493 505.127 306.4C505.487 306.293 505.807 306.153 506.087 305.98C506.381 305.806 506.627 305.593 506.827 305.34L508.107 306.42C507.827 306.766 507.474 307.073 507.047 307.34C506.621 307.593 506.161 307.793 505.667 307.94C505.174 308.086 504.674 308.16 504.167 308.16ZM510.59 313L513.15 307.26L509.43 299.2H511.49L514.15 305.1L516.53 299.2H518.57L512.77 313H510.59ZM529.53 308.2C529.023 308.2 528.536 308.14 528.07 308.02C527.603 307.9 527.17 307.713 526.77 307.46C526.383 307.206 526.043 306.873 525.75 306.46C525.47 306.033 525.256 305.52 525.11 304.92L527.09 304.66C527.303 305.22 527.63 305.646 528.07 305.94C528.523 306.22 529.003 306.36 529.51 306.36C530.256 306.36 530.876 306.14 531.37 305.7C531.876 305.246 532.13 304.653 532.13 303.92C532.13 303.173 531.883 302.606 531.39 302.22C530.91 301.833 530.283 301.64 529.51 301.64H528.45V299.9H529.51C530.203 299.9 530.756 299.726 531.17 299.38C531.583 299.033 531.79 298.546 531.79 297.92C531.79 297.293 531.563 296.806 531.11 296.46C530.656 296.113 530.096 295.94 529.43 295.94C528.963 295.94 528.536 296.066 528.15 296.32C527.763 296.56 527.483 296.926 527.31 297.42L525.31 297.18C525.483 296.486 525.776 295.92 526.19 295.48C526.616 295.026 527.11 294.7 527.67 294.5C528.243 294.286 528.836 294.18 529.45 294.18C530.196 294.18 530.89 294.32 531.53 294.6C532.183 294.88 532.71 295.3 533.11 295.86C533.51 296.406 533.71 297.086 533.71 297.9C533.71 298.473 533.576 299 533.31 299.48C533.056 299.96 532.696 300.346 532.23 300.64C532.856 300.96 533.33 301.406 533.65 301.98C533.97 302.54 534.13 303.193 534.13 303.94C534.13 304.833 533.916 305.6 533.49 306.24C533.063 306.88 532.496 307.366 531.79 307.7C531.096 308.033 530.343 308.2 529.53 308.2Z" fill="white"/>
<rect y="370.8" width="189.333" height="107.6" rx="10" fill="#858585"/>
<path d="M60.7374 431.88C59.9907 431.88 59.304 431.8 58.6774 431.64C58.0507 431.493 57.504 431.26 57.0374 430.94C56.5707 430.606 56.1907 430.2 55.8974 429.72C55.604 429.226 55.4174 428.646 55.3374 427.98H57.4574C57.524 428.486 57.6974 428.906 57.9774 429.24C58.2574 429.56 58.6307 429.806 59.0974 429.98C59.5774 430.14 60.1374 430.22 60.7774 430.22C61.3107 430.22 61.8174 430.146 62.2974 430C62.7774 429.853 63.1707 429.613 63.4774 429.28C63.7974 428.946 63.9574 428.5 63.9574 427.94C63.9574 427.54 63.824 427.2 63.5574 426.92C63.304 426.64 62.9707 426.413 62.5574 426.24C62.1574 426.053 61.724 425.9 61.2574 425.78C60.804 425.646 60.364 425.526 59.9374 425.42C59.3107 425.273 58.7374 425.093 58.2174 424.88C57.6974 424.666 57.2507 424.413 56.8774 424.12C56.5174 423.813 56.2374 423.466 56.0374 423.08C55.8374 422.693 55.7374 422.24 55.7374 421.72C55.7374 421.053 55.864 420.48 56.1174 420C56.3707 419.506 56.7107 419.1 57.1374 418.78C57.5774 418.446 58.0774 418.2 58.6374 418.04C59.2107 417.88 59.804 417.8 60.4174 417.8C61.0974 417.8 61.7174 417.866 62.2774 418C62.8374 418.133 63.3307 418.34 63.7574 418.62C64.1974 418.9 64.5507 419.26 64.8174 419.7C65.0974 420.126 65.2774 420.633 65.3574 421.22H63.3774C63.2707 420.593 62.9707 420.14 62.4774 419.86C61.984 419.566 61.304 419.42 60.4374 419.42C59.9707 419.42 59.5307 419.493 59.1174 419.64C58.704 419.773 58.364 419.986 58.0974 420.28C57.844 420.56 57.7174 420.933 57.7174 421.4C57.7174 421.8 57.8307 422.14 58.0574 422.42C58.2974 422.686 58.604 422.906 58.9774 423.08C59.364 423.253 59.7774 423.4 60.2174 423.52C60.6574 423.64 61.084 423.746 61.4974 423.84C62.0707 423.986 62.624 424.153 63.1574 424.34C63.6907 424.526 64.164 424.766 64.5774 425.06C65.004 425.34 65.3374 425.7 65.5774 426.14C65.8174 426.566 65.9374 427.106 65.9374 427.76C65.9374 428.493 65.7907 429.126 65.4974 429.66C65.2174 430.18 64.8307 430.606 64.3374 430.94C63.844 431.26 63.284 431.493 62.6574 431.64C62.044 431.8 61.404 431.88 60.7374 431.88ZM67.8328 431.6V416.6H69.7528V424.16C70.0462 423.72 70.4195 423.353 70.8728 423.06C71.3395 422.753 71.8862 422.6 72.5128 422.6C73.2595 422.6 73.8728 422.753 74.3528 423.06C74.8462 423.366 75.2128 423.793 75.4528 424.34C75.6928 424.886 75.8128 425.526 75.8128 426.26V431.6H73.8928V426.26C73.8928 425.913 73.8395 425.593 73.7328 425.3C73.6395 425.006 73.4795 424.773 73.2528 424.6C73.0262 424.426 72.7128 424.34 72.3128 424.34C71.7395 424.34 71.2595 424.48 70.8728 424.76C70.4995 425.026 70.2195 425.413 70.0328 425.92C69.8462 426.413 69.7528 427 69.7528 427.68V431.6H67.8328ZM82.043 431.8C81.2163 431.8 80.4763 431.586 79.823 431.16C79.1697 430.72 78.6563 430.153 78.283 429.46C77.923 428.753 77.743 428 77.743 427.2C77.743 426.386 77.923 425.633 78.283 424.94C78.6563 424.246 79.1697 423.686 79.823 423.26C80.4763 422.82 81.2163 422.6 82.043 422.6C82.7097 422.6 83.3163 422.733 83.863 423C84.4097 423.266 84.8763 423.653 85.263 424.16V422.8H87.203V431.6H85.263V430.24C85.0363 430.56 84.7563 430.84 84.423 431.08C84.0897 431.32 83.723 431.5 83.323 431.62C82.923 431.74 82.4963 431.8 82.043 431.8ZM82.503 430.06C83.0363 430.06 83.5097 429.926 83.923 429.66C84.3363 429.393 84.663 429.046 84.903 428.62C85.143 428.18 85.263 427.706 85.263 427.2C85.263 426.693 85.143 426.226 84.903 425.8C84.663 425.36 84.3363 425.006 83.923 424.74C83.5097 424.473 83.0363 424.34 82.503 424.34C81.9697 424.34 81.4963 424.473 81.083 424.74C80.6697 425.006 80.343 425.36 80.103 425.8C79.863 426.226 79.743 426.693 79.743 427.2C79.743 427.706 79.863 428.18 80.103 428.62C80.343 429.046 80.6697 429.393 81.083 429.66C81.4963 429.926 81.9697 430.06 82.503 430.06ZM93.6236 431.8C92.797 431.8 92.057 431.586 91.4036 431.16C90.7503 430.72 90.237 430.153 89.8636 429.46C89.4903 428.753 89.3036 428 89.3036 427.2C89.3036 426.386 89.4903 425.633 89.8636 424.94C90.237 424.246 90.7503 423.686 91.4036 423.26C92.057 422.82 92.797 422.6 93.6236 422.6C94.2903 422.6 94.9036 422.726 95.4636 422.98C96.0236 423.233 96.4836 423.626 96.8436 424.16V416.6H98.7836V431.6H96.8436V430.24C96.6036 430.56 96.317 430.84 95.9836 431.08C95.6503 431.32 95.2836 431.5 94.8836 431.62C94.4836 431.74 94.0636 431.8 93.6236 431.8ZM94.0836 430.06C94.617 430.06 95.0903 429.926 95.5036 429.66C95.917 429.393 96.2436 429.046 96.4836 428.62C96.7236 428.18 96.8436 427.706 96.8436 427.2C96.8436 426.693 96.7236 426.226 96.4836 425.8C96.2436 425.36 95.917 425.006 95.5036 424.74C95.0903 424.473 94.617 424.34 94.0836 424.34C93.5503 424.34 93.0703 424.473 92.6436 424.74C92.2303 425.006 91.9036 425.36 91.6636 425.8C91.4236 426.226 91.3036 426.693 91.3036 427.2C91.3036 427.706 91.4236 428.18 91.6636 428.62C91.9036 429.046 92.2303 429.393 92.6436 429.66C93.0703 429.926 93.5503 430.06 94.0836 430.06ZM105.686 431.76C104.793 431.76 103.979 431.56 103.246 431.16C102.513 430.76 101.933 430.22 101.506 429.54C101.079 428.846 100.866 428.06 100.866 427.18C100.866 426.3 101.079 425.513 101.506 424.82C101.946 424.126 102.526 423.58 103.246 423.18C103.979 422.78 104.793 422.58 105.686 422.58C106.579 422.58 107.386 422.78 108.106 423.18C108.839 423.58 109.419 424.126 109.846 424.82C110.273 425.513 110.486 426.3 110.486 427.18C110.486 428.06 110.273 428.846 109.846 429.54C109.419 430.22 108.839 430.76 108.106 431.16C107.386 431.56 106.579 431.76 105.686 431.76ZM105.686 430.06C106.259 430.06 106.753 429.926 107.166 429.66C107.593 429.393 107.919 429.04 108.146 428.6C108.386 428.16 108.506 427.68 108.506 427.16C108.506 426.64 108.386 426.166 108.146 425.74C107.919 425.3 107.593 424.946 107.166 424.68C106.753 424.413 106.259 424.28 105.686 424.28C105.126 424.28 104.633 424.413 104.206 424.68C103.779 424.946 103.446 425.3 103.206 425.74C102.979 426.166 102.866 426.64 102.866 427.16C102.866 427.68 102.979 428.16 103.206 428.6C103.446 429.04 103.773 429.393 104.186 429.66C104.613 429.926 105.113 430.06 105.686 430.06ZM114.626 431.58L111.126 422.8H113.266L115.626 429.24L117.926 423.08H119.166L121.486 429.24L123.846 422.8H125.986L122.486 431.58H120.726L118.546 425.78L116.406 431.58H114.626ZM130.405 431.84C129.672 431.84 129.025 431.733 128.465 431.52C127.905 431.306 127.452 430.98 127.105 430.54C126.772 430.1 126.565 429.54 126.485 428.86H128.465C128.532 429.273 128.665 429.593 128.865 429.82C129.078 430.033 129.325 430.18 129.605 430.26C129.885 430.34 130.178 430.38 130.485 430.38C131.032 430.38 131.452 430.28 131.745 430.08C132.038 429.866 132.185 429.56 132.185 429.16C132.185 428.88 132.065 428.646 131.825 428.46C131.598 428.26 131.265 428.1 130.825 427.98C130.572 427.9 130.272 427.826 129.925 427.76C129.578 427.68 129.232 427.593 128.885 427.5C128.552 427.393 128.252 427.273 127.985 427.14C127.625 426.94 127.332 426.693 127.105 426.4C126.892 426.093 126.785 425.726 126.785 425.3C126.785 424.7 126.932 424.2 127.225 423.8C127.532 423.4 127.945 423.1 128.465 422.9C128.998 422.7 129.612 422.6 130.305 422.6C131.238 422.6 132.025 422.786 132.665 423.16C133.318 423.533 133.732 424.193 133.905 425.14H131.925C131.858 424.86 131.745 424.64 131.585 424.48C131.425 424.306 131.232 424.193 131.005 424.14C130.778 424.073 130.525 424.04 130.245 424.04C129.885 424.04 129.552 424.12 129.245 424.28C128.938 424.44 128.785 424.693 128.785 425.04C128.785 425.386 128.932 425.64 129.225 425.8C129.518 425.946 129.838 426.066 130.185 426.16C130.385 426.2 130.632 426.253 130.925 426.32C131.232 426.386 131.545 426.466 131.865 426.56C132.198 426.64 132.492 426.746 132.745 426.88C133.198 427.08 133.552 427.36 133.805 427.72C134.058 428.08 134.185 428.52 134.185 429.04C134.185 429.706 134.018 430.246 133.685 430.66C133.352 431.06 132.898 431.36 132.325 431.56C131.765 431.746 131.125 431.84 130.405 431.84Z" fill="white"/>
<rect x="205.334" y="370.8" width="189.333" height="107.6" rx="10" fill="#CCCCCC"/>
<path d="M277.594 431.88C276.847 431.88 276.161 431.8 275.534 431.64C274.907 431.493 274.361 431.26 273.894 430.94C273.427 430.606 273.047 430.2 272.754 429.72C272.461 429.226 272.274 428.646 272.194 427.98H274.314C274.381 428.486 274.554 428.906 274.834 429.24C275.114 429.56 275.487 429.806 275.954 429.98C276.434 430.14 276.994 430.22 277.634 430.22C278.167 430.22 278.674 430.146 279.154 430C279.634 429.853 280.027 429.613 280.334 429.28C280.654 428.946 280.814 428.5 280.814 427.94C280.814 427.54 280.681 427.2 280.414 426.92C280.161 426.64 279.827 426.413 279.414 426.24C279.014 426.053 278.581 425.9 278.114 425.78C277.661 425.646 277.221 425.526 276.794 425.42C276.167 425.273 275.594 425.093 275.074 424.88C274.554 424.666 274.107 424.413 273.734 424.12C273.374 423.813 273.094 423.466 272.894 423.08C272.694 422.693 272.594 422.24 272.594 421.72C272.594 421.053 272.721 420.48 272.974 420C273.227 419.506 273.567 419.1 273.994 418.78C274.434 418.446 274.934 418.2 275.494 418.04C276.067 417.88 276.661 417.8 277.274 417.8C277.954 417.8 278.574 417.866 279.134 418C279.694 418.133 280.187 418.34 280.614 418.62C281.054 418.9 281.407 419.26 281.674 419.7C281.954 420.126 282.134 420.633 282.214 421.22H280.234C280.127 420.593 279.827 420.14 279.334 419.86C278.841 419.566 278.161 419.42 277.294 419.42C276.827 419.42 276.387 419.493 275.974 419.64C275.561 419.773 275.221 419.986 274.954 420.28C274.701 420.56 274.574 420.933 274.574 421.4C274.574 421.8 274.687 422.14 274.914 422.42C275.154 422.686 275.461 422.906 275.834 423.08C276.221 423.253 276.634 423.4 277.074 423.52C277.514 423.64 277.941 423.746 278.354 423.84C278.927 423.986 279.481 424.153 280.014 424.34C280.547 424.526 281.021 424.766 281.434 425.06C281.861 425.34 282.194 425.7 282.434 426.14C282.674 426.566 282.794 427.106 282.794 427.76C282.794 428.493 282.647 429.126 282.354 429.66C282.074 430.18 281.687 430.606 281.194 430.94C280.701 431.26 280.141 431.493 279.514 431.64C278.901 431.8 278.261 431.88 277.594 431.88ZM285.99 431.6V424.44H283.85V422.8H285.99V419.4H287.91V422.8H290.03V424.44H287.91V431.6H285.99ZM291.877 431.6V422.8H293.797V424.3C293.97 423.9 294.17 423.58 294.397 423.34C294.637 423.086 294.904 422.9 295.197 422.78C295.49 422.66 295.804 422.6 296.137 422.6C296.284 422.6 296.437 422.62 296.597 422.66C296.757 422.686 296.897 422.733 297.017 422.8V424.92C296.87 424.76 296.697 424.646 296.497 424.58C296.31 424.5 296.117 424.46 295.917 424.46C295.504 424.46 295.137 424.6 294.817 424.88C294.497 425.146 294.244 425.486 294.057 425.9C293.884 426.313 293.797 426.746 293.797 427.2V431.6H291.877ZM303.168 431.76C302.275 431.76 301.461 431.56 300.728 431.16C299.995 430.76 299.415 430.22 298.988 429.54C298.561 428.846 298.348 428.06 298.348 427.18C298.348 426.3 298.561 425.513 298.988 424.82C299.428 424.126 300.008 423.58 300.728 423.18C301.461 422.78 302.275 422.58 303.168 422.58C304.061 422.58 304.868 422.78 305.588 423.18C306.321 423.58 306.901 424.126 307.328 424.82C307.755 425.513 307.968 426.3 307.968 427.18C307.968 428.06 307.755 428.846 307.328 429.54C306.901 430.22 306.321 430.76 305.588 431.16C304.868 431.56 304.061 431.76 303.168 431.76ZM303.168 430.06C303.741 430.06 304.235 429.926 304.648 429.66C305.075 429.393 305.401 429.04 305.628 428.6C305.868 428.16 305.988 427.68 305.988 427.16C305.988 426.64 305.868 426.166 305.628 425.74C305.401 425.3 305.075 424.946 304.648 424.68C304.235 424.413 303.741 424.28 303.168 424.28C302.608 424.28 302.115 424.413 301.688 424.68C301.261 424.946 300.928 425.3 300.688 425.74C300.461 426.166 300.348 426.64 300.348 427.16C300.348 427.68 300.461 428.16 300.688 428.6C300.928 429.04 301.255 429.393 301.668 429.66C302.095 429.926 302.595 430.06 303.168 430.06ZM310.08 431.6V416.6H312V426.58L315.1 422.78H317.58L313.9 427.04L317.86 431.6H315.34L312 427.48V431.6H310.08ZM323.19 431.76C322.257 431.76 321.417 431.573 320.67 431.2C319.937 430.813 319.35 430.28 318.91 429.6C318.47 428.906 318.25 428.1 318.25 427.18C318.25 426.3 318.464 425.513 318.89 424.82C319.317 424.126 319.89 423.58 320.61 423.18C321.33 422.766 322.137 422.56 323.03 422.56C323.884 422.56 324.664 422.766 325.37 423.18C326.077 423.58 326.644 424.12 327.07 424.8C327.51 425.48 327.73 426.253 327.73 427.12V427.68H319.71V426.24H325.79C325.684 425.653 325.377 425.16 324.87 424.76C324.364 424.346 323.757 424.14 323.05 424.14C322.477 424.14 321.977 424.273 321.55 424.54C321.137 424.793 320.817 425.146 320.59 425.6C320.364 426.04 320.25 426.546 320.25 427.12C320.25 427.733 320.377 428.266 320.63 428.72C320.897 429.173 321.237 429.526 321.65 429.78C322.077 430.02 322.53 430.14 323.01 430.14C323.424 430.14 323.804 430.093 324.15 430C324.51 429.893 324.83 429.753 325.11 429.58C325.404 429.406 325.65 429.193 325.85 428.94L327.13 430.02C326.85 430.366 326.497 430.673 326.07 430.94C325.644 431.193 325.184 431.393 324.69 431.54C324.197 431.686 323.697 431.76 323.19 431.76Z" fill="#242424"/>
<rect x="410.666" y="370.8" width="189.333" height="107.6" rx="10" fill="#F5F5F5"/>
<path d="M454.633 431.6V418H458.773C459.613 418 460.333 418.14 460.933 418.42C461.546 418.686 462.02 419.066 462.353 419.56C462.686 420.04 462.853 420.606 462.853 421.26C462.853 421.886 462.72 422.466 462.453 423C462.2 423.52 461.793 423.906 461.233 424.16C461.793 424.293 462.266 424.533 462.653 424.88C463.053 425.226 463.36 425.646 463.573 426.14C463.786 426.62 463.893 427.16 463.893 427.76C463.893 428.533 463.706 429.206 463.333 429.78C462.96 430.353 462.433 430.8 461.753 431.12C461.073 431.44 460.28 431.6 459.373 431.6H454.633ZM456.573 429.92H459.433C460.166 429.92 460.766 429.7 461.233 429.26C461.7 428.82 461.933 428.253 461.933 427.56C461.933 427.133 461.826 426.753 461.613 426.42C461.4 426.086 461.113 425.82 460.753 425.62C460.406 425.42 460.02 425.32 459.593 425.32H456.573V429.92ZM456.573 423.56H458.833C459.433 423.56 459.933 423.393 460.333 423.06C460.746 422.726 460.953 422.233 460.953 421.58C460.953 420.966 460.746 420.5 460.333 420.18C459.92 419.846 459.333 419.68 458.573 419.68H456.573V423.56ZM469.272 431.8C468.445 431.8 467.705 431.586 467.052 431.16C466.398 430.72 465.885 430.153 465.512 429.46C465.152 428.753 464.972 428 464.972 427.2C464.972 426.386 465.152 425.633 465.512 424.94C465.885 424.246 466.398 423.686 467.052 423.26C467.705 422.82 468.445 422.6 469.272 422.6C469.938 422.6 470.545 422.733 471.092 423C471.638 423.266 472.105 423.653 472.492 424.16V422.8H474.432V431.6H472.492V430.24C472.265 430.56 471.985 430.84 471.652 431.08C471.318 431.32 470.952 431.5 470.552 431.62C470.152 431.74 469.725 431.8 469.272 431.8ZM469.732 430.06C470.265 430.06 470.738 429.926 471.152 429.66C471.565 429.393 471.892 429.046 472.132 428.62C472.372 428.18 472.492 427.706 472.492 427.2C472.492 426.693 472.372 426.226 472.132 425.8C471.892 425.36 471.565 425.006 471.152 424.74C470.738 424.473 470.265 424.34 469.732 424.34C469.198 424.34 468.725 424.473 468.312 424.74C467.898 425.006 467.572 425.36 467.332 425.8C467.092 426.226 466.972 426.693 466.972 427.2C466.972 427.706 467.092 428.18 467.332 428.62C467.572 429.046 467.898 429.393 468.312 429.66C468.725 429.926 469.198 430.06 469.732 430.06ZM481.092 431.8C480.479 431.8 479.899 431.686 479.352 431.46C478.805 431.22 478.319 430.9 477.892 430.5C477.479 430.086 477.145 429.6 476.892 429.04C476.652 428.48 476.532 427.866 476.532 427.2C476.532 426.36 476.732 425.593 477.132 424.9C477.545 424.206 478.099 423.653 478.792 423.24C479.499 422.813 480.292 422.6 481.172 422.6C481.932 422.6 482.619 422.746 483.232 423.04C483.859 423.333 484.385 423.74 484.812 424.26C485.239 424.78 485.519 425.386 485.652 426.08H483.652C483.492 425.56 483.185 425.146 482.732 424.84C482.292 424.52 481.812 424.36 481.292 424.36C480.759 424.36 480.285 424.486 479.872 424.74C479.472 424.993 479.152 425.34 478.912 425.78C478.685 426.206 478.572 426.68 478.572 427.2C478.572 427.693 478.679 428.16 478.892 428.6C479.105 429.04 479.405 429.393 479.792 429.66C480.192 429.926 480.665 430.06 481.212 430.06C481.732 430.06 482.205 429.933 482.632 429.68C483.059 429.413 483.365 429.046 483.552 428.58H485.592C485.405 429.233 485.092 429.806 484.652 430.3C484.225 430.78 483.705 431.153 483.092 431.42C482.492 431.673 481.825 431.8 481.092 431.8ZM487.737 431.6V416.6H489.657V426.58L492.757 422.78H495.237L491.557 427.04L495.517 431.6H492.997L489.657 427.48V431.6H487.737ZM500.747 436.6C500.174 436.6 499.627 436.506 499.107 436.32C498.6 436.133 498.14 435.873 497.727 435.54C497.314 435.206 496.98 434.806 496.727 434.34C496.474 433.886 496.314 433.386 496.247 432.84H498.187C498.334 433.48 498.647 433.986 499.127 434.36C499.607 434.733 500.127 434.92 500.687 434.92C501.234 434.92 501.714 434.786 502.127 434.52C502.554 434.253 502.887 433.893 503.127 433.44C503.38 433 503.507 432.52 503.507 432V430.26C503.32 430.54 503.067 430.8 502.747 431.04C502.427 431.266 502.06 431.453 501.647 431.6C501.247 431.733 500.8 431.8 500.307 431.8C499.48 431.8 498.734 431.586 498.067 431.16C497.414 430.733 496.9 430.173 496.527 429.48C496.167 428.773 495.987 428.013 495.987 427.2C495.987 426.386 496.167 425.633 496.527 424.94C496.9 424.233 497.414 423.666 498.067 423.24C498.734 422.813 499.48 422.6 500.307 422.6C500.8 422.6 501.247 422.673 501.647 422.82C502.06 422.953 502.42 423.14 502.727 423.38C503.047 423.62 503.307 423.873 503.507 424.14V422.8H505.447V431.88C505.447 432.76 505.234 433.553 504.807 434.26C504.394 434.98 503.827 435.546 503.107 435.96C502.4 436.386 501.614 436.6 500.747 436.6ZM500.747 430.06C501.28 430.06 501.754 429.926 502.167 429.66C502.58 429.393 502.907 429.04 503.147 428.6C503.387 428.16 503.507 427.693 503.507 427.2C503.507 426.68 503.387 426.206 503.147 425.78C502.907 425.353 502.58 425.006 502.167 424.74C501.754 424.46 501.28 424.32 500.747 424.32C500.227 424.32 499.754 424.453 499.327 424.72C498.914 424.986 498.587 425.34 498.347 425.78C498.107 426.206 497.987 426.68 497.987 427.2C497.987 427.706 498.107 428.18 498.347 428.62C498.587 429.06 498.914 429.413 499.327 429.68C499.754 429.933 500.227 430.06 500.747 430.06ZM508.128 431.6V422.8H510.048V424.3C510.221 423.9 510.421 423.58 510.648 423.34C510.888 423.086 511.154 422.9 511.448 422.78C511.741 422.66 512.054 422.6 512.388 422.6C512.534 422.6 512.688 422.62 512.848 422.66C513.008 422.686 513.148 422.733 513.268 422.8V424.92C513.121 424.76 512.948 424.646 512.748 424.58C512.561 424.5 512.368 424.46 512.168 424.46C511.754 424.46 511.388 424.6 511.068 424.88C510.748 425.146 510.494 425.486 510.308 425.9C510.134 426.313 510.048 426.746 510.048 427.2V431.6H508.128ZM519.419 431.76C518.525 431.76 517.712 431.56 516.979 431.16C516.245 430.76 515.665 430.22 515.239 429.54C514.812 428.846 514.599 428.06 514.599 427.18C514.599 426.3 514.812 425.513 515.239 424.82C515.679 424.126 516.259 423.58 516.979 423.18C517.712 422.78 518.525 422.58 519.419 422.58C520.312 422.58 521.119 422.78 521.839 423.18C522.572 423.58 523.152 424.126 523.579 424.82C524.005 425.513 524.219 426.3 524.219 427.18C524.219 428.06 524.005 428.846 523.579 429.54C523.152 430.22 522.572 430.76 521.839 431.16C521.119 431.56 520.312 431.76 519.419 431.76ZM519.419 430.06C519.992 430.06 520.485 429.926 520.899 429.66C521.325 429.393 521.652 429.04 521.879 428.6C522.119 428.16 522.239 427.68 522.239 427.16C522.239 426.64 522.119 426.166 521.879 425.74C521.652 425.3 521.325 424.946 520.899 424.68C520.485 424.413 519.992 424.28 519.419 424.28C518.859 424.28 518.365 424.413 517.939 424.68C517.512 424.946 517.179 425.3 516.939 425.74C516.712 426.166 516.599 426.64 516.599 427.16C516.599 427.68 516.712 428.16 516.939 428.6C517.179 429.04 517.505 429.393 517.919 429.66C518.345 429.926 518.845 430.06 519.419 430.06ZM529.531 431.78C528.798 431.78 528.191 431.62 527.711 431.3C527.244 430.98 526.898 430.546 526.671 430C526.444 429.453 526.331 428.833 526.331 428.14V422.8H528.251V428.14C528.251 428.473 528.298 428.786 528.391 429.08C528.498 429.373 528.664 429.613 528.891 429.8C529.118 429.973 529.431 430.06 529.831 430.06C530.458 430.06 530.958 429.913 531.331 429.62C531.704 429.313 531.971 428.906 532.131 428.4C532.304 427.893 532.391 427.333 532.391 426.72V422.8H534.311V431.6H532.391V430.24C532.071 430.733 531.671 431.113 531.191 431.38C530.711 431.646 530.158 431.78 529.531 431.78ZM536.8 431.6V422.8H538.72V424.16C539.013 423.72 539.393 423.353 539.86 423.06C540.34 422.753 540.893 422.6 541.52 422.6C542.24 422.6 542.84 422.746 543.32 423.04C543.813 423.333 544.18 423.753 544.42 424.3C544.66 424.846 544.78 425.5 544.78 426.26V431.6H542.86V426.26C542.86 425.913 542.806 425.593 542.7 425.3C542.606 425.006 542.446 424.773 542.22 424.6C541.993 424.426 541.68 424.34 541.28 424.34C540.706 424.34 540.226 424.493 539.84 424.8C539.466 425.093 539.186 425.493 539 426C538.813 426.506 538.72 427.066 538.72 427.68V431.6H536.8ZM550.95 431.8C550.123 431.8 549.383 431.586 548.73 431.16C548.076 430.72 547.563 430.153 547.19 429.46C546.816 428.753 546.63 428 546.63 427.2C546.63 426.386 546.816 425.633 547.19 424.94C547.563 424.246 548.076 423.686 548.73 423.26C549.383 422.82 550.123 422.6 550.95 422.6C551.616 422.6 552.23 422.726 552.79 422.98C553.35 423.233 553.81 423.626 554.17 424.16V416.6H556.11V431.6H554.17V430.24C553.93 430.56 553.643 430.84 553.31 431.08C552.976 431.32 552.61 431.5 552.21 431.62C551.81 431.74 551.39 431.8 550.95 431.8ZM551.41 430.06C551.943 430.06 552.416 429.926 552.83 429.66C553.243 429.393 553.57 429.046 553.81 428.62C554.05 428.18 554.17 427.706 554.17 427.2C554.17 426.693 554.05 426.226 553.81 425.8C553.57 425.36 553.243 425.006 552.83 424.74C552.416 424.473 551.943 424.34 551.41 424.34C550.876 424.34 550.396 424.473 549.97 424.74C549.556 425.006 549.23 425.36 548.99 425.8C548.75 426.226 548.63 426.693 548.63 427.2C548.63 427.706 548.75 428.18 548.99 428.62C549.23 429.046 549.556 429.393 549.97 429.66C550.396 429.926 550.876 430.06 551.41 430.06Z" fill="#242424"/>
<rect y="494.4" width="292" height="107.6" rx="10" fill="#E5E5E5"/>
<path d="M91.277 555.2V541.6H95.197C96.1436 541.6 97.0303 541.766 97.857 542.1C98.697 542.42 99.437 542.88 100.077 543.48C100.717 544.08 101.217 544.8 101.577 545.64C101.937 546.466 102.117 547.386 102.117 548.4C102.117 549.373 101.937 550.273 101.577 551.1C101.23 551.926 100.744 552.646 100.117 553.26C99.4903 553.873 98.757 554.353 97.917 554.7C97.077 555.033 96.1703 555.2 95.197 555.2H91.277ZM93.197 553.34H95.157C96.117 553.34 96.9703 553.126 97.717 552.7C98.477 552.273 99.077 551.686 99.517 550.94C99.9703 550.193 100.197 549.346 100.197 548.4C100.197 547.44 99.9703 546.593 99.517 545.86C99.077 545.113 98.477 544.526 97.717 544.1C96.9703 543.673 96.117 543.46 95.157 543.46H93.197V553.34ZM108.409 555.36C107.476 555.36 106.636 555.173 105.889 554.8C105.156 554.413 104.569 553.88 104.129 553.2C103.689 552.506 103.469 551.7 103.469 550.78C103.469 549.9 103.682 549.113 104.109 548.42C104.536 547.726 105.109 547.18 105.829 546.78C106.549 546.366 107.356 546.16 108.249 546.16C109.102 546.16 109.882 546.366 110.589 546.78C111.296 547.18 111.862 547.72 112.289 548.4C112.729 549.08 112.949 549.853 112.949 550.72V551.28H104.929V549.84H111.009C110.902 549.253 110.596 548.76 110.089 548.36C109.582 547.946 108.976 547.74 108.269 547.74C107.696 547.74 107.196 547.873 106.769 548.14C106.356 548.393 106.036 548.746 105.809 549.2C105.582 549.64 105.469 550.146 105.469 550.72C105.469 551.333 105.596 551.866 105.849 552.32C106.116 552.773 106.456 553.126 106.869 553.38C107.296 553.62 107.749 553.74 108.229 553.74C108.642 553.74 109.022 553.693 109.369 553.6C109.729 553.493 110.049 553.353 110.329 553.18C110.622 553.006 110.869 552.793 111.069 552.54L112.349 553.62C112.069 553.966 111.716 554.273 111.289 554.54C110.862 554.793 110.402 554.993 109.909 555.14C109.416 555.286 108.916 555.36 108.409 555.36ZM116.005 555.2V548.04H114.125V546.4H116.005V543.16C116.005 542.48 116.111 541.926 116.325 541.5C116.551 541.06 116.878 540.733 117.305 540.52C117.731 540.306 118.245 540.2 118.845 540.2H119.785V541.84H119.025C118.665 541.84 118.391 541.946 118.205 542.16C118.018 542.36 117.925 542.68 117.925 543.12V546.4H120.045V548.04H117.925V555.2H116.005ZM125.173 555.4C124.347 555.4 123.607 555.186 122.953 554.76C122.3 554.32 121.787 553.753 121.413 553.06C121.053 552.353 120.873 551.6 120.873 550.8C120.873 549.986 121.053 549.233 121.413 548.54C121.787 547.846 122.3 547.286 122.953 546.86C123.607 546.42 124.347 546.2 125.173 546.2C125.84 546.2 126.447 546.333 126.993 546.6C127.54 546.866 128.007 547.253 128.393 547.76V546.4H130.333V555.2H128.393V553.84C128.167 554.16 127.887 554.44 127.553 554.68C127.22 554.92 126.853 555.1 126.453 555.22C126.053 555.34 125.627 555.4 125.173 555.4ZM125.633 553.66C126.167 553.66 126.64 553.526 127.053 553.26C127.467 552.993 127.793 552.646 128.033 552.22C128.273 551.78 128.393 551.306 128.393 550.8C128.393 550.293 128.273 549.826 128.033 549.4C127.793 548.96 127.467 548.606 127.053 548.34C126.64 548.073 126.167 547.94 125.633 547.94C125.1 547.94 124.627 548.073 124.213 548.34C123.8 548.606 123.473 548.96 123.233 549.4C122.993 549.826 122.873 550.293 122.873 550.8C122.873 551.306 122.993 551.78 123.233 552.22C123.473 552.646 123.8 552.993 124.213 553.26C124.627 553.526 125.1 553.66 125.633 553.66ZM136.214 555.38C135.48 555.38 134.874 555.22 134.394 554.9C133.927 554.58 133.58 554.146 133.354 553.6C133.127 553.053 133.014 552.433 133.014 551.74V546.4H134.934V551.74C134.934 552.073 134.98 552.386 135.074 552.68C135.18 552.973 135.347 553.213 135.574 553.4C135.8 553.573 136.114 553.66 136.514 553.66C137.14 553.66 137.64 553.513 138.014 553.22C138.387 552.913 138.654 552.506 138.814 552C138.987 551.493 139.074 550.933 139.074 550.32V546.4H140.994V555.2H139.074V553.84C138.754 554.333 138.354 554.713 137.874 554.98C137.394 555.246 136.84 555.38 136.214 555.38ZM143.543 555.2V540.2H145.483V555.2H143.543ZM149.529 555.2V548.04H147.389V546.4H149.529V543H151.449V546.4H153.569V548.04H151.449V555.2H149.529ZM160.867 555.2V541.6H169.007V543.38H162.807V547.5H168.807V549.28H162.807V555.2H160.867ZM171.105 555.2V546.4H173.025V555.2H171.105ZM172.065 544.96C171.732 544.96 171.452 544.846 171.225 544.62C170.998 544.38 170.885 544.1 170.885 543.78C170.885 543.446 170.998 543.166 171.225 542.94C171.452 542.713 171.732 542.6 172.065 542.6C172.385 542.6 172.658 542.713 172.885 542.94C173.125 543.166 173.245 543.446 173.245 543.78C173.245 544.1 173.125 544.38 172.885 544.62C172.658 544.846 172.385 544.96 172.065 544.96ZM175.964 555.2V540.2H177.904V555.2H175.964ZM180.711 555.2V540.2H182.651V555.2H180.711ZM189.757 555.36C188.823 555.36 187.983 555.173 187.237 554.8C186.503 554.413 185.917 553.88 185.477 553.2C185.037 552.506 184.817 551.7 184.817 550.78C184.817 549.9 185.03 549.113 185.457 548.42C185.883 547.726 186.457 547.18 187.177 546.78C187.897 546.366 188.703 546.16 189.597 546.16C190.45 546.16 191.23 546.366 191.937 546.78C192.643 547.18 193.21 547.72 193.637 548.4C194.077 549.08 194.297 549.853 194.297 550.72V551.28H186.277V549.84H192.357C192.25 549.253 191.943 548.76 191.437 548.36C190.93 547.946 190.323 547.74 189.617 547.74C189.043 547.74 188.543 547.873 188.117 548.14C187.703 548.393 187.383 548.746 187.157 549.2C186.93 549.64 186.817 550.146 186.817 550.72C186.817 551.333 186.943 551.866 187.197 552.32C187.463 552.773 187.803 553.126 188.217 553.38C188.643 553.62 189.097 553.74 189.577 553.74C189.99 553.74 190.37 553.693 190.717 553.6C191.077 553.493 191.397 553.353 191.677 553.18C191.97 553.006 192.217 552.793 192.417 552.54L193.697 553.62C193.417 553.966 193.063 554.273 192.637 554.54C192.21 554.793 191.75 554.993 191.257 555.14C190.763 555.286 190.263 555.36 189.757 555.36ZM196.412 555.2V546.4H198.332V547.9C198.506 547.5 198.706 547.18 198.932 546.94C199.172 546.686 199.439 546.5 199.732 546.38C200.026 546.26 200.339 546.2 200.672 546.2C200.819 546.2 200.972 546.22 201.132 546.26C201.292 546.286 201.432 546.333 201.552 546.4V548.52C201.406 548.36 201.232 548.246 201.032 548.18C200.846 548.1 200.652 548.06 200.452 548.06C200.039 548.06 199.672 548.2 199.352 548.48C199.032 548.746 198.779 549.086 198.592 549.5C198.419 549.913 198.332 550.346 198.332 550.8V555.2H196.412Z" fill="#242424"/>
<rect x="308" y="494.4" width="292" height="107.6" rx="10" fill="#E6F0FA"/>
<path d="M381.396 555.2V541.6H383.336V547.48H389.076V541.6H391.016V555.2H389.076V549.32H383.336V555.2H381.396ZM393.978 555.2V546.4H395.898V555.2H393.978ZM394.938 544.96C394.605 544.96 394.325 544.846 394.098 544.62C393.871 544.38 393.758 544.1 393.758 543.78C393.758 543.446 393.871 543.166 394.098 542.94C394.325 542.713 394.605 542.6 394.938 542.6C395.258 542.6 395.531 542.713 395.758 542.94C395.998 543.166 396.118 543.446 396.118 543.78C396.118 544.1 395.998 544.38 395.758 544.62C395.531 544.846 395.258 544.96 394.938 544.96ZM402.803 560.2C402.23 560.2 401.683 560.106 401.163 559.92C400.656 559.733 400.196 559.473 399.783 559.14C399.37 558.806 399.036 558.406 398.783 557.94C398.53 557.486 398.37 556.986 398.303 556.44H400.243C400.39 557.08 400.703 557.586 401.183 557.96C401.663 558.333 402.183 558.52 402.743 558.52C403.29 558.52 403.77 558.386 404.183 558.12C404.61 557.853 404.943 557.493 405.183 557.04C405.436 556.6 405.563 556.12 405.563 555.6V553.86C405.376 554.14 405.123 554.4 404.803 554.64C404.483 554.866 404.116 555.053 403.703 555.2C403.303 555.333 402.856 555.4 402.363 555.4C401.536 555.4 400.79 555.186 400.123 554.76C399.47 554.333 398.956 553.773 398.583 553.08C398.223 552.373 398.043 551.613 398.043 550.8C398.043 549.986 398.223 549.233 398.583 548.54C398.956 547.833 399.47 547.266 400.123 546.84C400.79 546.413 401.536 546.2 402.363 546.2C402.856 546.2 403.303 546.273 403.703 546.42C404.116 546.553 404.476 546.74 404.783 546.98C405.103 547.22 405.363 547.473 405.563 547.74V546.4H407.503V555.48C407.503 556.36 407.29 557.153 406.863 557.86C406.45 558.58 405.883 559.146 405.163 559.56C404.456 559.986 403.67 560.2 402.803 560.2ZM402.803 553.66C403.336 553.66 403.81 553.526 404.223 553.26C404.636 552.993 404.963 552.64 405.203 552.2C405.443 551.76 405.563 551.293 405.563 550.8C405.563 550.28 405.443 549.806 405.203 549.38C404.963 548.953 404.636 548.606 404.223 548.34C403.81 548.06 403.336 547.92 402.803 547.92C402.283 547.92 401.81 548.053 401.383 548.32C400.97 548.586 400.643 548.94 400.403 549.38C400.163 549.806 400.043 550.28 400.043 550.8C400.043 551.306 400.163 551.78 400.403 552.22C400.643 552.66 400.97 553.013 401.383 553.28C401.81 553.533 402.283 553.66 402.803 553.66ZM410.184 555.2V540.2H412.104V547.76C412.397 547.32 412.77 546.953 413.224 546.66C413.69 546.353 414.237 546.2 414.864 546.2C415.61 546.2 416.224 546.353 416.704 546.66C417.197 546.966 417.564 547.393 417.804 547.94C418.044 548.486 418.164 549.126 418.164 549.86V555.2H416.244V549.86C416.244 549.513 416.19 549.193 416.084 548.9C415.99 548.606 415.83 548.373 415.604 548.2C415.377 548.026 415.064 547.94 414.664 547.94C414.09 547.94 413.61 548.08 413.224 548.36C412.85 548.626 412.57 549.013 412.384 549.52C412.197 550.013 412.104 550.6 412.104 551.28V555.2H410.184ZM420.713 555.2V540.2H422.653V555.2H420.713ZM425.619 555.2V546.4H427.539V555.2H425.619ZM426.579 544.96C426.245 544.96 425.965 544.846 425.739 544.62C425.512 544.38 425.399 544.1 425.399 543.78C425.399 543.446 425.512 543.166 425.739 542.94C425.965 542.713 426.245 542.6 426.579 542.6C426.899 542.6 427.172 542.713 427.399 542.94C427.639 543.166 427.759 543.446 427.759 543.78C427.759 544.1 427.639 544.38 427.399 544.62C427.172 544.846 426.899 544.96 426.579 544.96ZM434.444 560.2C433.87 560.2 433.324 560.106 432.804 559.92C432.297 559.733 431.837 559.473 431.424 559.14C431.01 558.806 430.677 558.406 430.424 557.94C430.17 557.486 430.01 556.986 429.944 556.44H431.884C432.03 557.08 432.344 557.586 432.824 557.96C433.304 558.333 433.824 558.52 434.384 558.52C434.93 558.52 435.41 558.386 435.824 558.12C436.25 557.853 436.584 557.493 436.824 557.04C437.077 556.6 437.204 556.12 437.204 555.6V553.86C437.017 554.14 436.764 554.4 436.444 554.64C436.124 554.866 435.757 555.053 435.344 555.2C434.944 555.333 434.497 555.4 434.004 555.4C433.177 555.4 432.43 555.186 431.764 554.76C431.11 554.333 430.597 553.773 430.224 553.08C429.864 552.373 429.684 551.613 429.684 550.8C429.684 549.986 429.864 549.233 430.224 548.54C430.597 547.833 431.11 547.266 431.764 546.84C432.43 546.413 433.177 546.2 434.004 546.2C434.497 546.2 434.944 546.273 435.344 546.42C435.757 546.553 436.117 546.74 436.424 546.98C436.744 547.22 437.004 547.473 437.204 547.74V546.4H439.144V555.48C439.144 556.36 438.93 557.153 438.504 557.86C438.09 558.58 437.524 559.146 436.804 559.56C436.097 559.986 435.31 560.2 434.444 560.2ZM434.444 553.66C434.977 553.66 435.45 553.526 435.864 553.26C436.277 552.993 436.604 552.64 436.844 552.2C437.084 551.76 437.204 551.293 437.204 550.8C437.204 550.28 437.084 549.806 436.844 549.38C436.604 548.953 436.277 548.606 435.864 548.34C435.45 548.06 434.977 547.92 434.444 547.92C433.924 547.92 433.45 548.053 433.024 548.32C432.61 548.586 432.284 548.94 432.044 549.38C431.804 549.806 431.684 550.28 431.684 550.8C431.684 551.306 431.804 551.78 432.044 552.22C432.284 552.66 432.61 553.013 433.024 553.28C433.45 553.533 433.924 553.66 434.444 553.66ZM441.824 555.2V540.2H443.744V547.76C444.038 547.32 444.411 546.953 444.864 546.66C445.331 546.353 445.878 546.2 446.504 546.2C447.251 546.2 447.864 546.353 448.344 546.66C448.838 546.966 449.204 547.393 449.444 547.94C449.684 548.486 449.804 549.126 449.804 549.86V555.2H447.884V549.86C447.884 549.513 447.831 549.193 447.724 548.9C447.631 548.606 447.471 548.373 447.244 548.2C447.018 548.026 446.704 547.94 446.304 547.94C445.731 547.94 445.251 548.08 444.864 548.36C444.491 548.626 444.211 549.013 444.024 549.52C443.838 550.013 443.744 550.6 443.744 551.28V555.2H441.824ZM453.593 555.2V548.04H451.453V546.4H453.593V543H455.513V546.4H457.633V548.04H455.513V555.2H453.593ZM463.333 555.36C462.399 555.36 461.559 555.173 460.813 554.8C460.079 554.413 459.493 553.88 459.053 553.2C458.613 552.506 458.393 551.7 458.393 550.78C458.393 549.9 458.606 549.113 459.033 548.42C459.459 547.726 460.033 547.18 460.753 546.78C461.473 546.366 462.279 546.16 463.173 546.16C464.026 546.16 464.806 546.366 465.513 546.78C466.219 547.18 466.786 547.72 467.213 548.4C467.653 549.08 467.873 549.853 467.873 550.72V551.28H459.853V549.84H465.933C465.826 549.253 465.519 548.76 465.013 548.36C464.506 547.946 463.899 547.74 463.193 547.74C462.619 547.74 462.119 547.873 461.693 548.14C461.279 548.393 460.959 548.746 460.733 549.2C460.506 549.64 460.393 550.146 460.393 550.72C460.393 551.333 460.519 551.866 460.773 552.32C461.039 552.773 461.379 553.126 461.793 553.38C462.219 553.62 462.673 553.74 463.153 553.74C463.566 553.74 463.946 553.693 464.293 553.6C464.653 553.493 464.973 553.353 465.253 553.18C465.546 553.006 465.793 552.793 465.993 552.54L467.273 553.62C466.993 553.966 466.639 554.273 466.213 554.54C465.786 554.793 465.326 554.993 464.833 555.14C464.339 555.286 463.839 555.36 463.333 555.36ZM473.475 555.4C472.648 555.4 471.908 555.186 471.255 554.76C470.601 554.32 470.088 553.753 469.715 553.06C469.341 552.353 469.155 551.6 469.155 550.8C469.155 549.986 469.341 549.233 469.715 548.54C470.088 547.846 470.601 547.286 471.255 546.86C471.908 546.42 472.648 546.2 473.475 546.2C474.141 546.2 474.755 546.326 475.315 546.58C475.875 546.833 476.335 547.226 476.695 547.76V540.2H478.635V555.2H476.695V553.84C476.455 554.16 476.168 554.44 475.835 554.68C475.501 554.92 475.135 555.1 474.735 555.22C474.335 555.34 473.915 555.4 473.475 555.4ZM473.935 553.66C474.468 553.66 474.941 553.526 475.355 553.26C475.768 552.993 476.095 552.646 476.335 552.22C476.575 551.78 476.695 551.306 476.695 550.8C476.695 550.293 476.575 549.826 476.335 549.4C476.095 548.96 475.768 548.606 475.355 548.34C474.941 548.073 474.468 547.94 473.935 547.94C473.401 547.94 472.921 548.073 472.495 548.34C472.081 548.606 471.755 548.96 471.515 549.4C471.275 549.826 471.155 550.293 471.155 550.8C471.155 551.306 471.275 551.78 471.515 552.22C471.755 552.646 472.081 552.993 472.495 553.26C472.921 553.526 473.401 553.66 473.935 553.66ZM486.748 555.2V541.6H494.888V543.38H488.688V547.5H494.688V549.28H488.688V555.2H486.748ZM496.986 555.2V546.4H498.906V555.2H496.986ZM497.946 544.96C497.612 544.96 497.332 544.846 497.106 544.62C496.879 544.38 496.766 544.1 496.766 543.78C496.766 543.446 496.879 543.166 497.106 542.94C497.332 542.713 497.612 542.6 497.946 542.6C498.266 542.6 498.539 542.713 498.766 542.94C499.006 543.166 499.126 543.446 499.126 543.78C499.126 544.1 499.006 544.38 498.766 544.62C498.539 544.846 498.266 544.96 497.946 544.96ZM501.845 555.2V540.2H503.785V555.2H501.845ZM506.591 555.2V540.2H508.531V555.2H506.591ZM515.638 555.36C514.704 555.36 513.864 555.173 513.118 554.8C512.384 554.413 511.798 553.88 511.358 553.2C510.918 552.506 510.698 551.7 510.698 550.78C510.698 549.9 510.911 549.113 511.338 548.42C511.764 547.726 512.338 547.18 513.058 546.78C513.778 546.366 514.584 546.16 515.478 546.16C516.331 546.16 517.111 546.366 517.818 546.78C518.524 547.18 519.091 547.72 519.518 548.4C519.958 549.08 520.178 549.853 520.178 550.72V551.28H512.158V549.84H518.238C518.131 549.253 517.824 548.76 517.318 548.36C516.811 547.946 516.204 547.74 515.498 547.74C514.924 547.74 514.424 547.873 513.998 548.14C513.584 548.393 513.264 548.746 513.038 549.2C512.811 549.64 512.698 550.146 512.698 550.72C512.698 551.333 512.824 551.866 513.078 552.32C513.344 552.773 513.684 553.126 514.098 553.38C514.524 553.62 514.978 553.74 515.458 553.74C515.871 553.74 516.251 553.693 516.598 553.6C516.958 553.493 517.278 553.353 517.558 553.18C517.851 553.006 518.098 552.793 518.298 552.54L519.578 553.62C519.298 553.966 518.944 554.273 518.518 554.54C518.091 554.793 517.631 554.993 517.138 555.14C516.644 555.286 516.144 555.36 515.638 555.36ZM522.293 555.2V546.4H524.213V547.9C524.386 547.5 524.586 547.18 524.813 546.94C525.053 546.686 525.32 546.5 525.613 546.38C525.906 546.26 526.22 546.2 526.553 546.2C526.7 546.2 526.853 546.22 527.013 546.26C527.173 546.286 527.313 546.333 527.433 546.4V548.52C527.286 548.36 527.113 548.246 526.913 548.18C526.726 548.1 526.533 548.06 526.333 548.06C525.92 548.06 525.553 548.2 525.233 548.48C524.913 548.746 524.66 549.086 524.473 549.5C524.3 549.913 524.213 550.346 524.213 550.8V555.2H522.293Z" fill="#242424"/>
</svg>
