<svg width="1241" height="145" viewBox="0 0 1241 145" fill="none" xmlns="http://www.w3.org/2000/svg">
<g clip-path="url(#clip0_380_10089)">
<rect width="290.763" height="144.927" rx="18.7064" fill="white"/>
<rect width="52.5476" height="189.701" transform="matrix(1 0 0 -1 26.8574 189.7)" fill="#FFE3E5"/>
<rect width="52.5476" height="189.701" transform="matrix(1 0 0 -1 87.5801 189.7)" fill="#FFE3E5"/>
<rect width="52.5476" height="189.701" transform="matrix(1 0 0 -1 148.301 189.7)" fill="#FFE3E5"/>
<rect width="52.5476" height="189.701" transform="matrix(1 0 0 -1 207.855 189.7)" fill="#FFE3E5"/>
</g>
<rect x="0.46766" y="0.46766" width="289.828" height="143.991" rx="18.2387" stroke="#CCCCCC" stroke-width="0.93532"/>
<rect width="290.763" height="144.927" fill="url(#paint0_linear_380_10089)"/>
<path d="M84.0343 29.222V21.3771H85.3668V28.4901L84.785 27.9083H92.5736V29.222H84.0343ZM89.3455 34.1392V21.3771H90.678V34.1392H89.3455ZM94.1342 34.1392L100.74 27.4766C100.928 27.2889 101.085 27.0888 101.21 26.876C101.335 26.6508 101.429 26.4194 101.491 26.1816C101.554 25.9314 101.585 25.6749 101.585 25.4122C101.585 24.8742 101.454 24.3925 101.191 23.9671C100.928 23.5291 100.572 23.1788 100.121 22.9161C99.6707 22.6533 99.1702 22.5219 98.6197 22.5219C98.0442 22.5219 97.5249 22.6721 97.062 22.9724C96.5991 23.2726 96.2425 23.6605 95.9922 24.136C95.742 24.5989 95.6419 25.0931 95.692 25.6186H94.3594C94.3219 24.7678 94.4971 24.0108 94.8849 23.3477C95.2853 22.6721 95.8171 22.1403 96.4802 21.7525C97.1558 21.3646 97.8878 21.1707 98.676 21.1707C99.4392 21.1707 100.146 21.3583 100.797 21.7337C101.46 22.0965 101.992 22.597 102.392 23.2351C102.792 23.8732 102.993 24.6052 102.993 25.4309C102.993 25.8188 102.943 26.1879 102.842 26.5382C102.755 26.8886 102.617 27.2201 102.43 27.5329C102.254 27.8457 102.029 28.1397 101.754 28.415L97.306 32.8254H103.124V34.1392H94.1342ZM109.434 34.3268C108.859 34.3268 108.315 34.2393 107.802 34.0641C107.301 33.8889 106.857 33.6324 106.469 33.2946C106.094 32.9568 105.793 32.5564 105.568 32.0935C105.355 31.618 105.249 31.0863 105.249 30.4982C105.249 29.8351 105.443 29.2095 105.831 28.6214C106.219 28.0334 106.738 27.5642 107.389 27.2139C106.888 26.7885 106.507 26.3506 106.244 25.9001C105.994 25.4497 105.868 24.9743 105.868 24.4738C105.868 23.9733 105.956 23.5229 106.131 23.1225C106.319 22.7096 106.575 22.3593 106.901 22.0715C107.226 21.7837 107.601 21.5648 108.027 21.4146C108.465 21.252 108.934 21.1707 109.434 21.1707C109.947 21.1707 110.417 21.252 110.842 21.4146C111.28 21.5648 111.655 21.79 111.968 22.0903C112.293 22.3781 112.544 22.7284 112.719 23.1413C112.906 23.5416 113 23.9921 113 24.4925C113 24.9805 112.875 25.4497 112.625 25.9001C112.375 26.3506 111.993 26.7885 111.48 27.2139C112.143 27.5642 112.662 28.0334 113.038 28.6214C113.426 29.2095 113.62 29.8226 113.62 30.4607C113.62 31.0487 113.513 31.5805 113.3 32.0559C113.088 32.5314 112.788 32.938 112.4 33.2758C112.024 33.6137 111.58 33.8764 111.067 34.0641C110.567 34.2393 110.022 34.3268 109.434 34.3268ZM109.434 33.0694C109.972 33.0694 110.454 32.9443 110.879 32.694C111.305 32.4313 111.643 32.0935 111.893 31.6806C112.143 31.2677 112.268 30.8235 112.268 30.3481C112.268 29.8476 112.137 29.4034 111.874 29.0156C111.611 28.6152 111.261 28.3024 110.823 28.0772C110.398 27.852 109.935 27.7394 109.434 27.7394C108.934 27.7394 108.465 27.852 108.027 28.0772C107.601 28.3024 107.257 28.6152 106.995 29.0156C106.732 29.4034 106.6 29.8476 106.6 30.3481C106.6 30.8235 106.726 31.2677 106.976 31.6806C107.226 32.0935 107.564 32.4313 107.989 32.694C108.415 32.9443 108.896 33.0694 109.434 33.0694ZM109.434 26.6696C110.072 26.6696 110.598 26.4632 111.011 26.0503C111.436 25.6249 111.649 25.1244 111.649 24.5489C111.649 23.9358 111.43 23.4353 110.992 23.0474C110.567 22.6471 110.047 22.4469 109.434 22.4469C108.821 22.4469 108.296 22.6471 107.858 23.0474C107.432 23.4353 107.22 23.9358 107.22 24.5489C107.22 25.1244 107.426 25.6249 107.839 26.0503C108.264 26.4632 108.796 26.6696 109.434 26.6696ZM115.691 38.8311V25.8814H117.005V27.2889C117.367 26.8135 117.805 26.4319 118.318 26.1441C118.844 25.8438 119.444 25.6937 120.12 25.6937C120.896 25.6937 121.584 25.9001 122.185 26.313C122.798 26.7134 123.273 27.2389 123.611 27.8895C123.961 28.5401 124.136 29.247 124.136 30.0103C124.136 30.761 123.961 31.4679 123.611 32.131C123.273 32.7816 122.798 33.3134 122.185 33.7263C121.584 34.1266 120.896 34.3268 120.12 34.3268C119.67 34.3268 119.25 34.2643 118.863 34.1392C118.487 34.0015 118.143 33.8139 117.83 33.5761C117.53 33.3259 117.255 33.0444 117.005 32.7316V38.8311H115.691ZM119.914 33.0131C120.477 33.0131 120.977 32.8755 121.415 32.6002C121.853 32.3124 122.197 31.9433 122.447 31.4929C122.697 31.03 122.823 30.5358 122.823 30.0103C122.823 29.4723 122.697 28.978 122.447 28.5276C122.197 28.0772 121.853 27.7143 121.415 27.4391C120.977 27.1513 120.477 27.0074 119.914 27.0074C119.351 27.0074 118.85 27.1513 118.412 27.4391C117.974 27.7143 117.63 28.0772 117.38 28.5276C117.13 28.978 117.005 29.4723 117.005 30.0103C117.005 30.5358 117.13 31.03 117.38 31.4929C117.63 31.9433 117.974 32.3124 118.412 32.6002C118.85 32.8755 119.351 33.0131 119.914 33.0131ZM124.872 34.1392L127.762 29.9915L124.872 25.8814H126.542L128.606 29.0531L130.671 25.8814H132.341L129.451 30.0103L132.341 34.1392H130.671L128.606 30.9299L126.542 34.1392H124.872ZM141.195 38.3431C140.858 37.8552 140.551 37.2483 140.276 36.5227C140 35.8095 139.763 35.0275 139.563 34.1767C139.362 33.3384 139.206 32.4876 139.093 31.6243C138.993 30.761 138.943 29.954 138.943 29.2032C138.943 28.1648 139.025 27.095 139.187 25.994C139.362 24.8929 139.613 23.8294 139.938 22.8035C140.276 21.7775 140.689 20.8641 141.177 20.0634H142.453C141.927 20.9517 141.496 21.9214 141.158 22.9724C140.832 24.0234 140.589 25.0869 140.426 26.1629C140.276 27.2389 140.201 28.2586 140.201 29.222C140.201 30.2104 140.276 31.2364 140.426 32.2999C140.589 33.3634 140.832 34.4082 141.158 35.4341C141.483 36.4726 141.909 37.4423 142.434 38.3431H141.195ZM148.414 34.3268C147.638 34.3268 146.944 34.1266 146.331 33.7263C145.73 33.3134 145.254 32.7816 144.904 32.131C144.566 31.4679 144.397 30.761 144.397 30.0103C144.397 29.247 144.566 28.5401 144.904 27.8895C145.254 27.2389 145.73 26.7134 146.331 26.313C146.944 25.9001 147.638 25.6937 148.414 25.6937C149.089 25.6937 149.696 25.8313 150.234 26.1066C150.772 26.3818 151.204 26.776 151.529 27.2889V20.0634H152.843V34.1392H151.529V32.7316C151.291 33.0444 151.016 33.3259 150.703 33.5761C150.391 33.8139 150.04 34.0015 149.652 34.1392C149.277 34.2643 148.864 34.3268 148.414 34.3268ZM148.62 33.0131C149.183 33.0131 149.684 32.8755 150.122 32.6002C150.56 32.3124 150.904 31.9433 151.154 31.4929C151.404 31.03 151.529 30.5358 151.529 30.0103C151.529 29.4723 151.404 28.978 151.154 28.5276C150.904 28.0772 150.56 27.7143 150.122 27.4391C149.684 27.1513 149.183 27.0074 148.62 27.0074C148.057 27.0074 147.557 27.1513 147.119 27.4391C146.681 27.7143 146.337 28.0772 146.087 28.5276C145.836 28.978 145.711 29.4723 145.711 30.0103C145.711 30.5358 145.836 31.03 146.087 31.4929C146.337 31.9433 146.681 32.3124 147.119 32.6002C147.557 32.8755 148.057 33.0131 148.62 33.0131ZM159.422 34.2705C158.597 34.2705 157.84 34.0954 157.151 33.745C156.476 33.3822 155.932 32.8817 155.519 32.2436C155.106 31.593 154.899 30.836 154.899 29.9727C154.899 29.172 155.093 28.4463 155.481 27.7957C155.869 27.1451 156.388 26.6258 157.039 26.2379C157.689 25.8501 158.415 25.6561 159.216 25.6561C159.992 25.6561 160.705 25.8501 161.355 26.2379C162.006 26.6258 162.532 27.1388 162.932 27.7769C163.332 28.415 163.532 29.1219 163.532 29.8977V30.4231H155.725V29.2032H162.144C161.994 28.5777 161.643 28.0522 161.093 27.6268C160.555 27.1888 159.929 26.9699 159.216 26.9699C158.628 26.9699 158.109 27.1075 157.658 27.3828C157.22 27.658 156.876 28.0334 156.626 28.5088C156.376 28.9718 156.251 29.4973 156.251 30.0853C156.251 30.6609 156.394 31.1676 156.682 31.6055C156.97 32.0309 157.339 32.3625 157.79 32.6002C158.24 32.8379 158.715 32.9568 159.216 32.9568C159.604 32.9568 159.96 32.913 160.286 32.8254C160.623 32.7378 160.93 32.6065 161.205 32.4313C161.493 32.2561 161.75 32.0309 161.975 31.7557L162.969 32.5814C162.694 32.9318 162.356 33.2383 161.956 33.5011C161.568 33.7513 161.155 33.9452 160.717 34.0829C160.279 34.208 159.848 34.2705 159.422 34.2705ZM166.517 34.1392V27.1013H164.659V25.8814H166.517V22.5595C166.517 21.9714 166.605 21.496 166.78 21.1331C166.968 20.7703 167.249 20.5013 167.625 20.3261C168.012 20.1509 168.5 20.0634 169.088 20.0634H169.651V21.2833H168.901C168.538 21.2833 168.269 21.3646 168.094 21.5272C167.919 21.6899 167.831 21.9526 167.831 22.3155V25.8814H169.839V27.1013H167.831V34.1392H166.517ZM174.698 34.3268C173.922 34.3268 173.228 34.1266 172.615 33.7263C172.014 33.3134 171.539 32.7816 171.189 32.131C170.851 31.4679 170.682 30.761 170.682 30.0103C170.682 29.247 170.851 28.5401 171.189 27.8895C171.539 27.2389 172.014 26.7134 172.615 26.313C173.228 25.9001 173.922 25.6937 174.698 25.6937C175.374 25.6937 175.968 25.8438 176.481 26.1441C177.007 26.4319 177.451 26.8135 177.814 27.2889V25.8814H179.127V34.1392H177.814V32.7316C177.576 33.0444 177.301 33.3259 176.988 33.5761C176.675 33.8139 176.325 34.0015 175.937 34.1392C175.561 34.2643 175.149 34.3268 174.698 34.3268ZM174.905 33.0131C175.468 33.0131 175.968 32.8755 176.406 32.6002C176.844 32.3124 177.188 31.9433 177.438 31.4929C177.688 31.03 177.814 30.5358 177.814 30.0103C177.814 29.4723 177.688 28.978 177.438 28.5276C177.188 28.0772 176.844 27.7143 176.406 27.4391C175.968 27.1513 175.468 27.0074 174.905 27.0074C174.341 27.0074 173.841 27.1513 173.403 27.4391C172.965 27.7143 172.621 28.0772 172.371 28.5276C172.121 28.978 171.996 29.4723 171.996 30.0103C171.996 30.5358 172.121 31.03 172.371 31.4929C172.621 31.9433 172.965 32.3124 173.403 32.6002C173.841 32.8755 174.341 33.0131 174.905 33.0131ZM184.709 34.3081C184.059 34.3081 183.514 34.1642 183.077 33.8764C182.639 33.5761 182.307 33.182 182.082 32.694C181.869 32.2061 181.763 31.6556 181.763 31.0425V25.8814H183.077V31.0425C183.077 31.3678 183.12 31.6806 183.208 31.9809C183.308 32.2812 183.471 32.5251 183.696 32.7128C183.934 32.9005 184.253 32.9943 184.653 32.9943C185.391 32.9943 185.961 32.8317 186.361 32.5064C186.774 32.1811 187.062 31.7431 187.224 31.1926C187.387 30.6296 187.468 30.0103 187.468 29.3346V25.8814H188.782V34.1392H187.468V32.7316C187.155 33.2571 186.768 33.6512 186.305 33.9139C185.854 34.1767 185.322 34.3081 184.709 34.3081ZM191.314 34.1392V20.0634H192.628V34.1392H191.314ZM196.564 34.1392V27.1013H194.499V25.8814H196.564V22.6721H197.877V25.8814H199.923V27.1013H197.877V34.1392H196.564ZM201.61 38.3431C202.135 37.4423 202.561 36.4664 202.886 35.4154C203.224 34.3769 203.468 33.3259 203.618 32.2624C203.768 31.1864 203.843 30.1729 203.843 29.222C203.843 28.2211 203.762 27.1826 203.599 26.1066C203.436 25.0306 203.186 23.9733 202.848 22.9348C202.523 21.8838 202.104 20.9267 201.591 20.0634H202.867C203.568 21.5398 204.075 22.8848 204.387 24.0984C204.7 25.3121 204.894 26.3568 204.969 27.2326C205.057 28.096 205.1 28.7466 205.1 29.1845C205.1 29.9102 205.044 30.7047 204.932 31.568C204.831 32.4188 204.681 33.2696 204.481 34.1204C204.281 34.9712 204.043 35.7657 203.768 36.5039C203.493 37.2421 203.186 37.8552 202.848 38.3431H201.61Z" fill="#444444"/>
<path d="M0.886775 92.7666L5.84146 87.7697C5.98221 87.6289 6.09951 87.4788 6.19335 87.3193C6.28719 87.1504 6.35757 86.9768 6.40449 86.7985C6.45141 86.6108 6.47487 86.4184 6.47487 86.2214C6.47487 85.8179 6.37634 85.4566 6.17927 85.1375C5.98221 84.8091 5.71477 84.5463 5.37695 84.3493C5.03913 84.1522 4.66378 84.0537 4.25089 84.0537C3.81923 84.0537 3.4298 84.1663 3.0826 84.3915C2.7354 84.6167 2.46796 84.9076 2.28028 85.2642C2.0926 85.6114 2.01753 85.9821 2.05507 86.3762H1.05568C1.02753 85.7381 1.15891 85.1704 1.44981 84.673C1.75009 84.1663 2.1489 83.7675 2.64625 83.4766C3.15298 83.1857 3.70193 83.0402 4.29312 83.0402C4.86553 83.0402 5.39572 83.181 5.88368 83.4625C6.38103 83.7346 6.77984 84.11 7.08013 84.5886C7.38041 85.0671 7.53055 85.6161 7.53055 86.2354C7.53055 86.5263 7.49302 86.8032 7.41794 87.0659C7.35226 87.3287 7.24903 87.5773 7.10828 87.8119C6.9769 88.0465 6.80799 88.267 6.60155 88.4735L3.26558 91.7813H7.62908V92.7666H0.886775ZM9.50446 89.0787V83.1951H10.5038V88.5298L10.0675 88.0934H15.9089V89.0787H9.50446ZM13.4879 92.7666V83.1951H14.4873V92.7666H13.4879ZM17.6041 96.2856V86.5733H18.5894V87.6289C18.8615 87.2723 19.19 86.9861 19.5747 86.7703C19.9688 86.5451 20.4193 86.4325 20.926 86.4325C21.5078 86.4325 22.0239 86.5873 22.4743 86.897C22.9341 87.1973 23.2907 87.5914 23.5441 88.0794C23.8068 88.5673 23.9382 89.0975 23.9382 89.6699C23.9382 90.233 23.8068 90.7631 23.5441 91.2605C23.2907 91.7485 22.9341 92.1473 22.4743 92.4569C22.0239 92.7572 21.5078 92.9074 20.926 92.9074C20.5882 92.9074 20.2738 92.8604 19.9829 92.7666C19.7014 92.6634 19.4433 92.5226 19.2087 92.3443C18.9835 92.1567 18.7771 91.9455 18.5894 91.7109V96.2856H17.6041ZM20.7711 91.9221C21.1934 91.9221 21.5688 91.8188 21.8972 91.6124C22.2256 91.3966 22.4837 91.1197 22.6714 90.7819C22.8591 90.4347 22.9529 90.064 22.9529 89.6699C22.9529 89.2664 22.8591 88.8958 22.6714 88.5579C22.4837 88.2201 22.2256 87.948 21.8972 87.7415C21.5688 87.5257 21.1934 87.4178 20.7711 87.4178C20.3489 87.4178 19.9735 87.5257 19.6451 87.7415C19.3166 87.948 19.0586 88.2201 18.8709 88.5579C18.6832 88.8958 18.5894 89.2664 18.5894 89.6699C18.5894 90.064 18.6832 90.4347 18.8709 90.7819C19.0586 91.1197 19.3166 91.3966 19.6451 91.6124C19.9735 91.8188 20.3489 91.9221 20.7711 91.9221ZM24.4897 92.7666L26.6574 89.6559L24.4897 86.5733H25.7424L27.2908 88.9521L28.8391 86.5733H30.0919L27.9242 89.6699L30.0919 92.7666H28.8391L27.2908 90.3596L25.7424 92.7666H24.4897Z" fill="#666666"/>
<path d="M76.1004 92.9074C75.6687 92.9074 75.2605 92.8417 74.8758 92.7103C74.5004 92.5789 74.1673 92.3866 73.8764 92.1332C73.5949 91.8798 73.3697 91.5795 73.2008 91.2323C73.0412 90.8758 72.9615 90.4769 72.9615 90.0359C72.9615 89.5386 73.1069 89.0694 73.3978 88.6283C73.6887 88.1873 74.0781 87.8354 74.5661 87.5726C74.1908 87.2536 73.9045 86.9251 73.7075 86.5873C73.5198 86.2495 73.426 85.8929 73.426 85.5176C73.426 85.1422 73.4917 84.8044 73.623 84.5041C73.7638 84.1944 73.9562 83.9317 74.2001 83.7159C74.4441 83.5 74.7256 83.3358 75.0447 83.2232C75.3731 83.1012 75.725 83.0402 76.1004 83.0402C76.4851 83.0402 76.837 83.1012 77.1561 83.2232C77.4845 83.3358 77.766 83.5047 78.0006 83.7299C78.2446 83.9458 78.4323 84.2085 78.5636 84.5182C78.7044 84.8185 78.7748 85.1563 78.7748 85.5316C78.7748 85.8976 78.6809 86.2495 78.4933 86.5873C78.3056 86.9251 78.0194 87.2536 77.6346 87.5726C78.132 87.8354 78.5214 88.1873 78.8029 88.6283C79.0938 89.0694 79.2393 89.5292 79.2393 90.0077C79.2393 90.4488 79.1595 90.8476 79 91.2042C78.8405 91.5608 78.6152 91.8658 78.3243 92.1191C78.0428 92.3725 77.7097 92.5695 77.325 92.7103C76.9496 92.8417 76.5414 92.9074 76.1004 92.9074ZM76.1004 91.9643C76.5039 91.9643 76.8652 91.8704 77.1842 91.6828C77.5033 91.4857 77.7566 91.2323 77.9443 90.9227C78.132 90.613 78.2258 90.2799 78.2258 89.9233C78.2258 89.5479 78.1273 89.2148 77.9302 88.9239C77.7332 88.6236 77.4704 88.389 77.142 88.2201C76.8229 88.0512 76.4757 87.9668 76.1004 87.9668C75.725 87.9668 75.3731 88.0512 75.0447 88.2201C74.7256 88.389 74.4676 88.6236 74.2705 88.9239C74.0735 89.2148 73.9749 89.5479 73.9749 89.9233C73.9749 90.2799 74.0688 90.613 74.2564 90.9227C74.4441 91.2323 74.6975 91.4857 75.0165 91.6828C75.3356 91.8704 75.6969 91.9643 76.1004 91.9643ZM76.1004 87.1644C76.5789 87.1644 76.9731 87.0096 77.2827 86.6999C77.6018 86.3809 77.7613 86.0055 77.7613 85.5739C77.7613 85.1141 77.5971 84.7387 77.2687 84.4478C76.9496 84.1475 76.5602 83.9974 76.1004 83.9974C75.6406 83.9974 75.2464 84.1475 74.918 84.4478C74.599 84.7387 74.4394 85.1141 74.4394 85.5739C74.4394 86.0055 74.5943 86.3809 74.9039 86.6999C75.223 87.0096 75.6218 87.1644 76.1004 87.1644ZM80.7928 96.2856V86.5733H81.7781V87.6289C82.0502 87.2723 82.3787 86.9861 82.7634 86.7703C83.1575 86.5451 83.6079 86.4325 84.1147 86.4325C84.6965 86.4325 85.2126 86.5873 85.663 86.897C86.1228 87.1973 86.4794 87.5914 86.7328 88.0794C86.9955 88.5673 87.1269 89.0975 87.1269 89.6699C87.1269 90.233 86.9955 90.7631 86.7328 91.2605C86.4794 91.7485 86.1228 92.1473 85.663 92.4569C85.2126 92.7572 84.6965 92.9074 84.1147 92.9074C83.7768 92.9074 83.4625 92.8604 83.1716 92.7666C82.8901 92.6634 82.632 92.5226 82.3974 92.3443C82.1722 92.1567 81.9658 91.9455 81.7781 91.7109V96.2856H80.7928ZM83.9598 91.9221C84.3821 91.9221 84.7575 91.8188 85.0859 91.6124C85.4143 91.3966 85.6724 91.1197 85.8601 90.7819C86.0477 90.4347 86.1416 90.064 86.1416 89.6699C86.1416 89.2664 86.0477 88.8958 85.8601 88.5579C85.6724 88.2201 85.4143 87.948 85.0859 87.7415C84.7575 87.5257 84.3821 87.4178 83.9598 87.4178C83.5376 87.4178 83.1622 87.5257 82.8338 87.7415C82.5053 87.948 82.2473 88.2201 82.0596 88.5579C81.8719 88.8958 81.7781 89.2664 81.7781 89.6699C81.7781 90.064 81.8719 90.4347 82.0596 90.7819C82.2473 91.1197 82.5053 91.3966 82.8338 91.6124C83.1622 91.8188 83.5376 91.9221 83.9598 91.9221ZM87.6784 92.7666L89.846 89.6559L87.6784 86.5733H88.9311L90.4795 88.9521L92.0278 86.5733H93.2805L91.1129 89.6699L93.2805 92.7666H92.0278L90.4795 90.3596L88.9311 92.7666H87.6784Z" fill="#666666"/>
<path d="M196.376 92.9074C195.944 92.9074 195.536 92.8417 195.151 92.7103C194.776 92.5789 194.443 92.3866 194.152 92.1332C193.87 91.8798 193.645 91.5795 193.476 91.2323C193.317 90.8758 193.237 90.4769 193.237 90.0359C193.237 89.5386 193.382 89.0694 193.673 88.6283C193.964 88.1873 194.354 87.8354 194.842 87.5726C194.466 87.2536 194.18 86.9251 193.983 86.5873C193.795 86.2495 193.701 85.8929 193.701 85.5176C193.701 85.1422 193.767 84.8044 193.898 84.5041C194.039 84.1944 194.232 83.9317 194.476 83.7159C194.72 83.5 195.001 83.3358 195.32 83.2232C195.649 83.1012 196 83.0402 196.376 83.0402C196.761 83.0402 197.112 83.1012 197.431 83.2232C197.76 83.3358 198.041 83.5047 198.276 83.7299C198.52 83.9458 198.708 84.2085 198.839 84.5182C198.98 84.8185 199.05 85.1563 199.05 85.5316C199.05 85.8976 198.956 86.2495 198.769 86.5873C198.581 86.9251 198.295 87.2536 197.91 87.5726C198.407 87.8354 198.797 88.1873 199.078 88.6283C199.369 89.0694 199.515 89.5292 199.515 90.0077C199.515 90.4488 199.435 90.8476 199.275 91.2042C199.116 91.5608 198.891 91.8658 198.6 92.1191C198.318 92.3725 197.985 92.5695 197.6 92.7103C197.225 92.8417 196.817 92.9074 196.376 92.9074ZM196.376 91.9643C196.779 91.9643 197.141 91.8704 197.46 91.6828C197.779 91.4857 198.032 91.2323 198.22 90.9227C198.407 90.613 198.501 90.2799 198.501 89.9233C198.501 89.5479 198.403 89.2148 198.206 88.9239C198.009 88.6236 197.746 88.389 197.417 88.2201C197.098 88.0512 196.751 87.9668 196.376 87.9668C196 87.9668 195.649 88.0512 195.32 88.2201C195.001 88.389 194.743 88.6236 194.546 88.9239C194.349 89.2148 194.25 89.5479 194.25 89.9233C194.25 90.2799 194.344 90.613 194.532 90.9227C194.72 91.2323 194.973 91.4857 195.292 91.6828C195.611 91.8704 195.972 91.9643 196.376 91.9643ZM196.376 87.1644C196.854 87.1644 197.248 87.0096 197.558 86.6999C197.877 86.3809 198.037 86.0055 198.037 85.5739C198.037 85.1141 197.872 84.7387 197.544 84.4478C197.225 84.1475 196.836 83.9974 196.376 83.9974C195.916 83.9974 195.522 84.1475 195.193 84.4478C194.874 84.7387 194.715 85.1141 194.715 85.5739C194.715 86.0055 194.87 86.3809 195.179 86.6999C195.498 87.0096 195.897 87.1644 196.376 87.1644ZM201.068 96.2856V86.5733H202.053V87.6289C202.326 87.2723 202.654 86.9861 203.039 86.7703C203.433 86.5451 203.883 86.4325 204.39 86.4325C204.972 86.4325 205.488 86.5873 205.938 86.897C206.398 87.1973 206.755 87.5914 207.008 88.0794C207.271 88.5673 207.402 89.0975 207.402 89.6699C207.402 90.233 207.271 90.7631 207.008 91.2605C206.755 91.7485 206.398 92.1473 205.938 92.4569C205.488 92.7572 204.972 92.9074 204.39 92.9074C204.052 92.9074 203.738 92.8604 203.447 92.7666C203.165 92.6634 202.907 92.5226 202.673 92.3443C202.448 92.1567 202.241 91.9455 202.053 91.7109V96.2856H201.068ZM204.235 91.9221C204.657 91.9221 205.033 91.8188 205.361 91.6124C205.69 91.3966 205.948 91.1197 206.135 90.7819C206.323 90.4347 206.417 90.064 206.417 89.6699C206.417 89.2664 206.323 88.8958 206.135 88.5579C205.948 88.2201 205.69 87.948 205.361 87.7415C205.033 87.5257 204.657 87.4178 204.235 87.4178C203.813 87.4178 203.438 87.5257 203.109 87.7415C202.781 87.948 202.523 88.2201 202.335 88.5579C202.147 88.8958 202.053 89.2664 202.053 89.6699C202.053 90.064 202.147 90.4347 202.335 90.7819C202.523 91.1197 202.781 91.3966 203.109 91.6124C203.438 91.8188 203.813 91.9221 204.235 91.9221ZM207.954 92.7666L210.121 89.6559L207.954 86.5733H209.207L210.755 88.9521L212.303 86.5733H213.556L211.388 89.6699L213.556 92.7666H212.303L210.755 90.3596L209.207 92.7666H207.954Z" fill="#666666"/>
<path d="M136.823 92.9074C136.391 92.9074 135.983 92.8417 135.598 92.7103C135.223 92.5789 134.89 92.3866 134.599 92.1332C134.318 91.8798 134.092 91.5795 133.923 91.2323C133.764 90.8758 133.684 90.4769 133.684 90.0359C133.684 89.5386 133.83 89.0694 134.12 88.6283C134.411 88.1873 134.801 87.8354 135.289 87.5726C134.913 87.2536 134.627 86.9251 134.43 86.5873C134.242 86.2495 134.149 85.8929 134.149 85.5176C134.149 85.1422 134.214 84.8044 134.346 84.5041C134.486 84.1944 134.679 83.9317 134.923 83.7159C135.167 83.5 135.448 83.3358 135.767 83.2232C136.096 83.1012 136.448 83.0402 136.823 83.0402C137.208 83.0402 137.56 83.1012 137.879 83.2232C138.207 83.3358 138.489 83.5047 138.723 83.7299C138.967 83.9458 139.155 84.2085 139.286 84.5182C139.427 84.8185 139.497 85.1563 139.497 85.5316C139.497 85.8976 139.404 86.2495 139.216 86.5873C139.028 86.9251 138.742 87.2536 138.357 87.5726C138.855 87.8354 139.244 88.1873 139.526 88.6283C139.816 89.0694 139.962 89.5292 139.962 90.0077C139.962 90.4488 139.882 90.8476 139.723 91.2042C139.563 91.5608 139.338 91.8658 139.047 92.1191C138.765 92.3725 138.432 92.5695 138.048 92.7103C137.672 92.8417 137.264 92.9074 136.823 92.9074ZM136.823 91.9643C137.227 91.9643 137.588 91.8704 137.907 91.6828C138.226 91.4857 138.479 91.2323 138.667 90.9227C138.855 90.613 138.948 90.2799 138.948 89.9233C138.948 89.5479 138.85 89.2148 138.653 88.9239C138.456 88.6236 138.193 88.389 137.865 88.2201C137.546 88.0512 137.198 87.9668 136.823 87.9668C136.448 87.9668 136.096 88.0512 135.767 88.2201C135.448 88.389 135.19 88.6236 134.993 88.9239C134.796 89.2148 134.698 89.5479 134.698 89.9233C134.698 90.2799 134.791 90.613 134.979 90.9227C135.167 91.2323 135.42 91.4857 135.739 91.6828C136.058 91.8704 136.42 91.9643 136.823 91.9643ZM136.823 87.1644C137.302 87.1644 137.696 87.0096 138.005 86.6999C138.324 86.3809 138.484 86.0055 138.484 85.5739C138.484 85.1141 138.32 84.7387 137.991 84.4478C137.672 84.1475 137.283 83.9974 136.823 83.9974C136.363 83.9974 135.969 84.1475 135.641 84.4478C135.322 84.7387 135.162 85.1141 135.162 85.5739C135.162 86.0055 135.317 86.3809 135.627 86.6999C135.946 87.0096 136.344 87.1644 136.823 87.1644ZM141.515 96.2856V86.5733H142.501V87.6289C142.773 87.2723 143.101 86.9861 143.486 86.7703C143.88 86.5451 144.331 86.4325 144.837 86.4325C145.419 86.4325 145.935 86.5873 146.386 86.897C146.845 87.1973 147.202 87.5914 147.455 88.0794C147.718 88.5673 147.85 89.0975 147.85 89.6699C147.85 90.233 147.718 90.7631 147.455 91.2605C147.202 91.7485 146.845 92.1473 146.386 92.4569C145.935 92.7572 145.419 92.9074 144.837 92.9074C144.5 92.9074 144.185 92.8604 143.894 92.7666C143.613 92.6634 143.355 92.5226 143.12 92.3443C142.895 92.1567 142.688 91.9455 142.501 91.7109V96.2856H141.515ZM144.682 91.9221C145.105 91.9221 145.48 91.8188 145.809 91.6124C146.137 91.3966 146.395 91.1197 146.583 90.7819C146.77 90.4347 146.864 90.064 146.864 89.6699C146.864 89.2664 146.77 88.8958 146.583 88.5579C146.395 88.2201 146.137 87.948 145.809 87.7415C145.48 87.5257 145.105 87.4178 144.682 87.4178C144.26 87.4178 143.885 87.5257 143.556 87.7415C143.228 87.948 142.97 88.2201 142.782 88.5579C142.595 88.8958 142.501 89.2664 142.501 89.6699C142.501 90.064 142.595 90.4347 142.782 90.7819C142.97 91.1197 143.228 91.3966 143.556 91.6124C143.885 91.8188 144.26 91.9221 144.682 91.9221ZM148.401 92.7666L150.569 89.6559L148.401 86.5733H149.654L151.202 88.9521L152.75 86.5733H154.003L151.836 89.6699L154.003 92.7666H152.75L151.202 90.3596L149.654 92.7666H148.401Z" fill="#666666"/>
<path d="M261.289 92.7666L266.244 87.7697C266.385 87.6289 266.502 87.4788 266.596 87.3193C266.69 87.1504 266.76 86.9768 266.807 86.7985C266.854 86.6108 266.877 86.4184 266.877 86.2214C266.877 85.8179 266.779 85.4566 266.582 85.1375C266.385 84.8091 266.117 84.5463 265.779 84.3493C265.441 84.1522 265.066 84.0537 264.653 84.0537C264.222 84.0537 263.832 84.1663 263.485 84.3915C263.138 84.6167 262.87 84.9076 262.683 85.2642C262.495 85.6114 262.42 85.9821 262.457 86.3762H261.458C261.43 85.7381 261.561 85.1704 261.852 84.673C262.152 84.1663 262.551 83.7675 263.049 83.4766C263.555 83.1857 264.104 83.0402 264.695 83.0402C265.268 83.0402 265.798 83.181 266.286 83.4625C266.783 83.7346 267.182 84.11 267.482 84.5886C267.783 85.0671 267.933 85.6161 267.933 86.2354C267.933 86.5263 267.895 86.8032 267.82 87.0659C267.755 87.3287 267.651 87.5773 267.511 87.8119C267.379 88.0465 267.21 88.267 267.004 88.4735L263.668 91.7813H268.031V92.7666H261.289ZM269.907 89.0787V83.1951H270.906V88.5298L270.47 88.0934H276.311V89.0787H269.907ZM273.89 92.7666V83.1951H274.89V92.7666H273.89ZM278.006 96.2856V86.5733H278.992V87.6289C279.264 87.2723 279.592 86.9861 279.977 86.7703C280.371 86.5451 280.822 86.4325 281.328 86.4325C281.91 86.4325 282.426 86.5873 282.877 86.897C283.336 87.1973 283.693 87.5914 283.946 88.0794C284.209 88.5673 284.341 89.0975 284.341 89.6699C284.341 90.233 284.209 90.7631 283.946 91.2605C283.693 91.7485 283.336 92.1473 282.877 92.4569C282.426 92.7572 281.91 92.9074 281.328 92.9074C280.991 92.9074 280.676 92.8604 280.385 92.7666C280.104 92.6634 279.846 92.5226 279.611 92.3443C279.386 92.1567 279.179 91.9455 278.992 91.7109V96.2856H278.006ZM281.173 91.9221C281.596 91.9221 281.971 91.8188 282.3 91.6124C282.628 91.3966 282.886 91.1197 283.074 90.7819C283.261 90.4347 283.355 90.064 283.355 89.6699C283.355 89.2664 283.261 88.8958 283.074 88.5579C282.886 88.2201 282.628 87.948 282.3 87.7415C281.971 87.5257 281.596 87.4178 281.173 87.4178C280.751 87.4178 280.376 87.5257 280.047 87.7415C279.719 87.948 279.461 88.2201 279.273 88.5579C279.086 88.8958 278.992 89.2664 278.992 89.6699C278.992 90.064 279.086 90.4347 279.273 90.7819C279.461 91.1197 279.719 91.3966 280.047 91.6124C280.376 91.8188 280.751 91.9221 281.173 91.9221ZM284.892 92.7666L287.06 89.6559L284.892 86.5733H286.145L287.693 88.9521L289.241 86.5733H290.494L288.327 89.6699L290.494 92.7666H289.241L287.693 90.3596L286.145 92.7666H284.892Z" fill="#666666"/>
<path d="M0.960613 76.38C0.846093 76.4946 0.846093 76.6802 0.960613 76.7948L2.82682 78.661C2.94134 78.7755 3.12701 78.7755 3.24153 78.661C3.35605 78.5464 3.35605 78.3608 3.24153 78.2463L1.58268 76.5874L3.24153 74.9286C3.35605 74.814 3.35605 74.6284 3.24153 74.5138C3.12701 74.3993 2.94134 74.3993 2.82682 74.5138L0.960613 76.38ZM24.7298 76.7948C24.8443 76.6802 24.8443 76.4946 24.7298 76.38L22.8636 74.5138C22.7491 74.3993 22.5634 74.3993 22.4489 74.5138C22.3344 74.6284 22.3344 74.814 22.4489 74.9286L24.1077 76.5874L22.4489 78.2462C22.3344 78.3608 22.3344 78.5464 22.4489 78.661C22.5634 78.7755 22.7491 78.7755 22.8636 78.661L24.7298 76.7948ZM1.16797 76.8806L24.5225 76.8806L24.5225 76.2942L1.16797 76.2942L1.16797 76.8806Z" fill="#666666"/>
<path d="M79.1969 76.38C79.0824 76.4946 79.0824 76.6802 79.1969 76.7948L81.0631 78.661C81.1777 78.7755 81.3633 78.7755 81.4779 78.661C81.5924 78.5464 81.5924 78.3608 81.4779 78.2463L79.819 76.5874L81.4779 74.9286C81.5924 74.814 81.5924 74.6284 81.4779 74.5138C81.3633 74.3993 81.1777 74.3993 81.0631 74.5138L79.1969 76.38ZM87.7857 76.7948C87.9002 76.6802 87.9002 76.4946 87.7857 76.38L85.9195 74.5138C85.805 74.3993 85.6193 74.3993 85.5048 74.5138C85.3903 74.6284 85.3903 74.814 85.5048 74.9286L87.1637 76.5874L85.5048 78.2463C85.3903 78.3608 85.3903 78.5464 85.5048 78.661C85.6193 78.7755 85.805 78.7755 85.9195 78.661L87.7857 76.7948ZM79.4043 76.8806L87.5784 76.8806L87.5784 76.2942L79.4043 76.2942L79.4043 76.8806Z" fill="#666666"/>
<path d="M200.64 76.38C200.526 76.4946 200.526 76.6802 200.64 76.7948L202.507 78.661C202.621 78.7755 202.807 78.7755 202.921 78.661C203.036 78.5464 203.036 78.3608 202.921 78.2463L201.262 76.5874L202.921 74.9286C203.036 74.814 203.036 74.6284 202.921 74.5138C202.807 74.3993 202.621 74.3993 202.507 74.5138L200.64 76.38ZM208.061 76.7948C208.176 76.6802 208.176 76.4946 208.061 76.38L206.195 74.5138C206.081 74.3993 205.895 74.3993 205.78 74.5138C205.666 74.6284 205.666 74.814 205.78 74.9286L207.439 76.5874L205.78 78.2463C205.666 78.3608 205.666 78.5464 205.78 78.661C205.895 78.7755 206.081 78.7755 206.195 78.661L208.061 76.7948ZM200.848 76.8806L207.854 76.8806L207.854 76.2942L200.848 76.2942L200.848 76.8806Z" fill="#666666"/>
<path d="M139.92 76.38C139.805 76.4946 139.805 76.6802 139.92 76.7948L141.786 78.661C141.9 78.7755 142.086 78.7755 142.201 78.661C142.315 78.5464 142.315 78.3608 142.201 78.2463L140.542 76.5874L142.201 74.9286C142.315 74.814 142.315 74.6284 142.201 74.5138C142.086 74.3993 141.9 74.3993 141.786 74.5138L139.92 76.38ZM148.508 76.7948C148.623 76.6802 148.623 76.4946 148.508 76.38L146.642 74.5138C146.528 74.3993 146.342 74.3993 146.227 74.5138C146.113 74.6284 146.113 74.814 146.227 74.9286L147.886 76.5874L146.227 78.2463C146.113 78.3608 146.113 78.5464 146.227 78.661C146.342 78.7755 146.528 78.7755 146.642 78.661L148.508 76.7948ZM140.127 76.8806L148.301 76.8806L148.301 76.2942L140.127 76.2942L140.127 76.8806Z" fill="#666666"/>
<path d="M260.195 76.38C260.08 76.4946 260.08 76.6802 260.195 76.7948L262.061 78.661C262.176 78.7755 262.361 78.7755 262.476 78.661C262.59 78.5464 262.59 78.3608 262.476 78.2463L260.817 76.5874L262.476 74.9286C262.59 74.814 262.59 74.6284 262.476 74.5138C262.361 74.3993 262.176 74.3993 262.061 74.5138L260.195 76.38ZM289.803 76.7948C289.917 76.6802 289.917 76.4946 289.803 76.38L287.937 74.5138C287.822 74.3993 287.636 74.3993 287.522 74.5138C287.407 74.6284 287.407 74.814 287.522 74.9286L289.181 76.5874L287.522 78.2462C287.407 78.3608 287.407 78.5464 287.522 78.661C287.636 78.7755 287.822 78.7755 287.937 78.661L289.803 76.7948ZM260.402 76.8806L289.595 76.8806L289.595 76.2942L260.402 76.2942L260.402 76.8806Z" fill="#666666"/>
<g clip-path="url(#clip1_380_10089)">
<rect x="385.242" y="0.443359" width="854.774" height="144.363" rx="18.7064" fill="white"/>
<rect width="55.402" height="189.76" transform="matrix(1 0 0 -1 430.469 190.206)" fill="#FFE3E5"/>
<rect width="55.402" height="189.76" transform="matrix(1 0 0 -1 494.916 190.206)" fill="#FFE3E5"/>
<rect width="55.402" height="189.76" transform="matrix(1 0 0 -1 559.363 190.206)" fill="#FFE3E5"/>
<rect width="55.402" height="189.76" transform="matrix(1 0 0 -1 623.811 190.206)" fill="#FFE3E5"/>
<rect width="55.402" height="189.76" transform="matrix(1 0 0 -1 688.258 190.206)" fill="#FFE3E5"/>
<rect width="55.402" height="189.76" transform="matrix(1 0 0 -1 752.705 190.206)" fill="#FFE3E5"/>
<rect width="55.402" height="189.76" transform="matrix(1 0 0 -1 817.152 190.206)" fill="#FFE3E5"/>
<rect width="55.402" height="189.76" transform="matrix(1 0 0 -1 881.6 190.206)" fill="#FFE3E5"/>
<rect width="55.402" height="189.76" transform="matrix(1 0 0 -1 946.047 190.206)" fill="#FFE3E5"/>
<rect width="55.402" height="189.76" transform="matrix(1 0 0 -1 1010.49 190.206)" fill="#FFE3E5"/>
<rect width="55.402" height="189.76" transform="matrix(1 0 0 -1 1074.94 190.206)" fill="#FFE3E5"/>
<rect width="55.402" height="189.76" transform="matrix(1 0 0 -1 1139.39 190.206)" fill="#FFE3E5"/>
</g>
<rect x="385.71" y="0.911019" width="853.839" height="143.427" rx="18.2387" stroke="#CCCCCC" stroke-width="0.93532"/>
<rect x="385.242" width="854.774" height="144.927" fill="url(#paint1_linear_380_10089)"/>
<path d="M753.518 31.7847V20.3551H751.679V19.2103L754.832 18.8725V31.7847H753.518ZM761.121 32.0099C760.358 32.0099 759.638 31.8222 758.963 31.4468C758.299 31.059 757.774 30.5397 757.386 29.8891L758.531 29.2135C758.806 29.6764 759.175 30.0393 759.638 30.302C760.101 30.5523 760.545 30.6774 760.971 30.6774C761.659 30.6774 762.234 30.5335 762.697 30.2457C763.16 29.9579 763.511 29.5888 763.748 29.1384C763.986 28.688 764.105 28.2251 764.105 27.7496C764.105 27.2241 763.974 26.7361 763.711 26.2857C763.461 25.8353 763.123 25.4725 762.697 25.1972C762.272 24.9219 761.796 24.7843 761.271 24.7843C760.883 24.7843 760.527 24.8344 760.201 24.9344C759.888 25.0345 759.594 25.1847 759.319 25.3849L757.893 24.7468L759.357 19.0226H764.968V20.3364H760.351L759.488 23.7521C759.813 23.652 760.12 23.5769 760.408 23.5269C760.708 23.4768 760.996 23.4518 761.271 23.4518C761.771 23.4518 762.266 23.5519 762.754 23.7521C763.254 23.9398 763.705 24.215 764.105 24.5779C764.518 24.9407 764.843 25.3849 765.081 25.9104C765.331 26.4234 765.456 27.0052 765.456 27.6558C765.456 28.4565 765.262 29.1885 764.874 29.8516C764.499 30.5022 763.98 31.0277 763.317 31.4281C762.666 31.8159 761.934 32.0099 761.121 32.0099ZM769.225 31.7847V20.3551H767.386V19.2103L770.539 18.8725V31.7847H769.225ZM773.018 31.7847L779.624 25.1221C779.812 24.9344 779.968 24.7343 780.093 24.5216C780.219 24.2963 780.312 24.0649 780.375 23.8272C780.437 23.5769 780.469 23.3204 780.469 23.0577C780.469 22.5197 780.337 22.038 780.075 21.6126C779.812 21.1746 779.455 20.8243 779.005 20.5616C778.554 20.2988 778.054 20.1674 777.503 20.1674C776.928 20.1674 776.409 20.3176 775.946 20.6179C775.483 20.9182 775.126 21.306 774.876 21.7815C774.626 22.2444 774.526 22.7386 774.576 23.2641H773.243C773.206 22.4133 773.381 21.6564 773.769 20.9932C774.169 20.3176 774.701 19.7858 775.364 19.398C776.04 19.0101 776.772 18.8162 777.56 18.8162C778.323 18.8162 779.03 19.0038 779.681 19.3792C780.344 19.742 780.875 20.2425 781.276 20.8806C781.676 21.5187 781.876 22.2507 781.876 23.0764C781.876 23.4643 781.826 23.8334 781.726 24.1837C781.639 24.5341 781.501 24.8656 781.313 25.1784C781.138 25.4912 780.913 25.7853 780.638 26.0605L776.19 30.4709H782.008V31.7847H773.018ZM784.696 36.4766V23.5269H786.01V24.9344C786.372 24.459 786.81 24.0774 787.323 23.7896C787.849 23.4893 788.449 23.3392 789.125 23.3392C789.901 23.3392 790.589 23.5456 791.19 23.9585C791.803 24.3589 792.278 24.8844 792.616 25.535C792.966 26.1856 793.141 26.8925 793.141 27.6558C793.141 28.4065 792.966 29.1134 792.616 29.7765C792.278 30.4271 791.803 30.9589 791.19 31.3718C790.589 31.7722 789.901 31.9723 789.125 31.9723C788.675 31.9723 788.256 31.9098 787.868 31.7847C787.492 31.647 787.148 31.4594 786.835 31.2216C786.535 30.9714 786.26 30.6899 786.01 30.3771V36.4766H784.696ZM788.919 30.6586C789.482 30.6586 789.982 30.521 790.42 30.2457C790.858 29.9579 791.202 29.5888 791.452 29.1384C791.703 28.6755 791.828 28.1813 791.828 27.6558C791.828 27.1178 791.703 26.6235 791.452 26.1731C791.202 25.7227 790.858 25.3598 790.42 25.0846C789.982 24.7968 789.482 24.6529 788.919 24.6529C788.356 24.6529 787.855 24.7968 787.417 25.0846C786.979 25.3598 786.635 25.7227 786.385 26.1731C786.135 26.6235 786.01 27.1178 786.01 27.6558C786.01 28.1813 786.135 28.6755 786.385 29.1384C786.635 29.5888 786.979 29.9579 787.417 30.2457C787.855 30.521 788.356 30.6586 788.919 30.6586ZM793.877 31.7847L796.767 27.637L793.877 23.5269H795.547L797.611 26.6986L799.676 23.5269H801.346L798.456 27.6558L801.346 31.7847H799.676L797.611 28.5754L795.547 31.7847H793.877ZM810.2 35.9886C809.863 35.5007 809.556 34.8939 809.281 34.1682C809.005 33.455 808.768 32.673 808.568 31.8222C808.367 30.9839 808.211 30.1331 808.098 29.2698C807.998 28.4065 807.948 27.5995 807.948 26.8488C807.948 25.8103 808.03 24.7405 808.192 23.6395C808.367 22.5384 808.618 21.4749 808.943 20.449C809.281 19.423 809.694 18.5096 810.182 17.7089H811.458C810.932 18.5972 810.501 19.5669 810.163 20.6179C809.838 21.6689 809.594 22.7324 809.431 23.8084C809.281 24.8844 809.206 25.9041 809.206 26.8675C809.206 27.856 809.281 28.8819 809.431 29.9454C809.594 31.0089 809.838 32.0537 810.163 33.0796C810.488 34.1181 810.914 35.0878 811.439 35.9886H810.2ZM817.419 31.9723C816.643 31.9723 815.949 31.7722 815.336 31.3718C814.735 30.9589 814.26 30.4271 813.909 29.7765C813.571 29.1134 813.402 28.4065 813.402 27.6558C813.402 26.8925 813.571 26.1856 813.909 25.535C814.26 24.8844 814.735 24.3589 815.336 23.9585C815.949 23.5456 816.643 23.3392 817.419 23.3392C818.094 23.3392 818.701 23.4768 819.239 23.7521C819.777 24.0273 820.209 24.4215 820.534 24.9344V17.7089H821.848V31.7847H820.534V30.3771C820.296 30.6899 820.021 30.9714 819.708 31.2216C819.396 31.4594 819.045 31.647 818.657 31.7847C818.282 31.9098 817.869 31.9723 817.419 31.9723ZM817.625 30.6586C818.188 30.6586 818.689 30.521 819.127 30.2457C819.565 29.9579 819.909 29.5888 820.159 29.1384C820.409 28.6755 820.534 28.1813 820.534 27.6558C820.534 27.1178 820.409 26.6235 820.159 26.1731C819.909 25.7227 819.565 25.3598 819.127 25.0846C818.689 24.7968 818.188 24.6529 817.625 24.6529C817.062 24.6529 816.562 24.7968 816.124 25.0846C815.686 25.3598 815.342 25.7227 815.092 26.1731C814.841 26.6235 814.716 27.1178 814.716 27.6558C814.716 28.1813 814.841 28.6755 815.092 29.1384C815.342 29.5888 815.686 29.9579 816.124 30.2457C816.562 30.521 817.062 30.6586 817.625 30.6586ZM828.427 31.916C827.602 31.916 826.845 31.7409 826.156 31.3905C825.481 31.0277 824.937 30.5272 824.524 29.8891C824.111 29.2385 823.904 28.4815 823.904 27.6182C823.904 26.8175 824.098 26.0918 824.486 25.4412C824.874 24.7906 825.393 24.2713 826.044 23.8835C826.694 23.4956 827.42 23.3017 828.221 23.3017C828.997 23.3017 829.71 23.4956 830.36 23.8835C831.011 24.2713 831.537 24.7843 831.937 25.4224C832.337 26.0605 832.537 26.7674 832.537 27.5432V28.0687H824.73V26.8488H831.149C830.999 26.2232 830.648 25.6977 830.098 25.2723C829.56 24.8344 828.934 24.6154 828.221 24.6154C827.633 24.6154 827.114 24.753 826.663 25.0283C826.225 25.3035 825.881 25.6789 825.631 26.1543C825.381 26.6173 825.256 27.1428 825.256 27.7308C825.256 28.3064 825.399 28.8131 825.687 29.251C825.975 29.6764 826.344 30.008 826.795 30.2457C827.245 30.4834 827.72 30.6023 828.221 30.6023C828.609 30.6023 828.965 30.5585 829.291 30.4709C829.628 30.3833 829.935 30.252 830.21 30.0768C830.498 29.9016 830.755 29.6764 830.98 29.4012L831.974 30.2269C831.699 30.5773 831.361 30.8838 830.961 31.1466C830.573 31.3968 830.16 31.5907 829.722 31.7284C829.284 31.8535 828.853 31.916 828.427 31.916ZM835.522 31.7847V24.7468H833.664V23.5269H835.522V20.205C835.522 19.6169 835.61 19.1415 835.785 18.7786C835.973 18.4158 836.254 18.1468 836.63 17.9716C837.017 17.7965 837.505 17.7089 838.093 17.7089H838.656V18.9288H837.906C837.543 18.9288 837.274 19.0101 837.099 19.1728C836.924 19.3354 836.836 19.5982 836.836 19.961V23.5269H838.844V24.7468H836.836V31.7847H835.522ZM843.703 31.9723C842.927 31.9723 842.233 31.7722 841.62 31.3718C841.019 30.9589 840.544 30.4271 840.194 29.7765C839.856 29.1134 839.687 28.4065 839.687 27.6558C839.687 26.8925 839.856 26.1856 840.194 25.535C840.544 24.8844 841.019 24.3589 841.62 23.9585C842.233 23.5456 842.927 23.3392 843.703 23.3392C844.379 23.3392 844.973 23.4893 845.486 23.7896C846.012 24.0774 846.456 24.459 846.819 24.9344V23.5269H848.132V31.7847H846.819V30.3771C846.581 30.6899 846.306 30.9714 845.993 31.2216C845.68 31.4594 845.33 31.647 844.942 31.7847C844.566 31.9098 844.154 31.9723 843.703 31.9723ZM843.91 30.6586C844.473 30.6586 844.973 30.521 845.411 30.2457C845.849 29.9579 846.193 29.5888 846.443 29.1384C846.693 28.6755 846.819 28.1813 846.819 27.6558C846.819 27.1178 846.693 26.6235 846.443 26.1731C846.193 25.7227 845.849 25.3598 845.411 25.0846C844.973 24.7968 844.473 24.6529 843.91 24.6529C843.347 24.6529 842.846 24.7968 842.408 25.0846C841.97 25.3598 841.626 25.7227 841.376 26.1731C841.126 26.6235 841.001 27.1178 841.001 27.6558C841.001 28.1813 841.126 28.6755 841.376 29.1384C841.626 29.5888 841.97 29.9579 842.408 30.2457C842.846 30.521 843.347 30.6586 843.91 30.6586ZM853.714 31.9536C853.064 31.9536 852.519 31.8097 852.082 31.5219C851.644 31.2216 851.312 30.8275 851.087 30.3396C850.874 29.8516 850.768 29.3011 850.768 28.688V23.5269H852.082V28.688C852.082 29.0133 852.125 29.3261 852.213 29.6264C852.313 29.9267 852.476 30.1706 852.701 30.3583C852.939 30.546 853.258 30.6398 853.658 30.6398C854.396 30.6398 854.966 30.4772 855.366 30.1519C855.779 29.8266 856.067 29.3887 856.229 28.8381C856.392 28.2751 856.473 27.6558 856.473 26.9801V23.5269H857.787V31.7847H856.473V30.3771C856.16 30.9026 855.773 31.2967 855.31 31.5595C854.859 31.8222 854.327 31.9536 853.714 31.9536ZM860.319 31.7847V17.7089H861.633V31.7847H860.319ZM865.569 31.7847V24.7468H863.504V23.5269H865.569V20.3176H866.882V23.5269H868.928V24.7468H866.882V31.7847H865.569ZM870.615 35.9886C871.14 35.0878 871.566 34.1119 871.891 33.0609C872.229 32.0224 872.473 30.9714 872.623 29.9079C872.773 28.8319 872.848 27.8184 872.848 26.8675C872.848 25.8666 872.767 24.8281 872.604 23.7521C872.441 22.6761 872.191 21.6188 871.853 20.5803C871.528 19.5293 871.109 18.5722 870.596 17.7089H871.872C872.573 19.1853 873.08 20.5303 873.392 21.7439C873.705 22.9576 873.899 24.0023 873.974 24.8781C874.062 25.7415 874.105 26.3921 874.105 26.83C874.105 27.5557 874.049 28.3502 873.937 29.2135C873.836 30.0643 873.686 30.9151 873.486 31.7659C873.286 32.6167 873.048 33.4112 872.773 34.1494C872.498 34.8876 872.191 35.5007 871.853 35.9886H870.615Z" fill="#444444"/>
<path d="M395.95 89.3732C395.518 89.3732 395.11 89.3075 394.725 89.1761C394.35 89.0447 394.017 88.8524 393.726 88.599C393.444 88.3456 393.219 88.0454 393.05 87.6982C392.891 87.3416 392.811 86.9428 392.811 86.5017C392.811 86.0044 392.957 85.5352 393.247 85.0941C393.538 84.6531 393.928 84.3012 394.416 84.0385C394.04 83.7194 393.754 83.391 393.557 83.0531C393.369 82.7153 393.276 82.3587 393.276 81.9834C393.276 81.608 393.341 81.2702 393.473 80.9699C393.613 80.6603 393.806 80.3975 394.05 80.1817C394.294 79.9659 394.575 79.8016 394.894 79.689C395.223 79.567 395.575 79.506 395.95 79.506C396.335 79.506 396.687 79.567 397.006 79.689C397.334 79.8016 397.616 79.9705 397.85 80.1958C398.094 80.4116 398.282 80.6743 398.413 80.984C398.554 81.2843 398.624 81.6221 398.624 81.9975C398.624 82.3634 398.531 82.7153 398.343 83.0531C398.155 83.391 397.869 83.7194 397.484 84.0385C397.982 84.3012 398.371 84.6531 398.653 85.0941C398.943 85.5352 399.089 85.995 399.089 86.4736C399.089 86.9146 399.009 87.3134 398.85 87.67C398.69 88.0266 398.465 88.3316 398.174 88.5849C397.892 88.8383 397.559 89.0354 397.175 89.1761C396.799 89.3075 396.391 89.3732 395.95 89.3732ZM395.95 88.4301C396.353 88.4301 396.715 88.3363 397.034 88.1486C397.353 87.9515 397.606 87.6982 397.794 87.3885C397.982 87.0788 398.075 86.7457 398.075 86.3891C398.075 86.0138 397.977 85.6806 397.78 85.3897C397.583 85.0894 397.32 84.8548 396.992 84.6859C396.673 84.517 396.325 84.4326 395.95 84.4326C395.575 84.4326 395.223 84.517 394.894 84.6859C394.575 84.8548 394.317 85.0894 394.12 85.3897C393.923 85.6806 393.825 86.0138 393.825 86.3891C393.825 86.7457 393.918 87.0788 394.106 87.3885C394.294 87.6982 394.547 87.9515 394.866 88.1486C395.185 88.3363 395.546 88.4301 395.95 88.4301ZM395.95 83.6303C396.429 83.6303 396.823 83.4754 397.132 83.1658C397.451 82.8467 397.611 82.4713 397.611 82.0397C397.611 81.5799 397.447 81.2045 397.118 80.9136C396.799 80.6133 396.41 80.4632 395.95 80.4632C395.49 80.4632 395.096 80.6133 394.768 80.9136C394.449 81.2045 394.289 81.5799 394.289 82.0397C394.289 82.4713 394.444 82.8467 394.754 83.1658C395.073 83.4754 395.471 83.6303 395.95 83.6303ZM403.598 89.3591C402.998 89.3591 402.486 89.2137 402.064 88.9228C401.651 88.6319 401.318 88.2471 401.065 87.7685C400.821 87.2806 400.642 86.7457 400.53 86.1639C400.417 85.5821 400.361 85.005 400.361 84.4326C400.361 83.9728 400.394 83.5083 400.459 83.0391C400.534 82.5699 400.647 82.1241 400.797 81.7019C400.957 81.2796 401.159 80.9042 401.402 80.5758C401.656 80.2474 401.961 79.9893 402.317 79.8016C402.683 79.6046 403.11 79.506 403.598 79.506C404.086 79.506 404.509 79.6046 404.865 79.8016C405.231 79.9893 405.536 80.2474 405.78 80.5758C406.033 80.9042 406.235 81.2796 406.385 81.7019C406.545 82.1241 406.657 82.5699 406.723 83.0391C406.798 83.5083 406.836 83.9728 406.836 84.4326C406.836 85.005 406.779 85.5821 406.667 86.1639C406.554 86.7457 406.371 87.2806 406.118 87.7685C405.874 88.2471 405.545 88.6319 405.133 88.9228C404.72 89.2137 404.208 89.3591 403.598 89.3591ZM403.556 88.3597C403.95 88.3597 404.288 88.2377 404.57 87.9938C404.86 87.7404 405.1 87.4213 405.287 87.0366C405.484 86.6425 405.625 86.2202 405.71 85.7698C405.804 85.31 405.85 84.8783 405.85 84.4748C405.85 84.015 405.804 83.5552 405.71 83.0954C405.625 82.6262 405.489 82.1945 405.301 81.8004C405.123 81.4063 404.889 81.0919 404.598 80.8573C404.307 80.6133 403.964 80.4914 403.57 80.4914C403.176 80.4914 402.838 80.6087 402.557 80.8432C402.275 81.0685 402.045 81.3687 401.867 81.7441C401.689 82.1101 401.557 82.5136 401.473 82.9546C401.388 83.3863 401.346 83.8132 401.346 84.2355C401.346 84.5264 401.36 84.8548 401.388 85.2208C401.417 85.5868 401.473 85.9528 401.557 86.3187C401.651 86.6847 401.778 87.0225 401.937 87.3322C402.097 87.6419 402.308 87.8905 402.571 88.0782C402.843 88.2659 403.171 88.3597 403.556 88.3597ZM408.519 92.7514V83.0391H409.504V84.0948C409.776 83.7382 410.105 83.452 410.489 83.2361C410.884 83.0109 411.334 82.8983 411.841 82.8983C412.422 82.8983 412.939 83.0531 413.389 83.3628C413.849 83.6631 414.205 84.0572 414.459 84.5452C414.722 85.0331 414.853 85.5633 414.853 86.1357C414.853 86.6988 414.722 87.229 414.459 87.7263C414.205 88.2143 413.849 88.6131 413.389 88.9228C412.939 89.223 412.422 89.3732 411.841 89.3732C411.503 89.3732 411.188 89.3263 410.898 89.2324C410.616 89.1292 410.358 88.9884 410.123 88.8101C409.898 88.6225 409.692 88.4113 409.504 88.1767V92.7514H408.519ZM411.686 88.3879C412.108 88.3879 412.483 88.2847 412.812 88.0782C413.14 87.8624 413.398 87.5856 413.586 87.2477C413.774 86.9005 413.868 86.5299 413.868 86.1357C413.868 85.7322 413.774 85.3616 413.586 85.0238C413.398 84.6859 413.14 84.4138 412.812 84.2074C412.483 83.9915 412.108 83.8836 411.686 83.8836C411.264 83.8836 410.888 83.9915 410.56 84.2074C410.231 84.4138 409.973 84.6859 409.786 85.0238C409.598 85.3616 409.504 85.7322 409.504 86.1357C409.504 86.5299 409.598 86.9005 409.786 87.2477C409.973 87.5856 410.231 87.8624 410.56 88.0782C410.888 88.2847 411.264 88.3879 411.686 88.3879ZM415.404 89.2324L417.572 86.1217L415.404 83.0391H416.657L418.205 85.4179L419.754 83.0391H421.007L418.839 86.1357L421.007 89.2324H419.754L418.205 86.8255L416.657 89.2324H415.404Z" fill="#666666"/>
<path d="M511.372 89.2324L514.3 85.7135L514.018 85.8965C513.361 85.8683 512.779 85.7182 512.273 85.446C511.775 85.1739 511.386 84.8032 511.104 84.334C510.823 83.8649 510.682 83.33 510.682 82.7294C510.682 82.1195 510.823 81.5705 511.104 81.0825C511.395 80.5946 511.785 80.2098 512.273 79.9283C512.761 79.6468 513.305 79.506 513.905 79.506C514.497 79.506 515.036 79.6468 515.524 79.9283C516.012 80.2098 516.402 80.5946 516.692 81.0825C516.983 81.5611 517.129 82.1007 517.129 82.7013C517.129 83.086 517.068 83.4473 516.946 83.7851C516.833 84.1135 516.655 84.4232 516.411 84.7141L512.667 89.2324H511.372ZM513.891 84.883C514.286 84.883 514.651 84.7845 514.989 84.5874C515.337 84.3903 515.613 84.1276 515.82 83.7992C516.026 83.4707 516.129 83.1048 516.129 82.7013C516.129 82.2884 516.026 81.9177 515.82 81.5893C515.613 81.2514 515.341 80.984 515.003 80.7869C514.666 80.5899 514.295 80.4914 513.891 80.4914C513.469 80.4914 513.089 80.5899 512.751 80.7869C512.423 80.984 512.16 81.2468 511.963 81.5752C511.775 81.9036 511.681 82.2649 511.681 82.659C511.681 83.0625 511.78 83.4332 511.977 83.771C512.174 84.1088 512.437 84.381 512.765 84.5874C513.103 84.7845 513.478 84.883 513.891 84.883ZM521.328 89.3732C520.896 89.3732 520.488 89.3075 520.103 89.1761C519.728 89.0447 519.395 88.8524 519.104 88.599C518.822 88.3456 518.597 88.0454 518.428 87.6982C518.269 87.3416 518.189 86.9428 518.189 86.5017C518.189 86.0044 518.334 85.5352 518.625 85.0941C518.916 84.6531 519.306 84.3012 519.794 84.0385C519.418 83.7194 519.132 83.391 518.935 83.0531C518.747 82.7153 518.654 82.3587 518.654 81.9834C518.654 81.608 518.719 81.2702 518.851 80.9699C518.991 80.6603 519.184 80.3975 519.428 80.1817C519.672 79.9659 519.953 79.8016 520.272 79.689C520.601 79.567 520.953 79.506 521.328 79.506C521.713 79.506 522.065 79.567 522.384 79.689C522.712 79.8016 522.994 79.9705 523.228 80.1958C523.472 80.4116 523.66 80.6743 523.791 80.984C523.932 81.2843 524.002 81.6221 524.002 81.9975C524.002 82.3634 523.908 82.7153 523.721 83.0531C523.533 83.391 523.247 83.7194 522.862 84.0385C523.36 84.3012 523.749 84.6531 524.03 85.0941C524.321 85.5352 524.467 85.995 524.467 86.4736C524.467 86.9146 524.387 87.3134 524.228 87.67C524.068 88.0266 523.843 88.3316 523.552 88.5849C523.27 88.8383 522.937 89.0354 522.553 89.1761C522.177 89.3075 521.769 89.3732 521.328 89.3732ZM521.328 88.4301C521.731 88.4301 522.093 88.3363 522.412 88.1486C522.731 87.9515 522.984 87.6982 523.172 87.3885C523.36 87.0788 523.453 86.7457 523.453 86.3891C523.453 86.0138 523.355 85.6806 523.158 85.3897C522.961 85.0894 522.698 84.8548 522.37 84.6859C522.05 84.517 521.703 84.4326 521.328 84.4326C520.953 84.4326 520.601 84.517 520.272 84.6859C519.953 84.8548 519.695 85.0894 519.498 85.3897C519.301 85.6806 519.202 86.0138 519.202 86.3891C519.202 86.7457 519.296 87.0788 519.484 87.3885C519.672 87.6982 519.925 87.9515 520.244 88.1486C520.563 88.3363 520.924 88.4301 521.328 88.4301ZM521.328 83.6303C521.806 83.6303 522.201 83.4754 522.51 83.1658C522.829 82.8467 522.989 82.4713 522.989 82.0397C522.989 81.5799 522.825 81.2045 522.496 80.9136C522.177 80.6133 521.788 80.4632 521.328 80.4632C520.868 80.4632 520.474 80.6133 520.146 80.9136C519.826 81.2045 519.667 81.5799 519.667 82.0397C519.667 82.4713 519.822 82.8467 520.131 83.1658C520.451 83.4754 520.849 83.6303 521.328 83.6303ZM526.02 92.7514V83.0391H527.006V84.0948C527.278 83.7382 527.606 83.452 527.991 83.2361C528.385 83.0109 528.835 82.8983 529.342 82.8983C529.924 82.8983 530.44 83.0531 530.891 83.3628C531.35 83.6631 531.707 84.0572 531.96 84.5452C532.223 85.0331 532.354 85.5633 532.354 86.1357C532.354 86.6988 532.223 87.229 531.96 87.7263C531.707 88.2143 531.35 88.6131 530.891 88.9228C530.44 89.223 529.924 89.3732 529.342 89.3732C529.004 89.3732 528.69 89.3263 528.399 89.2324C528.118 89.1292 527.86 88.9884 527.625 88.8101C527.4 88.6225 527.193 88.4113 527.006 88.1767V92.7514H526.02ZM529.187 88.3879C529.61 88.3879 529.985 88.2847 530.313 88.0782C530.642 87.8624 530.9 87.5856 531.088 87.2477C531.275 86.9005 531.369 86.5299 531.369 86.1357C531.369 85.7322 531.275 85.3616 531.088 85.0238C530.9 84.6859 530.642 84.4138 530.313 84.2074C529.985 83.9915 529.61 83.8836 529.187 83.8836C528.765 83.8836 528.39 83.9915 528.061 84.2074C527.733 84.4138 527.475 84.6859 527.287 85.0238C527.099 85.3616 527.006 85.7322 527.006 86.1357C527.006 86.5299 527.099 86.9005 527.287 87.2477C527.475 87.5856 527.733 87.8624 528.061 88.0782C528.39 88.2847 528.765 88.3879 529.187 88.3879ZM532.906 89.2324L535.074 86.1217L532.906 83.0391H534.159L535.707 85.4179L537.255 83.0391H538.508L536.34 86.1357L538.508 89.2324H537.255L535.707 86.8255L534.159 89.2324H532.906Z" fill="#666666"/>
<path d="M1091.73 89.2324L1094.66 85.7135L1094.38 85.8965C1093.72 85.8683 1093.14 85.7182 1092.63 85.446C1092.13 85.1739 1091.74 84.8032 1091.46 84.334C1091.18 83.8649 1091.04 83.33 1091.04 82.7294C1091.04 82.1195 1091.18 81.5705 1091.46 81.0825C1091.75 80.5946 1092.14 80.2098 1092.63 79.9283C1093.12 79.6468 1093.66 79.506 1094.26 79.506C1094.85 79.506 1095.39 79.6468 1095.88 79.9283C1096.37 80.2098 1096.76 80.5946 1097.05 81.0825C1097.34 81.5611 1097.49 82.1007 1097.49 82.7013C1097.49 83.086 1097.43 83.4473 1097.3 83.7851C1097.19 84.1135 1097.01 84.4232 1096.77 84.7141L1093.02 89.2324H1091.73ZM1094.25 84.883C1094.64 84.883 1095.01 84.7845 1095.35 84.5874C1095.69 84.3903 1095.97 84.1276 1096.18 83.7992C1096.38 83.4707 1096.49 83.1048 1096.49 82.7013C1096.49 82.2884 1096.38 81.9177 1096.18 81.5893C1095.97 81.2514 1095.7 80.984 1095.36 80.7869C1095.02 80.5899 1094.65 80.4914 1094.25 80.4914C1093.83 80.4914 1093.45 80.5899 1093.11 80.7869C1092.78 80.984 1092.52 81.2468 1092.32 81.5752C1092.13 81.9036 1092.04 82.2649 1092.04 82.659C1092.04 83.0625 1092.14 83.4332 1092.33 83.771C1092.53 84.1088 1092.79 84.381 1093.12 84.5874C1093.46 84.7845 1093.84 84.883 1094.25 84.883ZM1101.69 89.3732C1101.25 89.3732 1100.85 89.3075 1100.46 89.1761C1100.09 89.0447 1099.75 88.8524 1099.46 88.599C1099.18 88.3456 1098.95 88.0454 1098.79 87.6982C1098.63 87.3416 1098.55 86.9428 1098.55 86.5017C1098.55 86.0044 1098.69 85.5352 1098.98 85.0941C1099.27 84.6531 1099.66 84.3012 1100.15 84.0385C1099.78 83.7194 1099.49 83.391 1099.29 83.0531C1099.1 82.7153 1099.01 82.3587 1099.01 81.9834C1099.01 81.608 1099.08 81.2702 1099.21 80.9699C1099.35 80.6603 1099.54 80.3975 1099.79 80.1817C1100.03 79.9659 1100.31 79.8016 1100.63 79.689C1100.96 79.567 1101.31 79.506 1101.69 79.506C1102.07 79.506 1102.42 79.567 1102.74 79.689C1103.07 79.8016 1103.35 79.9705 1103.59 80.1958C1103.83 80.4116 1104.02 80.6743 1104.15 80.984C1104.29 81.2843 1104.36 81.6221 1104.36 81.9975C1104.36 82.3634 1104.27 82.7153 1104.08 83.0531C1103.89 83.391 1103.6 83.7194 1103.22 84.0385C1103.72 84.3012 1104.11 84.6531 1104.39 85.0941C1104.68 85.5352 1104.82 85.995 1104.82 86.4736C1104.82 86.9146 1104.74 87.3134 1104.58 87.67C1104.43 88.0266 1104.2 88.3316 1103.91 88.5849C1103.63 88.8383 1103.29 89.0354 1102.91 89.1761C1102.53 89.3075 1102.13 89.3732 1101.69 89.3732ZM1101.69 88.4301C1102.09 88.4301 1102.45 88.3363 1102.77 88.1486C1103.09 87.9515 1103.34 87.6982 1103.53 87.3885C1103.72 87.0788 1103.81 86.7457 1103.81 86.3891C1103.81 86.0138 1103.71 85.6806 1103.52 85.3897C1103.32 85.0894 1103.06 84.8548 1102.73 84.6859C1102.41 84.517 1102.06 84.4326 1101.69 84.4326C1101.31 84.4326 1100.96 84.517 1100.63 84.6859C1100.31 84.8548 1100.05 85.0894 1099.86 85.3897C1099.66 85.6806 1099.56 86.0138 1099.56 86.3891C1099.56 86.7457 1099.65 87.0788 1099.84 87.3885C1100.03 87.6982 1100.28 87.9515 1100.6 88.1486C1100.92 88.3363 1101.28 88.4301 1101.69 88.4301ZM1101.69 83.6303C1102.16 83.6303 1102.56 83.4754 1102.87 83.1658C1103.19 82.8467 1103.35 82.4713 1103.35 82.0397C1103.35 81.5799 1103.18 81.2045 1102.85 80.9136C1102.53 80.6133 1102.15 80.4632 1101.69 80.4632C1101.23 80.4632 1100.83 80.6133 1100.5 80.9136C1100.18 81.2045 1100.02 81.5799 1100.02 82.0397C1100.02 82.4713 1100.18 82.8467 1100.49 83.1658C1100.81 83.4754 1101.21 83.6303 1101.69 83.6303ZM1106.38 92.7514V83.0391H1107.36V84.0948C1107.64 83.7382 1107.96 83.452 1108.35 83.2361C1108.74 83.0109 1109.19 82.8983 1109.7 82.8983C1110.28 82.8983 1110.8 83.0531 1111.25 83.3628C1111.71 83.6631 1112.06 84.0572 1112.32 84.5452C1112.58 85.0331 1112.71 85.5633 1112.71 86.1357C1112.71 86.6988 1112.58 87.229 1112.32 87.7263C1112.06 88.2143 1111.71 88.6131 1111.25 88.9228C1110.8 89.223 1110.28 89.3732 1109.7 89.3732C1109.36 89.3732 1109.05 89.3263 1108.76 89.2324C1108.48 89.1292 1108.22 88.9884 1107.98 88.8101C1107.76 88.6225 1107.55 88.4113 1107.36 88.1767V92.7514H1106.38ZM1109.54 88.3879C1109.97 88.3879 1110.34 88.2847 1110.67 88.0782C1111 87.8624 1111.26 87.5856 1111.45 87.2477C1111.63 86.9005 1111.73 86.5299 1111.73 86.1357C1111.73 85.7322 1111.63 85.3616 1111.45 85.0238C1111.26 84.6859 1111 84.4138 1110.67 84.2074C1110.34 83.9915 1109.97 83.8836 1109.54 83.8836C1109.12 83.8836 1108.75 83.9915 1108.42 84.2074C1108.09 84.4138 1107.83 84.6859 1107.64 85.0238C1107.46 85.3616 1107.36 85.7322 1107.36 86.1357C1107.36 86.5299 1107.46 86.9005 1107.64 87.2477C1107.83 87.5856 1108.09 87.8624 1108.42 88.0782C1108.75 88.2847 1109.12 88.3879 1109.54 88.3879ZM1113.26 89.2324L1115.43 86.1217L1113.26 83.0391H1114.52L1116.06 85.4179L1117.61 83.0391H1118.87L1116.7 86.1357L1118.87 89.2324H1117.61L1116.06 86.8255L1114.52 89.2324H1113.26Z" fill="#666666"/>
<path d="M1206.35 89.3732C1205.92 89.3732 1205.51 89.3075 1205.13 89.1761C1204.75 89.0447 1204.42 88.8524 1204.13 88.599C1203.84 88.3456 1203.62 88.0454 1203.45 87.6982C1203.29 87.3416 1203.21 86.9428 1203.21 86.5017C1203.21 86.0044 1203.36 85.5352 1203.65 85.0941C1203.94 84.6531 1204.33 84.3012 1204.82 84.0385C1204.44 83.7194 1204.15 83.391 1203.96 83.0531C1203.77 82.7153 1203.68 82.3587 1203.68 81.9834C1203.68 81.608 1203.74 81.2702 1203.87 80.9699C1204.01 80.6603 1204.21 80.3975 1204.45 80.1817C1204.69 79.9659 1204.98 79.8016 1205.29 79.689C1205.62 79.567 1205.98 79.506 1206.35 79.506C1206.74 79.506 1207.09 79.567 1207.41 79.689C1207.73 79.8016 1208.02 79.9705 1208.25 80.1958C1208.49 80.4116 1208.68 80.6743 1208.81 80.984C1208.95 81.2843 1209.02 81.6221 1209.02 81.9975C1209.02 82.3634 1208.93 82.7153 1208.74 83.0531C1208.56 83.391 1208.27 83.7194 1207.88 84.0385C1208.38 84.3012 1208.77 84.6531 1209.05 85.0941C1209.34 85.5352 1209.49 85.995 1209.49 86.4736C1209.49 86.9146 1209.41 87.3134 1209.25 87.67C1209.09 88.0266 1208.87 88.3316 1208.57 88.5849C1208.29 88.8383 1207.96 89.0354 1207.57 89.1761C1207.2 89.3075 1206.79 89.3732 1206.35 89.3732ZM1206.35 88.4301C1206.75 88.4301 1207.12 88.3363 1207.43 88.1486C1207.75 87.9515 1208.01 87.6982 1208.19 87.3885C1208.38 87.0788 1208.48 86.7457 1208.48 86.3891C1208.48 86.0138 1208.38 85.6806 1208.18 85.3897C1207.98 85.0894 1207.72 84.8548 1207.39 84.6859C1207.07 84.517 1206.73 84.4326 1206.35 84.4326C1205.98 84.4326 1205.62 84.517 1205.29 84.6859C1204.98 84.8548 1204.72 85.0894 1204.52 85.3897C1204.32 85.6806 1204.22 86.0138 1204.22 86.3891C1204.22 86.7457 1204.32 87.0788 1204.51 87.3885C1204.69 87.6982 1204.95 87.9515 1205.27 88.1486C1205.59 88.3363 1205.95 88.4301 1206.35 88.4301ZM1206.35 83.6303C1206.83 83.6303 1207.22 83.4754 1207.53 83.1658C1207.85 82.8467 1208.01 82.4713 1208.01 82.0397C1208.01 81.5799 1207.85 81.2045 1207.52 80.9136C1207.2 80.6133 1206.81 80.4632 1206.35 80.4632C1205.89 80.4632 1205.5 80.6133 1205.17 80.9136C1204.85 81.2045 1204.69 81.5799 1204.69 82.0397C1204.69 82.4713 1204.84 82.8467 1205.15 83.1658C1205.47 83.4754 1205.87 83.6303 1206.35 83.6303ZM1214 89.3591C1213.4 89.3591 1212.89 89.2137 1212.46 88.9228C1212.05 88.6319 1211.72 88.2471 1211.47 87.7685C1211.22 87.2806 1211.04 86.7457 1210.93 86.1639C1210.82 85.5821 1210.76 85.005 1210.76 84.4326C1210.76 83.9728 1210.79 83.5083 1210.86 83.0391C1210.93 82.5699 1211.05 82.1241 1211.2 81.7019C1211.36 81.2796 1211.56 80.9042 1211.8 80.5758C1212.06 80.2474 1212.36 79.9893 1212.72 79.8016C1213.08 79.6046 1213.51 79.506 1214 79.506C1214.49 79.506 1214.91 79.6046 1215.27 79.8016C1215.63 79.9893 1215.94 80.2474 1216.18 80.5758C1216.43 80.9042 1216.64 81.2796 1216.79 81.7019C1216.95 82.1241 1217.06 82.5699 1217.12 83.0391C1217.2 83.5083 1217.24 83.9728 1217.24 84.4326C1217.24 85.005 1217.18 85.5821 1217.07 86.1639C1216.95 86.7457 1216.77 87.2806 1216.52 87.7685C1216.27 88.2471 1215.95 88.6319 1215.53 88.9228C1215.12 89.2137 1214.61 89.3591 1214 89.3591ZM1213.96 88.3597C1214.35 88.3597 1214.69 88.2377 1214.97 87.9938C1215.26 87.7404 1215.5 87.4213 1215.69 87.0366C1215.88 86.6425 1216.03 86.2202 1216.11 85.7698C1216.2 85.31 1216.25 84.8783 1216.25 84.4748C1216.25 84.015 1216.2 83.5552 1216.11 83.0954C1216.03 82.6262 1215.89 82.1945 1215.7 81.8004C1215.52 81.4063 1215.29 81.0919 1215 80.8573C1214.71 80.6133 1214.36 80.4914 1213.97 80.4914C1213.58 80.4914 1213.24 80.6087 1212.96 80.8432C1212.68 81.0685 1212.45 81.3687 1212.27 81.7441C1212.09 82.1101 1211.96 82.5136 1211.87 82.9546C1211.79 83.3863 1211.75 83.8132 1211.75 84.2355C1211.75 84.5264 1211.76 84.8548 1211.79 85.2208C1211.82 85.5868 1211.87 85.9528 1211.96 86.3187C1212.05 86.6847 1212.18 87.0225 1212.34 87.3322C1212.5 87.6419 1212.71 87.8905 1212.97 88.0782C1213.24 88.2659 1213.57 88.3597 1213.96 88.3597ZM1218.92 92.7514V83.0391H1219.9V84.0948C1220.18 83.7382 1220.51 83.452 1220.89 83.2361C1221.28 83.0109 1221.73 82.8983 1222.24 82.8983C1222.82 82.8983 1223.34 83.0531 1223.79 83.3628C1224.25 83.6631 1224.61 84.0572 1224.86 84.5452C1225.12 85.0331 1225.25 85.5633 1225.25 86.1357C1225.25 86.6988 1225.12 87.229 1224.86 87.7263C1224.61 88.2143 1224.25 88.6131 1223.79 88.9228C1223.34 89.223 1222.82 89.3732 1222.24 89.3732C1221.9 89.3732 1221.59 89.3263 1221.3 89.2324C1221.02 89.1292 1220.76 88.9884 1220.52 88.8101C1220.3 88.6225 1220.09 88.4113 1219.9 88.1767V92.7514H1218.92ZM1222.09 88.3879C1222.51 88.3879 1222.88 88.2847 1223.21 88.0782C1223.54 87.8624 1223.8 87.5856 1223.99 87.2477C1224.17 86.9005 1224.27 86.5299 1224.27 86.1357C1224.27 85.7322 1224.17 85.3616 1223.99 85.0238C1223.8 84.6859 1223.54 84.4138 1223.21 84.2074C1222.88 83.9915 1222.51 83.8836 1222.09 83.8836C1221.66 83.8836 1221.29 83.9915 1220.96 84.2074C1220.63 84.4138 1220.37 84.6859 1220.19 85.0238C1220 85.3616 1219.9 85.7322 1219.9 86.1357C1219.9 86.5299 1220 86.9005 1220.19 87.2477C1220.37 87.5856 1220.63 87.8624 1220.96 88.0782C1221.29 88.2847 1221.66 88.3879 1222.09 88.3879ZM1225.8 89.2324L1227.97 86.1217L1225.8 83.0391H1227.06L1228.61 85.4179L1230.15 83.0391H1231.41L1229.24 86.1357L1231.41 89.2324H1230.15L1228.61 86.8255L1227.06 89.2324H1225.8Z" fill="#666666"/>
<path d="M673.417 89.2324V80.6603H672.038V79.8016L674.403 79.5483V89.2324H673.417ZM679.091 89.3873C678.5 89.3873 677.961 89.2465 677.473 88.965C676.985 88.6835 676.595 88.3034 676.304 87.8248C676.013 87.3369 675.868 86.7926 675.868 86.1921C675.868 85.8073 675.929 85.4507 676.051 85.1223C676.173 84.7845 676.351 84.4701 676.586 84.1792L680.33 79.6609H681.625L678.697 83.1798L678.979 82.9968C679.636 83.025 680.213 83.1751 680.71 83.4473C681.217 83.7194 681.611 84.0901 681.892 84.5593C682.174 85.0191 682.315 85.5539 682.315 86.1639C682.315 86.7738 682.169 87.3228 681.878 87.8108C681.597 88.2987 681.212 88.6835 680.724 88.965C680.236 89.2465 679.692 89.3873 679.091 89.3873ZM679.105 88.4019C679.528 88.4019 679.903 88.3034 680.231 88.1064C680.569 87.9093 680.832 87.6465 681.02 87.3181C681.217 86.9897 681.315 86.6284 681.315 86.2343C681.315 85.8214 681.217 85.4507 681.02 85.1223C680.823 84.7845 680.56 84.517 680.231 84.32C679.903 84.1135 679.532 84.0103 679.119 84.0103C678.744 84.0103 678.383 84.1041 678.036 84.2918C677.688 84.4701 677.407 84.7235 677.191 85.0519C676.975 85.3803 676.867 85.7604 676.867 86.1921C676.867 86.6049 676.971 86.9803 677.177 87.3181C677.383 87.6465 677.656 87.9093 677.993 88.1064C678.341 88.3034 678.711 88.4019 679.105 88.4019ZM683.797 92.7514V83.0391H684.782V84.0948C685.055 83.7382 685.383 83.452 685.768 83.2361C686.162 83.0109 686.612 82.8983 687.119 82.8983C687.701 82.8983 688.217 83.0531 688.667 83.3628C689.127 83.6631 689.484 84.0572 689.737 84.5452C690 85.0331 690.131 85.5633 690.131 86.1357C690.131 86.6988 690 87.229 689.737 87.7263C689.484 88.2143 689.127 88.6131 688.667 88.9228C688.217 89.223 687.701 89.3732 687.119 89.3732C686.781 89.3732 686.467 89.3263 686.176 89.2324C685.894 89.1292 685.636 88.9884 685.402 88.8101C685.177 88.6225 684.97 88.4113 684.782 88.1767V92.7514H683.797ZM686.964 88.3879C687.386 88.3879 687.762 88.2847 688.09 88.0782C688.419 87.8624 688.677 87.5856 688.864 87.2477C689.052 86.9005 689.146 86.5299 689.146 86.1357C689.146 85.7322 689.052 85.3616 688.864 85.0238C688.677 84.6859 688.419 84.4138 688.09 84.2074C687.762 83.9915 687.386 83.8836 686.964 83.8836C686.542 83.8836 686.167 83.9915 685.838 84.2074C685.51 84.4138 685.252 84.6859 685.064 85.0238C684.876 85.3616 684.782 85.7322 684.782 86.1357C684.782 86.5299 684.876 86.9005 685.064 87.2477C685.252 87.5856 685.51 87.8624 685.838 88.0782C686.167 88.2847 686.542 88.3879 686.964 88.3879ZM690.683 89.2324L692.85 86.1217L690.683 83.0391H691.935L693.484 85.4179L695.032 83.0391H696.285L694.117 86.1357L696.285 89.2324H695.032L693.484 86.8255L691.935 89.2324H690.683Z" fill="#666666"/>
<path d="M737.642 89.2324V80.6603H736.262V79.8016L738.627 79.5483V89.2324H737.642ZM743.316 89.3873C742.725 89.3873 742.185 89.2465 741.697 88.965C741.209 88.6835 740.82 88.3034 740.529 87.8248C740.238 87.3369 740.093 86.7926 740.093 86.1921C740.093 85.8073 740.154 85.4507 740.276 85.1223C740.398 84.7845 740.576 84.4701 740.81 84.1792L744.555 79.6609H745.85L742.922 83.1798L743.203 82.9968C743.86 83.025 744.437 83.1751 744.935 83.4473C745.441 83.7194 745.835 84.0901 746.117 84.5593C746.398 85.0191 746.539 85.5539 746.539 86.1639C746.539 86.7738 746.394 87.3228 746.103 87.8108C745.821 88.2987 745.437 88.6835 744.949 88.965C744.461 89.2465 743.916 89.3873 743.316 89.3873ZM743.33 88.4019C743.752 88.4019 744.128 88.3034 744.456 88.1064C744.794 87.9093 745.057 87.6465 745.244 87.3181C745.441 86.9897 745.54 86.6284 745.54 86.2343C745.54 85.8214 745.441 85.4507 745.244 85.1223C745.047 84.7845 744.784 84.517 744.456 84.32C744.128 84.1135 743.757 84.0103 743.344 84.0103C742.969 84.0103 742.607 84.1041 742.26 84.2918C741.913 84.4701 741.631 84.7235 741.416 85.0519C741.2 85.3803 741.092 85.7604 741.092 86.1921C741.092 86.6049 741.195 86.9803 741.402 87.3181C741.608 87.6465 741.88 87.9093 742.218 88.1064C742.565 88.3034 742.936 88.4019 743.33 88.4019ZM748.022 92.7514V83.0391H749.007V84.0948C749.279 83.7382 749.608 83.452 749.992 83.2361C750.386 83.0109 750.837 82.8983 751.344 82.8983C751.925 82.8983 752.442 83.0531 752.892 83.3628C753.352 83.6631 753.708 84.0572 753.962 84.5452C754.224 85.0331 754.356 85.5633 754.356 86.1357C754.356 86.6988 754.224 87.229 753.962 87.7263C753.708 88.2143 753.352 88.6131 752.892 88.9228C752.442 89.223 751.925 89.3732 751.344 89.3732C751.006 89.3732 750.691 89.3263 750.401 89.2324C750.119 89.1292 749.861 88.9884 749.626 88.8101C749.401 88.6225 749.195 88.4113 749.007 88.1767V92.7514H748.022ZM751.189 88.3879C751.611 88.3879 751.986 88.2847 752.315 88.0782C752.643 87.8624 752.901 87.5856 753.089 87.2477C753.277 86.9005 753.371 86.5299 753.371 86.1357C753.371 85.7322 753.277 85.3616 753.089 85.0238C752.901 84.6859 752.643 84.4138 752.315 84.2074C751.986 83.9915 751.611 83.8836 751.189 83.8836C750.767 83.8836 750.391 83.9915 750.063 84.2074C749.734 84.4138 749.476 84.6859 749.289 85.0238C749.101 85.3616 749.007 85.7322 749.007 86.1357C749.007 86.5299 749.101 86.9005 749.289 87.2477C749.476 87.5856 749.734 87.8624 750.063 88.0782C750.391 88.2847 750.767 88.3879 751.189 88.3879ZM754.907 89.2324L757.075 86.1217L754.907 83.0391H756.16L757.708 85.4179L759.257 83.0391H760.509L758.342 86.1357L760.509 89.2324H759.257L757.708 86.8255L756.16 89.2324H754.907Z" fill="#666666"/>
<path d="M801.868 89.2324V80.6603H800.489V79.8016L802.854 79.5483V89.2324H801.868ZM807.542 89.3873C806.951 89.3873 806.412 89.2465 805.924 88.965C805.436 88.6835 805.046 88.3034 804.755 87.8248C804.465 87.3369 804.319 86.7926 804.319 86.1921C804.319 85.8073 804.38 85.4507 804.502 85.1223C804.624 84.7845 804.802 84.4701 805.037 84.1792L808.781 79.6609H810.076L807.148 83.1798L807.43 82.9968C808.087 83.025 808.664 83.1751 809.161 83.4473C809.668 83.7194 810.062 84.0901 810.344 84.5593C810.625 85.0191 810.766 85.5539 810.766 86.1639C810.766 86.7738 810.62 87.3228 810.329 87.8108C810.048 88.2987 809.663 88.6835 809.175 88.965C808.687 89.2465 808.143 89.3873 807.542 89.3873ZM807.557 88.4019C807.979 88.4019 808.354 88.3034 808.683 88.1064C809.02 87.9093 809.283 87.6465 809.471 87.3181C809.668 86.9897 809.766 86.6284 809.766 86.2343C809.766 85.8214 809.668 85.4507 809.471 85.1223C809.274 84.7845 809.011 84.517 808.683 84.32C808.354 84.1135 807.984 84.0103 807.571 84.0103C807.195 84.0103 806.834 84.1041 806.487 84.2918C806.14 84.4701 805.858 84.7235 805.642 85.0519C805.426 85.3803 805.318 85.7604 805.318 86.1921C805.318 86.6049 805.422 86.9803 805.628 87.3181C805.835 87.6465 806.107 87.9093 806.445 88.1064C806.792 88.3034 807.162 88.4019 807.557 88.4019ZM812.248 92.7514V83.0391H813.234V84.0948C813.506 83.7382 813.834 83.452 814.219 83.2361C814.613 83.0109 815.063 82.8983 815.57 82.8983C816.152 82.8983 816.668 83.0531 817.119 83.3628C817.578 83.6631 817.935 84.0572 818.188 84.5452C818.451 85.0331 818.582 85.5633 818.582 86.1357C818.582 86.6988 818.451 87.229 818.188 87.7263C817.935 88.2143 817.578 88.6131 817.119 88.9228C816.668 89.223 816.152 89.3732 815.57 89.3732C815.232 89.3732 814.918 89.3263 814.627 89.2324C814.346 89.1292 814.088 88.9884 813.853 88.8101C813.628 88.6225 813.421 88.4113 813.234 88.1767V92.7514H812.248ZM815.415 88.3879C815.838 88.3879 816.213 88.2847 816.541 88.0782C816.87 87.8624 817.128 87.5856 817.316 87.2477C817.503 86.9005 817.597 86.5299 817.597 86.1357C817.597 85.7322 817.503 85.3616 817.316 85.0238C817.128 84.6859 816.87 84.4138 816.541 84.2074C816.213 83.9915 815.838 83.8836 815.415 83.8836C814.993 83.8836 814.618 83.9915 814.289 84.2074C813.961 84.4138 813.703 84.6859 813.515 85.0238C813.327 85.3616 813.234 85.7322 813.234 86.1357C813.234 86.5299 813.327 86.9005 813.515 87.2477C813.703 87.5856 813.961 87.8624 814.289 88.0782C814.618 88.2847 814.993 88.3879 815.415 88.3879ZM819.134 89.2324L821.302 86.1217L819.134 83.0391H820.387L821.935 85.4179L823.483 83.0391H824.736L822.568 86.1357L824.736 89.2324H823.483L821.935 86.8255L820.387 89.2324H819.134Z" fill="#666666"/>
<path d="M866.093 89.2324V80.6603H864.714V79.8016L867.078 79.5483V89.2324H866.093ZM871.767 89.3873C871.176 89.3873 870.636 89.2465 870.148 88.965C869.66 88.6835 869.271 88.3034 868.98 87.8248C868.689 87.3369 868.544 86.7926 868.544 86.1921C868.544 85.8073 868.605 85.4507 868.727 85.1223C868.849 84.7845 869.027 84.4701 869.262 84.1792L873.006 79.6609H874.301L871.373 83.1798L871.654 82.9968C872.311 83.025 872.888 83.1751 873.386 83.4473C873.893 83.7194 874.287 84.0901 874.568 84.5593C874.85 85.0191 874.99 85.5539 874.99 86.1639C874.99 86.7738 874.845 87.3228 874.554 87.8108C874.273 88.2987 873.888 88.6835 873.4 88.965C872.912 89.2465 872.368 89.3873 871.767 89.3873ZM871.781 88.4019C872.203 88.4019 872.579 88.3034 872.907 88.1064C873.245 87.9093 873.508 87.6465 873.695 87.3181C873.893 86.9897 873.991 86.6284 873.991 86.2343C873.991 85.8214 873.893 85.4507 873.695 85.1223C873.498 84.7845 873.236 84.517 872.907 84.32C872.579 84.1135 872.208 84.0103 871.795 84.0103C871.42 84.0103 871.059 84.1041 870.711 84.2918C870.364 84.4701 870.083 84.7235 869.867 85.0519C869.651 85.3803 869.543 85.7604 869.543 86.1921C869.543 86.6049 869.646 86.9803 869.853 87.3181C870.059 87.6465 870.331 87.9093 870.669 88.1064C871.016 88.3034 871.387 88.4019 871.781 88.4019ZM876.473 92.7514V83.0391H877.458V84.0948C877.73 83.7382 878.059 83.452 878.444 83.2361C878.838 83.0109 879.288 82.8983 879.795 82.8983C880.377 82.8983 880.893 83.0531 881.343 83.3628C881.803 83.6631 882.16 84.0572 882.413 84.5452C882.676 85.0331 882.807 85.5633 882.807 86.1357C882.807 86.6988 882.676 87.229 882.413 87.7263C882.16 88.2143 881.803 88.6131 881.343 88.9228C880.893 89.223 880.377 89.3732 879.795 89.3732C879.457 89.3732 879.143 89.3263 878.852 89.2324C878.57 89.1292 878.312 88.9884 878.078 88.8101C877.852 88.6225 877.646 88.4113 877.458 88.1767V92.7514H876.473ZM879.64 88.3879C880.062 88.3879 880.438 88.2847 880.766 88.0782C881.094 87.8624 881.353 87.5856 881.54 87.2477C881.728 86.9005 881.822 86.5299 881.822 86.1357C881.822 85.7322 881.728 85.3616 881.54 85.0238C881.353 84.6859 881.094 84.4138 880.766 84.2074C880.438 83.9915 880.062 83.8836 879.64 83.8836C879.218 83.8836 878.842 83.9915 878.514 84.2074C878.185 84.4138 877.927 84.6859 877.74 85.0238C877.552 85.3616 877.458 85.7322 877.458 86.1357C877.458 86.5299 877.552 86.9005 877.74 87.2477C877.927 87.5856 878.185 87.8624 878.514 88.0782C878.842 88.2847 879.218 88.3879 879.64 88.3879ZM883.358 89.2324L885.526 86.1217L883.358 83.0391H884.611L886.16 85.4179L887.708 83.0391H888.961L886.793 86.1357L888.961 89.2324H887.708L886.16 86.8255L884.611 89.2324H883.358Z" fill="#666666"/>
<path d="M930.318 89.2324V80.6603H928.938V79.8016L931.303 79.5483V89.2324H930.318ZM935.992 89.3873C935.4 89.3873 934.861 89.2465 934.373 88.965C933.885 88.6835 933.496 88.3034 933.205 87.8248C932.914 87.3369 932.768 86.7926 932.768 86.1921C932.768 85.8073 932.829 85.4507 932.951 85.1223C933.073 84.7845 933.252 84.4701 933.486 84.1792L937.23 79.6609H938.525L935.598 83.1798L935.879 82.9968C936.536 83.025 937.113 83.1751 937.61 83.4473C938.117 83.7194 938.511 84.0901 938.793 84.5593C939.074 85.0191 939.215 85.5539 939.215 86.1639C939.215 86.7738 939.07 87.3228 938.779 87.8108C938.497 88.2987 938.112 88.6835 937.624 88.965C937.137 89.2465 936.592 89.3873 935.992 89.3873ZM936.006 88.4019C936.428 88.4019 936.803 88.3034 937.132 88.1064C937.47 87.9093 937.732 87.6465 937.92 87.3181C938.117 86.9897 938.216 86.6284 938.216 86.2343C938.216 85.8214 938.117 85.4507 937.92 85.1223C937.723 84.7845 937.46 84.517 937.132 84.32C936.803 84.1135 936.433 84.0103 936.02 84.0103C935.644 84.0103 935.283 84.1041 934.936 84.2918C934.589 84.4701 934.307 84.7235 934.091 85.0519C933.876 85.3803 933.768 85.7604 933.768 86.1921C933.768 86.6049 933.871 86.9803 934.077 87.3181C934.284 87.6465 934.556 87.9093 934.894 88.1064C935.241 88.3034 935.612 88.4019 936.006 88.4019ZM940.698 92.7514V83.0391H941.683V84.0948C941.955 83.7382 942.283 83.452 942.668 83.2361C943.062 83.0109 943.513 82.8983 944.019 82.8983C944.601 82.8983 945.117 83.0531 945.568 83.3628C946.028 83.6631 946.384 84.0572 946.637 84.5452C946.9 85.0331 947.032 85.5633 947.032 86.1357C947.032 86.6988 946.9 87.229 946.637 87.7263C946.384 88.2143 946.028 88.6131 945.568 88.9228C945.117 89.223 944.601 89.3732 944.019 89.3732C943.682 89.3732 943.367 89.3263 943.076 89.2324C942.795 89.1292 942.537 88.9884 942.302 88.8101C942.077 88.6225 941.87 88.4113 941.683 88.1767V92.7514H940.698ZM943.865 88.3879C944.287 88.3879 944.662 88.2847 944.991 88.0782C945.319 87.8624 945.577 87.5856 945.765 87.2477C945.952 86.9005 946.046 86.5299 946.046 86.1357C946.046 85.7322 945.952 85.3616 945.765 85.0238C945.577 84.6859 945.319 84.4138 944.991 84.2074C944.662 83.9915 944.287 83.8836 943.865 83.8836C943.442 83.8836 943.067 83.9915 942.738 84.2074C942.41 84.4138 942.152 84.6859 941.964 85.0238C941.777 85.3616 941.683 85.7322 941.683 86.1357C941.683 86.5299 941.777 86.9005 941.964 87.2477C942.152 87.5856 942.41 87.8624 942.738 88.0782C943.067 88.2847 943.442 88.3879 943.865 88.3879ZM947.583 89.2324L949.751 86.1217L947.583 83.0391H948.836L950.384 85.4179L951.933 83.0391H953.185L951.018 86.1357L953.185 89.2324H951.933L950.384 86.8255L948.836 89.2324H947.583Z" fill="#666666"/>
<path d="M385.035 72.8468C384.92 72.9614 384.92 73.147 385.035 73.2616L386.901 75.1278C387.016 75.2423 387.201 75.2423 387.316 75.1278C387.43 75.0132 387.43 74.8276 387.316 74.713L385.657 73.0542L387.316 71.3954C387.43 71.2808 387.43 71.0952 387.316 70.9806C387.201 70.8661 387.016 70.8661 386.901 70.9806L385.035 72.8468ZM430.991 73.2616C431.105 73.147 431.105 72.9614 430.991 72.8468L429.125 70.9806C429.01 70.8661 428.824 70.8661 428.71 70.9806C428.595 71.0952 428.595 71.2808 428.71 71.3954L430.369 73.0542L428.71 74.713C428.595 74.8276 428.595 75.0132 428.71 75.1278C428.824 75.2423 429.01 75.2423 429.125 75.1278L430.991 73.2616ZM385.242 73.3474H430.783V72.761H385.242V73.3474Z" fill="#666666"/>
<path d="M494.8 72.8468C494.686 72.9614 494.686 73.147 494.8 73.2616L496.667 75.1278C496.781 75.2423 496.967 75.2423 497.081 75.1278C497.196 75.0132 497.196 74.8276 497.081 74.713L495.423 73.0542L497.081 71.3954C497.196 71.2808 497.196 71.0952 497.081 70.9806C496.967 70.8661 496.781 70.8661 496.667 70.9806L494.8 72.8468ZM550.098 73.2616C550.213 73.147 550.213 72.9614 550.098 72.8468L548.232 70.9806C548.117 70.8661 547.932 70.8661 547.817 70.9806C547.703 71.0952 547.703 71.2808 547.817 71.3954L549.476 73.0542L547.817 74.713C547.703 74.8276 547.703 75.0132 547.817 75.1278C547.932 75.2423 548.117 75.2423 548.232 75.1278L550.098 73.2616ZM495.008 73.3474L549.891 73.3474V72.761L495.008 72.761V73.3474Z" fill="#666666"/>
<path d="M1075.16 72.8468C1075.05 72.9614 1075.05 73.147 1075.16 73.2616L1077.03 75.1278C1077.14 75.2423 1077.33 75.2423 1077.44 75.1278C1077.56 75.0132 1077.56 74.8276 1077.44 74.713L1075.78 73.0542L1077.44 71.3954C1077.56 71.2808 1077.56 71.0952 1077.44 70.9806C1077.33 70.8661 1077.14 70.8661 1077.03 70.9806L1075.16 72.8468ZM1130.46 73.2616C1130.57 73.147 1130.57 72.9614 1130.46 72.8468L1128.59 70.9806C1128.48 70.8661 1128.29 70.8661 1128.18 70.9806C1128.06 71.0952 1128.06 71.2808 1128.18 71.3954L1129.84 73.0542L1128.18 74.713C1128.06 74.8276 1128.06 75.0132 1128.18 75.1278C1128.29 75.2423 1128.48 75.2423 1128.59 75.1278L1130.46 73.2616ZM1075.37 73.3474L1130.25 73.3474V72.761L1075.37 72.761V73.3474Z" fill="#666666"/>
<path d="M679.3 72.8468C679.186 72.9614 679.186 73.147 679.3 73.2616L681.167 75.1278C681.281 75.2423 681.467 75.2423 681.581 75.1278C681.696 75.0132 681.696 74.8276 681.581 74.713L679.923 73.0542L681.581 71.3954C681.696 71.2808 681.696 71.0952 681.581 70.9806C681.467 70.8661 681.281 70.8661 681.167 70.9806L679.3 72.8468ZM687.889 73.2616C688.004 73.147 688.004 72.9614 687.889 72.8468L686.023 70.9806C685.909 70.8661 685.723 70.8661 685.608 70.9806C685.494 71.0952 685.494 71.2808 685.608 71.3954L687.267 73.0542L685.608 74.713C685.494 74.8276 685.494 75.0132 685.608 75.1278C685.723 75.2423 685.909 75.2423 686.023 75.1278L687.889 73.2616ZM679.508 73.3474L687.682 73.3474L687.682 72.761L679.508 72.761L679.508 73.3474Z" fill="#666666"/>
<path d="M743.527 72.8468C743.412 72.9614 743.412 73.147 743.527 73.2616L745.393 75.1278C745.508 75.2423 745.693 75.2423 745.808 75.1278C745.922 75.0132 745.922 74.8276 745.808 74.713L744.149 73.0542L745.808 71.3954C745.922 71.2808 745.922 71.0952 745.808 70.9806C745.693 70.8661 745.508 70.8661 745.393 70.9806L743.527 72.8468ZM753.284 73.2616C753.398 73.147 753.398 72.9614 753.284 72.8468L751.417 70.9806C751.303 70.8661 751.117 70.8661 751.003 70.9806C750.888 71.0952 750.888 71.2808 751.003 71.3954L752.661 73.0542L751.003 74.713C750.888 74.8276 750.888 75.0132 751.003 75.1278C751.117 75.2423 751.303 75.2423 751.417 75.1278L753.284 73.2616ZM743.734 73.3474L753.076 73.3474L753.076 72.761L743.734 72.761L743.734 73.3474Z" fill="#666666"/>
<path d="M807.752 72.8468C807.637 72.9614 807.637 73.147 807.752 73.2616L809.618 75.1278C809.732 75.2423 809.918 75.2423 810.033 75.1278C810.147 75.0132 810.147 74.8276 810.033 74.713L808.374 73.0542L810.033 71.3954C810.147 71.2808 810.147 71.0952 810.033 70.9806C809.918 70.8661 809.732 70.8661 809.618 70.9806L807.752 72.8468ZM816.34 73.2616C816.455 73.147 816.455 72.9614 816.34 72.8468L814.474 70.9806C814.36 70.8661 814.174 70.8661 814.059 70.9806C813.945 71.0952 813.945 71.2808 814.059 71.3954L815.718 73.0542L814.059 74.713C813.945 74.8276 813.945 75.0132 814.059 75.1278C814.174 75.2423 814.36 75.2423 814.474 75.1278L816.34 73.2616ZM807.959 73.3474L816.133 73.3474L816.133 72.761L807.959 72.761L807.959 73.3474Z" fill="#666666"/>
<path d="M871.976 72.8468C871.862 72.9614 871.862 73.147 871.976 73.2616L873.842 75.1278C873.957 75.2423 874.143 75.2423 874.257 75.1278C874.372 75.0132 874.372 74.8276 874.257 74.713L872.598 73.0542L874.257 71.3954C874.372 71.2808 874.372 71.0952 874.257 70.9806C874.143 70.8661 873.957 70.8661 873.842 70.9806L871.976 72.8468ZM881.733 73.2616C881.847 73.147 881.847 72.9614 881.733 72.8468L879.867 70.9806C879.752 70.8661 879.566 70.8661 879.452 70.9806C879.337 71.0952 879.337 71.2808 879.452 71.3954L881.111 73.0542L879.452 74.713C879.337 74.8276 879.337 75.0132 879.452 75.1278C879.566 75.2423 879.752 75.2423 879.867 75.1278L881.733 73.2616ZM872.184 73.3474L881.525 73.3474L881.525 72.761L872.184 72.761L872.184 73.3474Z" fill="#666666"/>
<path d="M936.201 72.8468C936.086 72.9614 936.086 73.147 936.201 73.2616L938.067 75.1278C938.182 75.2423 938.367 75.2423 938.482 75.1278C938.596 75.0132 938.596 74.8276 938.482 74.713L936.823 73.0542L938.482 71.3954C938.596 71.2808 938.596 71.0952 938.482 70.9806C938.367 70.8661 938.182 70.8661 938.067 70.9806L936.201 72.8468ZM945.957 73.2616C946.072 73.147 946.072 72.9614 945.957 72.8468L944.091 70.9806C943.977 70.8661 943.791 70.8661 943.676 70.9806C943.562 71.0952 943.562 71.2808 943.676 71.3954L945.335 73.0542L943.676 74.713C943.562 74.8276 943.562 75.0132 943.676 75.1278C943.791 75.2423 943.977 75.2423 944.091 75.1278L945.957 73.2616ZM936.408 73.3474L945.75 73.3474L945.75 72.761L936.408 72.761L936.408 73.3474Z" fill="#666666"/>
<path d="M1194.27 72.8468C1194.15 72.9614 1194.15 73.147 1194.27 73.2616L1196.13 75.1278C1196.25 75.2423 1196.43 75.2423 1196.55 75.1278C1196.66 75.0132 1196.66 74.8276 1196.55 74.713L1194.89 73.0542L1196.55 71.3954C1196.66 71.2808 1196.66 71.0952 1196.55 70.9806C1196.43 70.8661 1196.25 70.8661 1196.13 70.9806L1194.27 72.8468ZM1239.06 73.2616C1239.17 73.147 1239.17 72.9614 1239.06 72.8468L1237.19 70.9806C1237.07 70.8661 1236.89 70.8661 1236.77 70.9806C1236.66 71.0952 1236.66 71.2808 1236.77 71.3954L1238.43 73.0542L1236.77 74.713C1236.66 74.8276 1236.66 75.0132 1236.77 75.1278C1236.89 75.2423 1237.07 75.2423 1237.19 75.1278L1239.06 73.2616ZM1194.47 73.3474H1238.85V72.761H1194.47V73.3474Z" fill="#666666"/>
<defs>
<linearGradient id="paint0_linear_380_10089" x1="145.382" y1="0" x2="145.382" y2="144.927" gradientUnits="userSpaceOnUse">
<stop stop-color="white" stop-opacity="0"/>
<stop offset="1" stop-color="white"/>
</linearGradient>
<linearGradient id="paint1_linear_380_10089" x1="812.629" y1="0" x2="812.629" y2="144.927" gradientUnits="userSpaceOnUse">
<stop stop-color="white" stop-opacity="0"/>
<stop offset="1" stop-color="white"/>
</linearGradient>
<clipPath id="clip0_380_10089">
<rect width="290.763" height="144.927" rx="18.7064" fill="white"/>
</clipPath>
<clipPath id="clip1_380_10089">
<rect x="385.242" y="0.443359" width="854.774" height="144.363" rx="18.7064" fill="white"/>
</clipPath>
</defs>
</svg>
